<?xml version="1.0" encoding="UTF-8" standalone="no"?>
<!DOCTYPE svg PUBLIC "-//W3C//DTD SVG 1.1//EN"
 "http://www.w3.org/Graphics/SVG/1.1/DTD/svg11.dtd">
<!-- Generated by graphviz version 2.36.0 (20140111.2315)
 -->
<!-- Title: %3 Pages: 1 -->
<svg width="1991pt" height="1503pt"
 viewBox="0.00 0.00 1991.00 1503.00" xmlns="http://www.w3.org/2000/svg" xmlns:xlink="http://www.w3.org/1999/xlink">
<g id="graph0" class="graph" transform="scale(1 1) rotate(0) translate(4 1499)">
<title>%3</title>
<polygon fill="white" stroke="none" points="-4,4 -4,-1499 1987,-1499 1987,4 -4,4"/>
<g id="clust29" class="cluster"><title>cluster_epoch_1</title>
<polygon fill="none" stroke="black" stroke-dasharray="1,5" points="1427,-1393 1427,-1487 1975,-1487 1975,-1393 1427,-1393"/>
</g>
<g id="clust30" class="cluster"><title>cluster_epoch_1_0</title>
<polygon fill="none" stroke="black" points="1467,-1401 1467,-1479 1785,-1479 1785,-1401 1467,-1401"/>
<text text-anchor="middle" x="1626" y="-1463.8" font-family="Times,serif" font-size="14.00">Wheeler Residence: The Bad Men Are</text>
<text text-anchor="middle" x="1626" y="-1448.8" font-family="Times,serif" font-size="14.00">Coming</text>
</g>
<g id="clust31" class="cluster"><title>cluster_epoch_1_1</title>
<polygon fill="none" stroke="black" points="1793,-1401 1793,-1464 1967,-1464 1967,-1401 1793,-1401"/>
<text text-anchor="middle" x="1880" y="-1448.8" font-family="Times,serif" font-size="14.00">Hawkins: Lucas Riding Bike</text>
</g>
<g id="clust32" class="cluster"><title>cluster_epoch_2</title>
<polygon fill="none" stroke="black" stroke-dasharray="1,5" points="1309,-1291 1309,-1385 1587,-1385 1587,-1291 1309,-1291"/>
</g>
<g id="clust33" class="cluster"><title>cluster_epoch_2_0</title>
<polygon fill="none" stroke="black" points="1349,-1299 1349,-1377 1579,-1377 1579,-1299 1349,-1299"/>
<text text-anchor="middle" x="1464" y="-1361.8" font-family="Times,serif" font-size="14.00">Wheeler Residence: Mike Interrupts</text>
<text text-anchor="middle" x="1464" y="-1346.8" font-family="Times,serif" font-size="14.00">Karen&#39;s Phone Call</text>
</g>
<g id="clust34" class="cluster"><title>cluster_epoch_3</title>
<polygon fill="none" stroke="black" stroke-dasharray="1,5" points="1289,-1204 1289,-1283 1797,-1283 1797,-1204 1289,-1204"/>
</g>
<g id="clust35" class="cluster"><title>cluster_epoch_3_0</title>
<polygon fill="none" stroke="black" points="1329,-1212 1329,-1275 1789,-1275 1789,-1212 1329,-1212"/>
<text text-anchor="middle" x="1559" y="-1259.8" font-family="Times,serif" font-size="14.00">Wheeler Residence, Outside: Three Escape</text>
</g>
<g id="clust36" class="cluster"><title>cluster_epoch_4</title>
<polygon fill="none" stroke="black" stroke-dasharray="1,5" points="1431,-1087 1431,-1196 1910,-1196 1910,-1087 1431,-1087"/>
</g>
<g id="clust37" class="cluster"><title>cluster_epoch_4_0</title>
<polygon fill="none" stroke="black" points="1471,-1095 1471,-1188 1902,-1188 1902,-1095 1471,-1095"/>
<text text-anchor="middle" x="1686.5" y="-1172.8" font-family="Times,serif" font-size="14.00">Hawkins, Residential Area: Lucas Meets</text>
<text text-anchor="middle" x="1686.5" y="-1157.8" font-family="Times,serif" font-size="14.00">Up with Escapees, Eleven Flips a Van</text>
<text text-anchor="middle" x="1686.5" y="-1142.8" font-family="Times,serif" font-size="14.00">Into the Air</text>
</g>
<g id="clust38" class="cluster"><title>cluster_epoch_5</title>
<polygon fill="none" stroke="black" stroke-dasharray="1,5" points="221,-970 221,-1079 1910,-1079 1910,-970 221,-970"/>
</g>
<g id="clust39" class="cluster"><title>cluster_epoch_5_0</title>
<polygon fill="none" stroke="black" points="1471,-978 1471,-1041 1902,-1041 1902,-978 1471,-978"/>
<text text-anchor="middle" x="1686.5" y="-1025.8" font-family="Times,serif" font-size="14.00">Junkyard: Lucas Makes Up to Mike</text>
</g>
<g id="clust40" class="cluster"><title>cluster_epoch_5_1</title>
<polygon fill="none" stroke="black" points="229,-978 229,-1071 905,-1071 905,-978 229,-978"/>
<text text-anchor="middle" x="567" y="-1055.8" font-family="Times,serif" font-size="14.00">Hawkins Police Station: Joyce &amp; Hopper</text>
<text text-anchor="middle" x="567" y="-1040.8" font-family="Times,serif" font-size="14.00">join Jonathan and Nancy at the Police</text>
<text text-anchor="middle" x="567" y="-1025.8" font-family="Times,serif" font-size="14.00">Station</text>
</g>
<g id="clust41" class="cluster"><title>cluster_epoch_5_2</title>
<polygon fill="none" stroke="black" points="913,-978 913,-1071 1429,-1071 1429,-978 913,-978"/>
<text text-anchor="middle" x="1171" y="-1055.8" font-family="Times,serif" font-size="14.00">Wheeler Residence: Karen Checks</text>
<text text-anchor="middle" x="1171" y="-1040.8" font-family="Times,serif" font-size="14.00">Basement, Ted &amp; Karen Answer Door to</text>
<text text-anchor="middle" x="1171" y="-1025.8" font-family="Times,serif" font-size="14.00">Hawkins Personnel, Brenner Interrogates</text>
</g>
<g id="clust42" class="cluster"><title>cluster_epoch_6</title>
<polygon fill="none" stroke="black" stroke-dasharray="1,5" points="335,-838 335,-962 1508,-962 1508,-838 335,-838"/>
</g>
<g id="clust43" class="cluster"><title>cluster_epoch_6_0</title>
<polygon fill="none" stroke="black" points="1069,-846 1069,-924 1500,-924 1500,-846 1069,-846"/>
<text text-anchor="middle" x="1284.5" y="-908.8" font-family="Times,serif" font-size="14.00">Junkyard: Planning Entrance to Lab &amp;</text>
<text text-anchor="middle" x="1284.5" y="-893.8" font-family="Times,serif" font-size="14.00">Hiding in Old Bus from Helicopter</text>
</g>
<g id="clust44" class="cluster"><title>cluster_epoch_6_1</title>
<polygon fill="none" stroke="black" points="343,-846 343,-954 1027,-954 1027,-846 343,-846"/>
<text text-anchor="middle" x="685" y="-938.8" font-family="Times,serif" font-size="14.00">Hawkins Police Station: Hopper &amp; Joyce</text>
<text text-anchor="middle" x="685" y="-923.8" font-family="Times,serif" font-size="14.00">Question Jon &amp; Nancy, Troy and Troy&#39;s</text>
<text text-anchor="middle" x="685" y="-908.8" font-family="Times,serif" font-size="14.00">Mom Complain to Powell &amp; Callahan, Flo</text>
<text text-anchor="middle" x="685" y="-893.8" font-family="Times,serif" font-size="14.00">Looks On</text>
</g>
<g id="clust45" class="cluster"><title>cluster_epoch_7</title>
<polygon fill="none" stroke="black" stroke-dasharray="1,5" points="645,-721 645,-830 981,-830 981,-721 645,-721"/>
</g>
<g id="clust46" class="cluster"><title>cluster_epoch_7_0</title>
<polygon fill="none" stroke="black" points="685,-729 685,-822 973,-822 973,-729 685,-729"/>
<text text-anchor="middle" x="829" y="-806.8" font-family="Times,serif" font-size="14.00">Hawkins Convenience Store Parking Lot:</text>
<text text-anchor="middle" x="829" y="-791.8" font-family="Times,serif" font-size="14.00">Tommy and Carol Argue with Steve, Steve</text>
<text text-anchor="middle" x="829" y="-776.8" font-family="Times,serif" font-size="14.00">Drives Off</text>
</g>
<g id="clust47" class="cluster"><title>cluster_epoch_8</title>
<polygon fill="none" stroke="black" stroke-dasharray="1,5" points="989,-721 989,-830 1474,-830 1474,-721 989,-721"/>
</g>
<g id="clust48" class="cluster"><title>cluster_epoch_8_0</title>
<polygon fill="none" stroke="black" points="1029,-729 1029,-822 1466,-822 1466,-729 1029,-729"/>
<text text-anchor="middle" x="1247.5" y="-806.8" font-family="Times,serif" font-size="14.00">Wheeler Residence: Hopper, Nancy, Joyce</text>
<text text-anchor="middle" x="1247.5" y="-791.8" font-family="Times,serif" font-size="14.00">&amp; Jon Watch as Men in Black Remove</text>
<text text-anchor="middle" x="1247.5" y="-776.8" font-family="Times,serif" font-size="14.00">Belongings from the Basement</text>
</g>
<g id="clust49" class="cluster"><title>cluster_epoch_9</title>
<polygon fill="none" stroke="black" stroke-dasharray="1,5" points="246,-619 246,-713 1704,-713 1704,-619 246,-619"/>
</g>
<g id="clust50" class="cluster"><title>cluster_epoch_9_0</title>
<polygon fill="none" stroke="black" points="1029,-627 1029,-690 1466,-690 1466,-627 1029,-627"/>
<text text-anchor="middle" x="1247.5" y="-674.8" font-family="Times,serif" font-size="14.00">Wheeler Residence: Nancy Radios Mike</text>
</g>
<g id="clust51" class="cluster"><title>cluster_epoch_9_1</title>
<polygon fill="none" stroke="black" points="254,-627 254,-690 685,-690 685,-627 254,-627"/>
<text text-anchor="middle" x="469.5" y="-674.8" font-family="Times,serif" font-size="14.00">Junkyard: Mike is Afraid to Answer</text>
</g>
<g id="clust52" class="cluster"><title>cluster_epoch_9_2</title>
<polygon fill="none" stroke="black" points="693,-627 693,-705 987,-705 987,-627 693,-627"/>
<text text-anchor="middle" x="840" y="-689.8" font-family="Times,serif" font-size="14.00">Hawkins Downtown: Steve Helps Clean Off</text>
<text text-anchor="middle" x="840" y="-674.8" font-family="Times,serif" font-size="14.00">Graffiti at Movie Theater</text>
</g>
<g id="clust53" class="cluster"><title>cluster_epoch_9_3</title>
<polygon fill="none" stroke="black" points="1474,-627 1474,-705 1696,-705 1696,-627 1474,-627"/>
<text text-anchor="middle" x="1585" y="-689.8" font-family="Times,serif" font-size="14.00">Wheeler Residence: Ted and Karen</text>
<text text-anchor="middle" x="1585" y="-674.8" font-family="Times,serif" font-size="14.00">Speculate</text>
</g>
<g id="clust54" class="cluster"><title>cluster_epoch_10</title>
<polygon fill="none" stroke="black" stroke-dasharray="1,5" points="141,-431 141,-611 1027,-611 1027,-431 141,-431"/>
</g>
<g id="clust55" class="cluster"><title>cluster_epoch_10_0</title>
<polygon fill="none" stroke="black" points="457,-525 457,-603 987,-603 987,-525 457,-525"/>
<text text-anchor="middle" x="722" y="-587.8" font-family="Times,serif" font-size="14.00">Junkyard: Men with Stun Guns Appear,</text>
<text text-anchor="middle" x="722" y="-572.8" font-family="Times,serif" font-size="14.00">Hopper Knocks Them Out and Rescues Kids</text>
</g>
<g id="clust56" class="cluster"><title>cluster_epoch_10_1</title>
<polygon fill="none" stroke="black" points="149,-439 149,-517 1019,-517 1019,-439 149,-439"/>
<text text-anchor="middle" x="584" y="-501.8" font-family="Times,serif" font-size="14.00">Byers Residence: Eleven Tries to Find</text>
<text text-anchor="middle" x="584" y="-486.8" font-family="Times,serif" font-size="14.00">Barb &amp; Will, Gets Idea</text>
</g>
<g id="clust57" class="cluster"><title>cluster_epoch_11</title>
<polygon fill="none" stroke="black" stroke-dasharray="1,5" points="979,-314 979,-423 1479,-423 1479,-314 979,-314"/>
</g>
<g id="clust58" class="cluster"><title>cluster_epoch_11_0</title>
<polygon fill="none" stroke="black" points="1256,-322 1256,-415 1471,-415 1471,-322 1256,-322"/>
<text text-anchor="middle" x="1363.5" y="-399.8" font-family="Times,serif" font-size="14.00">Byers Residence: Dustin Gets</text>
<text text-anchor="middle" x="1363.5" y="-384.8" font-family="Times,serif" font-size="14.00">Instructions for Sensory Deprivation</text>
<text text-anchor="middle" x="1363.5" y="-369.8" font-family="Times,serif" font-size="14.00">Tank</text>
</g>
<g id="clust59" class="cluster"><title>cluster_epoch_11_1</title>
<polygon fill="none" stroke="black" points="1017,-322 1017,-400 1248,-400 1248,-322 1017,-322"/>
<text text-anchor="middle" x="1132.5" y="-384.8" font-family="Times,serif" font-size="14.00">Clarke Residence: Mr. Clarke Answers</text>
<text text-anchor="middle" x="1132.5" y="-369.8" font-family="Times,serif" font-size="14.00">Phone While Entertaining a Girl</text>
</g>
<g id="clust60" class="cluster"><title>cluster_epoch_12</title>
<polygon fill="none" stroke="black" stroke-dasharray="1,5" points="141,-212 141,-306 1058,-306 1058,-212 141,-212"/>
</g>
<g id="clust61" class="cluster"><title>cluster_epoch_12_0</title>
<polygon fill="none" stroke="black" points="149,-220 149,-298 1019,-298 1019,-220 149,-220"/>
<text text-anchor="middle" x="584" y="-282.8" font-family="Times,serif" font-size="14.00">Hawkins Middle School: The Bathtub is</text>
<text text-anchor="middle" x="584" y="-267.8" font-family="Times,serif" font-size="14.00">Prepared</text>
</g>
<g id="clust62" class="cluster"><title>cluster_epoch_13</title>
<polygon fill="none" stroke="black" stroke-dasharray="1,5" points="8,-110 8,-204 346,-204 346,-110 8,-110"/>
</g>
<g id="clust63" class="cluster"><title>cluster_epoch_13_0</title>
<polygon fill="none" stroke="black" points="16,-118 16,-196 306,-196 306,-118 16,-118"/>
<text text-anchor="middle" x="161" y="-180.8" font-family="Times,serif" font-size="14.00">Upside Down: Eleven Finds Barb Dead and</text>
<text text-anchor="middle" x="161" y="-165.8" font-family="Times,serif" font-size="14.00">Encounters Will</text>
</g>
<g id="clust64" class="cluster"><title>cluster_epoch_14</title>
<polygon fill="none" stroke="black" stroke-dasharray="1,5" points="27,-8 27,-102 789,-102 789,-8 27,-8"/>
</g>
<g id="clust65" class="cluster"><title>cluster_epoch_14_0</title>
<polygon fill="none" stroke="black" points="304,-16 304,-94 558,-94 558,-16 304,-16"/>
<text text-anchor="middle" x="431" y="-78.8" font-family="Times,serif" font-size="14.00">Hawkins Police Station: Jonathan &amp; Nancy</text>
<text text-anchor="middle" x="431" y="-63.8" font-family="Times,serif" font-size="14.00">Get Their Traps from the Police Station</text>
</g>
<g id="clust66" class="cluster"><title>cluster_epoch_14_1</title>
<polygon fill="none" stroke="black" points="566,-16 566,-94 781,-94 781,-16 566,-16"/>
<text text-anchor="middle" x="673.5" y="-78.8" font-family="Times,serif" font-size="14.00">Hawkins Lab: Hopper and Joyce are</text>
<text text-anchor="middle" x="673.5" y="-63.8" font-family="Times,serif" font-size="14.00">Apprehended at the Labs</text>
</g>
<g id="clust67" class="cluster"><title>cluster_epoch_14_2</title>
<polygon fill="none" stroke="black" points="35,-16 35,-94 266,-94 266,-16 35,-16"/>
<text text-anchor="middle" x="150.5" y="-78.8" font-family="Times,serif" font-size="14.00">Upside Down: Will is Attacked by The</text>
<text text-anchor="middle" x="150.5" y="-63.8" font-family="Times,serif" font-size="14.00">Monster</text>
</g>
<!-- epoch_1 -->
<!-- epoch_2 -->
<!-- epoch_1&#45;&gt;epoch_2 -->
<!-- epoch_3 -->
<!-- epoch_2&#45;&gt;epoch_3 -->
<!-- epoch_4 -->
<!-- epoch_3&#45;&gt;epoch_4 -->
<!-- epoch_5 -->
<!-- epoch_4&#45;&gt;epoch_5 -->
<!-- epoch_6 -->
<!-- epoch_5&#45;&gt;epoch_6 -->
<!-- epoch_7 -->
<!-- epoch_6&#45;&gt;epoch_7 -->
<!-- epoch_8 -->
<!-- epoch_7&#45;&gt;epoch_8 -->
<!-- epoch_9 -->
<!-- epoch_8&#45;&gt;epoch_9 -->
<!-- epoch_10 -->
<!-- epoch_9&#45;&gt;epoch_10 -->
<!-- epoch_11 -->
<!-- epoch_10&#45;&gt;epoch_11 -->
<!-- epoch_12 -->
<!-- epoch_11&#45;&gt;epoch_12 -->
<!-- epoch_13 -->
<!-- epoch_12&#45;&gt;epoch_13 -->
<!-- epoch_14 -->
<!-- epoch_13&#45;&gt;epoch_14 -->
<!-- Nancy_epoch_5_1 -->
<g id="node15" class="node"><title>Nancy_epoch_5_1</title>
<path fill="none" stroke="#1b9e77" d="M888.833,-1009.5C888.833,-1009.5 803.167,-1009.5 803.167,-1009.5 799.333,-1009.5 795.5,-1005.67 795.5,-1001.83 795.5,-1001.83 795.5,-994.167 795.5,-994.167 795.5,-990.333 799.333,-986.5 803.167,-986.5 803.167,-986.5 888.833,-986.5 888.833,-986.5 892.667,-986.5 896.5,-990.333 896.5,-994.167 896.5,-994.167 896.5,-1001.83 896.5,-1001.83 896.5,-1005.67 892.667,-1009.5 888.833,-1009.5"/>
<text text-anchor="middle" x="846" y="-994.3" font-family="Times,serif" font-size="14.00">Nancy Wheeler</text>
</g>
<!-- Nancy_epoch_6_1 -->
<g id="node16" class="node"><title>Nancy_epoch_6_1</title>
<path fill="none" stroke="#1b9e77" d="M1010.83,-877.5C1010.83,-877.5 925.167,-877.5 925.167,-877.5 921.333,-877.5 917.5,-873.667 917.5,-869.833 917.5,-869.833 917.5,-862.167 917.5,-862.167 917.5,-858.333 921.333,-854.5 925.167,-854.5 925.167,-854.5 1010.83,-854.5 1010.83,-854.5 1014.67,-854.5 1018.5,-858.333 1018.5,-862.167 1018.5,-862.167 1018.5,-869.833 1018.5,-869.833 1018.5,-873.667 1014.67,-877.5 1010.83,-877.5"/>
<text text-anchor="middle" x="968" y="-862.3" font-family="Times,serif" font-size="14.00">Nancy Wheeler</text>
</g>
<!-- Nancy_epoch_5_1&#45;&gt;Nancy_epoch_6_1 -->
<g id="edge14" class="edge"><title>Nancy_epoch_5_1&#45;&gt;Nancy_epoch_6_1</title>
<path fill="none" stroke="#1b9e77" d="M871.11,-986.37C883.199,-980.417 897.345,-972.141 908,-962 934.847,-936.447 954.894,-896.494 963.446,-877.592"/>
</g>
<!-- Nancy_epoch_8_0 -->
<g id="node17" class="node"><title>Nancy_epoch_8_0</title>
<path fill="none" stroke="#1b9e77" d="M1449.83,-760.5C1449.83,-760.5 1364.17,-760.5 1364.17,-760.5 1360.33,-760.5 1356.5,-756.667 1356.5,-752.833 1356.5,-752.833 1356.5,-745.167 1356.5,-745.167 1356.5,-741.333 1360.33,-737.5 1364.17,-737.5 1364.17,-737.5 1449.83,-737.5 1449.83,-737.5 1453.67,-737.5 1457.5,-741.333 1457.5,-745.167 1457.5,-745.167 1457.5,-752.833 1457.5,-752.833 1457.5,-756.667 1453.67,-760.5 1449.83,-760.5"/>
<text text-anchor="middle" x="1407" y="-745.3" font-family="Times,serif" font-size="14.00">Nancy Wheeler</text>
</g>
<!-- Nancy_epoch_6_1&#45;&gt;Nancy_epoch_8_0 -->
<g id="edge15" class="edge"><title>Nancy_epoch_6_1&#45;&gt;Nancy_epoch_8_0</title>
<path fill="none" stroke="#1b9e77" d="M984.285,-854.486C994.637,-848.418 1008.57,-841.344 1022,-838 1057.05,-829.269 1314.89,-846.551 1347,-830 1376.01,-815.045 1394.77,-778.911 1402.69,-760.769"/>
</g>
<!-- Nancy_epoch_9_0 -->
<g id="node18" class="node"><title>Nancy_epoch_9_0</title>
<path fill="none" stroke="#1b9e77" d="M1449.83,-658.5C1449.83,-658.5 1364.17,-658.5 1364.17,-658.5 1360.33,-658.5 1356.5,-654.667 1356.5,-650.833 1356.5,-650.833 1356.5,-643.167 1356.5,-643.167 1356.5,-639.333 1360.33,-635.5 1364.17,-635.5 1364.17,-635.5 1449.83,-635.5 1449.83,-635.5 1453.67,-635.5 1457.5,-639.333 1457.5,-643.167 1457.5,-643.167 1457.5,-650.833 1457.5,-650.833 1457.5,-654.667 1453.67,-658.5 1449.83,-658.5"/>
<text text-anchor="middle" x="1407" y="-643.3" font-family="Times,serif" font-size="14.00">Nancy Wheeler</text>
</g>
<!-- Nancy_epoch_8_0&#45;&gt;Nancy_epoch_9_0 -->
<g id="edge16" class="edge"><title>Nancy_epoch_8_0&#45;&gt;Nancy_epoch_9_0</title>
<path fill="none" stroke="#1b9e77" d="M1407,-737.298C1407,-718.051 1407,-677.816 1407,-658.625"/>
</g>
<!-- Nancy_epoch_10_1 -->
<g id="node19" class="node"><title>Nancy_epoch_10_1</title>
<path fill="none" stroke="#1b9e77" d="M470.833,-470.5C470.833,-470.5 385.167,-470.5 385.167,-470.5 381.333,-470.5 377.5,-466.667 377.5,-462.833 377.5,-462.833 377.5,-455.167 377.5,-455.167 377.5,-451.333 381.333,-447.5 385.167,-447.5 385.167,-447.5 470.833,-447.5 470.833,-447.5 474.667,-447.5 478.5,-451.333 478.5,-455.167 478.5,-455.167 478.5,-462.833 478.5,-462.833 478.5,-466.667 474.667,-470.5 470.833,-470.5"/>
<text text-anchor="middle" x="428" y="-455.3" font-family="Times,serif" font-size="14.00">Nancy Wheeler</text>
</g>
<!-- Nancy_epoch_9_0&#45;&gt;Nancy_epoch_10_1 -->
<g id="edge17" class="edge"><title>Nancy_epoch_9_0&#45;&gt;Nancy_epoch_10_1</title>
<path fill="none" stroke="#1b9e77" d="M1388.45,-635.405C1376.69,-629.307 1360.94,-622.229 1346,-619 1333.88,-616.38 462.424,-619.065 453,-611 411.209,-575.236 420.656,-498.582 425.804,-470.548"/>
</g>
<!-- Nancy_epoch_12_0 -->
<g id="node20" class="node"><title>Nancy_epoch_12_0</title>
<path fill="none" stroke="#1b9e77" d="M470.833,-251.5C470.833,-251.5 385.167,-251.5 385.167,-251.5 381.333,-251.5 377.5,-247.667 377.5,-243.833 377.5,-243.833 377.5,-236.167 377.5,-236.167 377.5,-232.333 381.333,-228.5 385.167,-228.5 385.167,-228.5 470.833,-228.5 470.833,-228.5 474.667,-228.5 478.5,-232.333 478.5,-236.167 478.5,-236.167 478.5,-243.833 478.5,-243.833 478.5,-247.667 474.667,-251.5 470.833,-251.5"/>
<text text-anchor="middle" x="428" y="-236.3" font-family="Times,serif" font-size="14.00">Nancy Wheeler</text>
</g>
<!-- Nancy_epoch_10_1&#45;&gt;Nancy_epoch_12_0 -->
<g id="edge18" class="edge"><title>Nancy_epoch_10_1&#45;&gt;Nancy_epoch_12_0</title>
<path fill="none" stroke="#1b9e77" d="M428,-447.239C428,-410.294 428,-288.869 428,-251.826"/>
</g>
<!-- Nancy_epoch_14_0 -->
<g id="node21" class="node"><title>Nancy_epoch_14_0</title>
<path fill="none" stroke="#1b9e77" d="M526.833,-47.5C526.833,-47.5 441.167,-47.5 441.167,-47.5 437.333,-47.5 433.5,-43.6667 433.5,-39.8333 433.5,-39.8333 433.5,-32.1667 433.5,-32.1667 433.5,-28.3333 437.333,-24.5 441.167,-24.5 441.167,-24.5 526.833,-24.5 526.833,-24.5 530.667,-24.5 534.5,-28.3333 534.5,-32.1667 534.5,-32.1667 534.5,-39.8333 534.5,-39.8333 534.5,-43.6667 530.667,-47.5 526.833,-47.5"/>
<text text-anchor="middle" x="484" y="-32.3" font-family="Times,serif" font-size="14.00">Nancy Wheeler</text>
</g>
<!-- Nancy_epoch_12_0&#45;&gt;Nancy_epoch_14_0 -->
<g id="edge19" class="edge"><title>Nancy_epoch_12_0&#45;&gt;Nancy_epoch_14_0</title>
<path fill="none" stroke="#1b9e77" d="M430.932,-228.424C440.564,-193.68 471.176,-83.2581 480.961,-47.9612"/>
</g>
<!-- Ted_epoch_5_2 -->
<g id="node22" class="node"><title>Ted_epoch_5_2</title>
<path fill="none" stroke="#d95f02" d="M1000.83,-1009.5C1000.83,-1009.5 929.167,-1009.5 929.167,-1009.5 925.333,-1009.5 921.5,-1005.67 921.5,-1001.83 921.5,-1001.83 921.5,-994.167 921.5,-994.167 921.5,-990.333 925.333,-986.5 929.167,-986.5 929.167,-986.5 1000.83,-986.5 1000.83,-986.5 1004.67,-986.5 1008.5,-990.333 1008.5,-994.167 1008.5,-994.167 1008.5,-1001.83 1008.5,-1001.83 1008.5,-1005.67 1004.67,-1009.5 1000.83,-1009.5"/>
<text text-anchor="middle" x="965" y="-994.3" font-family="Times,serif" font-size="14.00">Ted Wheeler</text>
</g>
<!-- Ted_epoch_9_3 -->
<g id="node23" class="node"><title>Ted_epoch_9_3</title>
<path fill="none" stroke="#d95f02" d="M1561.83,-658.5C1561.83,-658.5 1490.17,-658.5 1490.17,-658.5 1486.33,-658.5 1482.5,-654.667 1482.5,-650.833 1482.5,-650.833 1482.5,-643.167 1482.5,-643.167 1482.5,-639.333 1486.33,-635.5 1490.17,-635.5 1490.17,-635.5 1561.83,-635.5 1561.83,-635.5 1565.67,-635.5 1569.5,-639.333 1569.5,-643.167 1569.5,-643.167 1569.5,-650.833 1569.5,-650.833 1569.5,-654.667 1565.67,-658.5 1561.83,-658.5"/>
<text text-anchor="middle" x="1526" y="-643.3" font-family="Times,serif" font-size="14.00">Ted Wheeler</text>
</g>
<!-- Ted_epoch_5_2&#45;&gt;Ted_epoch_9_3 -->
<g id="edge20" class="edge"><title>Ted_epoch_5_2&#45;&gt;Ted_epoch_9_3</title>
<path fill="none" stroke="#d95f02" d="M980.948,-986.449C991.094,-980.366 1004.77,-973.291 1018,-970 1031.1,-966.741 1494.2,-971.289 1504,-962 1592.05,-878.54 1543.93,-703.699 1529.6,-658.728"/>
</g>
<!-- Eleven_epoch_1_0 -->
<g id="node24" class="node"><title>Eleven_epoch_1_0</title>
<path fill="none" stroke="#7570b3" d="M1635.33,-1432.5C1635.33,-1432.5 1596.67,-1432.5 1596.67,-1432.5 1592.83,-1432.5 1589,-1428.67 1589,-1424.83 1589,-1424.83 1589,-1417.17 1589,-1417.17 1589,-1413.33 1592.83,-1409.5 1596.67,-1409.5 1596.67,-1409.5 1635.33,-1409.5 1635.33,-1409.5 1639.17,-1409.5 1643,-1413.33 1643,-1417.17 1643,-1417.17 1643,-1424.83 1643,-1424.83 1643,-1428.67 1639.17,-1432.5 1635.33,-1432.5"/>
<text text-anchor="middle" x="1616" y="-1417.3" font-family="Times,serif" font-size="14.00">Eleven</text>
</g>
<!-- Eleven_epoch_3_0 -->
<g id="node25" class="node"><title>Eleven_epoch_3_0</title>
<path fill="none" stroke="#7570b3" d="M1639.33,-1243.5C1639.33,-1243.5 1600.67,-1243.5 1600.67,-1243.5 1596.83,-1243.5 1593,-1239.67 1593,-1235.83 1593,-1235.83 1593,-1228.17 1593,-1228.17 1593,-1224.33 1596.83,-1220.5 1600.67,-1220.5 1600.67,-1220.5 1639.33,-1220.5 1639.33,-1220.5 1643.17,-1220.5 1647,-1224.33 1647,-1228.17 1647,-1228.17 1647,-1235.83 1647,-1235.83 1647,-1239.67 1643.17,-1243.5 1639.33,-1243.5"/>
<text text-anchor="middle" x="1620" y="-1228.3" font-family="Times,serif" font-size="14.00">Eleven</text>
</g>
<!-- Eleven_epoch_1_0&#45;&gt;Eleven_epoch_3_0 -->
<g id="edge21" class="edge"><title>Eleven_epoch_1_0&#45;&gt;Eleven_epoch_3_0</title>
<path fill="none" stroke="#7570b3" d="M1616.23,-1409.41C1616.93,-1376.65 1619.06,-1277.17 1619.77,-1243.94"/>
</g>
<!-- Eleven_epoch_4_0 -->
<g id="node26" class="node"><title>Eleven_epoch_4_0</title>
<path fill="none" stroke="#7570b3" d="M1639.33,-1126.5C1639.33,-1126.5 1600.67,-1126.5 1600.67,-1126.5 1596.83,-1126.5 1593,-1122.67 1593,-1118.83 1593,-1118.83 1593,-1111.17 1593,-1111.17 1593,-1107.33 1596.83,-1103.5 1600.67,-1103.5 1600.67,-1103.5 1639.33,-1103.5 1639.33,-1103.5 1643.17,-1103.5 1647,-1107.33 1647,-1111.17 1647,-1111.17 1647,-1118.83 1647,-1118.83 1647,-1122.67 1643.17,-1126.5 1639.33,-1126.5"/>
<text text-anchor="middle" x="1620" y="-1111.3" font-family="Times,serif" font-size="14.00">Eleven</text>
</g>
<!-- Eleven_epoch_3_0&#45;&gt;Eleven_epoch_4_0 -->
<g id="edge22" class="edge"><title>Eleven_epoch_3_0&#45;&gt;Eleven_epoch_4_0</title>
<path fill="none" stroke="#7570b3" d="M1620,-1220.39C1620,-1198.48 1620,-1148.47 1620,-1126.59"/>
</g>
<!-- Eleven_epoch_5_0 -->
<g id="node27" class="node"><title>Eleven_epoch_5_0</title>
<path fill="none" stroke="#7570b3" d="M1639.33,-1009.5C1639.33,-1009.5 1600.67,-1009.5 1600.67,-1009.5 1596.83,-1009.5 1593,-1005.67 1593,-1001.83 1593,-1001.83 1593,-994.167 1593,-994.167 1593,-990.333 1596.83,-986.5 1600.67,-986.5 1600.67,-986.5 1639.33,-986.5 1639.33,-986.5 1643.17,-986.5 1647,-990.333 1647,-994.167 1647,-994.167 1647,-1001.83 1647,-1001.83 1647,-1005.67 1643.17,-1009.5 1639.33,-1009.5"/>
<text text-anchor="middle" x="1620" y="-994.3" font-family="Times,serif" font-size="14.00">Eleven</text>
</g>
<!-- Eleven_epoch_4_0&#45;&gt;Eleven_epoch_5_0 -->
<g id="edge23" class="edge"><title>Eleven_epoch_4_0&#45;&gt;Eleven_epoch_5_0</title>
<path fill="none" stroke="#7570b3" d="M1620,-1103.39C1620,-1081.48 1620,-1031.47 1620,-1009.59"/>
</g>
<!-- Eleven_epoch_6_0 -->
<g id="node28" class="node"><title>Eleven_epoch_6_0</title>
<path fill="none" stroke="#7570b3" d="M1237.33,-877.5C1237.33,-877.5 1198.67,-877.5 1198.67,-877.5 1194.83,-877.5 1191,-873.667 1191,-869.833 1191,-869.833 1191,-862.167 1191,-862.167 1191,-858.333 1194.83,-854.5 1198.67,-854.5 1198.67,-854.5 1237.33,-854.5 1237.33,-854.5 1241.17,-854.5 1245,-858.333 1245,-862.167 1245,-862.167 1245,-869.833 1245,-869.833 1245,-873.667 1241.17,-877.5 1237.33,-877.5"/>
<text text-anchor="middle" x="1218" y="-862.3" font-family="Times,serif" font-size="14.00">Eleven</text>
</g>
<!-- Eleven_epoch_5_0&#45;&gt;Eleven_epoch_6_0 -->
<g id="edge24" class="edge"><title>Eleven_epoch_5_0&#45;&gt;Eleven_epoch_6_0</title>
<path fill="none" stroke="#7570b3" d="M1609.4,-986.235C1602.73,-980.239 1593.6,-973.328 1584,-970 1566.67,-963.99 1268.96,-972.602 1254,-962 1226.08,-942.219 1219.8,-897.862 1218.4,-877.537"/>
</g>
<!-- Eleven_epoch_9_1 -->
<g id="node29" class="node"><title>Eleven_epoch_9_1</title>
<path fill="none" stroke="#7570b3" d="M422.333,-658.5C422.333,-658.5 383.667,-658.5 383.667,-658.5 379.833,-658.5 376,-654.667 376,-650.833 376,-650.833 376,-643.167 376,-643.167 376,-639.333 379.833,-635.5 383.667,-635.5 383.667,-635.5 422.333,-635.5 422.333,-635.5 426.167,-635.5 430,-639.333 430,-643.167 430,-643.167 430,-650.833 430,-650.833 430,-654.667 426.167,-658.5 422.333,-658.5"/>
<text text-anchor="middle" x="403" y="-643.3" font-family="Times,serif" font-size="14.00">Eleven</text>
</g>
<!-- Eleven_epoch_6_0&#45;&gt;Eleven_epoch_9_1 -->
<g id="edge25" class="edge"><title>Eleven_epoch_6_0&#45;&gt;Eleven_epoch_9_1</title>
<path fill="none" stroke="#7570b3" d="M1207.72,-854.47C1201.03,-848.396 1191.76,-841.321 1182,-838 1147.81,-826.369 564.428,-845.895 532,-830 457.927,-793.692 417.812,-691.808 406.426,-658.606"/>
</g>
<!-- Eleven_epoch_10_0 -->
<g id="node30" class="node"><title>Eleven_epoch_10_0</title>
<path fill="none" stroke="#7570b3" d="M625.333,-556.5C625.333,-556.5 586.667,-556.5 586.667,-556.5 582.833,-556.5 579,-552.667 579,-548.833 579,-548.833 579,-541.167 579,-541.167 579,-537.333 582.833,-533.5 586.667,-533.5 586.667,-533.5 625.333,-533.5 625.333,-533.5 629.167,-533.5 633,-537.333 633,-541.167 633,-541.167 633,-548.833 633,-548.833 633,-552.667 629.167,-556.5 625.333,-556.5"/>
<text text-anchor="middle" x="606" y="-541.3" font-family="Times,serif" font-size="14.00">Eleven</text>
</g>
<!-- Eleven_epoch_9_1&#45;&gt;Eleven_epoch_10_0 -->
<g id="edge26" class="edge"><title>Eleven_epoch_9_1&#45;&gt;Eleven_epoch_10_0</title>
<path fill="none" stroke="#7570b3" d="M413.65,-635.363C420.333,-629.412 429.467,-622.504 439,-619 466.375,-608.938 545.336,-626.566 570,-611 589.636,-598.607 599.457,-571.507 603.557,-556.508"/>
</g>
<!-- Eleven_epoch_10_1 -->
<g id="node31" class="node"><title>Eleven_epoch_10_1</title>
<path fill="none" stroke="#7570b3" d="M657.333,-470.5C657.333,-470.5 618.667,-470.5 618.667,-470.5 614.833,-470.5 611,-466.667 611,-462.833 611,-462.833 611,-455.167 611,-455.167 611,-451.333 614.833,-447.5 618.667,-447.5 618.667,-447.5 657.333,-447.5 657.333,-447.5 661.167,-447.5 665,-451.333 665,-455.167 665,-455.167 665,-462.833 665,-462.833 665,-466.667 661.167,-470.5 657.333,-470.5"/>
<text text-anchor="middle" x="638" y="-455.3" font-family="Times,serif" font-size="14.00">Eleven</text>
</g>
<!-- Eleven_epoch_10_0&#45;&gt;Eleven_epoch_10_1 -->
<g id="edge27" class="edge"><title>Eleven_epoch_10_0&#45;&gt;Eleven_epoch_10_1</title>
<path fill="none" stroke="#7570b3" d="M610.053,-533.361C616.208,-517.204 627.844,-486.659 633.98,-470.552"/>
</g>
<!-- Eleven_epoch_12_0 -->
<g id="node32" class="node"><title>Eleven_epoch_12_0</title>
<path fill="none" stroke="#7570b3" d="M657.333,-251.5C657.333,-251.5 618.667,-251.5 618.667,-251.5 614.833,-251.5 611,-247.667 611,-243.833 611,-243.833 611,-236.167 611,-236.167 611,-232.333 614.833,-228.5 618.667,-228.5 618.667,-228.5 657.333,-228.5 657.333,-228.5 661.167,-228.5 665,-232.333 665,-236.167 665,-236.167 665,-243.833 665,-243.833 665,-247.667 661.167,-251.5 657.333,-251.5"/>
<text text-anchor="middle" x="638" y="-236.3" font-family="Times,serif" font-size="14.00">Eleven</text>
</g>
<!-- Eleven_epoch_10_1&#45;&gt;Eleven_epoch_12_0 -->
<g id="edge28" class="edge"><title>Eleven_epoch_10_1&#45;&gt;Eleven_epoch_12_0</title>
<path fill="none" stroke="#7570b3" d="M638,-447.239C638,-410.294 638,-288.869 638,-251.826"/>
</g>
<!-- Eleven_epoch_13_0 -->
<g id="node33" class="node"><title>Eleven_epoch_13_0</title>
<path fill="none" stroke="#7570b3" d="M290.333,-149.5C290.333,-149.5 251.667,-149.5 251.667,-149.5 247.833,-149.5 244,-145.667 244,-141.833 244,-141.833 244,-134.167 244,-134.167 244,-130.333 247.833,-126.5 251.667,-126.5 251.667,-126.5 290.333,-126.5 290.333,-126.5 294.167,-126.5 298,-130.333 298,-134.167 298,-134.167 298,-141.833 298,-141.833 298,-145.667 294.167,-149.5 290.333,-149.5"/>
<text text-anchor="middle" x="271" y="-134.3" font-family="Times,serif" font-size="14.00">Eleven</text>
</g>
<!-- Eleven_epoch_12_0&#45;&gt;Eleven_epoch_13_0 -->
<g id="edge29" class="edge"><title>Eleven_epoch_12_0&#45;&gt;Eleven_epoch_13_0</title>
<path fill="none" stroke="#7570b3" d="M627.392,-228.244C620.725,-222.25 611.591,-215.34 602,-212 570.509,-201.035 329.961,-222.168 302,-204 283.129,-191.738 275.47,-164.585 272.585,-149.543"/>
</g>
<!-- Jonathan_epoch_5_1 -->
<g id="node34" class="node"><title>Jonathan_epoch_5_1</title>
<path fill="none" stroke="#e7298a" d="M769.333,-1009.5C769.333,-1009.5 684.667,-1009.5 684.667,-1009.5 680.833,-1009.5 677,-1005.67 677,-1001.83 677,-1001.83 677,-994.167 677,-994.167 677,-990.333 680.833,-986.5 684.667,-986.5 684.667,-986.5 769.333,-986.5 769.333,-986.5 773.167,-986.5 777,-990.333 777,-994.167 777,-994.167 777,-1001.83 777,-1001.83 777,-1005.67 773.167,-1009.5 769.333,-1009.5"/>
<text text-anchor="middle" x="727" y="-994.3" font-family="Times,serif" font-size="14.00">Jonathan Byers</text>
</g>
<!-- Jonathan_epoch_6_1 -->
<g id="node35" class="node"><title>Jonathan_epoch_6_1</title>
<path fill="none" stroke="#e7298a" d="M891.333,-877.5C891.333,-877.5 806.667,-877.5 806.667,-877.5 802.833,-877.5 799,-873.667 799,-869.833 799,-869.833 799,-862.167 799,-862.167 799,-858.333 802.833,-854.5 806.667,-854.5 806.667,-854.5 891.333,-854.5 891.333,-854.5 895.167,-854.5 899,-858.333 899,-862.167 899,-862.167 899,-869.833 899,-869.833 899,-873.667 895.167,-877.5 891.333,-877.5"/>
<text text-anchor="middle" x="849" y="-862.3" font-family="Times,serif" font-size="14.00">Jonathan Byers</text>
</g>
<!-- Jonathan_epoch_5_1&#45;&gt;Jonathan_epoch_6_1 -->
<g id="edge30" class="edge"><title>Jonathan_epoch_5_1&#45;&gt;Jonathan_epoch_6_1</title>
<path fill="none" stroke="#e7298a" d="M752.11,-986.37C764.199,-980.417 778.345,-972.141 789,-962 815.847,-936.447 835.894,-896.494 844.446,-877.592"/>
</g>
<!-- Jonathan_epoch_8_0 -->
<g id="node36" class="node"><title>Jonathan_epoch_8_0</title>
<path fill="none" stroke="#e7298a" d="M1330.33,-760.5C1330.33,-760.5 1245.67,-760.5 1245.67,-760.5 1241.83,-760.5 1238,-756.667 1238,-752.833 1238,-752.833 1238,-745.167 1238,-745.167 1238,-741.333 1241.83,-737.5 1245.67,-737.5 1245.67,-737.5 1330.33,-737.5 1330.33,-737.5 1334.17,-737.5 1338,-741.333 1338,-745.167 1338,-745.167 1338,-752.833 1338,-752.833 1338,-756.667 1334.17,-760.5 1330.33,-760.5"/>
<text text-anchor="middle" x="1288" y="-745.3" font-family="Times,serif" font-size="14.00">Jonathan Byers</text>
</g>
<!-- Jonathan_epoch_6_1&#45;&gt;Jonathan_epoch_8_0 -->
<g id="edge31" class="edge"><title>Jonathan_epoch_6_1&#45;&gt;Jonathan_epoch_8_0</title>
<path fill="none" stroke="#e7298a" d="M866.92,-854.489C878.279,-848.422 893.512,-841.348 908,-838 942.654,-829.993 1196.39,-846.302 1228,-830 1257.01,-815.04 1275.77,-778.908 1283.69,-760.768"/>
</g>
<!-- Jonathan_epoch_9_0 -->
<g id="node37" class="node"><title>Jonathan_epoch_9_0</title>
<path fill="none" stroke="#e7298a" d="M1129.33,-658.5C1129.33,-658.5 1044.67,-658.5 1044.67,-658.5 1040.83,-658.5 1037,-654.667 1037,-650.833 1037,-650.833 1037,-643.167 1037,-643.167 1037,-639.333 1040.83,-635.5 1044.67,-635.5 1044.67,-635.5 1129.33,-635.5 1129.33,-635.5 1133.17,-635.5 1137,-639.333 1137,-643.167 1137,-643.167 1137,-650.833 1137,-650.833 1137,-654.667 1133.17,-658.5 1129.33,-658.5"/>
<text text-anchor="middle" x="1087" y="-643.3" font-family="Times,serif" font-size="14.00">Jonathan Byers</text>
</g>
<!-- Jonathan_epoch_8_0&#45;&gt;Jonathan_epoch_9_0 -->
<g id="edge32" class="edge"><title>Jonathan_epoch_8_0&#45;&gt;Jonathan_epoch_9_0</title>
<path fill="none" stroke="#e7298a" d="M1268.87,-737.456C1257.36,-731.615 1242.24,-724.789 1228,-721 1192.61,-711.584 1178.72,-729.436 1146,-713 1121.49,-700.686 1102.28,-673.554 1093.03,-658.529"/>
</g>
<!-- Jonathan_epoch_10_1 -->
<g id="node38" class="node"><title>Jonathan_epoch_10_1</title>
<path fill="none" stroke="#e7298a" d="M249.333,-470.5C249.333,-470.5 164.667,-470.5 164.667,-470.5 160.833,-470.5 157,-466.667 157,-462.833 157,-462.833 157,-455.167 157,-455.167 157,-451.333 160.833,-447.5 164.667,-447.5 164.667,-447.5 249.333,-447.5 249.333,-447.5 253.167,-447.5 257,-451.333 257,-455.167 257,-455.167 257,-462.833 257,-462.833 257,-466.667 253.167,-470.5 249.333,-470.5"/>
<text text-anchor="middle" x="207" y="-455.3" font-family="Times,serif" font-size="14.00">Jonathan Byers</text>
</g>
<!-- Jonathan_epoch_9_0&#45;&gt;Jonathan_epoch_10_1 -->
<g id="edge33" class="edge"><title>Jonathan_epoch_9_0&#45;&gt;Jonathan_epoch_10_1</title>
<path fill="none" stroke="#e7298a" d="M1070.73,-635.425C1060.38,-629.333 1046.45,-622.257 1033,-619 995.633,-609.951 375.975,-626.967 341,-611 274.682,-580.724 227.67,-499.963 212.372,-470.742"/>
</g>
<!-- Jonathan_epoch_12_0 -->
<g id="node39" class="node"><title>Jonathan_epoch_12_0</title>
<path fill="none" stroke="#e7298a" d="M249.333,-251.5C249.333,-251.5 164.667,-251.5 164.667,-251.5 160.833,-251.5 157,-247.667 157,-243.833 157,-243.833 157,-236.167 157,-236.167 157,-232.333 160.833,-228.5 164.667,-228.5 164.667,-228.5 249.333,-228.5 249.333,-228.5 253.167,-228.5 257,-232.333 257,-236.167 257,-236.167 257,-243.833 257,-243.833 257,-247.667 253.167,-251.5 249.333,-251.5"/>
<text text-anchor="middle" x="207" y="-236.3" font-family="Times,serif" font-size="14.00">Jonathan Byers</text>
</g>
<!-- Jonathan_epoch_10_1&#45;&gt;Jonathan_epoch_12_0 -->
<g id="edge34" class="edge"><title>Jonathan_epoch_10_1&#45;&gt;Jonathan_epoch_12_0</title>
<path fill="none" stroke="#e7298a" d="M207,-447.239C207,-410.294 207,-288.869 207,-251.826"/>
</g>
<!-- Jonathan_epoch_14_0 -->
<g id="node40" class="node"><title>Jonathan_epoch_14_0</title>
<path fill="none" stroke="#e7298a" d="M407.333,-47.5C407.333,-47.5 322.667,-47.5 322.667,-47.5 318.833,-47.5 315,-43.6667 315,-39.8333 315,-39.8333 315,-32.1667 315,-32.1667 315,-28.3333 318.833,-24.5 322.667,-24.5 322.667,-24.5 407.333,-24.5 407.333,-24.5 411.167,-24.5 415,-28.3333 415,-32.1667 415,-32.1667 415,-39.8333 415,-39.8333 415,-43.6667 411.167,-47.5 407.333,-47.5"/>
<text text-anchor="middle" x="365" y="-32.3" font-family="Times,serif" font-size="14.00">Jonathan Byers</text>
</g>
<!-- Jonathan_epoch_12_0&#45;&gt;Jonathan_epoch_14_0 -->
<g id="edge35" class="edge"><title>Jonathan_epoch_12_0&#45;&gt;Jonathan_epoch_14_0</title>
<path fill="none" stroke="#e7298a" d="M225.792,-228.438C237.093,-222.591 251.965,-215.765 266,-212 284.111,-207.142 336.777,-217.295 350,-204 392.699,-161.071 375.914,-77.6555 368.119,-47.884"/>
</g>
<!-- Jen_epoch_11_1 -->
<g id="node41" class="node"><title>Jen_epoch_11_1</title>
<path fill="none" stroke="#66a61e" d="M1210.58,-353.5C1210.58,-353.5 1191.42,-353.5 1191.42,-353.5 1187.58,-353.5 1183.75,-349.667 1183.75,-345.833 1183.75,-345.833 1183.75,-338.167 1183.75,-338.167 1183.75,-334.333 1187.58,-330.5 1191.42,-330.5 1191.42,-330.5 1210.58,-330.5 1210.58,-330.5 1214.42,-330.5 1218.25,-334.333 1218.25,-338.167 1218.25,-338.167 1218.25,-345.833 1218.25,-345.833 1218.25,-349.667 1214.42,-353.5 1210.58,-353.5"/>
<text text-anchor="middle" x="1201" y="-338.3" font-family="Times,serif" font-size="14.00">Jen</text>
</g>
<!-- Troy_epoch_6_1 -->
<g id="node42" class="node"><title>Troy_epoch_6_1</title>
<path fill="none" stroke="#e6ab02" d="M772.583,-877.5C772.583,-877.5 745.417,-877.5 745.417,-877.5 741.583,-877.5 737.75,-873.667 737.75,-869.833 737.75,-869.833 737.75,-862.167 737.75,-862.167 737.75,-858.333 741.583,-854.5 745.417,-854.5 745.417,-854.5 772.583,-854.5 772.583,-854.5 776.417,-854.5 780.25,-858.333 780.25,-862.167 780.25,-862.167 780.25,-869.833 780.25,-869.833 780.25,-873.667 776.417,-877.5 772.583,-877.5"/>
<text text-anchor="middle" x="759" y="-862.3" font-family="Times,serif" font-size="14.00">Troy</text>
</g>
<!-- Movie_Theater_Manager_epoch_9_2 -->
<g id="node43" class="node"><title>Movie_Theater_Manager_epoch_9_2</title>
<path fill="none" stroke="#a6761d" d="M970.833,-658.5C970.833,-658.5 837.167,-658.5 837.167,-658.5 833.333,-658.5 829.5,-654.667 829.5,-650.833 829.5,-650.833 829.5,-643.167 829.5,-643.167 829.5,-639.333 833.333,-635.5 837.167,-635.5 837.167,-635.5 970.833,-635.5 970.833,-635.5 974.667,-635.5 978.5,-639.333 978.5,-643.167 978.5,-643.167 978.5,-650.833 978.5,-650.833 978.5,-654.667 974.667,-658.5 970.833,-658.5"/>
<text text-anchor="middle" x="904" y="-643.3" font-family="Times,serif" font-size="14.00">Movie Theater Manager</text>
</g>
<!-- Mike_epoch_1_0 -->
<g id="node44" class="node"><title>Mike_epoch_1_0</title>
<path fill="none" stroke="#666666" d="M1563.33,-1432.5C1563.33,-1432.5 1482.67,-1432.5 1482.67,-1432.5 1478.83,-1432.5 1475,-1428.67 1475,-1424.83 1475,-1424.83 1475,-1417.17 1475,-1417.17 1475,-1413.33 1478.83,-1409.5 1482.67,-1409.5 1482.67,-1409.5 1563.33,-1409.5 1563.33,-1409.5 1567.17,-1409.5 1571,-1413.33 1571,-1417.17 1571,-1417.17 1571,-1424.83 1571,-1424.83 1571,-1428.67 1567.17,-1432.5 1563.33,-1432.5"/>
<text text-anchor="middle" x="1523" y="-1417.3" font-family="Times,serif" font-size="14.00">Mike Wheeler</text>
</g>
<!-- Mike_epoch_2_0 -->
<g id="node45" class="node"><title>Mike_epoch_2_0</title>
<path fill="none" stroke="#666666" d="M1563.33,-1330.5C1563.33,-1330.5 1482.67,-1330.5 1482.67,-1330.5 1478.83,-1330.5 1475,-1326.67 1475,-1322.83 1475,-1322.83 1475,-1315.17 1475,-1315.17 1475,-1311.33 1478.83,-1307.5 1482.67,-1307.5 1482.67,-1307.5 1563.33,-1307.5 1563.33,-1307.5 1567.17,-1307.5 1571,-1311.33 1571,-1315.17 1571,-1315.17 1571,-1322.83 1571,-1322.83 1571,-1326.67 1567.17,-1330.5 1563.33,-1330.5"/>
<text text-anchor="middle" x="1523" y="-1315.3" font-family="Times,serif" font-size="14.00">Mike Wheeler</text>
</g>
<!-- Mike_epoch_1_0&#45;&gt;Mike_epoch_2_0 -->
<g id="edge36" class="edge"><title>Mike_epoch_1_0&#45;&gt;Mike_epoch_2_0</title>
<path fill="none" stroke="#666666" d="M1523,-1409.3C1523,-1390.05 1523,-1349.82 1523,-1330.62"/>
</g>
<!-- Mike_epoch_3_0 -->
<g id="node46" class="node"><title>Mike_epoch_3_0</title>
<path fill="none" stroke="#666666" d="M1567.33,-1243.5C1567.33,-1243.5 1486.67,-1243.5 1486.67,-1243.5 1482.83,-1243.5 1479,-1239.67 1479,-1235.83 1479,-1235.83 1479,-1228.17 1479,-1228.17 1479,-1224.33 1482.83,-1220.5 1486.67,-1220.5 1486.67,-1220.5 1567.33,-1220.5 1567.33,-1220.5 1571.17,-1220.5 1575,-1224.33 1575,-1228.17 1575,-1228.17 1575,-1235.83 1575,-1235.83 1575,-1239.67 1571.17,-1243.5 1567.33,-1243.5"/>
<text text-anchor="middle" x="1527" y="-1228.3" font-family="Times,serif" font-size="14.00">Mike Wheeler</text>
</g>
<!-- Mike_epoch_2_0&#45;&gt;Mike_epoch_3_0 -->
<g id="edge37" class="edge"><title>Mike_epoch_2_0&#45;&gt;Mike_epoch_3_0</title>
<path fill="none" stroke="#666666" d="M1523.51,-1307.23C1524.28,-1290.88 1525.73,-1259.98 1526.5,-1243.68"/>
</g>
<!-- Mike_epoch_4_0 -->
<g id="node47" class="node"><title>Mike_epoch_4_0</title>
<path fill="none" stroke="#666666" d="M1567.33,-1126.5C1567.33,-1126.5 1486.67,-1126.5 1486.67,-1126.5 1482.83,-1126.5 1479,-1122.67 1479,-1118.83 1479,-1118.83 1479,-1111.17 1479,-1111.17 1479,-1107.33 1482.83,-1103.5 1486.67,-1103.5 1486.67,-1103.5 1567.33,-1103.5 1567.33,-1103.5 1571.17,-1103.5 1575,-1107.33 1575,-1111.17 1575,-1111.17 1575,-1118.83 1575,-1118.83 1575,-1122.67 1571.17,-1126.5 1567.33,-1126.5"/>
<text text-anchor="middle" x="1527" y="-1111.3" font-family="Times,serif" font-size="14.00">Mike Wheeler</text>
</g>
<!-- Mike_epoch_3_0&#45;&gt;Mike_epoch_4_0 -->
<g id="edge38" class="edge"><title>Mike_epoch_3_0&#45;&gt;Mike_epoch_4_0</title>
<path fill="none" stroke="#666666" d="M1527,-1220.39C1527,-1198.48 1527,-1148.47 1527,-1126.59"/>
</g>
<!-- Mike_epoch_5_0 -->
<g id="node48" class="node"><title>Mike_epoch_5_0</title>
<path fill="none" stroke="#666666" d="M1567.33,-1009.5C1567.33,-1009.5 1486.67,-1009.5 1486.67,-1009.5 1482.83,-1009.5 1479,-1005.67 1479,-1001.83 1479,-1001.83 1479,-994.167 1479,-994.167 1479,-990.333 1482.83,-986.5 1486.67,-986.5 1486.67,-986.5 1567.33,-986.5 1567.33,-986.5 1571.17,-986.5 1575,-990.333 1575,-994.167 1575,-994.167 1575,-1001.83 1575,-1001.83 1575,-1005.67 1571.17,-1009.5 1567.33,-1009.5"/>
<text text-anchor="middle" x="1527" y="-994.3" font-family="Times,serif" font-size="14.00">Mike Wheeler</text>
</g>
<!-- Mike_epoch_4_0&#45;&gt;Mike_epoch_5_0 -->
<g id="edge39" class="edge"><title>Mike_epoch_4_0&#45;&gt;Mike_epoch_5_0</title>
<path fill="none" stroke="#666666" d="M1527,-1103.39C1527,-1081.48 1527,-1031.47 1527,-1009.59"/>
</g>
<!-- Mike_epoch_6_0 -->
<g id="node49" class="node"><title>Mike_epoch_6_0</title>
<path fill="none" stroke="#666666" d="M1165.33,-877.5C1165.33,-877.5 1084.67,-877.5 1084.67,-877.5 1080.83,-877.5 1077,-873.667 1077,-869.833 1077,-869.833 1077,-862.167 1077,-862.167 1077,-858.333 1080.83,-854.5 1084.67,-854.5 1084.67,-854.5 1165.33,-854.5 1165.33,-854.5 1169.17,-854.5 1173,-858.333 1173,-862.167 1173,-862.167 1173,-869.833 1173,-869.833 1173,-873.667 1169.17,-877.5 1165.33,-877.5"/>
<text text-anchor="middle" x="1125" y="-862.3" font-family="Times,serif" font-size="14.00">Mike Wheeler</text>
</g>
<!-- Mike_epoch_5_0&#45;&gt;Mike_epoch_6_0 -->
<g id="edge40" class="edge"><title>Mike_epoch_5_0&#45;&gt;Mike_epoch_6_0</title>
<path fill="none" stroke="#666666" d="M1511.37,-986.499C1501.42,-980.436 1488,-973.362 1475,-970 1443.47,-961.845 1210.12,-978.431 1182,-962 1149.78,-943.174 1133.66,-898.325 1127.74,-877.705"/>
</g>
<!-- Mike_epoch_9_1 -->
<g id="node50" class="node"><title>Mike_epoch_9_1</title>
<path fill="none" stroke="#666666" d="M350.333,-658.5C350.333,-658.5 269.667,-658.5 269.667,-658.5 265.833,-658.5 262,-654.667 262,-650.833 262,-650.833 262,-643.167 262,-643.167 262,-639.333 265.833,-635.5 269.667,-635.5 269.667,-635.5 350.333,-635.5 350.333,-635.5 354.167,-635.5 358,-639.333 358,-643.167 358,-643.167 358,-650.833 358,-650.833 358,-654.667 354.167,-658.5 350.333,-658.5"/>
<text text-anchor="middle" x="310" y="-643.3" font-family="Times,serif" font-size="14.00">Mike Wheeler</text>
</g>
<!-- Mike_epoch_6_0&#45;&gt;Mike_epoch_9_1 -->
<g id="edge41" class="edge"><title>Mike_epoch_6_0&#45;&gt;Mike_epoch_9_1</title>
<path fill="none" stroke="#666666" d="M1109.39,-854.431C1099.44,-848.342 1086.02,-841.266 1073,-838 1038.4,-829.324 462.333,-847.046 431,-830 360.341,-791.558 323.73,-691.972 313.233,-658.874"/>
</g>
<!-- Mike_epoch_10_0 -->
<g id="node51" class="node"><title>Mike_epoch_10_0</title>
<path fill="none" stroke="#666666" d="M553.333,-556.5C553.333,-556.5 472.667,-556.5 472.667,-556.5 468.833,-556.5 465,-552.667 465,-548.833 465,-548.833 465,-541.167 465,-541.167 465,-537.333 468.833,-533.5 472.667,-533.5 472.667,-533.5 553.333,-533.5 553.333,-533.5 557.167,-533.5 561,-537.333 561,-541.167 561,-541.167 561,-548.833 561,-548.833 561,-552.667 557.167,-556.5 553.333,-556.5"/>
<text text-anchor="middle" x="513" y="-541.3" font-family="Times,serif" font-size="14.00">Mike Wheeler</text>
</g>
<!-- Mike_epoch_9_1&#45;&gt;Mike_epoch_10_0 -->
<g id="edge42" class="edge"><title>Mike_epoch_9_1&#45;&gt;Mike_epoch_10_0</title>
<path fill="none" stroke="#666666" d="M331.341,-635.487C370.329,-616.281 452.639,-575.735 491.64,-556.522"/>
</g>
<!-- Mike_epoch_10_1 -->
<g id="node52" class="node"><title>Mike_epoch_10_1</title>
<path fill="none" stroke="#666666" d="M585.333,-470.5C585.333,-470.5 504.667,-470.5 504.667,-470.5 500.833,-470.5 497,-466.667 497,-462.833 497,-462.833 497,-455.167 497,-455.167 497,-451.333 500.833,-447.5 504.667,-447.5 504.667,-447.5 585.333,-447.5 585.333,-447.5 589.167,-447.5 593,-451.333 593,-455.167 593,-455.167 593,-462.833 593,-462.833 593,-466.667 589.167,-470.5 585.333,-470.5"/>
<text text-anchor="middle" x="545" y="-455.3" font-family="Times,serif" font-size="14.00">Mike Wheeler</text>
</g>
<!-- Mike_epoch_10_0&#45;&gt;Mike_epoch_10_1 -->
<g id="edge43" class="edge"><title>Mike_epoch_10_0&#45;&gt;Mike_epoch_10_1</title>
<path fill="none" stroke="#666666" d="M517.053,-533.361C523.208,-517.204 534.844,-486.659 540.98,-470.552"/>
</g>
<!-- Mike_epoch_12_0 -->
<g id="node53" class="node"><title>Mike_epoch_12_0</title>
<path fill="none" stroke="#666666" d="M585.333,-251.5C585.333,-251.5 504.667,-251.5 504.667,-251.5 500.833,-251.5 497,-247.667 497,-243.833 497,-243.833 497,-236.167 497,-236.167 497,-232.333 500.833,-228.5 504.667,-228.5 504.667,-228.5 585.333,-228.5 585.333,-228.5 589.167,-228.5 593,-232.333 593,-236.167 593,-236.167 593,-243.833 593,-243.833 593,-247.667 589.167,-251.5 585.333,-251.5"/>
<text text-anchor="middle" x="545" y="-236.3" font-family="Times,serif" font-size="14.00">Mike Wheeler</text>
</g>
<!-- Mike_epoch_10_1&#45;&gt;Mike_epoch_12_0 -->
<g id="edge44" class="edge"><title>Mike_epoch_10_1&#45;&gt;Mike_epoch_12_0</title>
<path fill="none" stroke="#666666" d="M545,-447.239C545,-410.294 545,-288.869 545,-251.826"/>
</g>
<!-- Officer_Callahan_epoch_5_1 -->
<g id="node54" class="node"><title>Officer_Callahan_epoch_5_1</title>
<path fill="none" stroke="#1b9e77" d="M650.583,-1009.5C650.583,-1009.5 559.417,-1009.5 559.417,-1009.5 555.583,-1009.5 551.75,-1005.67 551.75,-1001.83 551.75,-1001.83 551.75,-994.167 551.75,-994.167 551.75,-990.333 555.583,-986.5 559.417,-986.5 559.417,-986.5 650.583,-986.5 650.583,-986.5 654.417,-986.5 658.25,-990.333 658.25,-994.167 658.25,-994.167 658.25,-1001.83 658.25,-1001.83 658.25,-1005.67 654.417,-1009.5 650.583,-1009.5"/>
<text text-anchor="middle" x="605" y="-994.3" font-family="Times,serif" font-size="14.00">Officer Callahan</text>
</g>
<!-- Agent_Frazier_epoch_5_2 -->
<g id="node55" class="node"><title>Agent_Frazier_epoch_5_2</title>
<path fill="none" stroke="#d95f02" d="M1271.33,-1009.5C1271.33,-1009.5 1152.67,-1009.5 1152.67,-1009.5 1148.83,-1009.5 1145,-1005.67 1145,-1001.83 1145,-1001.83 1145,-994.167 1145,-994.167 1145,-990.333 1148.83,-986.5 1152.67,-986.5 1152.67,-986.5 1271.33,-986.5 1271.33,-986.5 1275.17,-986.5 1279,-990.333 1279,-994.167 1279,-994.167 1279,-1001.83 1279,-1001.83 1279,-1005.67 1275.17,-1009.5 1271.33,-1009.5"/>
<text text-anchor="middle" x="1212" y="-994.3" font-family="Times,serif" font-size="14.00">Agent Connie Frazier</text>
</g>
<!-- Carol_epoch_7_0 -->
<g id="node56" class="node"><title>Carol_epoch_7_0</title>
<path fill="none" stroke="#7570b3" d="M956.583,-760.5C956.583,-760.5 925.417,-760.5 925.417,-760.5 921.583,-760.5 917.75,-756.667 917.75,-752.833 917.75,-752.833 917.75,-745.167 917.75,-745.167 917.75,-741.333 921.583,-737.5 925.417,-737.5 925.417,-737.5 956.583,-737.5 956.583,-737.5 960.417,-737.5 964.25,-741.333 964.25,-745.167 964.25,-745.167 964.25,-752.833 964.25,-752.833 964.25,-756.667 960.417,-760.5 956.583,-760.5"/>
<text text-anchor="middle" x="941" y="-745.3" font-family="Times,serif" font-size="14.00">Carol</text>
</g>
<!-- Dustin_epoch_1_0 -->
<g id="node57" class="node"><title>Dustin_epoch_1_0</title>
<path fill="none" stroke="#e7298a" d="M1768.58,-1432.5C1768.58,-1432.5 1669.42,-1432.5 1669.42,-1432.5 1665.58,-1432.5 1661.75,-1428.67 1661.75,-1424.83 1661.75,-1424.83 1661.75,-1417.17 1661.75,-1417.17 1661.75,-1413.33 1665.58,-1409.5 1669.42,-1409.5 1669.42,-1409.5 1768.58,-1409.5 1768.58,-1409.5 1772.42,-1409.5 1776.25,-1413.33 1776.25,-1417.17 1776.25,-1417.17 1776.25,-1424.83 1776.25,-1424.83 1776.25,-1428.67 1772.42,-1432.5 1768.58,-1432.5"/>
<text text-anchor="middle" x="1719" y="-1417.3" font-family="Times,serif" font-size="14.00">Dustin Henderson</text>
</g>
<!-- Dustin_epoch_3_0 -->
<g id="node58" class="node"><title>Dustin_epoch_3_0</title>
<path fill="none" stroke="#e7298a" d="M1772.58,-1243.5C1772.58,-1243.5 1673.42,-1243.5 1673.42,-1243.5 1669.58,-1243.5 1665.75,-1239.67 1665.75,-1235.83 1665.75,-1235.83 1665.75,-1228.17 1665.75,-1228.17 1665.75,-1224.33 1669.58,-1220.5 1673.42,-1220.5 1673.42,-1220.5 1772.58,-1220.5 1772.58,-1220.5 1776.42,-1220.5 1780.25,-1224.33 1780.25,-1228.17 1780.25,-1228.17 1780.25,-1235.83 1780.25,-1235.83 1780.25,-1239.67 1776.42,-1243.5 1772.58,-1243.5"/>
<text text-anchor="middle" x="1723" y="-1228.3" font-family="Times,serif" font-size="14.00">Dustin Henderson</text>
</g>
<!-- Dustin_epoch_1_0&#45;&gt;Dustin_epoch_3_0 -->
<g id="edge45" class="edge"><title>Dustin_epoch_1_0&#45;&gt;Dustin_epoch_3_0</title>
<path fill="none" stroke="#e7298a" d="M1719.23,-1409.41C1719.93,-1376.65 1722.06,-1277.17 1722.77,-1243.94"/>
</g>
<!-- Dustin_epoch_4_0 -->
<g id="node59" class="node"><title>Dustin_epoch_4_0</title>
<path fill="none" stroke="#e7298a" d="M1772.58,-1126.5C1772.58,-1126.5 1673.42,-1126.5 1673.42,-1126.5 1669.58,-1126.5 1665.75,-1122.67 1665.75,-1118.83 1665.75,-1118.83 1665.75,-1111.17 1665.75,-1111.17 1665.75,-1107.33 1669.58,-1103.5 1673.42,-1103.5 1673.42,-1103.5 1772.58,-1103.5 1772.58,-1103.5 1776.42,-1103.5 1780.25,-1107.33 1780.25,-1111.17 1780.25,-1111.17 1780.25,-1118.83 1780.25,-1118.83 1780.25,-1122.67 1776.42,-1126.5 1772.58,-1126.5"/>
<text text-anchor="middle" x="1723" y="-1111.3" font-family="Times,serif" font-size="14.00">Dustin Henderson</text>
</g>
<!-- Dustin_epoch_3_0&#45;&gt;Dustin_epoch_4_0 -->
<g id="edge46" class="edge"><title>Dustin_epoch_3_0&#45;&gt;Dustin_epoch_4_0</title>
<path fill="none" stroke="#e7298a" d="M1723,-1220.39C1723,-1198.48 1723,-1148.47 1723,-1126.59"/>
</g>
<!-- Dustin_epoch_5_0 -->
<g id="node60" class="node"><title>Dustin_epoch_5_0</title>
<path fill="none" stroke="#e7298a" d="M1772.58,-1009.5C1772.58,-1009.5 1673.42,-1009.5 1673.42,-1009.5 1669.58,-1009.5 1665.75,-1005.67 1665.75,-1001.83 1665.75,-1001.83 1665.75,-994.167 1665.75,-994.167 1665.75,-990.333 1669.58,-986.5 1673.42,-986.5 1673.42,-986.5 1772.58,-986.5 1772.58,-986.5 1776.42,-986.5 1780.25,-990.333 1780.25,-994.167 1780.25,-994.167 1780.25,-1001.83 1780.25,-1001.83 1780.25,-1005.67 1776.42,-1009.5 1772.58,-1009.5"/>
<text text-anchor="middle" x="1723" y="-994.3" font-family="Times,serif" font-size="14.00">Dustin Henderson</text>
</g>
<!-- Dustin_epoch_4_0&#45;&gt;Dustin_epoch_5_0 -->
<g id="edge47" class="edge"><title>Dustin_epoch_4_0&#45;&gt;Dustin_epoch_5_0</title>
<path fill="none" stroke="#e7298a" d="M1723,-1103.39C1723,-1081.48 1723,-1031.47 1723,-1009.59"/>
</g>
<!-- Dustin_epoch_6_0 -->
<g id="node61" class="node"><title>Dustin_epoch_6_0</title>
<path fill="none" stroke="#e7298a" d="M1370.58,-877.5C1370.58,-877.5 1271.42,-877.5 1271.42,-877.5 1267.58,-877.5 1263.75,-873.667 1263.75,-869.833 1263.75,-869.833 1263.75,-862.167 1263.75,-862.167 1263.75,-858.333 1267.58,-854.5 1271.42,-854.5 1271.42,-854.5 1370.58,-854.5 1370.58,-854.5 1374.42,-854.5 1378.25,-858.333 1378.25,-862.167 1378.25,-862.167 1378.25,-869.833 1378.25,-869.833 1378.25,-873.667 1374.42,-877.5 1370.58,-877.5"/>
<text text-anchor="middle" x="1321" y="-862.3" font-family="Times,serif" font-size="14.00">Dustin Henderson</text>
</g>
<!-- Dustin_epoch_5_0&#45;&gt;Dustin_epoch_6_0 -->
<g id="edge48" class="edge"><title>Dustin_epoch_5_0&#45;&gt;Dustin_epoch_6_0</title>
<path fill="none" stroke="#e7298a" d="M1702.18,-986.383C1689.25,-980.358 1672.08,-973.367 1656,-970 1626.73,-963.872 1413.29,-976.248 1387,-962 1352.75,-943.435 1332.51,-898.451 1324.71,-877.751"/>
</g>
<!-- Dustin_epoch_9_1 -->
<g id="node62" class="node"><title>Dustin_epoch_9_1</title>
<path fill="none" stroke="#e7298a" d="M555.583,-658.5C555.583,-658.5 456.417,-658.5 456.417,-658.5 452.583,-658.5 448.75,-654.667 448.75,-650.833 448.75,-650.833 448.75,-643.167 448.75,-643.167 448.75,-639.333 452.583,-635.5 456.417,-635.5 456.417,-635.5 555.583,-635.5 555.583,-635.5 559.417,-635.5 563.25,-639.333 563.25,-643.167 563.25,-643.167 563.25,-650.833 563.25,-650.833 563.25,-654.667 559.417,-658.5 555.583,-658.5"/>
<text text-anchor="middle" x="506" y="-643.3" font-family="Times,serif" font-size="14.00">Dustin Henderson</text>
</g>
<!-- Dustin_epoch_6_0&#45;&gt;Dustin_epoch_9_1 -->
<g id="edge49" class="edge"><title>Dustin_epoch_6_0&#45;&gt;Dustin_epoch_9_1</title>
<path fill="none" stroke="#e7298a" d="M1300.49,-854.422C1287.54,-848.329 1270.23,-841.252 1254,-838 1236.49,-834.491 626.412,-839.03 611,-830 544.274,-790.906 516.055,-691.748 508.326,-658.817"/>
</g>
<!-- Dustin_epoch_10_0 -->
<g id="node63" class="node"><title>Dustin_epoch_10_0</title>
<path fill="none" stroke="#e7298a" d="M758.583,-556.5C758.583,-556.5 659.417,-556.5 659.417,-556.5 655.583,-556.5 651.75,-552.667 651.75,-548.833 651.75,-548.833 651.75,-541.167 651.75,-541.167 651.75,-537.333 655.583,-533.5 659.417,-533.5 659.417,-533.5 758.583,-533.5 758.583,-533.5 762.417,-533.5 766.25,-537.333 766.25,-541.167 766.25,-541.167 766.25,-548.833 766.25,-548.833 766.25,-552.667 762.417,-556.5 758.583,-556.5"/>
<text text-anchor="middle" x="709" y="-541.3" font-family="Times,serif" font-size="14.00">Dustin Henderson</text>
</g>
<!-- Dustin_epoch_9_1&#45;&gt;Dustin_epoch_10_0 -->
<g id="edge50" class="edge"><title>Dustin_epoch_9_1&#45;&gt;Dustin_epoch_10_0</title>
<path fill="none" stroke="#e7298a" d="M527.488,-635.453C540.15,-629.687 556.65,-622.937 572,-619 602.332,-611.221 613.696,-624.395 642,-611 668.221,-598.591 690.531,-571.756 701.579,-556.736"/>
</g>
<!-- Dustin_epoch_10_1 -->
<g id="node64" class="node"><title>Dustin_epoch_10_1</title>
<path fill="none" stroke="#e7298a" d="M790.583,-470.5C790.583,-470.5 691.417,-470.5 691.417,-470.5 687.583,-470.5 683.75,-466.667 683.75,-462.833 683.75,-462.833 683.75,-455.167 683.75,-455.167 683.75,-451.333 687.583,-447.5 691.417,-447.5 691.417,-447.5 790.583,-447.5 790.583,-447.5 794.417,-447.5 798.25,-451.333 798.25,-455.167 798.25,-455.167 798.25,-462.833 798.25,-462.833 798.25,-466.667 794.417,-470.5 790.583,-470.5"/>
<text text-anchor="middle" x="741" y="-455.3" font-family="Times,serif" font-size="14.00">Dustin Henderson</text>
</g>
<!-- Dustin_epoch_10_0&#45;&gt;Dustin_epoch_10_1 -->
<g id="edge51" class="edge"><title>Dustin_epoch_10_0&#45;&gt;Dustin_epoch_10_1</title>
<path fill="none" stroke="#e7298a" d="M713.053,-533.361C719.208,-517.204 730.844,-486.659 736.98,-470.552"/>
</g>
<!-- Dustin_epoch_11_0 -->
<g id="node65" class="node"><title>Dustin_epoch_11_0</title>
<path fill="none" stroke="#e7298a" d="M1371.58,-353.5C1371.58,-353.5 1272.42,-353.5 1272.42,-353.5 1268.58,-353.5 1264.75,-349.667 1264.75,-345.833 1264.75,-345.833 1264.75,-338.167 1264.75,-338.167 1264.75,-334.333 1268.58,-330.5 1272.42,-330.5 1272.42,-330.5 1371.58,-330.5 1371.58,-330.5 1375.42,-330.5 1379.25,-334.333 1379.25,-338.167 1379.25,-338.167 1379.25,-345.833 1379.25,-345.833 1379.25,-349.667 1375.42,-353.5 1371.58,-353.5"/>
<text text-anchor="middle" x="1322" y="-338.3" font-family="Times,serif" font-size="14.00">Dustin Henderson</text>
</g>
<!-- Dustin_epoch_10_1&#45;&gt;Dustin_epoch_11_0 -->
<g id="edge52" class="edge"><title>Dustin_epoch_10_1&#45;&gt;Dustin_epoch_11_0</title>
<path fill="none" stroke="#e7298a" d="M761.188,-447.453C773.947,-441.372 790.994,-434.297 807,-431 831.218,-426.011 1229.58,-433.419 1252,-423 1283.63,-408.302 1306.71,-371.702 1316.63,-353.551"/>
</g>
<!-- Dustin_epoch_12_0 -->
<g id="node66" class="node"><title>Dustin_epoch_12_0</title>
<path fill="none" stroke="#e7298a" d="M1002.58,-251.5C1002.58,-251.5 903.417,-251.5 903.417,-251.5 899.583,-251.5 895.75,-247.667 895.75,-243.833 895.75,-243.833 895.75,-236.167 895.75,-236.167 895.75,-232.333 899.583,-228.5 903.417,-228.5 903.417,-228.5 1002.58,-228.5 1002.58,-228.5 1006.42,-228.5 1010.25,-232.333 1010.25,-236.167 1010.25,-236.167 1010.25,-243.833 1010.25,-243.833 1010.25,-247.667 1006.42,-251.5 1002.58,-251.5"/>
<text text-anchor="middle" x="953" y="-236.3" font-family="Times,serif" font-size="14.00">Dustin Henderson</text>
</g>
<!-- Dustin_epoch_11_0&#45;&gt;Dustin_epoch_12_0 -->
<g id="edge53" class="edge"><title>Dustin_epoch_11_0&#45;&gt;Dustin_epoch_12_0</title>
<path fill="none" stroke="#e7298a" d="M1300.19,-330.41C1286.66,-324.395 1268.72,-317.404 1252,-314 1226.07,-308.721 1038.1,-316.919 1014,-306 988.626,-294.505 968.777,-267.04 959.228,-251.745"/>
</g>
<!-- Lucas_epoch_1_1 -->
<g id="node67" class="node"><title>Lucas_epoch_1_1</title>
<path fill="none" stroke="#66a61e" d="M1888.58,-1432.5C1888.58,-1432.5 1809.42,-1432.5 1809.42,-1432.5 1805.58,-1432.5 1801.75,-1428.67 1801.75,-1424.83 1801.75,-1424.83 1801.75,-1417.17 1801.75,-1417.17 1801.75,-1413.33 1805.58,-1409.5 1809.42,-1409.5 1809.42,-1409.5 1888.58,-1409.5 1888.58,-1409.5 1892.42,-1409.5 1896.25,-1413.33 1896.25,-1417.17 1896.25,-1417.17 1896.25,-1424.83 1896.25,-1424.83 1896.25,-1428.67 1892.42,-1432.5 1888.58,-1432.5"/>
<text text-anchor="middle" x="1849" y="-1417.3" font-family="Times,serif" font-size="14.00">Lucas Sinclair</text>
</g>
<!-- Lucas_epoch_4_0 -->
<g id="node68" class="node"><title>Lucas_epoch_4_0</title>
<path fill="none" stroke="#66a61e" d="M1885.58,-1126.5C1885.58,-1126.5 1806.42,-1126.5 1806.42,-1126.5 1802.58,-1126.5 1798.75,-1122.67 1798.75,-1118.83 1798.75,-1118.83 1798.75,-1111.17 1798.75,-1111.17 1798.75,-1107.33 1802.58,-1103.5 1806.42,-1103.5 1806.42,-1103.5 1885.58,-1103.5 1885.58,-1103.5 1889.42,-1103.5 1893.25,-1107.33 1893.25,-1111.17 1893.25,-1111.17 1893.25,-1118.83 1893.25,-1118.83 1893.25,-1122.67 1889.42,-1126.5 1885.58,-1126.5"/>
<text text-anchor="middle" x="1846" y="-1111.3" font-family="Times,serif" font-size="14.00">Lucas Sinclair</text>
</g>
<!-- Lucas_epoch_1_1&#45;&gt;Lucas_epoch_4_0 -->
<g id="edge54" class="edge"><title>Lucas_epoch_1_1&#45;&gt;Lucas_epoch_4_0</title>
<path fill="none" stroke="#66a61e" d="M1848.89,-1409.18C1848.43,-1361.9 1846.57,-1173.71 1846.11,-1126.69"/>
</g>
<!-- Lucas_epoch_5_0 -->
<g id="node69" class="node"><title>Lucas_epoch_5_0</title>
<path fill="none" stroke="#66a61e" d="M1885.58,-1009.5C1885.58,-1009.5 1806.42,-1009.5 1806.42,-1009.5 1802.58,-1009.5 1798.75,-1005.67 1798.75,-1001.83 1798.75,-1001.83 1798.75,-994.167 1798.75,-994.167 1798.75,-990.333 1802.58,-986.5 1806.42,-986.5 1806.42,-986.5 1885.58,-986.5 1885.58,-986.5 1889.42,-986.5 1893.25,-990.333 1893.25,-994.167 1893.25,-994.167 1893.25,-1001.83 1893.25,-1001.83 1893.25,-1005.67 1889.42,-1009.5 1885.58,-1009.5"/>
<text text-anchor="middle" x="1846" y="-994.3" font-family="Times,serif" font-size="14.00">Lucas Sinclair</text>
</g>
<!-- Lucas_epoch_4_0&#45;&gt;Lucas_epoch_5_0 -->
<g id="edge55" class="edge"><title>Lucas_epoch_4_0&#45;&gt;Lucas_epoch_5_0</title>
<path fill="none" stroke="#66a61e" d="M1846,-1103.39C1846,-1081.48 1846,-1031.47 1846,-1009.59"/>
</g>
<!-- Lucas_epoch_6_0 -->
<g id="node70" class="node"><title>Lucas_epoch_6_0</title>
<path fill="none" stroke="#66a61e" d="M1483.58,-877.5C1483.58,-877.5 1404.42,-877.5 1404.42,-877.5 1400.58,-877.5 1396.75,-873.667 1396.75,-869.833 1396.75,-869.833 1396.75,-862.167 1396.75,-862.167 1396.75,-858.333 1400.58,-854.5 1404.42,-854.5 1404.42,-854.5 1483.58,-854.5 1483.58,-854.5 1487.42,-854.5 1491.25,-858.333 1491.25,-862.167 1491.25,-862.167 1491.25,-869.833 1491.25,-869.833 1491.25,-873.667 1487.42,-877.5 1483.58,-877.5"/>
<text text-anchor="middle" x="1444" y="-862.3" font-family="Times,serif" font-size="14.00">Lucas Sinclair</text>
</g>
<!-- Lucas_epoch_5_0&#45;&gt;Lucas_epoch_6_0 -->
<g id="edge56" class="edge"><title>Lucas_epoch_5_0&#45;&gt;Lucas_epoch_6_0</title>
<path fill="none" stroke="#66a61e" d="M1825.75,-986.484C1815,-981.14 1801.47,-974.784 1789,-970 1682.63,-929.203 1552.86,-894.291 1486.92,-877.562"/>
</g>
<!-- Lucas_epoch_9_1 -->
<g id="node71" class="node"><title>Lucas_epoch_9_1</title>
<path fill="none" stroke="#66a61e" d="M668.583,-658.5C668.583,-658.5 589.417,-658.5 589.417,-658.5 585.583,-658.5 581.75,-654.667 581.75,-650.833 581.75,-650.833 581.75,-643.167 581.75,-643.167 581.75,-639.333 585.583,-635.5 589.417,-635.5 589.417,-635.5 668.583,-635.5 668.583,-635.5 672.417,-635.5 676.25,-639.333 676.25,-643.167 676.25,-643.167 676.25,-650.833 676.25,-650.833 676.25,-654.667 672.417,-658.5 668.583,-658.5"/>
<text text-anchor="middle" x="629" y="-643.3" font-family="Times,serif" font-size="14.00">Lucas Sinclair</text>
</g>
<!-- Lucas_epoch_6_0&#45;&gt;Lucas_epoch_9_1 -->
<g id="edge57" class="edge"><title>Lucas_epoch_6_0&#45;&gt;Lucas_epoch_9_1</title>
<path fill="none" stroke="#66a61e" d="M1426.75,-854.418C1415.8,-848.324 1401.08,-841.247 1387,-838 1366.81,-833.345 656.052,-844.244 641,-830 592.471,-784.074 615.787,-690.215 625.483,-658.637"/>
</g>
<!-- Lucas_epoch_10_0 -->
<g id="node72" class="node"><title>Lucas_epoch_10_0</title>
<path fill="none" stroke="#66a61e" d="M871.583,-556.5C871.583,-556.5 792.417,-556.5 792.417,-556.5 788.583,-556.5 784.75,-552.667 784.75,-548.833 784.75,-548.833 784.75,-541.167 784.75,-541.167 784.75,-537.333 788.583,-533.5 792.417,-533.5 792.417,-533.5 871.583,-533.5 871.583,-533.5 875.417,-533.5 879.25,-537.333 879.25,-541.167 879.25,-541.167 879.25,-548.833 879.25,-548.833 879.25,-552.667 875.417,-556.5 871.583,-556.5"/>
<text text-anchor="middle" x="832" y="-541.3" font-family="Times,serif" font-size="14.00">Lucas Sinclair</text>
</g>
<!-- Lucas_epoch_9_1&#45;&gt;Lucas_epoch_10_0 -->
<g id="edge58" class="edge"><title>Lucas_epoch_9_1&#45;&gt;Lucas_epoch_10_0</title>
<path fill="none" stroke="#66a61e" d="M648.128,-635.432C659.628,-629.583 674.752,-622.757 689,-619 726.119,-609.213 740.807,-628.447 775,-611 799.065,-598.721 817.468,-571.574 826.275,-556.538"/>
</g>
<!-- Lucas_epoch_10_1 -->
<g id="node73" class="node"><title>Lucas_epoch_10_1</title>
<path fill="none" stroke="#66a61e" d="M903.583,-470.5C903.583,-470.5 824.417,-470.5 824.417,-470.5 820.583,-470.5 816.75,-466.667 816.75,-462.833 816.75,-462.833 816.75,-455.167 816.75,-455.167 816.75,-451.333 820.583,-447.5 824.417,-447.5 824.417,-447.5 903.583,-447.5 903.583,-447.5 907.417,-447.5 911.25,-451.333 911.25,-455.167 911.25,-455.167 911.25,-462.833 911.25,-462.833 911.25,-466.667 907.417,-470.5 903.583,-470.5"/>
<text text-anchor="middle" x="864" y="-455.3" font-family="Times,serif" font-size="14.00">Lucas Sinclair</text>
</g>
<!-- Lucas_epoch_10_0&#45;&gt;Lucas_epoch_10_1 -->
<g id="edge59" class="edge"><title>Lucas_epoch_10_0&#45;&gt;Lucas_epoch_10_1</title>
<path fill="none" stroke="#66a61e" d="M836.053,-533.361C842.208,-517.204 853.844,-486.659 859.98,-470.552"/>
</g>
<!-- Lucas_epoch_12_0 -->
<g id="node74" class="node"><title>Lucas_epoch_12_0</title>
<path fill="none" stroke="#66a61e" d="M770.583,-251.5C770.583,-251.5 691.417,-251.5 691.417,-251.5 687.583,-251.5 683.75,-247.667 683.75,-243.833 683.75,-243.833 683.75,-236.167 683.75,-236.167 683.75,-232.333 687.583,-228.5 691.417,-228.5 691.417,-228.5 770.583,-228.5 770.583,-228.5 774.417,-228.5 778.25,-232.333 778.25,-236.167 778.25,-236.167 778.25,-243.833 778.25,-243.833 778.25,-247.667 774.417,-251.5 770.583,-251.5"/>
<text text-anchor="middle" x="731" y="-236.3" font-family="Times,serif" font-size="14.00">Lucas Sinclair</text>
</g>
<!-- Lucas_epoch_10_1&#45;&gt;Lucas_epoch_12_0 -->
<g id="edge60" class="edge"><title>Lucas_epoch_10_1&#45;&gt;Lucas_epoch_12_0</title>
<path fill="none" stroke="#66a61e" d="M857.405,-447.239C834.761,-410.294 760.339,-288.869 737.635,-251.826"/>
</g>
<!-- Tommy_epoch_7_0 -->
<g id="node75" class="node"><title>Tommy_epoch_7_0</title>
<path fill="none" stroke="#e6ab02" d="M891.333,-760.5C891.333,-760.5 828.667,-760.5 828.667,-760.5 824.833,-760.5 821,-756.667 821,-752.833 821,-752.833 821,-745.167 821,-745.167 821,-741.333 824.833,-737.5 828.667,-737.5 828.667,-737.5 891.333,-737.5 891.333,-737.5 895.167,-737.5 899,-741.333 899,-745.167 899,-745.167 899,-752.833 899,-752.833 899,-756.667 895.167,-760.5 891.333,-760.5"/>
<text text-anchor="middle" x="860" y="-745.3" font-family="Times,serif" font-size="14.00">Tommy H.</text>
</g>
<!-- Will_epoch_13_0 -->
<g id="node76" class="node"><title>Will_epoch_13_0</title>
<path fill="none" stroke="#a6761d" d="M217.583,-149.5C217.583,-149.5 156.417,-149.5 156.417,-149.5 152.583,-149.5 148.75,-145.667 148.75,-141.833 148.75,-141.833 148.75,-134.167 148.75,-134.167 148.75,-130.333 152.583,-126.5 156.417,-126.5 156.417,-126.5 217.583,-126.5 217.583,-126.5 221.417,-126.5 225.25,-130.333 225.25,-134.167 225.25,-134.167 225.25,-141.833 225.25,-141.833 225.25,-145.667 221.417,-149.5 217.583,-149.5"/>
<text text-anchor="middle" x="187" y="-134.3" font-family="Times,serif" font-size="14.00">Will Byers</text>
</g>
<!-- Will_epoch_14_2 -->
<g id="node77" class="node"><title>Will_epoch_14_2</title>
<path fill="none" stroke="#a6761d" d="M217.583,-47.5C217.583,-47.5 156.417,-47.5 156.417,-47.5 152.583,-47.5 148.75,-43.6667 148.75,-39.8333 148.75,-39.8333 148.75,-32.1667 148.75,-32.1667 148.75,-28.3333 152.583,-24.5 156.417,-24.5 156.417,-24.5 217.583,-24.5 217.583,-24.5 221.417,-24.5 225.25,-28.3333 225.25,-32.1667 225.25,-32.1667 225.25,-39.8333 225.25,-39.8333 225.25,-43.6667 221.417,-47.5 217.583,-47.5"/>
<text text-anchor="middle" x="187" y="-32.3" font-family="Times,serif" font-size="14.00">Will Byers</text>
</g>
<!-- Will_epoch_13_0&#45;&gt;Will_epoch_14_2 -->
<g id="edge61" class="edge"><title>Will_epoch_13_0&#45;&gt;Will_epoch_14_2</title>
<path fill="none" stroke="#a6761d" d="M187,-126.298C187,-107.051 187,-66.8159 187,-47.6248"/>
</g>
<!-- Troy&#39;s_Mom_epoch_6_1 -->
<g id="node78" class="node"><title>Troy&#39;s_Mom_epoch_6_1</title>
<path fill="none" stroke="#666666" d="M711.583,-877.5C711.583,-877.5 642.417,-877.5 642.417,-877.5 638.583,-877.5 634.75,-873.667 634.75,-869.833 634.75,-869.833 634.75,-862.167 634.75,-862.167 634.75,-858.333 638.583,-854.5 642.417,-854.5 642.417,-854.5 711.583,-854.5 711.583,-854.5 715.417,-854.5 719.25,-858.333 719.25,-862.167 719.25,-862.167 719.25,-869.833 719.25,-869.833 719.25,-873.667 715.417,-877.5 711.583,-877.5"/>
<text text-anchor="middle" x="677" y="-862.3" font-family="Times,serif" font-size="14.00">Troy&#39;s Mom</text>
</g>
<!-- Mr_Clarke_epoch_11_1 -->
<g id="node79" class="node"><title>Mr_Clarke_epoch_11_1</title>
<path fill="none" stroke="#1b9e77" d="M1137.58,-353.5C1137.58,-353.5 1076.42,-353.5 1076.42,-353.5 1072.58,-353.5 1068.75,-349.667 1068.75,-345.833 1068.75,-345.833 1068.75,-338.167 1068.75,-338.167 1068.75,-334.333 1072.58,-330.5 1076.42,-330.5 1076.42,-330.5 1137.58,-330.5 1137.58,-330.5 1141.42,-330.5 1145.25,-334.333 1145.25,-338.167 1145.25,-338.167 1145.25,-345.833 1145.25,-345.833 1145.25,-349.667 1141.42,-353.5 1137.58,-353.5"/>
<text text-anchor="middle" x="1107" y="-338.3" font-family="Times,serif" font-size="14.00">Mr. Clarke</text>
</g>
<!-- Flo_epoch_6_1 -->
<g id="node80" class="node"><title>Flo_epoch_6_1</title>
<path fill="none" stroke="#d95f02" d="M608.333,-877.5C608.333,-877.5 559.667,-877.5 559.667,-877.5 555.833,-877.5 552,-873.667 552,-869.833 552,-869.833 552,-862.167 552,-862.167 552,-858.333 555.833,-854.5 559.667,-854.5 559.667,-854.5 608.333,-854.5 608.333,-854.5 612.167,-854.5 616,-858.333 616,-862.167 616,-862.167 616,-869.833 616,-869.833 616,-873.667 612.167,-877.5 608.333,-877.5"/>
<text text-anchor="middle" x="584" y="-862.3" font-family="Times,serif" font-size="14.00">Florence</text>
</g>
<!-- Brenner_epoch_3_0 -->
<g id="node81" class="node"><title>Brenner_epoch_3_0</title>
<path fill="none" stroke="#7570b3" d="M1452.58,-1243.5C1452.58,-1243.5 1345.42,-1243.5 1345.42,-1243.5 1341.58,-1243.5 1337.75,-1239.67 1337.75,-1235.83 1337.75,-1235.83 1337.75,-1228.17 1337.75,-1228.17 1337.75,-1224.33 1341.58,-1220.5 1345.42,-1220.5 1345.42,-1220.5 1452.58,-1220.5 1452.58,-1220.5 1456.42,-1220.5 1460.25,-1224.33 1460.25,-1228.17 1460.25,-1228.17 1460.25,-1235.83 1460.25,-1235.83 1460.25,-1239.67 1456.42,-1243.5 1452.58,-1243.5"/>
<text text-anchor="middle" x="1399" y="-1228.3" font-family="Times,serif" font-size="14.00">Dr. Martin Brenner</text>
</g>
<!-- Brenner_epoch_5_2 -->
<g id="node82" class="node"><title>Brenner_epoch_5_2</title>
<path fill="none" stroke="#7570b3" d="M1412.58,-1009.5C1412.58,-1009.5 1305.42,-1009.5 1305.42,-1009.5 1301.58,-1009.5 1297.75,-1005.67 1297.75,-1001.83 1297.75,-1001.83 1297.75,-994.167 1297.75,-994.167 1297.75,-990.333 1301.58,-986.5 1305.42,-986.5 1305.42,-986.5 1412.58,-986.5 1412.58,-986.5 1416.42,-986.5 1420.25,-990.333 1420.25,-994.167 1420.25,-994.167 1420.25,-1001.83 1420.25,-1001.83 1420.25,-1005.67 1416.42,-1009.5 1412.58,-1009.5"/>
<text text-anchor="middle" x="1359" y="-994.3" font-family="Times,serif" font-size="14.00">Dr. Martin Brenner</text>
</g>
<!-- Brenner_epoch_3_0&#45;&gt;Brenner_epoch_5_2 -->
<g id="edge62" class="edge"><title>Brenner_epoch_3_0&#45;&gt;Brenner_epoch_5_2</title>
<path fill="none" stroke="#7570b3" d="M1397.18,-1220.43C1390.51,-1181.78 1367.51,-1048.38 1360.83,-1009.63"/>
</g>
<!-- Hopper_epoch_5_1 -->
<g id="node83" class="node"><title>Hopper_epoch_5_1</title>
<path fill="none" stroke="#e7298a" d="M525.583,-1009.5C525.583,-1009.5 460.417,-1009.5 460.417,-1009.5 456.583,-1009.5 452.75,-1005.67 452.75,-1001.83 452.75,-1001.83 452.75,-994.167 452.75,-994.167 452.75,-990.333 456.583,-986.5 460.417,-986.5 460.417,-986.5 525.583,-986.5 525.583,-986.5 529.417,-986.5 533.25,-990.333 533.25,-994.167 533.25,-994.167 533.25,-1001.83 533.25,-1001.83 533.25,-1005.67 529.417,-1009.5 525.583,-1009.5"/>
<text text-anchor="middle" x="493" y="-994.3" font-family="Times,serif" font-size="14.00">Jim Hopper</text>
</g>
<!-- Hopper_epoch_6_1 -->
<g id="node84" class="node"><title>Hopper_epoch_6_1</title>
<path fill="none" stroke="#e7298a" d="M525.583,-877.5C525.583,-877.5 460.417,-877.5 460.417,-877.5 456.583,-877.5 452.75,-873.667 452.75,-869.833 452.75,-869.833 452.75,-862.167 452.75,-862.167 452.75,-858.333 456.583,-854.5 460.417,-854.5 460.417,-854.5 525.583,-854.5 525.583,-854.5 529.417,-854.5 533.25,-858.333 533.25,-862.167 533.25,-862.167 533.25,-869.833 533.25,-869.833 533.25,-873.667 529.417,-877.5 525.583,-877.5"/>
<text text-anchor="middle" x="493" y="-862.3" font-family="Times,serif" font-size="14.00">Jim Hopper</text>
</g>
<!-- Hopper_epoch_5_1&#45;&gt;Hopper_epoch_6_1 -->
<g id="edge63" class="edge"><title>Hopper_epoch_5_1&#45;&gt;Hopper_epoch_6_1</title>
<path fill="none" stroke="#e7298a" d="M493,-986.362C493,-961.984 493,-902.304 493,-877.785"/>
</g>
<!-- Hopper_epoch_8_0 -->
<g id="node85" class="node"><title>Hopper_epoch_8_0</title>
<path fill="none" stroke="#e7298a" d="M1211.58,-760.5C1211.58,-760.5 1146.42,-760.5 1146.42,-760.5 1142.58,-760.5 1138.75,-756.667 1138.75,-752.833 1138.75,-752.833 1138.75,-745.167 1138.75,-745.167 1138.75,-741.333 1142.58,-737.5 1146.42,-737.5 1146.42,-737.5 1211.58,-737.5 1211.58,-737.5 1215.42,-737.5 1219.25,-741.333 1219.25,-745.167 1219.25,-745.167 1219.25,-752.833 1219.25,-752.833 1219.25,-756.667 1215.42,-760.5 1211.58,-760.5"/>
<text text-anchor="middle" x="1179" y="-745.3" font-family="Times,serif" font-size="14.00">Jim Hopper</text>
</g>
<!-- Hopper_epoch_6_1&#45;&gt;Hopper_epoch_8_0 -->
<g id="edge64" class="edge"><title>Hopper_epoch_6_1&#45;&gt;Hopper_epoch_8_0</title>
<path fill="none" stroke="#e7298a" d="M507.958,-854.439C517.497,-848.353 530.397,-841.277 543,-838 574.511,-829.806 1100.63,-845.977 1129,-830 1155.83,-814.89 1170.22,-778.828 1175.97,-760.737"/>
</g>
<!-- Hopper_epoch_9_0 -->
<g id="node86" class="node"><title>Hopper_epoch_9_0</title>
<path fill="none" stroke="#e7298a" d="M1329.58,-658.5C1329.58,-658.5 1264.42,-658.5 1264.42,-658.5 1260.58,-658.5 1256.75,-654.667 1256.75,-650.833 1256.75,-650.833 1256.75,-643.167 1256.75,-643.167 1256.75,-639.333 1260.58,-635.5 1264.42,-635.5 1264.42,-635.5 1329.58,-635.5 1329.58,-635.5 1333.42,-635.5 1337.25,-639.333 1337.25,-643.167 1337.25,-643.167 1337.25,-650.833 1337.25,-650.833 1337.25,-654.667 1333.42,-658.5 1329.58,-658.5"/>
<text text-anchor="middle" x="1297" y="-643.3" font-family="Times,serif" font-size="14.00">Jim Hopper</text>
</g>
<!-- Hopper_epoch_8_0&#45;&gt;Hopper_epoch_9_0 -->
<g id="edge65" class="edge"><title>Hopper_epoch_8_0&#45;&gt;Hopper_epoch_9_0</title>
<path fill="none" stroke="#e7298a" d="M1197.82,-737.396C1207.11,-732.271 1218.55,-726.133 1229,-721 1236.86,-717.14 1240.12,-718.414 1247,-713 1266.69,-697.505 1282.94,-672.593 1291.17,-658.536"/>
</g>
<!-- Hopper_epoch_10_0 -->
<g id="node87" class="node"><title>Hopper_epoch_10_0</title>
<path fill="none" stroke="#e7298a" d="M970.583,-556.5C970.583,-556.5 905.417,-556.5 905.417,-556.5 901.583,-556.5 897.75,-552.667 897.75,-548.833 897.75,-548.833 897.75,-541.167 897.75,-541.167 897.75,-537.333 901.583,-533.5 905.417,-533.5 905.417,-533.5 970.583,-533.5 970.583,-533.5 974.417,-533.5 978.25,-537.333 978.25,-541.167 978.25,-541.167 978.25,-548.833 978.25,-548.833 978.25,-552.667 974.417,-556.5 970.583,-556.5"/>
<text text-anchor="middle" x="938" y="-541.3" font-family="Times,serif" font-size="14.00">Jim Hopper</text>
</g>
<!-- Hopper_epoch_9_0&#45;&gt;Hopper_epoch_10_0 -->
<g id="edge66" class="edge"><title>Hopper_epoch_9_0&#45;&gt;Hopper_epoch_10_0</title>
<path fill="none" stroke="#e7298a" d="M1281.59,-635.236C1272.09,-629.241 1259.39,-622.33 1247,-619 1218.55,-611.351 1007.81,-625.199 982,-611 960.509,-599.177 947.487,-571.845 941.649,-556.659"/>
</g>
<!-- Hopper_epoch_10_1 -->
<g id="node88" class="node"><title>Hopper_epoch_10_1</title>
<path fill="none" stroke="#e7298a" d="M1002.58,-470.5C1002.58,-470.5 937.417,-470.5 937.417,-470.5 933.583,-470.5 929.75,-466.667 929.75,-462.833 929.75,-462.833 929.75,-455.167 929.75,-455.167 929.75,-451.333 933.583,-447.5 937.417,-447.5 937.417,-447.5 1002.58,-447.5 1002.58,-447.5 1006.42,-447.5 1010.25,-451.333 1010.25,-455.167 1010.25,-455.167 1010.25,-462.833 1010.25,-462.833 1010.25,-466.667 1006.42,-470.5 1002.58,-470.5"/>
<text text-anchor="middle" x="970" y="-455.3" font-family="Times,serif" font-size="14.00">Jim Hopper</text>
</g>
<!-- Hopper_epoch_10_0&#45;&gt;Hopper_epoch_10_1 -->
<g id="edge67" class="edge"><title>Hopper_epoch_10_0&#45;&gt;Hopper_epoch_10_1</title>
<path fill="none" stroke="#e7298a" d="M942.053,-533.361C948.208,-517.204 959.844,-486.659 965.98,-470.552"/>
</g>
<!-- Hopper_epoch_12_0 -->
<g id="node89" class="node"><title>Hopper_epoch_12_0</title>
<path fill="none" stroke="#e7298a" d="M869.583,-251.5C869.583,-251.5 804.417,-251.5 804.417,-251.5 800.583,-251.5 796.75,-247.667 796.75,-243.833 796.75,-243.833 796.75,-236.167 796.75,-236.167 796.75,-232.333 800.583,-228.5 804.417,-228.5 804.417,-228.5 869.583,-228.5 869.583,-228.5 873.417,-228.5 877.25,-232.333 877.25,-236.167 877.25,-236.167 877.25,-243.833 877.25,-243.833 877.25,-247.667 873.417,-251.5 869.583,-251.5"/>
<text text-anchor="middle" x="837" y="-236.3" font-family="Times,serif" font-size="14.00">Jim Hopper</text>
</g>
<!-- Hopper_epoch_10_1&#45;&gt;Hopper_epoch_12_0 -->
<g id="edge68" class="edge"><title>Hopper_epoch_10_1&#45;&gt;Hopper_epoch_12_0</title>
<path fill="none" stroke="#e7298a" d="M963.405,-447.239C940.761,-410.294 866.339,-288.869 843.635,-251.826"/>
</g>
<!-- Hopper_epoch_14_1 -->
<g id="node90" class="node"><title>Hopper_epoch_14_1</title>
<path fill="none" stroke="#e7298a" d="M764.583,-47.5C764.583,-47.5 699.417,-47.5 699.417,-47.5 695.583,-47.5 691.75,-43.6667 691.75,-39.8333 691.75,-39.8333 691.75,-32.1667 691.75,-32.1667 691.75,-28.3333 695.583,-24.5 699.417,-24.5 699.417,-24.5 764.583,-24.5 764.583,-24.5 768.417,-24.5 772.25,-28.3333 772.25,-32.1667 772.25,-32.1667 772.25,-39.8333 772.25,-39.8333 772.25,-43.6667 768.417,-47.5 764.583,-47.5"/>
<text text-anchor="middle" x="732" y="-32.3" font-family="Times,serif" font-size="14.00">Jim Hopper</text>
</g>
<!-- Hopper_epoch_12_0&#45;&gt;Hopper_epoch_14_1 -->
<g id="edge69" class="edge"><title>Hopper_epoch_12_0&#45;&gt;Hopper_epoch_14_1</title>
<path fill="none" stroke="#e7298a" d="M831.503,-228.424C813.443,-193.68 756.045,-83.2581 737.698,-47.9612"/>
</g>
<!-- Steve_epoch_7_0 -->
<g id="node91" class="node"><title>Steve_epoch_7_0</title>
<path fill="none" stroke="#66a61e" d="M795.333,-760.5C795.333,-760.5 700.667,-760.5 700.667,-760.5 696.833,-760.5 693,-756.667 693,-752.833 693,-752.833 693,-745.167 693,-745.167 693,-741.333 696.833,-737.5 700.667,-737.5 700.667,-737.5 795.333,-737.5 795.333,-737.5 799.167,-737.5 803,-741.333 803,-745.167 803,-745.167 803,-752.833 803,-752.833 803,-756.667 799.167,-760.5 795.333,-760.5"/>
<text text-anchor="middle" x="748" y="-745.3" font-family="Times,serif" font-size="14.00">Steve Harrington</text>
</g>
<!-- Steve_epoch_9_2 -->
<g id="node92" class="node"><title>Steve_epoch_9_2</title>
<path fill="none" stroke="#66a61e" d="M803.333,-658.5C803.333,-658.5 708.667,-658.5 708.667,-658.5 704.833,-658.5 701,-654.667 701,-650.833 701,-650.833 701,-643.167 701,-643.167 701,-639.333 704.833,-635.5 708.667,-635.5 708.667,-635.5 803.333,-635.5 803.333,-635.5 807.167,-635.5 811,-639.333 811,-643.167 811,-643.167 811,-650.833 811,-650.833 811,-654.667 807.167,-658.5 803.333,-658.5"/>
<text text-anchor="middle" x="756" y="-643.3" font-family="Times,serif" font-size="14.00">Steve Harrington</text>
</g>
<!-- Steve_epoch_7_0&#45;&gt;Steve_epoch_9_2 -->
<g id="edge70" class="edge"><title>Steve_epoch_7_0&#45;&gt;Steve_epoch_9_2</title>
<path fill="none" stroke="#66a61e" d="M748.856,-737.298C750.396,-718.051 753.615,-677.816 755.15,-658.625"/>
</g>
<!-- Karen_epoch_2_0 -->
<g id="node93" class="node"><title>Karen_epoch_2_0</title>
<path fill="none" stroke="#e6ab02" d="M1449.33,-1330.5C1449.33,-1330.5 1364.67,-1330.5 1364.67,-1330.5 1360.83,-1330.5 1357,-1326.67 1357,-1322.83 1357,-1322.83 1357,-1315.17 1357,-1315.17 1357,-1311.33 1360.83,-1307.5 1364.67,-1307.5 1364.67,-1307.5 1449.33,-1307.5 1449.33,-1307.5 1453.17,-1307.5 1457,-1311.33 1457,-1315.17 1457,-1315.17 1457,-1322.83 1457,-1322.83 1457,-1326.67 1453.17,-1330.5 1449.33,-1330.5"/>
<text text-anchor="middle" x="1407" y="-1315.3" font-family="Times,serif" font-size="14.00">Karen Wheeler</text>
</g>
<!-- Karen_epoch_5_2 -->
<g id="node94" class="node"><title>Karen_epoch_5_2</title>
<path fill="none" stroke="#e6ab02" d="M1119.33,-1009.5C1119.33,-1009.5 1034.67,-1009.5 1034.67,-1009.5 1030.83,-1009.5 1027,-1005.67 1027,-1001.83 1027,-1001.83 1027,-994.167 1027,-994.167 1027,-990.333 1030.83,-986.5 1034.67,-986.5 1034.67,-986.5 1119.33,-986.5 1119.33,-986.5 1123.17,-986.5 1127,-990.333 1127,-994.167 1127,-994.167 1127,-1001.83 1127,-1001.83 1127,-1005.67 1123.17,-1009.5 1119.33,-1009.5"/>
<text text-anchor="middle" x="1077" y="-994.3" font-family="Times,serif" font-size="14.00">Karen Wheeler</text>
</g>
<!-- Karen_epoch_2_0&#45;&gt;Karen_epoch_5_2 -->
<g id="edge71" class="edge"><title>Karen_epoch_2_0&#45;&gt;Karen_epoch_5_2</title>
<path fill="none" stroke="#e6ab02" d="M1389.64,-1307.38C1379.35,-1301.59 1365.85,-1294.84 1353,-1291 1323.84,-1282.29 1311.29,-1298.33 1285,-1283 1168.32,-1214.97 1098.08,-1052.75 1081.06,-1009.66"/>
</g>
<!-- Karen_epoch_9_3 -->
<g id="node95" class="node"><title>Karen_epoch_9_3</title>
<path fill="none" stroke="#e6ab02" d="M1680.33,-658.5C1680.33,-658.5 1595.67,-658.5 1595.67,-658.5 1591.83,-658.5 1588,-654.667 1588,-650.833 1588,-650.833 1588,-643.167 1588,-643.167 1588,-639.333 1591.83,-635.5 1595.67,-635.5 1595.67,-635.5 1680.33,-635.5 1680.33,-635.5 1684.17,-635.5 1688,-639.333 1688,-643.167 1688,-643.167 1688,-650.833 1688,-650.833 1688,-654.667 1684.17,-658.5 1680.33,-658.5"/>
<text text-anchor="middle" x="1638" y="-643.3" font-family="Times,serif" font-size="14.00">Karen Wheeler</text>
</g>
<!-- Karen_epoch_5_2&#45;&gt;Karen_epoch_9_3 -->
<g id="edge72" class="edge"><title>Karen_epoch_5_2&#45;&gt;Karen_epoch_9_3</title>
<path fill="none" stroke="#e6ab02" d="M1094.91,-986.462C1106.27,-980.384 1121.5,-973.309 1136,-970 1158.05,-964.967 1524.97,-975.656 1543,-962 1644.01,-885.478 1641.2,-704.775 1638.73,-658.793"/>
</g>
<!-- Barb_epoch_13_0 -->
<g id="node96" class="node"><title>Barb_epoch_13_0</title>
<path fill="none" stroke="#a6761d" d="M122.583,-149.5C122.583,-149.5 31.4167,-149.5 31.4167,-149.5 27.5833,-149.5 23.75,-145.667 23.75,-141.833 23.75,-141.833 23.75,-134.167 23.75,-134.167 23.75,-130.333 27.5833,-126.5 31.4167,-126.5 31.4167,-126.5 122.583,-126.5 122.583,-126.5 126.417,-126.5 130.25,-130.333 130.25,-134.167 130.25,-134.167 130.25,-141.833 130.25,-141.833 130.25,-145.667 126.417,-149.5 122.583,-149.5"/>
<text text-anchor="middle" x="77" y="-134.3" font-family="Times,serif" font-size="14.00">Barbara Holland</text>
</g>
<!-- The_Monster_epoch_14_2 -->
<g id="node97" class="node"><title>The_Monster_epoch_14_2</title>
<path fill="none" stroke="#666666" d="M122.583,-47.5C122.583,-47.5 51.4167,-47.5 51.4167,-47.5 47.5833,-47.5 43.75,-43.6667 43.75,-39.8333 43.75,-39.8333 43.75,-32.1667 43.75,-32.1667 43.75,-28.3333 47.5833,-24.5 51.4167,-24.5 51.4167,-24.5 122.583,-24.5 122.583,-24.5 126.417,-24.5 130.25,-28.3333 130.25,-32.1667 130.25,-32.1667 130.25,-39.8333 130.25,-39.8333 130.25,-43.6667 126.417,-47.5 122.583,-47.5"/>
<text text-anchor="middle" x="87" y="-32.3" font-family="Times,serif" font-size="14.00">The Monster</text>
</g>
<!-- Joyce_epoch_5_1 -->
<g id="node98" class="node"><title>Joyce_epoch_5_1</title>
<path fill="none" stroke="#1b9e77" d="M426.583,-1009.5C426.583,-1009.5 359.417,-1009.5 359.417,-1009.5 355.583,-1009.5 351.75,-1005.67 351.75,-1001.83 351.75,-1001.83 351.75,-994.167 351.75,-994.167 351.75,-990.333 355.583,-986.5 359.417,-986.5 359.417,-986.5 426.583,-986.5 426.583,-986.5 430.417,-986.5 434.25,-990.333 434.25,-994.167 434.25,-994.167 434.25,-1001.83 434.25,-1001.83 434.25,-1005.67 430.417,-1009.5 426.583,-1009.5"/>
<text text-anchor="middle" x="393" y="-994.3" font-family="Times,serif" font-size="14.00">Joyce Byers</text>
</g>
<!-- Joyce_epoch_6_1 -->
<g id="node99" class="node"><title>Joyce_epoch_6_1</title>
<path fill="none" stroke="#1b9e77" d="M426.583,-877.5C426.583,-877.5 359.417,-877.5 359.417,-877.5 355.583,-877.5 351.75,-873.667 351.75,-869.833 351.75,-869.833 351.75,-862.167 351.75,-862.167 351.75,-858.333 355.583,-854.5 359.417,-854.5 359.417,-854.5 426.583,-854.5 426.583,-854.5 430.417,-854.5 434.25,-858.333 434.25,-862.167 434.25,-862.167 434.25,-869.833 434.25,-869.833 434.25,-873.667 430.417,-877.5 426.583,-877.5"/>
<text text-anchor="middle" x="393" y="-862.3" font-family="Times,serif" font-size="14.00">Joyce Byers</text>
</g>
<!-- Joyce_epoch_5_1&#45;&gt;Joyce_epoch_6_1 -->
<g id="edge73" class="edge"><title>Joyce_epoch_5_1&#45;&gt;Joyce_epoch_6_1</title>
<path fill="none" stroke="#1b9e77" d="M393,-986.362C393,-961.984 393,-902.304 393,-877.785"/>
</g>
<!-- Joyce_epoch_8_0 -->
<g id="node100" class="node"><title>Joyce_epoch_8_0</title>
<path fill="none" stroke="#1b9e77" d="M1112.58,-760.5C1112.58,-760.5 1045.42,-760.5 1045.42,-760.5 1041.58,-760.5 1037.75,-756.667 1037.75,-752.833 1037.75,-752.833 1037.75,-745.167 1037.75,-745.167 1037.75,-741.333 1041.58,-737.5 1045.42,-737.5 1045.42,-737.5 1112.58,-737.5 1112.58,-737.5 1116.42,-737.5 1120.25,-741.333 1120.25,-745.167 1120.25,-745.167 1120.25,-752.833 1120.25,-752.833 1120.25,-756.667 1116.42,-760.5 1112.58,-760.5"/>
<text text-anchor="middle" x="1079" y="-745.3" font-family="Times,serif" font-size="14.00">Joyce Byers</text>
</g>
<!-- Joyce_epoch_6_1&#45;&gt;Joyce_epoch_8_0 -->
<g id="edge74" class="edge"><title>Joyce_epoch_6_1&#45;&gt;Joyce_epoch_8_0</title>
<path fill="none" stroke="#1b9e77" d="M407.958,-854.439C417.497,-848.353 430.397,-841.277 443,-838 474.726,-829.752 1004.74,-846.607 1033,-830 1058.97,-814.741 1071.6,-778.749 1076.48,-760.705"/>
</g>
<!-- Joyce_epoch_9_0 -->
<g id="node101" class="node"><title>Joyce_epoch_9_0</title>
<path fill="none" stroke="#1b9e77" d="M1230.58,-658.5C1230.58,-658.5 1163.42,-658.5 1163.42,-658.5 1159.58,-658.5 1155.75,-654.667 1155.75,-650.833 1155.75,-650.833 1155.75,-643.167 1155.75,-643.167 1155.75,-639.333 1159.58,-635.5 1163.42,-635.5 1163.42,-635.5 1230.58,-635.5 1230.58,-635.5 1234.42,-635.5 1238.25,-639.333 1238.25,-643.167 1238.25,-643.167 1238.25,-650.833 1238.25,-650.833 1238.25,-654.667 1234.42,-658.5 1230.58,-658.5"/>
<text text-anchor="middle" x="1197" y="-643.3" font-family="Times,serif" font-size="14.00">Joyce Byers</text>
</g>
<!-- Joyce_epoch_8_0&#45;&gt;Joyce_epoch_9_0 -->
<g id="edge75" class="edge"><title>Joyce_epoch_8_0&#45;&gt;Joyce_epoch_9_0</title>
<path fill="none" stroke="#1b9e77" d="M1097.86,-737.494C1107.17,-732.392 1118.61,-726.246 1129,-721 1136.45,-717.237 1139.47,-718.203 1146,-713 1165.52,-697.449 1182.07,-673.009 1190.66,-658.948"/>
</g>
<!-- Joyce_epoch_10_1 -->
<g id="node102" class="node"><title>Joyce_epoch_10_1</title>
<path fill="none" stroke="#1b9e77" d="M350.583,-470.5C350.583,-470.5 283.417,-470.5 283.417,-470.5 279.583,-470.5 275.75,-466.667 275.75,-462.833 275.75,-462.833 275.75,-455.167 275.75,-455.167 275.75,-451.333 279.583,-447.5 283.417,-447.5 283.417,-447.5 350.583,-447.5 350.583,-447.5 354.417,-447.5 358.25,-451.333 358.25,-455.167 358.25,-455.167 358.25,-462.833 358.25,-462.833 358.25,-466.667 354.417,-470.5 350.583,-470.5"/>
<text text-anchor="middle" x="317" y="-455.3" font-family="Times,serif" font-size="14.00">Joyce Byers</text>
</g>
<!-- Joyce_epoch_9_0&#45;&gt;Joyce_epoch_10_1 -->
<g id="edge76" class="edge"><title>Joyce_epoch_9_0&#45;&gt;Joyce_epoch_10_1</title>
<path fill="none" stroke="#1b9e77" d="M1181.72,-635.426C1171.98,-629.335 1158.82,-622.258 1146,-619 1126.4,-614.017 435.785,-620.627 418,-611 360.308,-579.772 329.69,-499.606 320.236,-470.642"/>
</g>
<!-- Joyce_epoch_12_0 -->
<g id="node103" class="node"><title>Joyce_epoch_12_0</title>
<path fill="none" stroke="#1b9e77" d="M350.583,-251.5C350.583,-251.5 283.417,-251.5 283.417,-251.5 279.583,-251.5 275.75,-247.667 275.75,-243.833 275.75,-243.833 275.75,-236.167 275.75,-236.167 275.75,-232.333 279.583,-228.5 283.417,-228.5 283.417,-228.5 350.583,-228.5 350.583,-228.5 354.417,-228.5 358.25,-232.333 358.25,-236.167 358.25,-236.167 358.25,-243.833 358.25,-243.833 358.25,-247.667 354.417,-251.5 350.583,-251.5"/>
<text text-anchor="middle" x="317" y="-236.3" font-family="Times,serif" font-size="14.00">Joyce Byers</text>
</g>
<!-- Joyce_epoch_10_1&#45;&gt;Joyce_epoch_12_0 -->
<g id="edge77" class="edge"><title>Joyce_epoch_10_1&#45;&gt;Joyce_epoch_12_0</title>
<path fill="none" stroke="#1b9e77" d="M317,-447.239C317,-410.294 317,-288.869 317,-251.826"/>
</g>
<!-- Joyce_epoch_14_1 -->
<g id="node104" class="node"><title>Joyce_epoch_14_1</title>
<path fill="none" stroke="#1b9e77" d="M649.583,-47.5C649.583,-47.5 582.417,-47.5 582.417,-47.5 578.583,-47.5 574.75,-43.6667 574.75,-39.8333 574.75,-39.8333 574.75,-32.1667 574.75,-32.1667 574.75,-28.3333 578.583,-24.5 582.417,-24.5 582.417,-24.5 649.583,-24.5 649.583,-24.5 653.417,-24.5 657.25,-28.3333 657.25,-32.1667 657.25,-32.1667 657.25,-39.8333 657.25,-39.8333 657.25,-43.6667 653.417,-47.5 649.583,-47.5"/>
<text text-anchor="middle" x="616" y="-32.3" font-family="Times,serif" font-size="14.00">Joyce Byers</text>
</g>
<!-- Joyce_epoch_12_0&#45;&gt;Joyce_epoch_14_1 -->
<g id="edge78" class="edge"><title>Joyce_epoch_12_0&#45;&gt;Joyce_epoch_14_1</title>
<path fill="none" stroke="#1b9e77" d="M336.762,-228.489C391.514,-199.291 542.422,-118.281 562,-102 581.627,-85.6777 599.52,-61.5152 608.969,-47.7107"/>
</g>
<!-- Officer_Powell_epoch_5_1 -->
<g id="node105" class="node"><title>Officer_Powell_epoch_5_1</title>
<path fill="none" stroke="#d95f02" d="M325.583,-1009.5C325.583,-1009.5 244.417,-1009.5 244.417,-1009.5 240.583,-1009.5 236.75,-1005.67 236.75,-1001.83 236.75,-1001.83 236.75,-994.167 236.75,-994.167 236.75,-990.333 240.583,-986.5 244.417,-986.5 244.417,-986.5 325.583,-986.5 325.583,-986.5 329.417,-986.5 333.25,-990.333 333.25,-994.167 333.25,-994.167 333.25,-1001.83 333.25,-1001.83 333.25,-1005.67 329.417,-1009.5 325.583,-1009.5"/>
<text text-anchor="middle" x="285" y="-994.3" font-family="Times,serif" font-size="14.00">Officer Powell</text>
</g>
</g>
</svg>
