<?xml version="1.0" encoding="UTF-8" standalone="no"?>
<!DOCTYPE svg PUBLIC "-//W3C//DTD SVG 1.1//EN"
 "http://www.w3.org/Graphics/SVG/1.1/DTD/svg11.dtd">
<!-- Generated by graphviz version 2.38.0 (20140413.2041)
 -->
<!-- Title: G Pages: 1 -->
<svg width="791pt" height="334pt"
 viewBox="0.00 0.00 791.00 334.11" xmlns="http://www.w3.org/2000/svg" xmlns:xlink="http://www.w3.org/1999/xlink">
<g id="graph0" class="graph" transform="scale(1 1) rotate(0) translate(4 330.108)">
<title>G</title>
<polygon fill="white" stroke="none" points="-4,4 -4,-330.108 787,-330.108 787,4 -4,4"/>
<g id="clust13" class="cluster"><title>cluster_1</title>
<polygon fill="none" stroke="black" points="259,-246.581 259,-318.108 596,-318.108 596,-246.581 259,-246.581"/>
<text text-anchor="middle" x="427.5" y="-302.908" font-family="Times,serif" font-size="14.00">Wheeler Basement: D&amp;D</text>
</g>
<g id="clust14" class="cluster"><title>cluster_2</title>
<polygon fill="none" stroke="black" points="8,-167.054 8,-238.581 596,-238.581 596,-167.054 8,-167.054"/>
<text text-anchor="middle" x="302" y="-223.381" font-family="Times,serif" font-size="14.00">Wheeler Res.: Players Disperse</text>
</g>
<g id="clust15" class="cluster"><title>cluster_3</title>
<polygon fill="none" stroke="black" points="342,-87.5269 342,-159.054 596,-159.054 596,-87.5269 342,-87.5269"/>
<text text-anchor="middle" x="469" y="-143.854" font-family="Times,serif" font-size="14.00">Hawkins Streets: Biking Home</text>
</g>
<g id="clust16" class="cluster"><title>cluster_4</title>
<polygon fill="none" stroke="black" points="528,-8 528,-79.5269 775,-79.5269 775,-8 528,-8"/>
<text text-anchor="middle" x="651.5" y="-64.3269" font-family="Times,serif" font-size="14.00">Byers Residence: Will Meets the Monster</text>
</g>
<g id="clust17" class="cluster"><title>cluster_5</title>
<polygon fill="none" stroke="black" points="259,-8 259,-79.5269 520,-79.5269 520,-8 259,-8"/>
<text text-anchor="middle" x="389.5" y="-64.3269" font-family="Times,serif" font-size="14.00">Hawkins Middle School: Two Bullies</text>
</g>
<!-- Mike_1 -->
<g id="node1" class="node"><title>Mike_1</title>
<ellipse fill="none" stroke="#1b9e77" cx="300" cy="-270.844" rx="32.5538" ry="16.0303"/>
<text text-anchor="middle" x="300" y="-267.144" font-family="Times,serif" font-size="14.00">Mike</text>
</g>
<!-- Mike_2 -->
<g id="node2" class="node"><title>Mike_2</title>
<ellipse fill="none" stroke="#1b9e77" cx="300" cy="-191.317" rx="32.5538" ry="16.0303"/>
<text text-anchor="middle" x="300" y="-187.617" font-family="Times,serif" font-size="14.00">Mike</text>
</g>
<!-- Mike_1&#45;&gt;Mike_2 -->
<g id="edge1" class="edge"><title>Mike_1&#45;&gt;Mike_2</title>
<path fill="none" stroke="black" d="M300,-254.527C300,-240.936 300,-221.184 300,-207.602"/>
</g>
<!-- Mike_5 -->
<g id="node3" class="node"><title>Mike_5</title>
<ellipse fill="none" stroke="#1b9e77" cx="300" cy="-32.2635" rx="32.5538" ry="16.0303"/>
<text text-anchor="middle" x="300" y="-28.5635" font-family="Times,serif" font-size="14.00">Mike</text>
</g>
<!-- Mike_2&#45;&gt;Mike_5 -->
<g id="edge9" class="edge"><title>Mike_2&#45;&gt;Mike_5</title>
<path fill="none" stroke="black" d="M300,-174.972C300,-145.024 300,-79.0858 300,-48.9033"/>
</g>
<!-- Dustin_1 -->
<g id="node4" class="node"><title>Dustin_1</title>
<ellipse fill="none" stroke="#d95f02" cx="475" cy="-270.844" rx="37.4533" ry="16.0303"/>
<text text-anchor="middle" x="475" y="-267.144" font-family="Times,serif" font-size="14.00">Dustin</text>
</g>
<!-- Dustin_2 -->
<g id="node5" class="node"><title>Dustin_2</title>
<ellipse fill="none" stroke="#d95f02" cx="475" cy="-191.317" rx="37.4533" ry="16.0303"/>
<text text-anchor="middle" x="475" y="-187.617" font-family="Times,serif" font-size="14.00">Dustin</text>
</g>
<!-- Dustin_1&#45;&gt;Dustin_2 -->
<g id="edge2" class="edge"><title>Dustin_1&#45;&gt;Dustin_2</title>
<path fill="none" stroke="black" d="M475,-254.527C475,-240.936 475,-221.184 475,-207.602"/>
</g>
<!-- Dustin_3 -->
<g id="node6" class="node"><title>Dustin_3</title>
<ellipse fill="none" stroke="#d95f02" cx="475" cy="-111.79" rx="37.4533" ry="16.0303"/>
<text text-anchor="middle" x="475" y="-108.09" font-family="Times,serif" font-size="14.00">Dustin</text>
</g>
<!-- Dustin_2&#45;&gt;Dustin_3 -->
<g id="edge6" class="edge"><title>Dustin_2&#45;&gt;Dustin_3</title>
<path fill="none" stroke="black" d="M475,-175C475,-161.409 475,-141.657 475,-128.075"/>
</g>
<!-- Dustin_5 -->
<g id="node7" class="node"><title>Dustin_5</title>
<ellipse fill="none" stroke="#d95f02" cx="475" cy="-32.2635" rx="37.4533" ry="16.0303"/>
<text text-anchor="middle" x="475" y="-28.5635" font-family="Times,serif" font-size="14.00">Dustin</text>
</g>
<!-- Dustin_3&#45;&gt;Dustin_5 -->
<g id="edge11" class="edge"><title>Dustin_3&#45;&gt;Dustin_5</title>
<path fill="none" stroke="black" d="M475,-95.4735C475,-81.882 475,-62.1304 475,-48.5485"/>
</g>
<!-- Luke_1 -->
<g id="node8" class="node"><title>Luke_1</title>
<ellipse fill="none" stroke="#7570b3" cx="385" cy="-270.844" rx="34.7971" ry="16.0303"/>
<text text-anchor="middle" x="385" y="-267.144" font-family="Times,serif" font-size="14.00">Lucas</text>
</g>
<!-- Luke_2 -->
<g id="node9" class="node"><title>Luke_2</title>
<ellipse fill="none" stroke="#7570b3" cx="385" cy="-191.317" rx="34.7971" ry="16.0303"/>
<text text-anchor="middle" x="385" y="-187.617" font-family="Times,serif" font-size="14.00">Lucas</text>
</g>
<!-- Luke_1&#45;&gt;Luke_2 -->
<g id="edge3" class="edge"><title>Luke_1&#45;&gt;Luke_2</title>
<path fill="none" stroke="black" d="M385,-254.527C385,-240.936 385,-221.184 385,-207.602"/>
</g>
<!-- Luke_3 -->
<g id="node10" class="node"><title>Luke_3</title>
<ellipse fill="none" stroke="#7570b3" cx="385" cy="-111.79" rx="34.7971" ry="16.0303"/>
<text text-anchor="middle" x="385" y="-108.09" font-family="Times,serif" font-size="14.00">Lucas</text>
</g>
<!-- Luke_2&#45;&gt;Luke_3 -->
<g id="edge5" class="edge"><title>Luke_2&#45;&gt;Luke_3</title>
<path fill="none" stroke="black" d="M385,-175C385,-161.409 385,-141.657 385,-128.075"/>
</g>
<!-- Luke_5 -->
<g id="node11" class="node"><title>Luke_5</title>
<ellipse fill="none" stroke="#7570b3" cx="385" cy="-32.2635" rx="34.7971" ry="16.0303"/>
<text text-anchor="middle" x="385" y="-28.5635" font-family="Times,serif" font-size="14.00">Lucas</text>
</g>
<!-- Luke_3&#45;&gt;Luke_5 -->
<g id="edge10" class="edge"><title>Luke_3&#45;&gt;Luke_5</title>
<path fill="none" stroke="black" d="M385,-95.4735C385,-81.882 385,-62.1304 385,-48.5485"/>
</g>
<!-- Will_1 -->
<g id="node12" class="node"><title>Will_1</title>
<ellipse fill="none" stroke="#e7298a" cx="559" cy="-270.844" rx="28.9828" ry="16.0303"/>
<text text-anchor="middle" x="559" y="-267.144" font-family="Times,serif" font-size="14.00">Will</text>
</g>
<!-- Will_2 -->
<g id="node13" class="node"><title>Will_2</title>
<ellipse fill="none" stroke="#e7298a" cx="559" cy="-191.317" rx="28.9828" ry="16.0303"/>
<text text-anchor="middle" x="559" y="-187.617" font-family="Times,serif" font-size="14.00">Will</text>
</g>
<!-- Will_1&#45;&gt;Will_2 -->
<g id="edge4" class="edge"><title>Will_1&#45;&gt;Will_2</title>
<path fill="none" stroke="black" d="M559,-254.527C559,-240.936 559,-221.184 559,-207.602"/>
</g>
<!-- Will_3 -->
<g id="node14" class="node"><title>Will_3</title>
<ellipse fill="none" stroke="#e7298a" cx="559" cy="-111.79" rx="28.9828" ry="16.0303"/>
<text text-anchor="middle" x="559" y="-108.09" font-family="Times,serif" font-size="14.00">Will</text>
</g>
<!-- Will_2&#45;&gt;Will_3 -->
<g id="edge7" class="edge"><title>Will_2&#45;&gt;Will_3</title>
<path fill="none" stroke="black" d="M559,-175C559,-161.409 559,-141.657 559,-128.075"/>
</g>
<!-- Will_4 -->
<g id="node15" class="node"><title>Will_4</title>
<ellipse fill="none" stroke="#e7298a" cx="707" cy="-32.2635" rx="28.9828" ry="16.0303"/>
<text text-anchor="middle" x="707" y="-28.5635" font-family="Times,serif" font-size="14.00">Will</text>
</g>
<!-- Will_3&#45;&gt;Will_4 -->
<g id="edge8" class="edge"><title>Will_3&#45;&gt;Will_4</title>
<path fill="none" stroke="black" d="M587.148,-107.544C610.606,-103.776 644.09,-95.848 669,-79.5269 681.172,-71.5519 691.395,-58.4635 698.161,-48.2395"/>
</g>
<!-- Nancy_2 -->
<g id="node16" class="node"><title>Nancy_2</title>
<ellipse fill="none" stroke="#66a61e" cx="213" cy="-191.317" rx="36.5405" ry="16.0303"/>
<text text-anchor="middle" x="213" y="-187.617" font-family="Times,serif" font-size="14.00">Nancy</text>
</g>
<!-- Jonathan_1 -->
<g id="node17" class="node"><title>Jonathan_1</title>
<ellipse fill="none" stroke="#e6ab02" cx="652" cy="-270.844" rx="45.9239" ry="16.0303"/>
<text text-anchor="middle" x="652" y="-267.144" font-family="Times,serif" font-size="14.00">Jonathan</text>
</g>
<!-- Karen_2 -->
<g id="node18" class="node"><title>Karen_2</title>
<ellipse fill="none" stroke="#7fc97f" cx="123" cy="-191.317" rx="35.2113" ry="16.0303"/>
<text text-anchor="middle" x="123" y="-187.617" font-family="Times,serif" font-size="14.00">Karen</text>
</g>
<!-- Ted_2 -->
<g id="node19" class="node"><title>Ted_2</title>
<ellipse fill="none" stroke="#beaed4" cx="43" cy="-191.317" rx="26.7407" ry="16.0303"/>
<text text-anchor="middle" x="43" y="-187.617" font-family="Times,serif" font-size="14.00">Ted</text>
</g>
<!-- Monster_4 -->
<g id="node20" class="node"><title>Monster_4</title>
<ellipse fill="none" stroke="#b3e2cd" cx="598" cy="-32.2635" rx="61.5366" ry="16.0303"/>
<text text-anchor="middle" x="598" y="-28.5635" font-family="Times,serif" font-size="14.00">The Monster</text>
</g>
</g>
</svg>
