<?xml version="1.0" encoding="UTF-8" standalone="no"?>
<!DOCTYPE svg PUBLIC "-//W3C//DTD SVG 1.1//EN"
 "http://www.w3.org/Graphics/SVG/1.1/DTD/svg11.dtd">
<!-- Generated by graphviz version 2.38.0 (20140413.2041)
 -->
<!-- Title: %3 Pages: 1 -->
<svg width="1558pt" height="1518pt"
 viewBox="0.00 0.00 1558.00 1518.00" xmlns="http://www.w3.org/2000/svg" xmlns:xlink="http://www.w3.org/1999/xlink">
<g id="graph0" class="graph" transform="scale(1 1) rotate(0) translate(4 1514)">
<title>%3</title>
<polygon fill="white" stroke="none" points="-4,4 -4,-1514 1554,-1514 1554,4 -4,4"/>
<g id="clust24" class="cluster"><title>cluster_epoch_1</title>
<polygon fill="none" stroke="black" stroke-dasharray="1,5" points="250,-1424 250,-1502 860,-1502 860,-1424 250,-1424"/>
</g>
<g id="clust25" class="cluster"><title>cluster_epoch_1_0</title>
<polygon fill="none" stroke="black" points="258,-1432 258,-1494 820,-1494 820,-1432 258,-1432"/>
<text text-anchor="middle" x="539" y="-1478.8" font-family="Times New Roman,serif" font-size="14.00">Byers Residence: Talking About Will</text>
</g>
<g id="clust29" class="cluster"><title>cluster_epoch_3</title>
<polygon fill="none" stroke="black" stroke-dasharray="1,5" points="338,-1222 338,-1315 623,-1315 623,-1222 338,-1222"/>
</g>
<g id="clust30" class="cluster"><title>cluster_epoch_3_0</title>
<polygon fill="none" stroke="black" points="346,-1230 346,-1307 585,-1307 585,-1230 346,-1230"/>
<text text-anchor="middle" x="465.5" y="-1291.8" font-family="Times New Roman,serif" font-size="14.00">Byers Residence: Joyce and Jonathan at</text>
<text text-anchor="middle" x="465.5" y="-1276.8" font-family="Times New Roman,serif" font-size="14.00">Home</text>
</g>
<g id="clust31" class="cluster"><title>cluster_epoch_4</title>
<polygon fill="none" stroke="black" stroke-dasharray="1,5" points="585,-1121 585,-1214 974,-1214 974,-1121 585,-1121"/>
</g>
<g id="clust32" class="cluster"><title>cluster_epoch_4_0</title>
<polygon fill="none" stroke="black" points="625,-1129 625,-1206 966,-1206 966,-1129 625,-1129"/>
<text text-anchor="middle" x="795.5" y="-1190.8" font-family="Times New Roman,serif" font-size="14.00">Byers Residence: Mike and Lucas on the</text>
<text text-anchor="middle" x="795.5" y="-1175.8" font-family="Times New Roman,serif" font-size="14.00">Radio</text>
</g>
<g id="clust26" class="cluster"><title>cluster_epoch_2</title>
<polygon fill="none" stroke="black" stroke-dasharray="1,5" points="585,-1323 585,-1416 1158,-1416 1158,-1323 585,-1323"/>
</g>
<g id="clust28" class="cluster"><title>cluster_epoch_2_1</title>
<polygon fill="none" stroke="black" points="891,-1331 891,-1408 1150,-1408 1150,-1331 891,-1331"/>
<text text-anchor="middle" x="1020.5" y="-1392.8" font-family="Times New Roman,serif" font-size="14.00">Wheeler Basement: Eleven Reaches Will on</text>
<text text-anchor="middle" x="1020.5" y="-1377.8" font-family="Times New Roman,serif" font-size="14.00">the Radio</text>
</g>
<g id="clust27" class="cluster"><title>cluster_epoch_2_0</title>
<polygon fill="none" stroke="black" points="623,-1331 623,-1408 883,-1408 883,-1331 623,-1331"/>
<text text-anchor="middle" x="753" y="-1392.8" font-family="Times New Roman,serif" font-size="14.00">Wheeler Residence: Wheelers Watching the</text>
<text text-anchor="middle" x="753" y="-1377.8" font-family="Times New Roman,serif" font-size="14.00">News</text>
</g>
<g id="clust33" class="cluster"><title>cluster_epoch_5</title>
<polygon fill="none" stroke="black" stroke-dasharray="1,5" points="207,-1035 207,-1113 577,-1113 577,-1035 207,-1035"/>
</g>
<g id="clust34" class="cluster"><title>cluster_epoch_5_0</title>
<polygon fill="none" stroke="black" points="215,-1043 215,-1105 537,-1105 537,-1043 215,-1043"/>
<text text-anchor="middle" x="376" y="-1089.8" font-family="Times New Roman,serif" font-size="14.00">Coroner&#39;s Office: Not My Son</text>
</g>
<g id="clust35" class="cluster"><title>cluster_epoch_6</title>
<polygon fill="none" stroke="black" stroke-dasharray="1,5" points="439,-934 439,-1027 738,-1027 738,-934 439,-934"/>
</g>
<g id="clust36" class="cluster"><title>cluster_epoch_6_0</title>
<polygon fill="none" stroke="black" points="477,-942 477,-1019 730,-1019 730,-942 477,-942"/>
<text text-anchor="middle" x="603.5" y="-1003.8" font-family="Times New Roman,serif" font-size="14.00">Hawkins High School: Nancy and Steve at</text>
<text text-anchor="middle" x="603.5" y="-988.8" font-family="Times New Roman,serif" font-size="14.00">School</text>
</g>
<g id="clust37" class="cluster"><title>cluster_epoch_7</title>
<polygon fill="none" stroke="black" stroke-dasharray="1,5" points="200,-833 200,-926 479,-926 479,-833 200,-833"/>
</g>
<g id="clust38" class="cluster"><title>cluster_epoch_7_0</title>
<polygon fill="none" stroke="black" points="208,-841 208,-918 441,-918 441,-841 208,-841"/>
<text text-anchor="middle" x="324.5" y="-902.8" font-family="Times New Roman,serif" font-size="14.00">Town of Hawkins: Jonathan and Joyce</text>
<text text-anchor="middle" x="324.5" y="-887.8" font-family="Times New Roman,serif" font-size="14.00">Argue</text>
</g>
<g id="clust45" class="cluster"><title>cluster_epoch_11</title>
<polygon fill="none" stroke="black" stroke-dasharray="1,5" points="288,-732 288,-825 555,-825 555,-732 288,-732"/>
</g>
<g id="clust46" class="cluster"><title>cluster_epoch_11_0</title>
<polygon fill="none" stroke="black" points="296,-740 296,-817 517,-817 517,-740 296,-740"/>
<text text-anchor="middle" x="406.5" y="-801.8" font-family="Times New Roman,serif" font-size="14.00">Hawkins Police Department: Hopper</text>
<text text-anchor="middle" x="406.5" y="-786.8" font-family="Times New Roman,serif" font-size="14.00">Interviews the Coroner</text>
</g>
<g id="clust39" class="cluster"><title>cluster_epoch_8</title>
<polygon fill="none" stroke="black" stroke-dasharray="1,5" points="563,-732 563,-825 1042,-825 1042,-732 563,-732"/>
</g>
<g id="clust40" class="cluster"><title>cluster_epoch_8_0</title>
<polygon fill="none" stroke="black" points="603,-740 603,-817 1034,-817 1034,-740 603,-740"/>
<text text-anchor="middle" x="818.5" y="-801.8" font-family="Times New Roman,serif" font-size="14.00">Wheeler Residence: Eleven Gets a</text>
<text text-anchor="middle" x="818.5" y="-786.8" font-family="Times New Roman,serif" font-size="14.00">Makeover</text>
</g>
<g id="clust41" class="cluster"><title>cluster_epoch_9</title>
<polygon fill="none" stroke="black" stroke-dasharray="1,5" points="1050,-732 1050,-825 1308,-825 1308,-732 1050,-732"/>
</g>
<g id="clust42" class="cluster"><title>cluster_epoch_9_0</title>
<polygon fill="none" stroke="black" points="1088,-740 1088,-817 1300,-817 1300,-740 1088,-740"/>
<text text-anchor="middle" x="1194" y="-801.8" font-family="Times New Roman,serif" font-size="14.00">Hawkins Lab: Brenner Oversees an</text>
<text text-anchor="middle" x="1194" y="-786.8" font-family="Times New Roman,serif" font-size="14.00">Expedition</text>
</g>
<g id="clust43" class="cluster"><title>cluster_epoch_10</title>
<polygon fill="none" stroke="black" stroke-dasharray="1,5" points="1017,-833 1017,-926 1542,-926 1542,-833 1017,-833"/>
</g>
<g id="clust44" class="cluster"><title>cluster_epoch_10_0</title>
<polygon fill="none" stroke="black" points="1057,-841 1057,-918 1534,-918 1534,-841 1057,-841"/>
<text text-anchor="middle" x="1295.5" y="-902.8" font-family="Times New Roman,serif" font-size="14.00">Hawkins High School: Questions about</text>
<text text-anchor="middle" x="1295.5" y="-887.8" font-family="Times New Roman,serif" font-size="14.00">Barb</text>
</g>
<g id="clust52" class="cluster"><title>cluster_epoch_13</title>
<polygon fill="none" stroke="black" stroke-dasharray="1,5" points="8,-538 8,-631 312,-631 312,-538 8,-538"/>
</g>
<g id="clust53" class="cluster"><title>cluster_epoch_13_0</title>
<polygon fill="none" stroke="black" points="16,-546 16,-623 274,-623 274,-546 16,-546"/>
<text text-anchor="middle" x="145" y="-607.8" font-family="Times New Roman,serif" font-size="14.00">Funeral Home: Nancy Asks Jonathan about</text>
<text text-anchor="middle" x="145" y="-592.8" font-family="Times New Roman,serif" font-size="14.00">the Photo</text>
</g>
<g id="clust47" class="cluster"><title>cluster_epoch_12</title>
<polygon fill="none" stroke="black" stroke-dasharray="1,5" points="468,-538 468,-724 1526,-724 1526,-538 468,-538"/>
</g>
<g id="clust48" class="cluster"><title>cluster_epoch_12_0</title>
<polygon fill="none" stroke="black" points="508,-639 508,-716 1034,-716 1034,-639 508,-639"/>
<text text-anchor="middle" x="771" y="-700.8" font-family="Times New Roman,serif" font-size="14.00">Hawkins Middle School: Caught in the</text>
<text text-anchor="middle" x="771" y="-685.8" font-family="Times New Roman,serif" font-size="14.00">Hallway</text>
</g>
<g id="clust50" class="cluster"><title>cluster_epoch_12_2</title>
<polygon fill="none" stroke="black" points="1042,-639 1042,-701 1273,-701 1273,-639 1042,-639"/>
<text text-anchor="middle" x="1157.5" y="-685.8" font-family="Times New Roman,serif" font-size="14.00">Hawkins Lab: Death on the Expedition</text>
</g>
<g id="clust49" class="cluster"><title>cluster_epoch_12_1</title>
<polygon fill="none" stroke="black" points="1281,-639 1281,-716 1518,-716 1518,-639 1281,-639"/>
<text text-anchor="middle" x="1399.5" y="-700.8" font-family="Times New Roman,serif" font-size="14.00">Wheeler Residence: Nancy Argues with</text>
<text text-anchor="middle" x="1399.5" y="-685.8" font-family="Times New Roman,serif" font-size="14.00">Mom, Studies the Photo</text>
</g>
<g id="clust51" class="cluster"><title>cluster_epoch_12_3</title>
<polygon fill="none" stroke="black" points="476,-546 476,-623 1037,-623 1037,-546 476,-546"/>
<text text-anchor="middle" x="756.5" y="-607.8" font-family="Times New Roman,serif" font-size="14.00">Hawkins Middle School: Assembly, Mike</text>
<text text-anchor="middle" x="756.5" y="-592.8" font-family="Times New Roman,serif" font-size="14.00">Confronts Troy</text>
</g>
<g id="clust56" class="cluster"><title>cluster_epoch_15</title>
<polygon fill="none" stroke="black" stroke-dasharray="1,5" points="346,-281 346,-444 1031,-444 1031,-281 346,-281"/>
</g>
<g id="clust58" class="cluster"><title>cluster_epoch_15_1</title>
<polygon fill="none" stroke="black" points="592,-374 592,-436 1023,-436 1023,-374 592,-374"/>
<text text-anchor="middle" x="807.5" y="-420.8" font-family="Times New Roman,serif" font-size="14.00">Hawkins Middle School: Contacting Will</text>
</g>
<g id="clust57" class="cluster"><title>cluster_epoch_15_0</title>
<polygon fill="none" stroke="black" points="384,-374 384,-436 584,-436 584,-374 384,-374"/>
<text text-anchor="middle" x="484" y="-420.8" font-family="Times New Roman,serif" font-size="14.00">Byers Residence: Joyce at Home</text>
</g>
<g id="clust59" class="cluster"><title>cluster_epoch_15_2</title>
<polygon fill="none" stroke="black" points="772,-289 772,-366 1023,-366 1023,-289 772,-289"/>
<text text-anchor="middle" x="897.5" y="-350.8" font-family="Times New Roman,serif" font-size="14.00">Hawkins Lab: Flashback: Finding the Man</text>
<text text-anchor="middle" x="897.5" y="-335.8" font-family="Times New Roman,serif" font-size="14.00">in the Picture</text>
</g>
<g id="clust60" class="cluster"><title>cluster_epoch_15_3</title>
<polygon fill="none" stroke="black" points="459,-289 459,-351 662,-351 662,-289 459,-289"/>
<text text-anchor="middle" x="560.5" y="-335.8" font-family="Times New Roman,serif" font-size="14.00">Byers Residence: Will in the Wall</text>
</g>
<g id="clust54" class="cluster"><title>cluster_epoch_14</title>
<polygon fill="none" stroke="black" stroke-dasharray="1,5" points="173,-452 173,-530 441,-530 441,-452 173,-452"/>
</g>
<g id="clust55" class="cluster"><title>cluster_epoch_14_0</title>
<polygon fill="none" stroke="black" points="213,-460 213,-522 433,-522 433,-460 213,-460"/>
<text text-anchor="middle" x="323" y="-506.8" font-family="Times New Roman,serif" font-size="14.00">Hideaway Bar: Violent Interrogation</text>
</g>
<g id="clust67" class="cluster"><title>cluster_epoch_19</title>
<polygon fill="none" stroke="black" stroke-dasharray="1,5" points="178,-8 178,-86 451,-86 451,-8 178,-8"/>
</g>
<g id="clust68" class="cluster"><title>cluster_epoch_19_0</title>
<polygon fill="none" stroke="black" points="186,-16 186,-78 413,-78 413,-16 186,-16"/>
<text text-anchor="middle" x="299.5" y="-62.8" font-family="Times New Roman,serif" font-size="14.00">Hawkins Lab: Hopper Cuts the Fence</text>
</g>
<g id="clust61" class="cluster"><title>cluster_epoch_16</title>
<polygon fill="none" stroke="black" stroke-dasharray="1,5" points="8,-281 8,-359 294,-359 294,-281 8,-281"/>
</g>
<g id="clust62" class="cluster"><title>cluster_epoch_16_0</title>
<polygon fill="none" stroke="black" points="16,-289 16,-351 254,-351 254,-289 16,-289"/>
<text text-anchor="middle" x="135" y="-335.8" font-family="Times New Roman,serif" font-size="14.00">Hawkins High School: Darkroom</text>
</g>
<g id="clust63" class="cluster"><title>cluster_epoch_17</title>
<polygon fill="none" stroke="black" stroke-dasharray="1,5" points="219,-180 219,-273 506,-273 506,-180 219,-180"/>
</g>
<g id="clust64" class="cluster"><title>cluster_epoch_17_0</title>
<polygon fill="none" stroke="black" points="257,-188 257,-265 498,-265 498,-188 257,-188"/>
<text text-anchor="middle" x="377.5" y="-249.8" font-family="Times New Roman,serif" font-size="14.00">Coroner&#39;s Office: Hopper Discovers the</text>
<text text-anchor="middle" x="377.5" y="-234.8" font-family="Times New Roman,serif" font-size="14.00">Fake</text>
</g>
<g id="clust65" class="cluster"><title>cluster_epoch_18</title>
<polygon fill="none" stroke="black" stroke-dasharray="1,5" points="413,-94 413,-172 674,-172 674,-94 413,-94"/>
</g>
<g id="clust66" class="cluster"><title>cluster_epoch_18_0</title>
<polygon fill="none" stroke="black" points="451,-102 451,-164 666,-164 666,-102 451,-102"/>
<text text-anchor="middle" x="558.5" y="-148.8" font-family="Times New Roman,serif" font-size="14.00">Byers Residence: Joyce and Lonnie</text>
</g>
<!-- epoch_1 -->
<!-- epoch_2 -->
<!-- epoch_1&#45;&gt;epoch_2 -->
<!-- epoch_3 -->
<!-- epoch_2&#45;&gt;epoch_3 -->
<!-- epoch_4 -->
<!-- epoch_3&#45;&gt;epoch_4 -->
<!-- epoch_5 -->
<!-- epoch_4&#45;&gt;epoch_5 -->
<!-- epoch_6 -->
<!-- epoch_5&#45;&gt;epoch_6 -->
<!-- epoch_7 -->
<!-- epoch_6&#45;&gt;epoch_7 -->
<!-- epoch_8 -->
<!-- epoch_7&#45;&gt;epoch_8 -->
<!-- epoch_9 -->
<!-- epoch_8&#45;&gt;epoch_9 -->
<!-- epoch_10 -->
<!-- epoch_9&#45;&gt;epoch_10 -->
<!-- epoch_11 -->
<!-- epoch_10&#45;&gt;epoch_11 -->
<!-- epoch_12 -->
<!-- epoch_11&#45;&gt;epoch_12 -->
<!-- epoch_13 -->
<!-- epoch_12&#45;&gt;epoch_13 -->
<!-- epoch_14 -->
<!-- epoch_13&#45;&gt;epoch_14 -->
<!-- epoch_15 -->
<!-- epoch_14&#45;&gt;epoch_15 -->
<!-- epoch_16 -->
<!-- epoch_15&#45;&gt;epoch_16 -->
<!-- epoch_17 -->
<!-- epoch_16&#45;&gt;epoch_17 -->
<!-- epoch_18 -->
<!-- epoch_17&#45;&gt;epoch_18 -->
<!-- epoch_19 -->
<!-- epoch_18&#45;&gt;epoch_19 -->
<!-- Will_epoch_15_3 -->
<g id="node20" class="node"><title>Will_epoch_15_3</title>
<path fill="none" stroke="#1b9e77" d="M643.833,-320C643.833,-320 584.167,-320 584.167,-320 580.333,-320 576.5,-316.167 576.5,-312.333 576.5,-312.333 576.5,-304.667 576.5,-304.667 576.5,-300.833 580.333,-297 584.167,-297 584.167,-297 643.833,-297 643.833,-297 647.667,-297 651.5,-300.833 651.5,-304.667 651.5,-304.667 651.5,-312.333 651.5,-312.333 651.5,-316.167 647.667,-320 643.833,-320"/>
<text text-anchor="middle" x="614" y="-304.8" font-family="Times New Roman,serif" font-size="14.00">Will Byers</text>
</g>
<!-- Mike_epoch_2_1 -->
<g id="node21" class="node"><title>Mike_epoch_2_1</title>
<path fill="none" stroke="#d95f02" d="M985.333,-1362C985.333,-1362 906.667,-1362 906.667,-1362 902.833,-1362 899,-1358.17 899,-1354.33 899,-1354.33 899,-1346.67 899,-1346.67 899,-1342.83 902.833,-1339 906.667,-1339 906.667,-1339 985.333,-1339 985.333,-1339 989.167,-1339 993,-1342.83 993,-1346.67 993,-1346.67 993,-1354.33 993,-1354.33 993,-1358.17 989.167,-1362 985.333,-1362"/>
<text text-anchor="middle" x="946" y="-1346.8" font-family="Times New Roman,serif" font-size="14.00">Mike Wheeler</text>
</g>
<!-- Mike_epoch_4_0 -->
<g id="node22" class="node"><title>Mike_epoch_4_0</title>
<path fill="none" stroke="#d95f02" d="M950.333,-1160C950.333,-1160 871.667,-1160 871.667,-1160 867.833,-1160 864,-1156.17 864,-1152.33 864,-1152.33 864,-1144.67 864,-1144.67 864,-1140.83 867.833,-1137 871.667,-1137 871.667,-1137 950.333,-1137 950.333,-1137 954.167,-1137 958,-1140.83 958,-1144.67 958,-1144.67 958,-1152.33 958,-1152.33 958,-1156.17 954.167,-1160 950.333,-1160"/>
<text text-anchor="middle" x="911" y="-1144.8" font-family="Times New Roman,serif" font-size="14.00">Mike Wheeler</text>
</g>
<!-- Mike_epoch_2_1&#45;&gt;Mike_epoch_4_0 -->
<g id="edge19" class="edge"><title>Mike_epoch_2_1&#45;&gt;Mike_epoch_4_0</title>
<path fill="none" stroke="#d95f02" d="M944.118,-1338.75C938.041,-1304.02 918.981,-1195.11 912.891,-1160.31"/>
</g>
<!-- Mike_epoch_8_0 -->
<g id="node23" class="node"><title>Mike_epoch_8_0</title>
<path fill="none" stroke="#d95f02" d="M946.333,-771C946.333,-771 867.667,-771 867.667,-771 863.833,-771 860,-767.167 860,-763.333 860,-763.333 860,-755.667 860,-755.667 860,-751.833 863.833,-748 867.667,-748 867.667,-748 946.333,-748 946.333,-748 950.167,-748 954,-751.833 954,-755.667 954,-755.667 954,-763.333 954,-763.333 954,-767.167 950.167,-771 946.333,-771"/>
<text text-anchor="middle" x="907" y="-755.8" font-family="Times New Roman,serif" font-size="14.00">Mike Wheeler</text>
</g>
<!-- Mike_epoch_4_0&#45;&gt;Mike_epoch_8_0 -->
<g id="edge20" class="edge"><title>Mike_epoch_4_0&#45;&gt;Mike_epoch_8_0</title>
<path fill="none" stroke="#d95f02" d="M910.889,-1136.75C910.313,-1081.08 907.678,-826.126 907.109,-771.021"/>
</g>
<!-- Mike_epoch_12_0 -->
<g id="node24" class="node"><title>Mike_epoch_12_0</title>
<path fill="none" stroke="#d95f02" d="M946.333,-670C946.333,-670 867.667,-670 867.667,-670 863.833,-670 860,-666.167 860,-662.333 860,-662.333 860,-654.667 860,-654.667 860,-650.833 863.833,-647 867.667,-647 867.667,-647 946.333,-647 946.333,-647 950.167,-647 954,-650.833 954,-654.667 954,-654.667 954,-662.333 954,-662.333 954,-666.167 950.167,-670 946.333,-670"/>
<text text-anchor="middle" x="907" y="-654.8" font-family="Times New Roman,serif" font-size="14.00">Mike Wheeler</text>
</g>
<!-- Mike_epoch_8_0&#45;&gt;Mike_epoch_12_0 -->
<g id="edge21" class="edge"><title>Mike_epoch_8_0&#45;&gt;Mike_epoch_12_0</title>
<path fill="none" stroke="#d95f02" d="M907,-747.905C907,-728.851 907,-689.018 907,-670.019"/>
</g>
<!-- Mike_epoch_12_3 -->
<g id="node25" class="node"><title>Mike_epoch_12_3</title>
<path fill="none" stroke="#d95f02" d="M949.333,-577C949.333,-577 870.667,-577 870.667,-577 866.833,-577 863,-573.167 863,-569.333 863,-569.333 863,-561.667 863,-561.667 863,-557.833 866.833,-554 870.667,-554 870.667,-554 949.333,-554 949.333,-554 953.167,-554 957,-557.833 957,-561.667 957,-561.667 957,-569.333 957,-569.333 957,-573.167 953.167,-577 949.333,-577"/>
<text text-anchor="middle" x="910" y="-561.8" font-family="Times New Roman,serif" font-size="14.00">Mike Wheeler</text>
</g>
<!-- Mike_epoch_12_0&#45;&gt;Mike_epoch_12_3 -->
<g id="edge22" class="edge"><title>Mike_epoch_12_0&#45;&gt;Mike_epoch_12_3</title>
<path fill="none" stroke="#d95f02" d="M907.356,-646.704C907.936,-629.096 909.08,-594.416 909.654,-577.001"/>
</g>
<!-- Mike_epoch_15_1 -->
<g id="node26" class="node"><title>Mike_epoch_15_1</title>
<path fill="none" stroke="#d95f02" d="M935.333,-405C935.333,-405 856.667,-405 856.667,-405 852.833,-405 849,-401.167 849,-397.333 849,-397.333 849,-389.667 849,-389.667 849,-385.833 852.833,-382 856.667,-382 856.667,-382 935.333,-382 935.333,-382 939.167,-382 943,-385.833 943,-389.667 943,-389.667 943,-397.333 943,-397.333 943,-401.167 939.167,-405 935.333,-405"/>
<text text-anchor="middle" x="896" y="-389.8" font-family="Times New Roman,serif" font-size="14.00">Mike Wheeler</text>
</g>
<!-- Mike_epoch_12_3&#45;&gt;Mike_epoch_15_1 -->
<g id="edge23" class="edge"><title>Mike_epoch_12_3&#45;&gt;Mike_epoch_15_1</title>
<path fill="none" stroke="#d95f02" d="M909.124,-553.866C906.61,-523.336 899.389,-435.655 896.875,-405.13"/>
</g>
<!-- Lonnie_epoch_18_0 -->
<g id="node27" class="node"><title>Lonnie_epoch_18_0</title>
<path fill="none" stroke="#7570b3" d="M649.833,-133C649.833,-133 574.167,-133 574.167,-133 570.333,-133 566.5,-129.167 566.5,-125.333 566.5,-125.333 566.5,-117.667 566.5,-117.667 566.5,-113.833 570.333,-110 574.167,-110 574.167,-110 649.833,-110 649.833,-110 653.667,-110 657.5,-113.833 657.5,-117.667 657.5,-117.667 657.5,-125.333 657.5,-125.333 657.5,-129.167 653.667,-133 649.833,-133"/>
<text text-anchor="middle" x="612" y="-117.8" font-family="Times New Roman,serif" font-size="14.00">Lonnie Byers</text>
</g>
<!-- Lucas_epoch_4_0 -->
<g id="node28" class="node"><title>Lucas_epoch_4_0</title>
<path fill="none" stroke="#e7298a" d="M720.833,-1160C720.833,-1160 641.167,-1160 641.167,-1160 637.333,-1160 633.5,-1156.17 633.5,-1152.33 633.5,-1152.33 633.5,-1144.67 633.5,-1144.67 633.5,-1140.83 637.333,-1137 641.167,-1137 641.167,-1137 720.833,-1137 720.833,-1137 724.667,-1137 728.5,-1140.83 728.5,-1144.67 728.5,-1144.67 728.5,-1152.33 728.5,-1152.33 728.5,-1156.17 724.667,-1160 720.833,-1160"/>
<text text-anchor="middle" x="681" y="-1144.8" font-family="Times New Roman,serif" font-size="14.00">Lucas Sinclair</text>
</g>
<!-- Lucas_epoch_8_0 -->
<g id="node29" class="node"><title>Lucas_epoch_8_0</title>
<path fill="none" stroke="#e7298a" d="M833.833,-771C833.833,-771 754.167,-771 754.167,-771 750.333,-771 746.5,-767.167 746.5,-763.333 746.5,-763.333 746.5,-755.667 746.5,-755.667 746.5,-751.833 750.333,-748 754.167,-748 754.167,-748 833.833,-748 833.833,-748 837.667,-748 841.5,-751.833 841.5,-755.667 841.5,-755.667 841.5,-763.333 841.5,-763.333 841.5,-767.167 837.667,-771 833.833,-771"/>
<text text-anchor="middle" x="794" y="-755.8" font-family="Times New Roman,serif" font-size="14.00">Lucas Sinclair</text>
</g>
<!-- Lucas_epoch_4_0&#45;&gt;Lucas_epoch_8_0 -->
<g id="edge24" class="edge"><title>Lucas_epoch_4_0&#45;&gt;Lucas_epoch_8_0</title>
<path fill="none" stroke="#e7298a" d="M690.214,-1136.75C706.848,-1116.69 741.676,-1071.52 758,-1027 792.716,-932.319 794.478,-807.687 794.181,-771.051"/>
</g>
<!-- Lucas_epoch_12_0 -->
<g id="node30" class="node"><title>Lucas_epoch_12_0</title>
<path fill="none" stroke="#e7298a" d="M833.833,-670C833.833,-670 754.167,-670 754.167,-670 750.333,-670 746.5,-666.167 746.5,-662.333 746.5,-662.333 746.5,-654.667 746.5,-654.667 746.5,-650.833 750.333,-647 754.167,-647 754.167,-647 833.833,-647 833.833,-647 837.667,-647 841.5,-650.833 841.5,-654.667 841.5,-654.667 841.5,-662.333 841.5,-662.333 841.5,-666.167 837.667,-670 833.833,-670"/>
<text text-anchor="middle" x="794" y="-654.8" font-family="Times New Roman,serif" font-size="14.00">Lucas Sinclair</text>
</g>
<!-- Lucas_epoch_8_0&#45;&gt;Lucas_epoch_12_0 -->
<g id="edge25" class="edge"><title>Lucas_epoch_8_0&#45;&gt;Lucas_epoch_12_0</title>
<path fill="none" stroke="#e7298a" d="M794,-747.905C794,-728.851 794,-689.018 794,-670.019"/>
</g>
<!-- Lucas_epoch_12_3 -->
<g id="node31" class="node"><title>Lucas_epoch_12_3</title>
<path fill="none" stroke="#e7298a" d="M768.833,-577C768.833,-577 689.167,-577 689.167,-577 685.333,-577 681.5,-573.167 681.5,-569.333 681.5,-569.333 681.5,-561.667 681.5,-561.667 681.5,-557.833 685.333,-554 689.167,-554 689.167,-554 768.833,-554 768.833,-554 772.667,-554 776.5,-557.833 776.5,-561.667 776.5,-561.667 776.5,-569.333 776.5,-569.333 776.5,-573.167 772.667,-577 768.833,-577"/>
<text text-anchor="middle" x="729" y="-561.8" font-family="Times New Roman,serif" font-size="14.00">Lucas Sinclair</text>
</g>
<!-- Lucas_epoch_12_0&#45;&gt;Lucas_epoch_12_3 -->
<g id="edge26" class="edge"><title>Lucas_epoch_12_0&#45;&gt;Lucas_epoch_12_3</title>
<path fill="none" stroke="#e7298a" d="M786.288,-646.704C773.711,-629.096 748.94,-594.416 736.501,-577.001"/>
</g>
<!-- Lucas_epoch_15_1 -->
<g id="node32" class="node"><title>Lucas_epoch_15_1</title>
<path fill="none" stroke="#e7298a" d="M822.833,-405C822.833,-405 743.167,-405 743.167,-405 739.333,-405 735.5,-401.167 735.5,-397.333 735.5,-397.333 735.5,-389.667 735.5,-389.667 735.5,-385.833 739.333,-382 743.167,-382 743.167,-382 822.833,-382 822.833,-382 826.667,-382 830.5,-385.833 830.5,-389.667 830.5,-389.667 830.5,-397.333 830.5,-397.333 830.5,-401.167 826.667,-405 822.833,-405"/>
<text text-anchor="middle" x="783" y="-389.8" font-family="Times New Roman,serif" font-size="14.00">Lucas Sinclair</text>
</g>
<!-- Lucas_epoch_12_3&#45;&gt;Lucas_epoch_15_1 -->
<g id="edge27" class="edge"><title>Lucas_epoch_12_3&#45;&gt;Lucas_epoch_15_1</title>
<path fill="none" stroke="#e7298a" d="M732.378,-553.866C742.076,-523.336 769.927,-435.655 779.623,-405.13"/>
</g>
<!-- James_epoch_12_3 -->
<g id="node33" class="node"><title>James_epoch_12_3</title>
<path fill="none" stroke="#66a61e" d="M837.333,-577C837.333,-577 802.667,-577 802.667,-577 798.833,-577 795,-573.167 795,-569.333 795,-569.333 795,-561.667 795,-561.667 795,-557.833 798.833,-554 802.667,-554 802.667,-554 837.333,-554 837.333,-554 841.167,-554 845,-557.833 845,-561.667 845,-561.667 845,-569.333 845,-569.333 845,-573.167 841.167,-577 837.333,-577"/>
<text text-anchor="middle" x="820" y="-561.8" font-family="Times New Roman,serif" font-size="14.00">James</text>
</g>
<!-- Brenner_epoch_9_0 -->
<g id="node34" class="node"><title>Brenner_epoch_9_0</title>
<path fill="none" stroke="#e6ab02" d="M1212.33,-771C1212.33,-771 1105.67,-771 1105.67,-771 1101.83,-771 1098,-767.167 1098,-763.333 1098,-763.333 1098,-755.667 1098,-755.667 1098,-751.833 1101.83,-748 1105.67,-748 1105.67,-748 1212.33,-748 1212.33,-748 1216.17,-748 1220,-751.833 1220,-755.667 1220,-755.667 1220,-763.333 1220,-763.333 1220,-767.167 1216.17,-771 1212.33,-771"/>
<text text-anchor="middle" x="1159" y="-755.8" font-family="Times New Roman,serif" font-size="14.00">Dr. Martin Brenner</text>
</g>
<!-- Brenner_epoch_12_2 -->
<g id="node35" class="node"><title>Brenner_epoch_12_2</title>
<path fill="none" stroke="#e6ab02" d="M1188.33,-670C1188.33,-670 1081.67,-670 1081.67,-670 1077.83,-670 1074,-666.167 1074,-662.333 1074,-662.333 1074,-654.667 1074,-654.667 1074,-650.833 1077.83,-647 1081.67,-647 1081.67,-647 1188.33,-647 1188.33,-647 1192.17,-647 1196,-650.833 1196,-654.667 1196,-654.667 1196,-662.333 1196,-662.333 1196,-666.167 1192.17,-670 1188.33,-670"/>
<text text-anchor="middle" x="1135" y="-654.8" font-family="Times New Roman,serif" font-size="14.00">Dr. Martin Brenner</text>
</g>
<!-- Brenner_epoch_9_0&#45;&gt;Brenner_epoch_12_2 -->
<g id="edge28" class="edge"><title>Brenner_epoch_9_0&#45;&gt;Brenner_epoch_12_2</title>
<path fill="none" stroke="#e6ab02" d="M1156.43,-747.905C1151.81,-728.851 1142.16,-689.018 1137.55,-670.019"/>
</g>
<!-- Brenner_epoch_15_2 -->
<g id="node36" class="node"><title>Brenner_epoch_15_2</title>
<path fill="none" stroke="#e6ab02" d="M1007.33,-320C1007.33,-320 900.667,-320 900.667,-320 896.833,-320 893,-316.167 893,-312.333 893,-312.333 893,-304.667 893,-304.667 893,-300.833 896.833,-297 900.667,-297 900.667,-297 1007.33,-297 1007.33,-297 1011.17,-297 1015,-300.833 1015,-304.667 1015,-304.667 1015,-312.333 1015,-312.333 1015,-316.167 1011.17,-320 1007.33,-320"/>
<text text-anchor="middle" x="954" y="-304.8" font-family="Times New Roman,serif" font-size="14.00">Dr. Martin Brenner</text>
</g>
<!-- Brenner_epoch_12_2&#45;&gt;Brenner_epoch_15_2 -->
<g id="edge29" class="edge"><title>Brenner_epoch_12_2&#45;&gt;Brenner_epoch_15_2</title>
<path fill="none" stroke="#e6ab02" d="M1132.89,-646.855C1124.72,-607.608 1092.36,-468.402 1027,-374 1011.4,-351.474 986.314,-331.629 969.991,-320.091"/>
</g>
<!-- Coroner_epoch_11_0 -->
<g id="node37" class="node"><title>Coroner_epoch_11_0</title>
<path fill="none" stroke="#a6761d" d="M498.833,-771C498.833,-771 451.167,-771 451.167,-771 447.333,-771 443.5,-767.167 443.5,-763.333 443.5,-763.333 443.5,-755.667 443.5,-755.667 443.5,-751.833 447.333,-748 451.167,-748 451.167,-748 498.833,-748 498.833,-748 502.667,-748 506.5,-751.833 506.5,-755.667 506.5,-755.667 506.5,-763.333 506.5,-763.333 506.5,-767.167 502.667,-771 498.833,-771"/>
<text text-anchor="middle" x="475" y="-755.8" font-family="Times New Roman,serif" font-size="14.00">Coroner</text>
</g>
<!-- Officer_Callahan_epoch_1_0 -->
<g id="node38" class="node"><title>Officer_Callahan_epoch_1_0</title>
<path fill="none" stroke="#666666" d="M687.833,-1463C687.833,-1463 596.167,-1463 596.167,-1463 592.333,-1463 588.5,-1459.17 588.5,-1455.33 588.5,-1455.33 588.5,-1447.67 588.5,-1447.67 588.5,-1443.83 592.333,-1440 596.167,-1440 596.167,-1440 687.833,-1440 687.833,-1440 691.667,-1440 695.5,-1443.83 695.5,-1447.67 695.5,-1447.67 695.5,-1455.33 695.5,-1455.33 695.5,-1459.17 691.667,-1463 687.833,-1463"/>
<text text-anchor="middle" x="642" y="-1447.8" font-family="Times New Roman,serif" font-size="14.00">Officer Callahan</text>
</g>
<!-- Officer_Callahan_epoch_10_0 -->
<g id="node39" class="node"><title>Officer_Callahan_epoch_10_0</title>
<path fill="none" stroke="#666666" d="M1401.83,-872C1401.83,-872 1310.17,-872 1310.17,-872 1306.33,-872 1302.5,-868.167 1302.5,-864.333 1302.5,-864.333 1302.5,-856.667 1302.5,-856.667 1302.5,-852.833 1306.33,-849 1310.17,-849 1310.17,-849 1401.83,-849 1401.83,-849 1405.67,-849 1409.5,-852.833 1409.5,-856.667 1409.5,-856.667 1409.5,-864.333 1409.5,-864.333 1409.5,-868.167 1405.67,-872 1401.83,-872"/>
<text text-anchor="middle" x="1356" y="-856.8" font-family="Times New Roman,serif" font-size="14.00">Officer Callahan</text>
</g>
<!-- Officer_Callahan_epoch_1_0&#45;&gt;Officer_Callahan_epoch_10_0 -->
<g id="edge30" class="edge"><title>Officer_Callahan_epoch_1_0&#45;&gt;Officer_Callahan_epoch_10_0</title>
<path fill="none" stroke="#666666" d="M661.793,-1439.88C673.897,-1433.97 689.907,-1427.19 705,-1424 729.411,-1418.85 1132.07,-1427.89 1154,-1416 1232.08,-1373.67 1266,-1339.32 1266,-1250.5 1266,-1250.5 1266,-1250.5 1266,-1061.5 1266,-982.683 1324.84,-900.563 1347.37,-872.014"/>
</g>
<!-- Hopper_epoch_1_0 -->
<g id="node40" class="node"><title>Hopper_epoch_1_0</title>
<path fill="none" stroke="#1b9e77" d="M340.333,-1463C340.333,-1463 273.667,-1463 273.667,-1463 269.833,-1463 266,-1459.17 266,-1455.33 266,-1455.33 266,-1447.67 266,-1447.67 266,-1443.83 269.833,-1440 273.667,-1440 273.667,-1440 340.333,-1440 340.333,-1440 344.167,-1440 348,-1443.83 348,-1447.67 348,-1447.67 348,-1455.33 348,-1455.33 348,-1459.17 344.167,-1463 340.333,-1463"/>
<text text-anchor="middle" x="307" y="-1447.8" font-family="Times New Roman,serif" font-size="14.00">Jim Hopper</text>
</g>
<!-- Hopper_epoch_5_0 -->
<g id="node41" class="node"><title>Hopper_epoch_5_0</title>
<path fill="none" stroke="#1b9e77" d="M417.333,-1074C417.333,-1074 350.667,-1074 350.667,-1074 346.833,-1074 343,-1070.17 343,-1066.33 343,-1066.33 343,-1058.67 343,-1058.67 343,-1054.83 346.833,-1051 350.667,-1051 350.667,-1051 417.333,-1051 417.333,-1051 421.167,-1051 425,-1054.83 425,-1058.67 425,-1058.67 425,-1066.33 425,-1066.33 425,-1070.17 421.167,-1074 417.333,-1074"/>
<text text-anchor="middle" x="384" y="-1058.8" font-family="Times New Roman,serif" font-size="14.00">Jim Hopper</text>
</g>
<!-- Hopper_epoch_1_0&#45;&gt;Hopper_epoch_5_0 -->
<g id="edge31" class="edge"><title>Hopper_epoch_1_0&#45;&gt;Hopper_epoch_5_0</title>
<path fill="none" stroke="#1b9e77" d="M308.208,-1439.95C312.029,-1407.33 324.638,-1305.29 342,-1222 353.735,-1165.71 373.101,-1099.57 380.748,-1074.17"/>
</g>
<!-- Hopper_epoch_11_0 -->
<g id="node42" class="node"><title>Hopper_epoch_11_0</title>
<path fill="none" stroke="#1b9e77" d="M417.333,-771C417.333,-771 350.667,-771 350.667,-771 346.833,-771 343,-767.167 343,-763.333 343,-763.333 343,-755.667 343,-755.667 343,-751.833 346.833,-748 350.667,-748 350.667,-748 417.333,-748 417.333,-748 421.167,-748 425,-751.833 425,-755.667 425,-755.667 425,-763.333 425,-763.333 425,-767.167 421.167,-771 417.333,-771"/>
<text text-anchor="middle" x="384" y="-755.8" font-family="Times New Roman,serif" font-size="14.00">Jim Hopper</text>
</g>
<!-- Hopper_epoch_5_0&#45;&gt;Hopper_epoch_11_0 -->
<g id="edge32" class="edge"><title>Hopper_epoch_5_0&#45;&gt;Hopper_epoch_11_0</title>
<path fill="none" stroke="#1b9e77" d="M399.437,-1050.92C408.947,-1045.03 421.648,-1038.25 434,-1035 450.125,-1030.76 722.369,-1038.95 734,-1027 762.835,-997.386 757.137,-968.251 734,-934 666.688,-834.357 598.821,-865.329 483,-833 461.746,-827.067 452.965,-836.281 434,-825 412.325,-812.107 396.619,-785.96 389.06,-771.224"/>
</g>
<!-- Hopper_epoch_14_0 -->
<g id="node43" class="node"><title>Hopper_epoch_14_0</title>
<path fill="none" stroke="#1b9e77" d="M417.333,-491C417.333,-491 350.667,-491 350.667,-491 346.833,-491 343,-487.167 343,-483.333 343,-483.333 343,-475.667 343,-475.667 343,-471.833 346.833,-468 350.667,-468 350.667,-468 417.333,-468 417.333,-468 421.167,-468 425,-471.833 425,-475.667 425,-475.667 425,-483.333 425,-483.333 425,-487.167 421.167,-491 417.333,-491"/>
<text text-anchor="middle" x="384" y="-475.8" font-family="Times New Roman,serif" font-size="14.00">Jim Hopper</text>
</g>
<!-- Hopper_epoch_11_0&#45;&gt;Hopper_epoch_14_0 -->
<g id="edge33" class="edge"><title>Hopper_epoch_11_0&#45;&gt;Hopper_epoch_14_0</title>
<path fill="none" stroke="#1b9e77" d="M384,-747.942C384,-703.906 384,-535.125 384,-491.069"/>
</g>
<!-- Hopper_epoch_17_0 -->
<g id="node44" class="node"><title>Hopper_epoch_17_0</title>
<path fill="none" stroke="#1b9e77" d="M359.333,-219C359.333,-219 292.667,-219 292.667,-219 288.833,-219 285,-215.167 285,-211.333 285,-211.333 285,-203.667 285,-203.667 285,-199.833 288.833,-196 292.667,-196 292.667,-196 359.333,-196 359.333,-196 363.167,-196 367,-199.833 367,-203.667 367,-203.667 367,-211.333 367,-211.333 367,-215.167 363.167,-219 359.333,-219"/>
<text text-anchor="middle" x="326" y="-203.8" font-family="Times New Roman,serif" font-size="14.00">Jim Hopper</text>
</g>
<!-- Hopper_epoch_14_0&#45;&gt;Hopper_epoch_17_0 -->
<g id="edge34" class="edge"><title>Hopper_epoch_14_0&#45;&gt;Hopper_epoch_17_0</title>
<path fill="none" stroke="#1b9e77" d="M364.988,-467.863C356.419,-462.003 347.097,-453.9 342,-444 301.856,-366.031 317.647,-253.851 323.909,-219.141"/>
</g>
<!-- Hopper_epoch_19_0 -->
<g id="node45" class="node"><title>Hopper_epoch_19_0</title>
<path fill="none" stroke="#1b9e77" d="M359.333,-47C359.333,-47 292.667,-47 292.667,-47 288.833,-47 285,-43.1667 285,-39.3333 285,-39.3333 285,-31.6667 285,-31.6667 285,-27.8333 288.833,-24 292.667,-24 292.667,-24 359.333,-24 359.333,-24 363.167,-24 367,-27.8333 367,-31.6667 367,-31.6667 367,-39.3333 367,-39.3333 367,-43.1667 363.167,-47 359.333,-47"/>
<text text-anchor="middle" x="326" y="-31.8" font-family="Times New Roman,serif" font-size="14.00">Jim Hopper</text>
</g>
<!-- Hopper_epoch_17_0&#45;&gt;Hopper_epoch_19_0 -->
<g id="edge35" class="edge"><title>Hopper_epoch_17_0&#45;&gt;Hopper_epoch_19_0</title>
<path fill="none" stroke="#1b9e77" d="M326,-195.866C326,-165.336 326,-77.6549 326,-47.1302"/>
</g>
<!-- Ted_epoch_2_0 -->
<g id="node46" class="node"><title>Ted_epoch_2_0</title>
<path fill="none" stroke="#d95f02" d="M866.833,-1362C866.833,-1362 793.167,-1362 793.167,-1362 789.333,-1362 785.5,-1358.17 785.5,-1354.33 785.5,-1354.33 785.5,-1346.67 785.5,-1346.67 785.5,-1342.83 789.333,-1339 793.167,-1339 793.167,-1339 866.833,-1339 866.833,-1339 870.667,-1339 874.5,-1342.83 874.5,-1346.67 874.5,-1346.67 874.5,-1354.33 874.5,-1354.33 874.5,-1358.17 870.667,-1362 866.833,-1362"/>
<text text-anchor="middle" x="830" y="-1346.8" font-family="Times New Roman,serif" font-size="14.00">Ted Wheeler</text>
</g>
<!-- Steve_epoch_6_0 -->
<g id="node47" class="node"><title>Steve_epoch_6_0</title>
<path fill="none" stroke="#7570b3" d="M714.333,-973C714.333,-973 619.667,-973 619.667,-973 615.833,-973 612,-969.167 612,-965.333 612,-965.333 612,-957.667 612,-957.667 612,-953.833 615.833,-950 619.667,-950 619.667,-950 714.333,-950 714.333,-950 718.167,-950 722,-953.833 722,-957.667 722,-957.667 722,-965.333 722,-965.333 722,-969.167 718.167,-973 714.333,-973"/>
<text text-anchor="middle" x="667" y="-957.8" font-family="Times New Roman,serif" font-size="14.00">Steve Harrington</text>
</g>
<!-- Eleven_epoch_2_1 -->
<g id="node48" class="node"><title>Eleven_epoch_2_1</title>
<path fill="none" stroke="#e7298a" d="M1056.83,-1362C1056.83,-1362 1019.17,-1362 1019.17,-1362 1015.33,-1362 1011.5,-1358.17 1011.5,-1354.33 1011.5,-1354.33 1011.5,-1346.67 1011.5,-1346.67 1011.5,-1342.83 1015.33,-1339 1019.17,-1339 1019.17,-1339 1056.83,-1339 1056.83,-1339 1060.67,-1339 1064.5,-1342.83 1064.5,-1346.67 1064.5,-1346.67 1064.5,-1354.33 1064.5,-1354.33 1064.5,-1358.17 1060.67,-1362 1056.83,-1362"/>
<text text-anchor="middle" x="1038" y="-1346.8" font-family="Times New Roman,serif" font-size="14.00">Eleven</text>
</g>
<!-- Eleven_epoch_8_0 -->
<g id="node49" class="node"><title>Eleven_epoch_8_0</title>
<path fill="none" stroke="#e7298a" d="M1017.83,-771C1017.83,-771 980.167,-771 980.167,-771 976.333,-771 972.5,-767.167 972.5,-763.333 972.5,-763.333 972.5,-755.667 972.5,-755.667 972.5,-751.833 976.333,-748 980.167,-748 980.167,-748 1017.83,-748 1017.83,-748 1021.67,-748 1025.5,-751.833 1025.5,-755.667 1025.5,-755.667 1025.5,-763.333 1025.5,-763.333 1025.5,-767.167 1021.67,-771 1017.83,-771"/>
<text text-anchor="middle" x="999" y="-755.8" font-family="Times New Roman,serif" font-size="14.00">Eleven</text>
</g>
<!-- Eleven_epoch_2_1&#45;&gt;Eleven_epoch_8_0 -->
<g id="edge36" class="edge"><title>Eleven_epoch_2_1&#45;&gt;Eleven_epoch_8_0</title>
<path fill="none" stroke="#e7298a" d="M1034.22,-1338.82C1024.07,-1309.18 997,-1223.22 997,-1149.5 997,-1149.5 997,-1149.5 997,-960.5 997,-888.274 998.32,-801.384 998.815,-771.339"/>
</g>
<!-- Eleven_epoch_12_0 -->
<g id="node50" class="node"><title>Eleven_epoch_12_0</title>
<path fill="none" stroke="#e7298a" d="M1017.83,-670C1017.83,-670 980.167,-670 980.167,-670 976.333,-670 972.5,-666.167 972.5,-662.333 972.5,-662.333 972.5,-654.667 972.5,-654.667 972.5,-650.833 976.333,-647 980.167,-647 980.167,-647 1017.83,-647 1017.83,-647 1021.67,-647 1025.5,-650.833 1025.5,-654.667 1025.5,-654.667 1025.5,-662.333 1025.5,-662.333 1025.5,-666.167 1021.67,-670 1017.83,-670"/>
<text text-anchor="middle" x="999" y="-654.8" font-family="Times New Roman,serif" font-size="14.00">Eleven</text>
</g>
<!-- Eleven_epoch_8_0&#45;&gt;Eleven_epoch_12_0 -->
<g id="edge37" class="edge"><title>Eleven_epoch_8_0&#45;&gt;Eleven_epoch_12_0</title>
<path fill="none" stroke="#e7298a" d="M999,-747.905C999,-728.851 999,-689.018 999,-670.019"/>
</g>
<!-- Eleven_epoch_12_3 -->
<g id="node51" class="node"><title>Eleven_epoch_12_3</title>
<path fill="none" stroke="#e7298a" d="M1020.83,-577C1020.83,-577 983.167,-577 983.167,-577 979.333,-577 975.5,-573.167 975.5,-569.333 975.5,-569.333 975.5,-561.667 975.5,-561.667 975.5,-557.833 979.333,-554 983.167,-554 983.167,-554 1020.83,-554 1020.83,-554 1024.67,-554 1028.5,-557.833 1028.5,-561.667 1028.5,-561.667 1028.5,-569.333 1028.5,-569.333 1028.5,-573.167 1024.67,-577 1020.83,-577"/>
<text text-anchor="middle" x="1002" y="-561.8" font-family="Times New Roman,serif" font-size="14.00">Eleven</text>
</g>
<!-- Eleven_epoch_12_0&#45;&gt;Eleven_epoch_12_3 -->
<g id="edge38" class="edge"><title>Eleven_epoch_12_0&#45;&gt;Eleven_epoch_12_3</title>
<path fill="none" stroke="#e7298a" d="M999.356,-646.704C999.936,-629.096 1001.08,-594.416 1001.65,-577.001"/>
</g>
<!-- Eleven_epoch_15_1 -->
<g id="node52" class="node"><title>Eleven_epoch_15_1</title>
<path fill="none" stroke="#e7298a" d="M1006.83,-405C1006.83,-405 969.167,-405 969.167,-405 965.333,-405 961.5,-401.167 961.5,-397.333 961.5,-397.333 961.5,-389.667 961.5,-389.667 961.5,-385.833 965.333,-382 969.167,-382 969.167,-382 1006.83,-382 1006.83,-382 1010.67,-382 1014.5,-385.833 1014.5,-389.667 1014.5,-389.667 1014.5,-397.333 1014.5,-397.333 1014.5,-401.167 1010.67,-405 1006.83,-405"/>
<text text-anchor="middle" x="988" y="-389.8" font-family="Times New Roman,serif" font-size="14.00">Eleven</text>
</g>
<!-- Eleven_epoch_12_3&#45;&gt;Eleven_epoch_15_1 -->
<g id="edge39" class="edge"><title>Eleven_epoch_12_3&#45;&gt;Eleven_epoch_15_1</title>
<path fill="none" stroke="#e7298a" d="M1001.12,-553.866C998.61,-523.336 991.389,-435.655 988.875,-405.13"/>
</g>
<!-- Eleven_epoch_15_2 -->
<g id="node53" class="node"><title>Eleven_epoch_15_2</title>
<path fill="none" stroke="#e7298a" d="M866.833,-320C866.833,-320 829.167,-320 829.167,-320 825.333,-320 821.5,-316.167 821.5,-312.333 821.5,-312.333 821.5,-304.667 821.5,-304.667 821.5,-300.833 825.333,-297 829.167,-297 829.167,-297 866.833,-297 866.833,-297 870.667,-297 874.5,-300.833 874.5,-304.667 874.5,-304.667 874.5,-312.333 874.5,-312.333 874.5,-316.167 870.667,-320 866.833,-320"/>
<text text-anchor="middle" x="848" y="-304.8" font-family="Times New Roman,serif" font-size="14.00">Eleven</text>
</g>
<!-- Eleven_epoch_15_1&#45;&gt;Eleven_epoch_15_2 -->
<g id="edge40" class="edge"><title>Eleven_epoch_15_1&#45;&gt;Eleven_epoch_15_2</title>
<path fill="none" stroke="#e7298a" d="M970.587,-381.965C964.85,-378.932 958.318,-375.926 952,-374 922.892,-365.126 909.778,-382.172 884,-366 867.054,-355.368 856.628,-333.518 851.611,-320.323"/>
</g>
<!-- Karen_epoch_2_0 -->
<g id="node54" class="node"><title>Karen_epoch_2_0</title>
<path fill="none" stroke="#66a61e" d="M759.833,-1362C759.833,-1362 676.167,-1362 676.167,-1362 672.333,-1362 668.5,-1358.17 668.5,-1354.33 668.5,-1354.33 668.5,-1346.67 668.5,-1346.67 668.5,-1342.83 672.333,-1339 676.167,-1339 676.167,-1339 759.833,-1339 759.833,-1339 763.667,-1339 767.5,-1342.83 767.5,-1346.67 767.5,-1346.67 767.5,-1354.33 767.5,-1354.33 767.5,-1358.17 763.667,-1362 759.833,-1362"/>
<text text-anchor="middle" x="718" y="-1346.8" font-family="Times New Roman,serif" font-size="14.00">Karen Wheeler</text>
</g>
<!-- Karen_epoch_4_0 -->
<g id="node55" class="node"><title>Karen_epoch_4_0</title>
<path fill="none" stroke="#66a61e" d="M837.833,-1160C837.833,-1160 754.167,-1160 754.167,-1160 750.333,-1160 746.5,-1156.17 746.5,-1152.33 746.5,-1152.33 746.5,-1144.67 746.5,-1144.67 746.5,-1140.83 750.333,-1137 754.167,-1137 754.167,-1137 837.833,-1137 837.833,-1137 841.667,-1137 845.5,-1140.83 845.5,-1144.67 845.5,-1144.67 845.5,-1152.33 845.5,-1152.33 845.5,-1156.17 841.667,-1160 837.833,-1160"/>
<text text-anchor="middle" x="796" y="-1144.8" font-family="Times New Roman,serif" font-size="14.00">Karen Wheeler</text>
</g>
<!-- Karen_epoch_2_0&#45;&gt;Karen_epoch_4_0 -->
<g id="edge41" class="edge"><title>Karen_epoch_2_0&#45;&gt;Karen_epoch_4_0</title>
<path fill="none" stroke="#66a61e" d="M722.194,-1338.75C735.737,-1304.02 778.213,-1195.11 791.786,-1160.31"/>
</g>
<!-- Karen_epoch_10_0 -->
<g id="node56" class="node"><title>Karen_epoch_10_0</title>
<path fill="none" stroke="#66a61e" d="M1276.83,-872C1276.83,-872 1193.17,-872 1193.17,-872 1189.33,-872 1185.5,-868.167 1185.5,-864.333 1185.5,-864.333 1185.5,-856.667 1185.5,-856.667 1185.5,-852.833 1189.33,-849 1193.17,-849 1193.17,-849 1276.83,-849 1276.83,-849 1280.67,-849 1284.5,-852.833 1284.5,-856.667 1284.5,-856.667 1284.5,-864.333 1284.5,-864.333 1284.5,-868.167 1280.67,-872 1276.83,-872"/>
<text text-anchor="middle" x="1235" y="-856.8" font-family="Times New Roman,serif" font-size="14.00">Karen Wheeler</text>
</g>
<!-- Karen_epoch_4_0&#45;&gt;Karen_epoch_10_0 -->
<g id="edge42" class="edge"><title>Karen_epoch_4_0&#45;&gt;Karen_epoch_10_0</title>
<path fill="none" stroke="#66a61e" d="M819.362,-1136.96C881.284,-1108.41 1053.27,-1025.01 1176,-926 1196.55,-909.42 1216.42,-885.581 1227.04,-872.01"/>
</g>
<!-- Karen_epoch_12_1 -->
<g id="node57" class="node"><title>Karen_epoch_12_1</title>
<path fill="none" stroke="#66a61e" d="M1500.83,-670C1500.83,-670 1417.17,-670 1417.17,-670 1413.33,-670 1409.5,-666.167 1409.5,-662.333 1409.5,-662.333 1409.5,-654.667 1409.5,-654.667 1409.5,-650.833 1413.33,-647 1417.17,-647 1417.17,-647 1500.83,-647 1500.83,-647 1504.67,-647 1508.5,-650.833 1508.5,-654.667 1508.5,-654.667 1508.5,-662.333 1508.5,-662.333 1508.5,-666.167 1504.67,-670 1500.83,-670"/>
<text text-anchor="middle" x="1459" y="-654.8" font-family="Times New Roman,serif" font-size="14.00">Karen Wheeler</text>
</g>
<!-- Karen_epoch_10_0&#45;&gt;Karen_epoch_12_1 -->
<g id="edge43" class="edge"><title>Karen_epoch_10_0&#45;&gt;Karen_epoch_12_1</title>
<path fill="none" stroke="#66a61e" d="M1254.6,-848.87C1265.59,-843.338 1279.73,-836.928 1293,-833 1316.26,-826.113 1326.46,-837.918 1347,-825 1408.38,-786.394 1444.19,-700.515 1455.27,-670.283"/>
</g>
<!-- Mr_Clarke_epoch_12_0 -->
<g id="node58" class="node"><title>Mr_Clarke_epoch_12_0</title>
<path fill="none" stroke="#e6ab02" d="M720.833,-670C720.833,-670 659.167,-670 659.167,-670 655.333,-670 651.5,-666.167 651.5,-662.333 651.5,-662.333 651.5,-654.667 651.5,-654.667 651.5,-650.833 655.333,-647 659.167,-647 659.167,-647 720.833,-647 720.833,-647 724.667,-647 728.5,-650.833 728.5,-654.667 728.5,-654.667 728.5,-662.333 728.5,-662.333 728.5,-666.167 724.667,-670 720.833,-670"/>
<text text-anchor="middle" x="690" y="-654.8" font-family="Times New Roman,serif" font-size="14.00">Mr. Clarke</text>
</g>
<!-- Nancy_epoch_6_0 -->
<g id="node59" class="node"><title>Nancy_epoch_6_0</title>
<path fill="none" stroke="#a6761d" d="M586.333,-973C586.333,-973 499.667,-973 499.667,-973 495.833,-973 492,-969.167 492,-965.333 492,-965.333 492,-957.667 492,-957.667 492,-953.833 495.833,-950 499.667,-950 499.667,-950 586.333,-950 586.333,-950 590.167,-950 594,-953.833 594,-957.667 594,-957.667 594,-965.333 594,-965.333 594,-969.167 590.167,-973 586.333,-973"/>
<text text-anchor="middle" x="543" y="-957.8" font-family="Times New Roman,serif" font-size="14.00">Nancy Wheeler</text>
</g>
<!-- Nancy_epoch_10_0 -->
<g id="node60" class="node"><title>Nancy_epoch_10_0</title>
<path fill="none" stroke="#a6761d" d="M1159.33,-872C1159.33,-872 1072.67,-872 1072.67,-872 1068.83,-872 1065,-868.167 1065,-864.333 1065,-864.333 1065,-856.667 1065,-856.667 1065,-852.833 1068.83,-849 1072.67,-849 1072.67,-849 1159.33,-849 1159.33,-849 1163.17,-849 1167,-852.833 1167,-856.667 1167,-856.667 1167,-864.333 1167,-864.333 1167,-868.167 1163.17,-872 1159.33,-872"/>
<text text-anchor="middle" x="1116" y="-856.8" font-family="Times New Roman,serif" font-size="14.00">Nancy Wheeler</text>
</g>
<!-- Nancy_epoch_6_0&#45;&gt;Nancy_epoch_10_0 -->
<g id="edge44" class="edge"><title>Nancy_epoch_6_0&#45;&gt;Nancy_epoch_10_0</title>
<path fill="none" stroke="#a6761d" d="M561.79,-949.874C573.296,-943.967 588.543,-937.183 603,-934 627.853,-928.529 1037.99,-936.865 1061,-926 1084.95,-914.691 1102.41,-887.397 1110.67,-872.189"/>
</g>
<!-- Nancy_epoch_12_1 -->
<g id="node61" class="node"><title>Nancy_epoch_12_1</title>
<path fill="none" stroke="#a6761d" d="M1383.33,-670C1383.33,-670 1296.67,-670 1296.67,-670 1292.83,-670 1289,-666.167 1289,-662.333 1289,-662.333 1289,-654.667 1289,-654.667 1289,-650.833 1292.83,-647 1296.67,-647 1296.67,-647 1383.33,-647 1383.33,-647 1387.17,-647 1391,-650.833 1391,-654.667 1391,-654.667 1391,-662.333 1391,-662.333 1391,-666.167 1387.17,-670 1383.33,-670"/>
<text text-anchor="middle" x="1340" y="-654.8" font-family="Times New Roman,serif" font-size="14.00">Nancy Wheeler</text>
</g>
<!-- Nancy_epoch_10_0&#45;&gt;Nancy_epoch_12_1 -->
<g id="edge45" class="edge"><title>Nancy_epoch_10_0&#45;&gt;Nancy_epoch_12_1</title>
<path fill="none" stroke="#a6761d" d="M1135.11,-848.975C1146.6,-843.182 1161.73,-836.48 1176,-833 1189.84,-829.624 1293.19,-834.283 1304,-825 1350.62,-784.964 1345.11,-699.99 1341.52,-670.139"/>
</g>
<!-- Nancy_epoch_13_0 -->
<g id="node62" class="node"><title>Nancy_epoch_13_0</title>
<path fill="none" stroke="#a6761d" d="M253.333,-577C253.333,-577 166.667,-577 166.667,-577 162.833,-577 159,-573.167 159,-569.333 159,-569.333 159,-561.667 159,-561.667 159,-557.833 162.833,-554 166.667,-554 166.667,-554 253.333,-554 253.333,-554 257.167,-554 261,-557.833 261,-561.667 261,-561.667 261,-569.333 261,-569.333 261,-573.167 257.167,-577 253.333,-577"/>
<text text-anchor="middle" x="210" y="-561.8" font-family="Times New Roman,serif" font-size="14.00">Nancy Wheeler</text>
</g>
<!-- Nancy_epoch_12_1&#45;&gt;Nancy_epoch_13_0 -->
<g id="edge46" class="edge"><title>Nancy_epoch_12_1&#45;&gt;Nancy_epoch_13_0</title>
<path fill="none" stroke="#a6761d" d="M1310.26,-646.924C1299.87,-643.728 1288.05,-640.634 1277,-639 1249.19,-634.889 290.478,-642.88 265,-631 240.992,-619.805 223.554,-592.465 215.316,-577.219"/>
</g>
<!-- Nancy_epoch_16_0 -->
<g id="node63" class="node"><title>Nancy_epoch_16_0</title>
<path fill="none" stroke="#a6761d" d="M238.333,-320C238.333,-320 151.667,-320 151.667,-320 147.833,-320 144,-316.167 144,-312.333 144,-312.333 144,-304.667 144,-304.667 144,-300.833 147.833,-297 151.667,-297 151.667,-297 238.333,-297 238.333,-297 242.167,-297 246,-300.833 246,-304.667 246,-304.667 246,-312.333 246,-312.333 246,-316.167 242.167,-320 238.333,-320"/>
<text text-anchor="middle" x="195" y="-304.8" font-family="Times New Roman,serif" font-size="14.00">Nancy Wheeler</text>
</g>
<!-- Nancy_epoch_13_0&#45;&gt;Nancy_epoch_16_0 -->
<g id="edge47" class="edge"><title>Nancy_epoch_13_0&#45;&gt;Nancy_epoch_16_0</title>
<path fill="none" stroke="#a6761d" d="M191.141,-553.908C182.705,-548.059 173.632,-539.952 169,-530 134.516,-455.914 174.977,-353.316 189.904,-320.237"/>
</g>
<!-- Joyce_epoch_1_0 -->
<g id="node64" class="node"><title>Joyce_epoch_1_0</title>
<path fill="none" stroke="#666666" d="M562.833,-1463C562.833,-1463 493.167,-1463 493.167,-1463 489.333,-1463 485.5,-1459.17 485.5,-1455.33 485.5,-1455.33 485.5,-1447.67 485.5,-1447.67 485.5,-1443.83 489.333,-1440 493.167,-1440 493.167,-1440 562.833,-1440 562.833,-1440 566.667,-1440 570.5,-1443.83 570.5,-1447.67 570.5,-1447.67 570.5,-1455.33 570.5,-1455.33 570.5,-1459.17 566.667,-1463 562.833,-1463"/>
<text text-anchor="middle" x="528" y="-1447.8" font-family="Times New Roman,serif" font-size="14.00">Joyce Byers</text>
</g>
<!-- Joyce_epoch_3_0 -->
<g id="node65" class="node"><title>Joyce_epoch_3_0</title>
<path fill="none" stroke="#666666" d="M559.833,-1261C559.833,-1261 490.167,-1261 490.167,-1261 486.333,-1261 482.5,-1257.17 482.5,-1253.33 482.5,-1253.33 482.5,-1245.67 482.5,-1245.67 482.5,-1241.83 486.333,-1238 490.167,-1238 490.167,-1238 559.833,-1238 559.833,-1238 563.667,-1238 567.5,-1241.83 567.5,-1245.67 567.5,-1245.67 567.5,-1253.33 567.5,-1253.33 567.5,-1257.17 563.667,-1261 559.833,-1261"/>
<text text-anchor="middle" x="525" y="-1245.8" font-family="Times New Roman,serif" font-size="14.00">Joyce Byers</text>
</g>
<!-- Joyce_epoch_1_0&#45;&gt;Joyce_epoch_3_0 -->
<g id="edge48" class="edge"><title>Joyce_epoch_1_0&#45;&gt;Joyce_epoch_3_0</title>
<path fill="none" stroke="#666666" d="M527.839,-1439.75C527.318,-1405.02 525.684,-1296.11 525.162,-1261.31"/>
</g>
<!-- Joyce_epoch_5_0 -->
<g id="node66" class="node"><title>Joyce_epoch_5_0</title>
<path fill="none" stroke="#666666" d="M520.833,-1074C520.833,-1074 451.167,-1074 451.167,-1074 447.333,-1074 443.5,-1070.17 443.5,-1066.33 443.5,-1066.33 443.5,-1058.67 443.5,-1058.67 443.5,-1054.83 447.333,-1051 451.167,-1051 451.167,-1051 520.833,-1051 520.833,-1051 524.667,-1051 528.5,-1054.83 528.5,-1058.67 528.5,-1058.67 528.5,-1066.33 528.5,-1066.33 528.5,-1070.17 524.667,-1074 520.833,-1074"/>
<text text-anchor="middle" x="486" y="-1058.8" font-family="Times New Roman,serif" font-size="14.00">Joyce Byers</text>
</g>
<!-- Joyce_epoch_3_0&#45;&gt;Joyce_epoch_5_0 -->
<g id="edge49" class="edge"><title>Joyce_epoch_3_0&#45;&gt;Joyce_epoch_5_0</title>
<path fill="none" stroke="#666666" d="M522.735,-1237.75C515.842,-1205.06 495.173,-1107.01 488.272,-1074.28"/>
</g>
<!-- Joyce_epoch_7_0 -->
<g id="node67" class="node"><title>Joyce_epoch_7_0</title>
<path fill="none" stroke="#666666" d="M418.833,-872C418.833,-872 349.167,-872 349.167,-872 345.333,-872 341.5,-868.167 341.5,-864.333 341.5,-864.333 341.5,-856.667 341.5,-856.667 341.5,-852.833 345.333,-849 349.167,-849 349.167,-849 418.833,-849 418.833,-849 422.667,-849 426.5,-852.833 426.5,-856.667 426.5,-856.667 426.5,-864.333 426.5,-864.333 426.5,-868.167 422.667,-872 418.833,-872"/>
<text text-anchor="middle" x="384" y="-856.8" font-family="Times New Roman,serif" font-size="14.00">Joyce Byers</text>
</g>
<!-- Joyce_epoch_5_0&#45;&gt;Joyce_epoch_7_0 -->
<g id="edge50" class="edge"><title>Joyce_epoch_5_0&#45;&gt;Joyce_epoch_7_0</title>
<path fill="none" stroke="#666666" d="M463.805,-1050.92C453.736,-1045.12 442.444,-1037.05 435,-1027 398.137,-977.228 387.577,-900.393 384.858,-872.278"/>
</g>
<!-- Joyce_epoch_15_0 -->
<g id="node68" class="node"><title>Joyce_epoch_15_0</title>
<path fill="none" stroke="#666666" d="M537.833,-405C537.833,-405 468.167,-405 468.167,-405 464.333,-405 460.5,-401.167 460.5,-397.333 460.5,-397.333 460.5,-389.667 460.5,-389.667 460.5,-385.833 464.333,-382 468.167,-382 468.167,-382 537.833,-382 537.833,-382 541.667,-382 545.5,-385.833 545.5,-389.667 545.5,-389.667 545.5,-397.333 545.5,-397.333 545.5,-401.167 541.667,-405 537.833,-405"/>
<text text-anchor="middle" x="503" y="-389.8" font-family="Times New Roman,serif" font-size="14.00">Joyce Byers</text>
</g>
<!-- Joyce_epoch_7_0&#45;&gt;Joyce_epoch_15_0 -->
<g id="edge51" class="edge"><title>Joyce_epoch_7_0&#45;&gt;Joyce_epoch_15_0</title>
<path fill="none" stroke="#666666" d="M364.114,-848.996C353.353,-843.636 339.699,-837.349 327,-833 311.904,-827.83 301.947,-837.477 292,-825 266.234,-792.68 279.34,-771.347 292,-732 325.849,-626.798 380.378,-624.906 437,-530 463.679,-485.282 488.762,-428.209 498.609,-405.01"/>
</g>
<!-- Joyce_epoch_15_3 -->
<g id="node69" class="node"><title>Joyce_epoch_15_3</title>
<path fill="none" stroke="#666666" d="M548.833,-320C548.833,-320 479.167,-320 479.167,-320 475.333,-320 471.5,-316.167 471.5,-312.333 471.5,-312.333 471.5,-304.667 471.5,-304.667 471.5,-300.833 475.333,-297 479.167,-297 479.167,-297 548.833,-297 548.833,-297 552.667,-297 556.5,-300.833 556.5,-304.667 556.5,-304.667 556.5,-312.333 556.5,-312.333 556.5,-316.167 552.667,-320 548.833,-320"/>
<text text-anchor="middle" x="514" y="-304.8" font-family="Times New Roman,serif" font-size="14.00">Joyce Byers</text>
</g>
<!-- Joyce_epoch_15_0&#45;&gt;Joyce_epoch_15_3 -->
<g id="edge52" class="edge"><title>Joyce_epoch_15_0&#45;&gt;Joyce_epoch_15_3</title>
<path fill="none" stroke="#666666" d="M504.393,-381.988C506.497,-366.11 510.465,-336.171 512.583,-320.189"/>
</g>
<!-- Joyce_epoch_18_0 -->
<g id="node70" class="node"><title>Joyce_epoch_18_0</title>
<path fill="none" stroke="#666666" d="M540.833,-133C540.833,-133 471.167,-133 471.167,-133 467.333,-133 463.5,-129.167 463.5,-125.333 463.5,-125.333 463.5,-117.667 463.5,-117.667 463.5,-113.833 467.333,-110 471.167,-110 471.167,-110 540.833,-110 540.833,-110 544.667,-110 548.5,-113.833 548.5,-117.667 548.5,-117.667 548.5,-125.333 548.5,-125.333 548.5,-129.167 544.667,-133 540.833,-133"/>
<text text-anchor="middle" x="506" y="-117.8" font-family="Times New Roman,serif" font-size="14.00">Joyce Byers</text>
</g>
<!-- Joyce_epoch_15_3&#45;&gt;Joyce_epoch_18_0 -->
<g id="edge53" class="edge"><title>Joyce_epoch_15_3&#45;&gt;Joyce_epoch_18_0</title>
<path fill="none" stroke="#666666" d="M513.535,-296.754C512.121,-264.057 507.882,-166.012 506.466,-133.276"/>
</g>
<!-- Dustin_epoch_8_0 -->
<g id="node71" class="node"><title>Dustin_epoch_8_0</title>
<path fill="none" stroke="#1b9e77" d="M720.833,-771C720.833,-771 619.167,-771 619.167,-771 615.333,-771 611.5,-767.167 611.5,-763.333 611.5,-763.333 611.5,-755.667 611.5,-755.667 611.5,-751.833 615.333,-748 619.167,-748 619.167,-748 720.833,-748 720.833,-748 724.667,-748 728.5,-751.833 728.5,-755.667 728.5,-755.667 728.5,-763.333 728.5,-763.333 728.5,-767.167 724.667,-771 720.833,-771"/>
<text text-anchor="middle" x="670" y="-755.8" font-family="Times New Roman,serif" font-size="14.00">Dustin Henderson</text>
</g>
<!-- Dustin_epoch_12_0 -->
<g id="node72" class="node"><title>Dustin_epoch_12_0</title>
<path fill="none" stroke="#1b9e77" d="M625.833,-670C625.833,-670 524.167,-670 524.167,-670 520.333,-670 516.5,-666.167 516.5,-662.333 516.5,-662.333 516.5,-654.667 516.5,-654.667 516.5,-650.833 520.333,-647 524.167,-647 524.167,-647 625.833,-647 625.833,-647 629.667,-647 633.5,-650.833 633.5,-654.667 633.5,-654.667 633.5,-662.333 633.5,-662.333 633.5,-666.167 629.667,-670 625.833,-670"/>
<text text-anchor="middle" x="575" y="-654.8" font-family="Times New Roman,serif" font-size="14.00">Dustin Henderson</text>
</g>
<!-- Dustin_epoch_8_0&#45;&gt;Dustin_epoch_12_0 -->
<g id="edge54" class="edge"><title>Dustin_epoch_8_0&#45;&gt;Dustin_epoch_12_0</title>
<path fill="none" stroke="#1b9e77" d="M659.833,-747.905C641.549,-728.851 603.325,-689.018 585.094,-670.019"/>
</g>
<!-- Dustin_epoch_12_3 -->
<g id="node73" class="node"><title>Dustin_epoch_12_3</title>
<path fill="none" stroke="#1b9e77" d="M655.833,-577C655.833,-577 554.167,-577 554.167,-577 550.333,-577 546.5,-573.167 546.5,-569.333 546.5,-569.333 546.5,-561.667 546.5,-561.667 546.5,-557.833 550.333,-554 554.167,-554 554.167,-554 655.833,-554 655.833,-554 659.667,-554 663.5,-557.833 663.5,-561.667 663.5,-561.667 663.5,-569.333 663.5,-569.333 663.5,-573.167 659.667,-577 655.833,-577"/>
<text text-anchor="middle" x="605" y="-561.8" font-family="Times New Roman,serif" font-size="14.00">Dustin Henderson</text>
</g>
<!-- Dustin_epoch_12_0&#45;&gt;Dustin_epoch_12_3 -->
<g id="edge55" class="edge"><title>Dustin_epoch_12_0&#45;&gt;Dustin_epoch_12_3</title>
<path fill="none" stroke="#1b9e77" d="M578.559,-646.704C584.364,-629.096 595.797,-594.416 601.538,-577.001"/>
</g>
<!-- Dustin_epoch_15_1 -->
<g id="node74" class="node"><title>Dustin_epoch_15_1</title>
<path fill="none" stroke="#1b9e77" d="M709.833,-405C709.833,-405 608.167,-405 608.167,-405 604.333,-405 600.5,-401.167 600.5,-397.333 600.5,-397.333 600.5,-389.667 600.5,-389.667 600.5,-385.833 604.333,-382 608.167,-382 608.167,-382 709.833,-382 709.833,-382 713.667,-382 717.5,-385.833 717.5,-389.667 717.5,-389.667 717.5,-397.333 717.5,-397.333 717.5,-401.167 713.667,-405 709.833,-405"/>
<text text-anchor="middle" x="659" y="-389.8" font-family="Times New Roman,serif" font-size="14.00">Dustin Henderson</text>
</g>
<!-- Dustin_epoch_12_3&#45;&gt;Dustin_epoch_15_1 -->
<g id="edge56" class="edge"><title>Dustin_epoch_12_3&#45;&gt;Dustin_epoch_15_1</title>
<path fill="none" stroke="#1b9e77" d="M608.378,-553.866C618.076,-523.336 645.927,-435.655 655.623,-405.13"/>
</g>
<!-- State_Patrolman_epoch_14_0 -->
<g id="node75" class="node"><title>State_Patrolman_epoch_14_0</title>
<path fill="none" stroke="#d95f02" d="M317.333,-491C317.333,-491 228.667,-491 228.667,-491 224.833,-491 221,-487.167 221,-483.333 221,-483.333 221,-475.667 221,-475.667 221,-471.833 224.833,-468 228.667,-468 228.667,-468 317.333,-468 317.333,-468 321.167,-468 325,-471.833 325,-475.667 325,-475.667 325,-483.333 325,-483.333 325,-487.167 321.167,-491 317.333,-491"/>
<text text-anchor="middle" x="273" y="-475.8" font-family="Times New Roman,serif" font-size="14.00">State Patrolman</text>
</g>
<!-- Jonathan_epoch_1_0 -->
<g id="node76" class="node"><title>Jonathan_epoch_1_0</title>
<path fill="none" stroke="#7570b3" d="M459.833,-1463C459.833,-1463 374.167,-1463 374.167,-1463 370.333,-1463 366.5,-1459.17 366.5,-1455.33 366.5,-1455.33 366.5,-1447.67 366.5,-1447.67 366.5,-1443.83 370.333,-1440 374.167,-1440 374.167,-1440 459.833,-1440 459.833,-1440 463.667,-1440 467.5,-1443.83 467.5,-1447.67 467.5,-1447.67 467.5,-1455.33 467.5,-1455.33 467.5,-1459.17 463.667,-1463 459.833,-1463"/>
<text text-anchor="middle" x="417" y="-1447.8" font-family="Times New Roman,serif" font-size="14.00">Jonathan Byers</text>
</g>
<!-- Jonathan_epoch_3_0 -->
<g id="node77" class="node"><title>Jonathan_epoch_3_0</title>
<path fill="none" stroke="#7570b3" d="M453.833,-1261C453.833,-1261 368.167,-1261 368.167,-1261 364.333,-1261 360.5,-1257.17 360.5,-1253.33 360.5,-1253.33 360.5,-1245.67 360.5,-1245.67 360.5,-1241.83 364.333,-1238 368.167,-1238 368.167,-1238 453.833,-1238 453.833,-1238 457.667,-1238 461.5,-1241.83 461.5,-1245.67 461.5,-1245.67 461.5,-1253.33 461.5,-1253.33 461.5,-1257.17 457.667,-1261 453.833,-1261"/>
<text text-anchor="middle" x="411" y="-1245.8" font-family="Times New Roman,serif" font-size="14.00">Jonathan Byers</text>
</g>
<!-- Jonathan_epoch_1_0&#45;&gt;Jonathan_epoch_3_0 -->
<g id="edge57" class="edge"><title>Jonathan_epoch_1_0&#45;&gt;Jonathan_epoch_3_0</title>
<path fill="none" stroke="#7570b3" d="M416.677,-1439.75C415.636,-1405.02 412.368,-1296.11 411.324,-1261.31"/>
</g>
<!-- Jonathan_epoch_5_0 -->
<g id="node78" class="node"><title>Jonathan_epoch_5_0</title>
<path fill="none" stroke="#7570b3" d="M316.833,-1074C316.833,-1074 231.167,-1074 231.167,-1074 227.333,-1074 223.5,-1070.17 223.5,-1066.33 223.5,-1066.33 223.5,-1058.67 223.5,-1058.67 223.5,-1054.83 227.333,-1051 231.167,-1051 231.167,-1051 316.833,-1051 316.833,-1051 320.667,-1051 324.5,-1054.83 324.5,-1058.67 324.5,-1058.67 324.5,-1066.33 324.5,-1066.33 324.5,-1070.17 320.667,-1074 316.833,-1074"/>
<text text-anchor="middle" x="274" y="-1058.8" font-family="Times New Roman,serif" font-size="14.00">Jonathan Byers</text>
</g>
<!-- Jonathan_epoch_3_0&#45;&gt;Jonathan_epoch_5_0 -->
<g id="edge58" class="edge"><title>Jonathan_epoch_3_0&#45;&gt;Jonathan_epoch_5_0</title>
<path fill="none" stroke="#7570b3" d="M403.042,-1237.75C378.828,-1205.06 306.223,-1107.01 281.98,-1074.28"/>
</g>
<!-- Jonathan_epoch_7_0 -->
<g id="node79" class="node"><title>Jonathan_epoch_7_0</title>
<path fill="none" stroke="#7570b3" d="M310.833,-872C310.833,-872 225.167,-872 225.167,-872 221.333,-872 217.5,-868.167 217.5,-864.333 217.5,-864.333 217.5,-856.667 217.5,-856.667 217.5,-852.833 221.333,-849 225.167,-849 225.167,-849 310.833,-849 310.833,-849 314.667,-849 318.5,-852.833 318.5,-856.667 318.5,-856.667 318.5,-864.333 318.5,-864.333 318.5,-868.167 314.667,-872 310.833,-872"/>
<text text-anchor="middle" x="268" y="-856.8" font-family="Times New Roman,serif" font-size="14.00">Jonathan Byers</text>
</g>
<!-- Jonathan_epoch_5_0&#45;&gt;Jonathan_epoch_7_0 -->
<g id="edge59" class="edge"><title>Jonathan_epoch_5_0&#45;&gt;Jonathan_epoch_7_0</title>
<path fill="none" stroke="#7570b3" d="M273.677,-1050.75C272.636,-1016.02 269.368,-907.108 268.324,-872.306"/>
</g>
<!-- Jonathan_epoch_13_0 -->
<g id="node80" class="node"><title>Jonathan_epoch_13_0</title>
<path fill="none" stroke="#7570b3" d="M123.833,-577C123.833,-577 38.1667,-577 38.1667,-577 34.3333,-577 30.5,-573.167 30.5,-569.333 30.5,-569.333 30.5,-561.667 30.5,-561.667 30.5,-557.833 34.3333,-554 38.1667,-554 38.1667,-554 123.833,-554 123.833,-554 127.667,-554 131.5,-557.833 131.5,-561.667 131.5,-561.667 131.5,-569.333 131.5,-569.333 131.5,-573.167 127.667,-577 123.833,-577"/>
<text text-anchor="middle" x="81" y="-561.8" font-family="Times New Roman,serif" font-size="14.00">Jonathan Byers</text>
</g>
<!-- Jonathan_epoch_7_0&#45;&gt;Jonathan_epoch_13_0 -->
<g id="edge60" class="edge"><title>Jonathan_epoch_7_0&#45;&gt;Jonathan_epoch_13_0</title>
<path fill="none" stroke="#7570b3" d="M261.123,-848.724C231.734,-802.678 116.868,-622.7 87.7425,-577.065"/>
</g>
<!-- Jonathan_epoch_16_0 -->
<g id="node81" class="node"><title>Jonathan_epoch_16_0</title>
<path fill="none" stroke="#7570b3" d="M117.833,-320C117.833,-320 32.1667,-320 32.1667,-320 28.3333,-320 24.5,-316.167 24.5,-312.333 24.5,-312.333 24.5,-304.667 24.5,-304.667 24.5,-300.833 28.3333,-297 32.1667,-297 32.1667,-297 117.833,-297 117.833,-297 121.667,-297 125.5,-300.833 125.5,-304.667 125.5,-304.667 125.5,-312.333 125.5,-312.333 125.5,-316.167 121.667,-320 117.833,-320"/>
<text text-anchor="middle" x="75" y="-304.8" font-family="Times New Roman,serif" font-size="14.00">Jonathan Byers</text>
</g>
<!-- Jonathan_epoch_13_0&#45;&gt;Jonathan_epoch_16_0 -->
<g id="edge61" class="edge"><title>Jonathan_epoch_13_0&#45;&gt;Jonathan_epoch_16_0</title>
<path fill="none" stroke="#7570b3" d="M80.7498,-553.868C79.774,-512.394 76.229,-361.731 75.2512,-320.178"/>
</g>
<!-- Troy_epoch_12_3 -->
<g id="node82" class="node"><title>Troy_epoch_12_3</title>
<path fill="none" stroke="#e7298a" d="M520.333,-577C520.333,-577 491.667,-577 491.667,-577 487.833,-577 484,-573.167 484,-569.333 484,-569.333 484,-561.667 484,-561.667 484,-557.833 487.833,-554 491.667,-554 491.667,-554 520.333,-554 520.333,-554 524.167,-554 528,-557.833 528,-561.667 528,-561.667 528,-569.333 528,-569.333 528,-573.167 524.167,-577 520.333,-577"/>
<text text-anchor="middle" x="506" y="-561.8" font-family="Times New Roman,serif" font-size="14.00">Troy</text>
</g>
<!-- Officer_Powell_epoch_1_0 -->
<g id="node83" class="node"><title>Officer_Powell_epoch_1_0</title>
<path fill="none" stroke="#66a61e" d="M804.333,-1463C804.333,-1463 721.667,-1463 721.667,-1463 717.833,-1463 714,-1459.17 714,-1455.33 714,-1455.33 714,-1447.67 714,-1447.67 714,-1443.83 717.833,-1440 721.667,-1440 721.667,-1440 804.333,-1440 804.333,-1440 808.167,-1440 812,-1443.83 812,-1447.67 812,-1447.67 812,-1455.33 812,-1455.33 812,-1459.17 808.167,-1463 804.333,-1463"/>
<text text-anchor="middle" x="763" y="-1447.8" font-family="Times New Roman,serif" font-size="14.00">Officer Powell</text>
</g>
<!-- Officer_Powell_epoch_10_0 -->
<g id="node84" class="node"><title>Officer_Powell_epoch_10_0</title>
<path fill="none" stroke="#66a61e" d="M1518.33,-872C1518.33,-872 1435.67,-872 1435.67,-872 1431.83,-872 1428,-868.167 1428,-864.333 1428,-864.333 1428,-856.667 1428,-856.667 1428,-852.833 1431.83,-849 1435.67,-849 1435.67,-849 1518.33,-849 1518.33,-849 1522.17,-849 1526,-852.833 1526,-856.667 1526,-856.667 1526,-864.333 1526,-864.333 1526,-868.167 1522.17,-872 1518.33,-872"/>
<text text-anchor="middle" x="1477" y="-856.8" font-family="Times New Roman,serif" font-size="14.00">Officer Powell</text>
</g>
<!-- Officer_Powell_epoch_1_0&#45;&gt;Officer_Powell_epoch_10_0 -->
<g id="edge62" class="edge"><title>Officer_Powell_epoch_1_0&#45;&gt;Officer_Powell_epoch_10_0</title>
<path fill="none" stroke="#66a61e" d="M779.442,-1439.89C789.551,-1433.99 803.015,-1427.2 816,-1424 859.376,-1413.3 1176.73,-1433.11 1218,-1416 1316,-1375.37 1390,-1356.59 1390,-1250.5 1390,-1250.5 1390,-1250.5 1390,-1061.5 1390,-983.119 1446.88,-900.73 1468.66,-872.062"/>
</g>
</g>
</svg>
