<?xml version="1.0" encoding="UTF-8" standalone="no"?>
<!DOCTYPE svg PUBLIC "-//W3C//DTD SVG 1.1//EN"
 "http://www.w3.org/Graphics/SVG/1.1/DTD/svg11.dtd">
<!-- Generated by graphviz version 2.38.0 (20140413.2041)
 -->
<!-- Title: %3 Pages: 1 -->
<svg width="2304pt" height="1097pt"
 viewBox="0.00 0.00 2304.00 1097.00" xmlns="http://www.w3.org/2000/svg" xmlns:xlink="http://www.w3.org/1999/xlink">
<g id="graph0" class="graph" transform="scale(1 1) rotate(0) translate(4 1093)">
<title>%3</title>
<polygon fill="white" stroke="none" points="-4,4 -4,-1093 2300,-1093 2300,4 -4,4"/>
<g id="clust27" class="cluster"><title>cluster_epoch_1</title>
<polygon fill="none" stroke="black" stroke-dasharray="1,5" points="708,-1003 708,-1081 1186,-1081 1186,-1003 708,-1003"/>
</g>
<g id="clust28" class="cluster"><title>cluster_epoch_1_0</title>
<polygon fill="none" stroke="black" points="748,-1011 748,-1073 1178,-1073 1178,-1011 748,-1011"/>
<text text-anchor="middle" x="963" y="-1057.8" font-family="Times New Roman,serif" font-size="14.00">Wheeler Basement: Invitation to Stay</text>
</g>
<g id="clust29" class="cluster"><title>cluster_epoch_2</title>
<polygon fill="none" stroke="black" stroke-dasharray="1,5" points="600,-917 600,-995 1504,-995 1504,-917 600,-917"/>
</g>
<g id="clust30" class="cluster"><title>cluster_epoch_2_0</title>
<polygon fill="none" stroke="black" points="1175,-925 1175,-987 1496,-987 1496,-925 1175,-925"/>
<text text-anchor="middle" x="1335.5" y="-971.8" font-family="Times New Roman,serif" font-size="14.00">Byers Residence: Hopper Questions Joyce</text>
</g>
<g id="clust31" class="cluster"><title>cluster_epoch_2_1</title>
<polygon fill="none" stroke="black" points="640,-925 640,-987 1167,-987 1167,-925 640,-925"/>
<text text-anchor="middle" x="903.5" y="-971.8" font-family="Times New Roman,serif" font-size="14.00">Wheeler Residence: Breakfast and Eggos</text>
</g>
<g id="clust32" class="cluster"><title>cluster_epoch_3</title>
<polygon fill="none" stroke="black" stroke-dasharray="1,5" points="149,-816 149,-909 443,-909 443,-816 149,-816"/>
</g>
<g id="clust33" class="cluster"><title>cluster_epoch_3_0</title>
<polygon fill="none" stroke="black" points="187,-824 187,-901 435,-901 435,-824 187,-824"/>
<text text-anchor="middle" x="311" y="-885.8" font-family="Times New Roman,serif" font-size="14.00">Hawkins Lab: Brenner Listens to a Phone</text>
<text text-anchor="middle" x="311" y="-870.8" font-family="Times New Roman,serif" font-size="14.00">Recording</text>
</g>
<g id="clust34" class="cluster"><title>cluster_epoch_4</title>
<polygon fill="none" stroke="black" stroke-dasharray="1,5" points="8,-715 8,-793 396,-793 396,-715 8,-715"/>
</g>
<g id="clust35" class="cluster"><title>cluster_epoch_4_0</title>
<polygon fill="none" stroke="black" points="16,-723 16,-785 356,-785 356,-723 16,-723"/>
<text text-anchor="middle" x="186" y="-769.8" font-family="Times New Roman,serif" font-size="14.00">Hawkins Woods: Search Party</text>
</g>
<g id="clust36" class="cluster"><title>cluster_epoch_5</title>
<polygon fill="none" stroke="black" stroke-dasharray="1,5" points="1324,-816 1324,-909 2288,-909 2288,-816 1324,-816"/>
</g>
<g id="clust37" class="cluster"><title>cluster_epoch_5_0</title>
<polygon fill="none" stroke="black" points="1364,-824 1364,-901 2017,-901 2017,-824 1364,-824"/>
<text text-anchor="middle" x="1690.5" y="-885.8" font-family="Times New Roman,serif" font-size="14.00">Hawkins High School: Jonathan Hangs Up</text>
<text text-anchor="middle" x="1690.5" y="-870.8" font-family="Times New Roman,serif" font-size="14.00">Flyers</text>
</g>
<g id="clust38" class="cluster"><title>cluster_epoch_5_1</title>
<polygon fill="none" stroke="black" points="2025,-824 2025,-901 2280,-901 2280,-824 2025,-824"/>
<text text-anchor="middle" x="2152.5" y="-885.8" font-family="Times New Roman,serif" font-size="14.00">Hawkins Middle School: Lucas and Dustin</text>
<text text-anchor="middle" x="2152.5" y="-870.8" font-family="Times New Roman,serif" font-size="14.00">Discuss Eleven</text>
</g>
<g id="clust39" class="cluster"><title>cluster_epoch_6</title>
<polygon fill="none" stroke="black" stroke-dasharray="1,5" points="739,-816 739,-894 970,-894 970,-816 739,-816"/>
</g>
<g id="clust40" class="cluster"><title>cluster_epoch_6_0</title>
<polygon fill="none" stroke="black" points="747,-824 747,-886 932,-886 932,-824 747,-824"/>
<text text-anchor="middle" x="839.5" y="-870.8" font-family="Times New Roman,serif" font-size="14.00">Wheeler Residence: La&#45;Z&#45;Boy</text>
</g>
<g id="clust41" class="cluster"><title>cluster_epoch_7</title>
<polygon fill="none" stroke="black" stroke-dasharray="1,5" points="1171,-614 1171,-808 1610,-808 1610,-614 1171,-614"/>
</g>
<g id="clust43" class="cluster"><title>cluster_epoch_7_1</title>
<polygon fill="none" stroke="black" points="1179,-622 1179,-684 1602,-684 1602,-622 1179,-622"/>
<text text-anchor="middle" x="1390.5" y="-668.8" font-family="Times New Roman,serif" font-size="14.00">Byers Residence: Flashback: The Clash</text>
</g>
<g id="clust42" class="cluster"><title>cluster_epoch_7_0</title>
<polygon fill="none" stroke="black" points="1209,-723 1209,-800 1408,-800 1408,-723 1209,-723"/>
<text text-anchor="middle" x="1308.5" y="-784.8" font-family="Times New Roman,serif" font-size="14.00">On the Road: Jonathan Drives to</text>
<text text-anchor="middle" x="1308.5" y="-769.8" font-family="Times New Roman,serif" font-size="14.00">Indianapolis</text>
</g>
<g id="clust48" class="cluster"><title>cluster_epoch_10</title>
<polygon fill="none" stroke="black" stroke-dasharray="1,5" points="701,-513 701,-707 1163,-707 1163,-513 701,-513"/>
</g>
<g id="clust49" class="cluster"><title>cluster_epoch_10_0</title>
<polygon fill="none" stroke="black" points="741,-622 741,-699 1155,-699 1155,-622 741,-622"/>
<text text-anchor="middle" x="948" y="-683.8" font-family="Times New Roman,serif" font-size="14.00">Wheeler Residence: Fun New Things,</text>
<text text-anchor="middle" x="948" y="-668.8" font-family="Times New Roman,serif" font-size="14.00">Hiding in the Closet</text>
</g>
<g id="clust50" class="cluster"><title>cluster_epoch_10_1</title>
<polygon fill="none" stroke="black" points="952,-521 952,-598 1155,-598 1155,-521 952,-521"/>
<text text-anchor="middle" x="1053.5" y="-582.8" font-family="Times New Roman,serif" font-size="14.00">Hawkins Lab: Flashback: Solitary</text>
<text text-anchor="middle" x="1053.5" y="-567.8" font-family="Times New Roman,serif" font-size="14.00">Confinement</text>
</g>
<g id="clust51" class="cluster"><title>cluster_epoch_11</title>
<polygon fill="none" stroke="black" stroke-dasharray="1,5" points="404,-513 404,-591 665,-591 665,-513 404,-513"/>
</g>
<g id="clust52" class="cluster"><title>cluster_epoch_11_0</title>
<polygon fill="none" stroke="black" points="442,-521 442,-583 657,-583 657,-521 442,-521"/>
<text text-anchor="middle" x="549.5" y="-567.8" font-family="Times New Roman,serif" font-size="14.00">Byers Residence: Waiting for a Call</text>
</g>
<g id="clust53" class="cluster"><title>cluster_epoch_12</title>
<polygon fill="none" stroke="black" stroke-dasharray="1,5" points="8,-614 8,-692 396,-692 396,-614 8,-614"/>
</g>
<g id="clust54" class="cluster"><title>cluster_epoch_12_0</title>
<polygon fill="none" stroke="black" points="16,-622 16,-684 356,-684 356,-622 16,-622"/>
<text text-anchor="middle" x="186" y="-668.8" font-family="Times New Roman,serif" font-size="14.00">Hawkins Quarry: Search Party</text>
</g>
<g id="clust55" class="cluster"><title>cluster_epoch_13</title>
<polygon fill="none" stroke="black" stroke-dasharray="1,5" points="8,-513 8,-606 396,-606 396,-513 8,-513"/>
</g>
<g id="clust56" class="cluster"><title>cluster_epoch_13_0</title>
<polygon fill="none" stroke="black" points="16,-521 16,-598 356,-598 356,-521 16,-521"/>
<text text-anchor="middle" x="186" y="-582.8" font-family="Times New Roman,serif" font-size="14.00">Benny&#39;s Burgers: Murder at Benny&#39;s</text>
<text text-anchor="middle" x="186" y="-567.8" font-family="Times New Roman,serif" font-size="14.00">Burgers</text>
</g>
<g id="clust57" class="cluster"><title>cluster_epoch_14</title>
<polygon fill="none" stroke="black" stroke-dasharray="1,5" points="1171,-513 1171,-591 1523,-591 1523,-513 1171,-513"/>
</g>
<g id="clust58" class="cluster"><title>cluster_epoch_14_0</title>
<polygon fill="none" stroke="black" points="1211,-521 1211,-583 1515,-583 1515,-521 1211,-521"/>
<text text-anchor="middle" x="1363" y="-567.8" font-family="Times New Roman,serif" font-size="14.00">Lonnie&#39;s House: Jon Confronts Lonnie</text>
</g>
<g id="clust46" class="cluster"><title>cluster_epoch_9</title>
<polygon fill="none" stroke="black" stroke-dasharray="1,5" points="607,-715 607,-808 884,-808 884,-715 607,-715"/>
</g>
<g id="clust47" class="cluster"><title>cluster_epoch_9_0</title>
<polygon fill="none" stroke="black" points="645,-723 645,-800 876,-800 876,-723 645,-723"/>
<text text-anchor="middle" x="760.5" y="-784.8" font-family="Times New Roman,serif" font-size="14.00">Byers Residence: Searching the Byers&#39;</text>
<text text-anchor="middle" x="760.5" y="-769.8" font-family="Times New Roman,serif" font-size="14.00">House</text>
</g>
<g id="clust44" class="cluster"><title>cluster_epoch_8</title>
<polygon fill="none" stroke="black" stroke-dasharray="1,5" points="519,-614 519,-692 693,-692 693,-614 519,-614"/>
</g>
<g id="clust45" class="cluster"><title>cluster_epoch_8_0</title>
<polygon fill="none" stroke="black" points="557,-622 557,-684 685,-684 685,-622 557,-622"/>
<text text-anchor="middle" x="621" y="-668.8" font-family="Times New Roman,serif" font-size="14.00">Store: Advance Pay</text>
</g>
<g id="clust59" class="cluster"><title>cluster_epoch_15</title>
<polygon fill="none" stroke="black" stroke-dasharray="1,5" points="931,-412 931,-490 1409,-490 1409,-412 931,-412"/>
</g>
<g id="clust60" class="cluster"><title>cluster_epoch_15_0</title>
<polygon fill="none" stroke="black" points="971,-420 971,-482 1401,-482 1401,-420 971,-420"/>
<text text-anchor="middle" x="1186" y="-466.8" font-family="Times New Roman,serif" font-size="14.00">Wheeler Residence: Trio Questions Eleven</text>
</g>
<g id="clust61" class="cluster"><title>cluster_epoch_16</title>
<polygon fill="none" stroke="black" stroke-dasharray="1,5" points="279,-412 279,-505 551,-505 551,-412 279,-412"/>
</g>
<g id="clust62" class="cluster"><title>cluster_epoch_16_0</title>
<polygon fill="none" stroke="black" points="287,-420 287,-497 511,-497 511,-420 287,-420"/>
<text text-anchor="middle" x="399" y="-481.8" font-family="Times New Roman,serif" font-size="14.00">Hawkins Police Department: Hopper</text>
<text text-anchor="middle" x="399" y="-466.8" font-family="Times New Roman,serif" font-size="14.00">Questions Townsperson</text>
</g>
<g id="clust63" class="cluster"><title>cluster_epoch_17</title>
<polygon fill="none" stroke="black" stroke-dasharray="1,5" points="591,-311 591,-404 1458,-404 1458,-311 591,-311"/>
</g>
<g id="clust64" class="cluster"><title>cluster_epoch_17_0</title>
<polygon fill="none" stroke="black" points="631,-319 631,-396 1450,-396 1450,-319 631,-319"/>
<text text-anchor="middle" x="1040.5" y="-380.8" font-family="Times New Roman,serif" font-size="14.00">Wheeler Residence: Nancy Phones Barb,</text>
<text text-anchor="middle" x="1040.5" y="-365.8" font-family="Times New Roman,serif" font-size="14.00">Wheelers at Dinner</text>
</g>
<g id="clust65" class="cluster"><title>cluster_epoch_18</title>
<polygon fill="none" stroke="black" stroke-dasharray="1,5" points="53,-311 53,-389 536,-389 536,-311 53,-311"/>
</g>
<g id="clust66" class="cluster"><title>cluster_epoch_18_0</title>
<polygon fill="none" stroke="black" points="93,-319 93,-381 528,-381 528,-319 93,-319"/>
<text text-anchor="middle" x="310.5" y="-365.8" font-family="Times New Roman,serif" font-size="14.00">Hawkins Woods: Search Party</text>
</g>
<g id="clust67" class="cluster"><title>cluster_epoch_19</title>
<polygon fill="none" stroke="black" stroke-dasharray="1,5" points="659,-210 659,-303 1665,-303 1665,-210 659,-210"/>
</g>
<g id="clust69" class="cluster"><title>cluster_epoch_19_1</title>
<polygon fill="none" stroke="black" points="1409,-218 1409,-295 1657,-295 1657,-218 1409,-218"/>
<text text-anchor="middle" x="1533" y="-279.8" font-family="Times New Roman,serif" font-size="14.00">Harrington Residence: Nancy and Barb in</text>
<text text-anchor="middle" x="1533" y="-264.8" font-family="Times New Roman,serif" font-size="14.00">Car</text>
</g>
<g id="clust68" class="cluster"><title>cluster_epoch_19_0</title>
<polygon fill="none" stroke="black" points="971,-218 971,-295 1401,-295 1401,-218 971,-218"/>
<text text-anchor="middle" x="1186" y="-279.8" font-family="Times New Roman,serif" font-size="14.00">Wheeler Basement: Eleven and Trio Think</text>
<text text-anchor="middle" x="1186" y="-264.8" font-family="Times New Roman,serif" font-size="14.00">About Will</text>
</g>
<g id="clust70" class="cluster"><title>cluster_epoch_19_2</title>
<polygon fill="none" stroke="black" points="697,-218 697,-280 963,-280 963,-218 697,-218"/>
<text text-anchor="middle" x="830" y="-264.8" font-family="Times New Roman,serif" font-size="14.00">Hopper Residence: Hopper and Lady Friend</text>
</g>
<g id="clust71" class="cluster"><title>cluster_epoch_20</title>
<polygon fill="none" stroke="black" stroke-dasharray="1,5" points="1325,-109 1325,-202 2025,-202 2025,-109 1325,-109"/>
</g>
<g id="clust72" class="cluster"><title>cluster_epoch_20_0</title>
<polygon fill="none" stroke="black" points="1365,-117 1365,-194 2017,-194 2017,-117 1365,-117"/>
<text text-anchor="middle" x="1691" y="-178.8" font-family="Times New Roman,serif" font-size="14.00">Harrington Residence: Jonathan the</text>
<text text-anchor="middle" x="1691" y="-163.8" font-family="Times New Roman,serif" font-size="14.00">Voyeur, Steve&#39;s Party</text>
</g>
<g id="clust73" class="cluster"><title>cluster_epoch_21</title>
<polygon fill="none" stroke="black" stroke-dasharray="1,5" points="797,-8 797,-101 1079,-101 1079,-8 797,-8"/>
</g>
<g id="clust74" class="cluster"><title>cluster_epoch_21_0</title>
<polygon fill="none" stroke="black" points="805,-16 805,-93 1041,-93 1041,-16 805,-16"/>
<text text-anchor="middle" x="923" y="-77.8" font-family="Times New Roman,serif" font-size="14.00">Byers Residence: Joyce Encounters the</text>
<text text-anchor="middle" x="923" y="-62.8" font-family="Times New Roman,serif" font-size="14.00">Demagorgon</text>
</g>
<!-- epoch_1 -->
<!-- epoch_2 -->
<!-- epoch_1&#45;&gt;epoch_2 -->
<!-- epoch_3 -->
<!-- epoch_2&#45;&gt;epoch_3 -->
<!-- epoch_4 -->
<!-- epoch_3&#45;&gt;epoch_4 -->
<!-- epoch_5 -->
<!-- epoch_4&#45;&gt;epoch_5 -->
<!-- epoch_6 -->
<!-- epoch_5&#45;&gt;epoch_6 -->
<!-- epoch_7 -->
<!-- epoch_6&#45;&gt;epoch_7 -->
<!-- epoch_8 -->
<!-- epoch_7&#45;&gt;epoch_8 -->
<!-- epoch_9 -->
<!-- epoch_8&#45;&gt;epoch_9 -->
<!-- epoch_10 -->
<!-- epoch_9&#45;&gt;epoch_10 -->
<!-- epoch_11 -->
<!-- epoch_10&#45;&gt;epoch_11 -->
<!-- epoch_12 -->
<!-- epoch_11&#45;&gt;epoch_12 -->
<!-- epoch_13 -->
<!-- epoch_12&#45;&gt;epoch_13 -->
<!-- epoch_14 -->
<!-- epoch_13&#45;&gt;epoch_14 -->
<!-- epoch_15 -->
<!-- epoch_14&#45;&gt;epoch_15 -->
<!-- epoch_16 -->
<!-- epoch_15&#45;&gt;epoch_16 -->
<!-- epoch_17 -->
<!-- epoch_16&#45;&gt;epoch_17 -->
<!-- epoch_18 -->
<!-- epoch_17&#45;&gt;epoch_18 -->
<!-- epoch_19 -->
<!-- epoch_18&#45;&gt;epoch_19 -->
<!-- epoch_20 -->
<!-- epoch_19&#45;&gt;epoch_20 -->
<!-- epoch_21 -->
<!-- epoch_20&#45;&gt;epoch_21 -->
<!-- Lonnie_epoch_7_1 -->
<g id="node22" class="node"><title>Lonnie_epoch_7_1</title>
<path fill="none" stroke="#1b9e77" d="M1585.83,-653C1585.83,-653 1510.17,-653 1510.17,-653 1506.33,-653 1502.5,-649.167 1502.5,-645.333 1502.5,-645.333 1502.5,-637.667 1502.5,-637.667 1502.5,-633.833 1506.33,-630 1510.17,-630 1510.17,-630 1585.83,-630 1585.83,-630 1589.67,-630 1593.5,-633.833 1593.5,-637.667 1593.5,-637.667 1593.5,-645.333 1593.5,-645.333 1593.5,-649.167 1589.67,-653 1585.83,-653"/>
<text text-anchor="middle" x="1548" y="-637.8" font-family="Times New Roman,serif" font-size="14.00">Lonnie Byers</text>
</g>
<!-- Lonnie_epoch_14_0 -->
<g id="node23" class="node"><title>Lonnie_epoch_14_0</title>
<path fill="none" stroke="#1b9e77" d="M1498.83,-552C1498.83,-552 1423.17,-552 1423.17,-552 1419.33,-552 1415.5,-548.167 1415.5,-544.333 1415.5,-544.333 1415.5,-536.667 1415.5,-536.667 1415.5,-532.833 1419.33,-529 1423.17,-529 1423.17,-529 1498.83,-529 1498.83,-529 1502.67,-529 1506.5,-532.833 1506.5,-536.667 1506.5,-536.667 1506.5,-544.333 1506.5,-544.333 1506.5,-548.167 1502.67,-552 1498.83,-552"/>
<text text-anchor="middle" x="1461" y="-536.8" font-family="Times New Roman,serif" font-size="14.00">Lonnie Byers</text>
</g>
<!-- Lonnie_epoch_7_1&#45;&gt;Lonnie_epoch_14_0 -->
<g id="edge21" class="edge"><title>Lonnie_epoch_7_1&#45;&gt;Lonnie_epoch_14_0</title>
<path fill="none" stroke="#1b9e77" d="M1538.69,-629.905C1521.94,-610.851 1486.94,-571.018 1470.24,-552.019"/>
</g>
<!-- Hopper_epoch_2_0 -->
<g id="node24" class="node"><title>Hopper_epoch_2_0</title>
<path fill="none" stroke="#d95f02" d="M1257.33,-956C1257.33,-956 1190.67,-956 1190.67,-956 1186.83,-956 1183,-952.167 1183,-948.333 1183,-948.333 1183,-940.667 1183,-940.667 1183,-936.833 1186.83,-933 1190.67,-933 1190.67,-933 1257.33,-933 1257.33,-933 1261.17,-933 1265,-936.833 1265,-940.667 1265,-940.667 1265,-948.333 1265,-948.333 1265,-952.167 1261.17,-956 1257.33,-956"/>
<text text-anchor="middle" x="1224" y="-940.8" font-family="Times New Roman,serif" font-size="14.00">Jim Hopper</text>
</g>
<!-- Hopper_epoch_4_0 -->
<g id="node25" class="node"><title>Hopper_epoch_4_0</title>
<path fill="none" stroke="#d95f02" d="M340.333,-754C340.333,-754 273.667,-754 273.667,-754 269.833,-754 266,-750.167 266,-746.333 266,-746.333 266,-738.667 266,-738.667 266,-734.833 269.833,-731 273.667,-731 273.667,-731 340.333,-731 340.333,-731 344.167,-731 348,-734.833 348,-738.667 348,-738.667 348,-746.333 348,-746.333 348,-750.167 344.167,-754 340.333,-754"/>
<text text-anchor="middle" x="307" y="-738.8" font-family="Times New Roman,serif" font-size="14.00">Jim Hopper</text>
</g>
<!-- Hopper_epoch_2_0&#45;&gt;Hopper_epoch_4_0 -->
<g id="edge22" class="edge"><title>Hopper_epoch_2_0&#45;&gt;Hopper_epoch_4_0</title>
<path fill="none" stroke="#d95f02" d="M1207.56,-932.882C1197.45,-926.978 1183.99,-920.194 1171,-917 1124.81,-905.64 789.973,-916.474 743,-909 603.463,-886.799 577.634,-843.279 439,-816 419.95,-812.252 368.784,-817.759 352,-808 330.99,-795.784 317.441,-769.372 311.135,-754.412"/>
</g>
<!-- Hopper_epoch_12_0 -->
<g id="node26" class="node"><title>Hopper_epoch_12_0</title>
<path fill="none" stroke="#d95f02" d="M340.333,-653C340.333,-653 273.667,-653 273.667,-653 269.833,-653 266,-649.167 266,-645.333 266,-645.333 266,-637.667 266,-637.667 266,-633.833 269.833,-630 273.667,-630 273.667,-630 340.333,-630 340.333,-630 344.167,-630 348,-633.833 348,-637.667 348,-637.667 348,-645.333 348,-645.333 348,-649.167 344.167,-653 340.333,-653"/>
<text text-anchor="middle" x="307" y="-637.8" font-family="Times New Roman,serif" font-size="14.00">Jim Hopper</text>
</g>
<!-- Hopper_epoch_4_0&#45;&gt;Hopper_epoch_12_0 -->
<g id="edge23" class="edge"><title>Hopper_epoch_4_0&#45;&gt;Hopper_epoch_12_0</title>
<path fill="none" stroke="#d95f02" d="M307,-730.905C307,-711.851 307,-672.018 307,-653.019"/>
</g>
<!-- Hopper_epoch_13_0 -->
<g id="node27" class="node"><title>Hopper_epoch_13_0</title>
<path fill="none" stroke="#d95f02" d="M340.333,-552C340.333,-552 273.667,-552 273.667,-552 269.833,-552 266,-548.167 266,-544.333 266,-544.333 266,-536.667 266,-536.667 266,-532.833 269.833,-529 273.667,-529 273.667,-529 340.333,-529 340.333,-529 344.167,-529 348,-532.833 348,-536.667 348,-536.667 348,-544.333 348,-544.333 348,-548.167 344.167,-552 340.333,-552"/>
<text text-anchor="middle" x="307" y="-536.8" font-family="Times New Roman,serif" font-size="14.00">Jim Hopper</text>
</g>
<!-- Hopper_epoch_12_0&#45;&gt;Hopper_epoch_13_0 -->
<g id="edge24" class="edge"><title>Hopper_epoch_12_0&#45;&gt;Hopper_epoch_13_0</title>
<path fill="none" stroke="#d95f02" d="M307,-629.905C307,-610.851 307,-571.018 307,-552.019"/>
</g>
<!-- Hopper_epoch_16_0 -->
<g id="node28" class="node"><title>Hopper_epoch_16_0</title>
<path fill="none" stroke="#d95f02" d="M495.333,-451C495.333,-451 428.667,-451 428.667,-451 424.833,-451 421,-447.167 421,-443.333 421,-443.333 421,-435.667 421,-435.667 421,-431.833 424.833,-428 428.667,-428 428.667,-428 495.333,-428 495.333,-428 499.167,-428 503,-431.833 503,-435.667 503,-435.667 503,-443.333 503,-443.333 503,-447.167 499.167,-451 495.333,-451"/>
<text text-anchor="middle" x="462" y="-435.8" font-family="Times New Roman,serif" font-size="14.00">Jim Hopper</text>
</g>
<!-- Hopper_epoch_13_0&#45;&gt;Hopper_epoch_16_0 -->
<g id="edge25" class="edge"><title>Hopper_epoch_13_0&#45;&gt;Hopper_epoch_16_0</title>
<path fill="none" stroke="#d95f02" d="M321.677,-528.832C330.136,-523.218 341.206,-516.74 352,-513 377.004,-504.338 388.013,-518.109 411,-505 433.074,-492.412 449.107,-466.146 456.829,-451.309"/>
</g>
<!-- Hopper_epoch_18_0 -->
<g id="node29" class="node"><title>Hopper_epoch_18_0</title>
<path fill="none" stroke="#d95f02" d="M512.333,-350C512.333,-350 445.667,-350 445.667,-350 441.833,-350 438,-346.167 438,-342.333 438,-342.333 438,-334.667 438,-334.667 438,-330.833 441.833,-327 445.667,-327 445.667,-327 512.333,-327 512.333,-327 516.167,-327 520,-330.833 520,-334.667 520,-334.667 520,-342.333 520,-342.333 520,-346.167 516.167,-350 512.333,-350"/>
<text text-anchor="middle" x="479" y="-334.8" font-family="Times New Roman,serif" font-size="14.00">Jim Hopper</text>
</g>
<!-- Hopper_epoch_16_0&#45;&gt;Hopper_epoch_18_0 -->
<g id="edge26" class="edge"><title>Hopper_epoch_16_0&#45;&gt;Hopper_epoch_18_0</title>
<path fill="none" stroke="#d95f02" d="M463.819,-427.905C467.091,-408.851 473.931,-369.018 477.194,-350.019"/>
</g>
<!-- Hopper_epoch_19_2 -->
<g id="node30" class="node"><title>Hopper_epoch_19_2</title>
<path fill="none" stroke="#d95f02" d="M781.333,-249C781.333,-249 714.667,-249 714.667,-249 710.833,-249 707,-245.167 707,-241.333 707,-241.333 707,-233.667 707,-233.667 707,-229.833 710.833,-226 714.667,-226 714.667,-226 781.333,-226 781.333,-226 785.167,-226 789,-229.833 789,-233.667 789,-233.667 789,-241.333 789,-241.333 789,-245.167 785.167,-249 781.333,-249"/>
<text text-anchor="middle" x="748" y="-233.8" font-family="Times New Roman,serif" font-size="14.00">Jim Hopper</text>
</g>
<!-- Hopper_epoch_18_0&#45;&gt;Hopper_epoch_19_2 -->
<g id="edge27" class="edge"><title>Hopper_epoch_18_0&#45;&gt;Hopper_epoch_19_2</title>
<path fill="none" stroke="#d95f02" d="M515.178,-326.973C536.005,-321.33 562.774,-314.779 587,-311 612.53,-307.018 680.516,-315.732 703,-303 724.267,-290.957 737.794,-264.221 744.008,-249.227"/>
</g>
<!-- Eleven_epoch_1_0 -->
<g id="node31" class="node"><title>Eleven_epoch_1_0</title>
<path fill="none" stroke="#7570b3" d="M913.833,-1042C913.833,-1042 876.167,-1042 876.167,-1042 872.333,-1042 868.5,-1038.17 868.5,-1034.33 868.5,-1034.33 868.5,-1026.67 868.5,-1026.67 868.5,-1022.83 872.333,-1019 876.167,-1019 876.167,-1019 913.833,-1019 913.833,-1019 917.667,-1019 921.5,-1022.83 921.5,-1026.67 921.5,-1026.67 921.5,-1034.33 921.5,-1034.33 921.5,-1038.17 917.667,-1042 913.833,-1042"/>
<text text-anchor="middle" x="895" y="-1026.8" font-family="Times New Roman,serif" font-size="14.00">Eleven</text>
</g>
<!-- Eleven_epoch_2_1 -->
<g id="node32" class="node"><title>Eleven_epoch_2_1</title>
<path fill="none" stroke="#7570b3" d="M913.833,-956C913.833,-956 876.167,-956 876.167,-956 872.333,-956 868.5,-952.167 868.5,-948.333 868.5,-948.333 868.5,-940.667 868.5,-940.667 868.5,-936.833 872.333,-933 876.167,-933 876.167,-933 913.833,-933 913.833,-933 917.667,-933 921.5,-936.833 921.5,-940.667 921.5,-940.667 921.5,-948.333 921.5,-948.333 921.5,-952.167 917.667,-956 913.833,-956"/>
<text text-anchor="middle" x="895" y="-940.8" font-family="Times New Roman,serif" font-size="14.00">Eleven</text>
</g>
<!-- Eleven_epoch_1_0&#45;&gt;Eleven_epoch_2_1 -->
<g id="edge28" class="edge"><title>Eleven_epoch_1_0&#45;&gt;Eleven_epoch_2_1</title>
<path fill="none" stroke="#7570b3" d="M895,-1018.86C895,-1002.7 895,-972.159 895,-956.052"/>
</g>
<!-- Eleven_epoch_6_0 -->
<g id="node33" class="node"><title>Eleven_epoch_6_0</title>
<path fill="none" stroke="#7570b3" d="M913.833,-855C913.833,-855 876.167,-855 876.167,-855 872.333,-855 868.5,-851.167 868.5,-847.333 868.5,-847.333 868.5,-839.667 868.5,-839.667 868.5,-835.833 872.333,-832 876.167,-832 876.167,-832 913.833,-832 913.833,-832 917.667,-832 921.5,-835.833 921.5,-839.667 921.5,-839.667 921.5,-847.333 921.5,-847.333 921.5,-851.167 917.667,-855 913.833,-855"/>
<text text-anchor="middle" x="895" y="-839.8" font-family="Times New Roman,serif" font-size="14.00">Eleven</text>
</g>
<!-- Eleven_epoch_2_1&#45;&gt;Eleven_epoch_6_0 -->
<g id="edge29" class="edge"><title>Eleven_epoch_2_1&#45;&gt;Eleven_epoch_6_0</title>
<path fill="none" stroke="#7570b3" d="M895,-932.905C895,-913.851 895,-874.018 895,-855.019"/>
</g>
<!-- Eleven_epoch_10_0 -->
<g id="node34" class="node"><title>Eleven_epoch_10_0</title>
<path fill="none" stroke="#7570b3" d="M1138.83,-653C1138.83,-653 1101.17,-653 1101.17,-653 1097.33,-653 1093.5,-649.167 1093.5,-645.333 1093.5,-645.333 1093.5,-637.667 1093.5,-637.667 1093.5,-633.833 1097.33,-630 1101.17,-630 1101.17,-630 1138.83,-630 1138.83,-630 1142.67,-630 1146.5,-633.833 1146.5,-637.667 1146.5,-637.667 1146.5,-645.333 1146.5,-645.333 1146.5,-649.167 1142.67,-653 1138.83,-653"/>
<text text-anchor="middle" x="1120" y="-637.8" font-family="Times New Roman,serif" font-size="14.00">Eleven</text>
</g>
<!-- Eleven_epoch_6_0&#45;&gt;Eleven_epoch_10_0 -->
<g id="edge30" class="edge"><title>Eleven_epoch_6_0&#45;&gt;Eleven_epoch_10_0</title>
<path fill="none" stroke="#7570b3" d="M903.845,-831.823C909.293,-826.055 916.793,-819.43 925,-816 949.045,-805.95 1020.48,-822.7 1042,-808 1096.82,-770.553 1114.12,-683.941 1118.62,-653.4"/>
</g>
<!-- Eleven_epoch_10_1 -->
<g id="node35" class="node"><title>Eleven_epoch_10_1</title>
<path fill="none" stroke="#7570b3" d="M1138.83,-552C1138.83,-552 1101.17,-552 1101.17,-552 1097.33,-552 1093.5,-548.167 1093.5,-544.333 1093.5,-544.333 1093.5,-536.667 1093.5,-536.667 1093.5,-532.833 1097.33,-529 1101.17,-529 1101.17,-529 1138.83,-529 1138.83,-529 1142.67,-529 1146.5,-532.833 1146.5,-536.667 1146.5,-536.667 1146.5,-544.333 1146.5,-544.333 1146.5,-548.167 1142.67,-552 1138.83,-552"/>
<text text-anchor="middle" x="1120" y="-536.8" font-family="Times New Roman,serif" font-size="14.00">Eleven</text>
</g>
<!-- Eleven_epoch_10_0&#45;&gt;Eleven_epoch_10_1 -->
<g id="edge31" class="edge"><title>Eleven_epoch_10_0&#45;&gt;Eleven_epoch_10_1</title>
<path fill="none" stroke="#7570b3" d="M1120,-629.905C1120,-610.851 1120,-571.018 1120,-552.019"/>
</g>
<!-- Eleven_epoch_15_0 -->
<g id="node36" class="node"><title>Eleven_epoch_15_0</title>
<path fill="none" stroke="#7570b3" d="M1384.83,-451C1384.83,-451 1347.17,-451 1347.17,-451 1343.33,-451 1339.5,-447.167 1339.5,-443.333 1339.5,-443.333 1339.5,-435.667 1339.5,-435.667 1339.5,-431.833 1343.33,-428 1347.17,-428 1347.17,-428 1384.83,-428 1384.83,-428 1388.67,-428 1392.5,-431.833 1392.5,-435.667 1392.5,-435.667 1392.5,-443.333 1392.5,-443.333 1392.5,-447.167 1388.67,-451 1384.83,-451"/>
<text text-anchor="middle" x="1366" y="-435.8" font-family="Times New Roman,serif" font-size="14.00">Eleven</text>
</g>
<!-- Eleven_epoch_10_1&#45;&gt;Eleven_epoch_15_0 -->
<g id="edge32" class="edge"><title>Eleven_epoch_10_1&#45;&gt;Eleven_epoch_15_0</title>
<path fill="none" stroke="#7570b3" d="M1134.86,-528.746C1143.73,-522.953 1155.48,-516.328 1167,-513 1184.42,-507.968 1314.59,-514.561 1330,-505 1349.5,-492.897 1359.33,-466.185 1363.48,-451.211"/>
</g>
<!-- Eleven_epoch_19_0 -->
<g id="node37" class="node"><title>Eleven_epoch_19_0</title>
<path fill="none" stroke="#7570b3" d="M1384.83,-249C1384.83,-249 1347.17,-249 1347.17,-249 1343.33,-249 1339.5,-245.167 1339.5,-241.333 1339.5,-241.333 1339.5,-233.667 1339.5,-233.667 1339.5,-229.833 1343.33,-226 1347.17,-226 1347.17,-226 1384.83,-226 1384.83,-226 1388.67,-226 1392.5,-229.833 1392.5,-233.667 1392.5,-233.667 1392.5,-241.333 1392.5,-241.333 1392.5,-245.167 1388.67,-249 1384.83,-249"/>
<text text-anchor="middle" x="1366" y="-233.8" font-family="Times New Roman,serif" font-size="14.00">Eleven</text>
</g>
<!-- Eleven_epoch_15_0&#45;&gt;Eleven_epoch_19_0 -->
<g id="edge33" class="edge"><title>Eleven_epoch_15_0&#45;&gt;Eleven_epoch_19_0</title>
<path fill="none" stroke="#7570b3" d="M1392.88,-435.901C1413.41,-432.346 1440.41,-423.929 1454,-404 1477.29,-369.853 1480.77,-342.494 1454,-311 1439.71,-294.187 1423.28,-315.357 1405,-303 1385.7,-289.956 1374.39,-263.868 1369.28,-249.182"/>
</g>
<!-- Holly_epoch_10_0 -->
<g id="node38" class="node"><title>Holly_epoch_10_0</title>
<path fill="none" stroke="#e7298a" d="M837.333,-653C837.333,-653 756.667,-653 756.667,-653 752.833,-653 749,-649.167 749,-645.333 749,-645.333 749,-637.667 749,-637.667 749,-633.833 752.833,-630 756.667,-630 756.667,-630 837.333,-630 837.333,-630 841.167,-630 845,-633.833 845,-637.667 845,-637.667 845,-645.333 845,-645.333 845,-649.167 841.167,-653 837.333,-653"/>
<text text-anchor="middle" x="797" y="-637.8" font-family="Times New Roman,serif" font-size="14.00">Holly Wheeler</text>
</g>
<!-- Holly_epoch_17_0 -->
<g id="node39" class="node"><title>Holly_epoch_17_0</title>
<path fill="none" stroke="#e7298a" d="M835.333,-350C835.333,-350 754.667,-350 754.667,-350 750.833,-350 747,-346.167 747,-342.333 747,-342.333 747,-334.667 747,-334.667 747,-330.833 750.833,-327 754.667,-327 754.667,-327 835.333,-327 835.333,-327 839.167,-327 843,-330.833 843,-334.667 843,-334.667 843,-342.333 843,-342.333 843,-346.167 839.167,-350 835.333,-350"/>
<text text-anchor="middle" x="795" y="-334.8" font-family="Times New Roman,serif" font-size="14.00">Holly Wheeler</text>
</g>
<!-- Holly_epoch_10_0&#45;&gt;Holly_epoch_17_0 -->
<g id="edge34" class="edge"><title>Holly_epoch_10_0&#45;&gt;Holly_epoch_17_0</title>
<path fill="none" stroke="#e7298a" d="M796.929,-629.787C796.618,-582.975 795.38,-396.641 795.07,-350.084"/>
</g>
<!-- Jonathan_epoch_2_0 -->
<g id="node40" class="node"><title>Jonathan_epoch_2_0</title>
<path fill="none" stroke="#66a61e" d="M1479.83,-956C1479.83,-956 1394.17,-956 1394.17,-956 1390.33,-956 1386.5,-952.167 1386.5,-948.333 1386.5,-948.333 1386.5,-940.667 1386.5,-940.667 1386.5,-936.833 1390.33,-933 1394.17,-933 1394.17,-933 1479.83,-933 1479.83,-933 1483.67,-933 1487.5,-936.833 1487.5,-940.667 1487.5,-940.667 1487.5,-948.333 1487.5,-948.333 1487.5,-952.167 1483.67,-956 1479.83,-956"/>
<text text-anchor="middle" x="1437" y="-940.8" font-family="Times New Roman,serif" font-size="14.00">Jonathan Byers</text>
</g>
<!-- Jonathan_epoch_5_0 -->
<g id="node41" class="node"><title>Jonathan_epoch_5_0</title>
<path fill="none" stroke="#66a61e" d="M1465.83,-855C1465.83,-855 1380.17,-855 1380.17,-855 1376.33,-855 1372.5,-851.167 1372.5,-847.333 1372.5,-847.333 1372.5,-839.667 1372.5,-839.667 1372.5,-835.833 1376.33,-832 1380.17,-832 1380.17,-832 1465.83,-832 1465.83,-832 1469.67,-832 1473.5,-835.833 1473.5,-839.667 1473.5,-839.667 1473.5,-847.333 1473.5,-847.333 1473.5,-851.167 1469.67,-855 1465.83,-855"/>
<text text-anchor="middle" x="1423" y="-839.8" font-family="Times New Roman,serif" font-size="14.00">Jonathan Byers</text>
</g>
<!-- Jonathan_epoch_2_0&#45;&gt;Jonathan_epoch_5_0 -->
<g id="edge35" class="edge"><title>Jonathan_epoch_2_0&#45;&gt;Jonathan_epoch_5_0</title>
<path fill="none" stroke="#66a61e" d="M1435.5,-932.905C1432.81,-913.851 1427.17,-874.018 1424.49,-855.019"/>
</g>
<!-- Jonathan_epoch_7_0 -->
<g id="node42" class="node"><title>Jonathan_epoch_7_0</title>
<path fill="none" stroke="#66a61e" d="M1350.83,-754C1350.83,-754 1265.17,-754 1265.17,-754 1261.33,-754 1257.5,-750.167 1257.5,-746.333 1257.5,-746.333 1257.5,-738.667 1257.5,-738.667 1257.5,-734.833 1261.33,-731 1265.17,-731 1265.17,-731 1350.83,-731 1350.83,-731 1354.67,-731 1358.5,-734.833 1358.5,-738.667 1358.5,-738.667 1358.5,-746.333 1358.5,-746.333 1358.5,-750.167 1354.67,-754 1350.83,-754"/>
<text text-anchor="middle" x="1308" y="-738.8" font-family="Times New Roman,serif" font-size="14.00">Jonathan Byers</text>
</g>
<!-- Jonathan_epoch_5_0&#45;&gt;Jonathan_epoch_7_0 -->
<g id="edge36" class="edge"><title>Jonathan_epoch_5_0&#45;&gt;Jonathan_epoch_7_0</title>
<path fill="none" stroke="#66a61e" d="M1410.69,-831.905C1388.56,-812.851 1342.29,-773.018 1320.22,-754.019"/>
</g>
<!-- Jonathan_epoch_7_1 -->
<g id="node43" class="node"><title>Jonathan_epoch_7_1</title>
<path fill="none" stroke="#66a61e" d="M1280.83,-653C1280.83,-653 1195.17,-653 1195.17,-653 1191.33,-653 1187.5,-649.167 1187.5,-645.333 1187.5,-645.333 1187.5,-637.667 1187.5,-637.667 1187.5,-633.833 1191.33,-630 1195.17,-630 1195.17,-630 1280.83,-630 1280.83,-630 1284.67,-630 1288.5,-633.833 1288.5,-637.667 1288.5,-637.667 1288.5,-645.333 1288.5,-645.333 1288.5,-649.167 1284.67,-653 1280.83,-653"/>
<text text-anchor="middle" x="1238" y="-637.8" font-family="Times New Roman,serif" font-size="14.00">Jonathan Byers</text>
</g>
<!-- Jonathan_epoch_7_0&#45;&gt;Jonathan_epoch_7_1 -->
<g id="edge37" class="edge"><title>Jonathan_epoch_7_0&#45;&gt;Jonathan_epoch_7_1</title>
<path fill="none" stroke="#66a61e" d="M1300.51,-730.905C1287.04,-711.851 1258.87,-672.018 1245.44,-653.019"/>
</g>
<!-- Jonathan_epoch_14_0 -->
<g id="node44" class="node"><title>Jonathan_epoch_14_0</title>
<path fill="none" stroke="#66a61e" d="M1389.83,-552C1389.83,-552 1304.17,-552 1304.17,-552 1300.33,-552 1296.5,-548.167 1296.5,-544.333 1296.5,-544.333 1296.5,-536.667 1296.5,-536.667 1296.5,-532.833 1300.33,-529 1304.17,-529 1304.17,-529 1389.83,-529 1389.83,-529 1393.67,-529 1397.5,-532.833 1397.5,-536.667 1397.5,-536.667 1397.5,-544.333 1397.5,-544.333 1397.5,-548.167 1393.67,-552 1389.83,-552"/>
<text text-anchor="middle" x="1347" y="-536.8" font-family="Times New Roman,serif" font-size="14.00">Jonathan Byers</text>
</g>
<!-- Jonathan_epoch_7_1&#45;&gt;Jonathan_epoch_14_0 -->
<g id="edge38" class="edge"><title>Jonathan_epoch_7_1&#45;&gt;Jonathan_epoch_14_0</title>
<path fill="none" stroke="#66a61e" d="M1254.97,-629.817C1264.72,-623.381 1276.97,-614.756 1287,-606 1306.82,-588.704 1327.09,-565.533 1338.26,-552.19"/>
</g>
<!-- Jonathan_epoch_20_0 -->
<g id="node45" class="node"><title>Jonathan_epoch_20_0</title>
<path fill="none" stroke="#66a61e" d="M1711.83,-148C1711.83,-148 1626.17,-148 1626.17,-148 1622.33,-148 1618.5,-144.167 1618.5,-140.333 1618.5,-140.333 1618.5,-132.667 1618.5,-132.667 1618.5,-128.833 1622.33,-125 1626.17,-125 1626.17,-125 1711.83,-125 1711.83,-125 1715.67,-125 1719.5,-128.833 1719.5,-132.667 1719.5,-132.667 1719.5,-140.333 1719.5,-140.333 1719.5,-144.167 1715.67,-148 1711.83,-148"/>
<text text-anchor="middle" x="1669" y="-132.8" font-family="Times New Roman,serif" font-size="14.00">Jonathan Byers</text>
</g>
<!-- Jonathan_epoch_14_0&#45;&gt;Jonathan_epoch_20_0 -->
<g id="edge39" class="edge"><title>Jonathan_epoch_14_0&#45;&gt;Jonathan_epoch_20_0</title>
<path fill="none" stroke="#66a61e" d="M1366.2,-528.926C1377.69,-522.391 1392.45,-513.629 1405,-505 1524.43,-422.887 1594.65,-431.852 1661,-303 1688,-250.572 1676.89,-175.984 1671.39,-148.346"/>
</g>
<!-- Agent_Repairman_epoch_9_0 -->
<g id="node46" class="node"><title>Agent_Repairman_epoch_9_0</title>
<path fill="none" stroke="#e6ab02" d="M809.833,-754C809.833,-754 712.167,-754 712.167,-754 708.333,-754 704.5,-750.167 704.5,-746.333 704.5,-746.333 704.5,-738.667 704.5,-738.667 704.5,-734.833 708.333,-731 712.167,-731 712.167,-731 809.833,-731 809.833,-731 813.667,-731 817.5,-734.833 817.5,-738.667 817.5,-738.667 817.5,-746.333 817.5,-746.333 817.5,-750.167 813.667,-754 809.833,-754"/>
<text text-anchor="middle" x="761" y="-738.8" font-family="Times New Roman,serif" font-size="14.00">Agent Repairman</text>
</g>
<!-- Mike_epoch_1_0 -->
<g id="node47" class="node"><title>Mike_epoch_1_0</title>
<path fill="none" stroke="#a6761d" d="M842.333,-1042C842.333,-1042 763.667,-1042 763.667,-1042 759.833,-1042 756,-1038.17 756,-1034.33 756,-1034.33 756,-1026.67 756,-1026.67 756,-1022.83 759.833,-1019 763.667,-1019 763.667,-1019 842.333,-1019 842.333,-1019 846.167,-1019 850,-1022.83 850,-1026.67 850,-1026.67 850,-1034.33 850,-1034.33 850,-1038.17 846.167,-1042 842.333,-1042"/>
<text text-anchor="middle" x="803" y="-1026.8" font-family="Times New Roman,serif" font-size="14.00">Mike Wheeler</text>
</g>
<!-- Mike_epoch_2_1 -->
<g id="node48" class="node"><title>Mike_epoch_2_1</title>
<path fill="none" stroke="#a6761d" d="M842.333,-956C842.333,-956 763.667,-956 763.667,-956 759.833,-956 756,-952.167 756,-948.333 756,-948.333 756,-940.667 756,-940.667 756,-936.833 759.833,-933 763.667,-933 763.667,-933 842.333,-933 842.333,-933 846.167,-933 850,-936.833 850,-940.667 850,-940.667 850,-948.333 850,-948.333 850,-952.167 846.167,-956 842.333,-956"/>
<text text-anchor="middle" x="803" y="-940.8" font-family="Times New Roman,serif" font-size="14.00">Mike Wheeler</text>
</g>
<!-- Mike_epoch_1_0&#45;&gt;Mike_epoch_2_1 -->
<g id="edge40" class="edge"><title>Mike_epoch_1_0&#45;&gt;Mike_epoch_2_1</title>
<path fill="none" stroke="#a6761d" d="M803,-1018.86C803,-1002.7 803,-972.159 803,-956.052"/>
</g>
<!-- Mike_epoch_6_0 -->
<g id="node49" class="node"><title>Mike_epoch_6_0</title>
<path fill="none" stroke="#a6761d" d="M842.333,-855C842.333,-855 763.667,-855 763.667,-855 759.833,-855 756,-851.167 756,-847.333 756,-847.333 756,-839.667 756,-839.667 756,-835.833 759.833,-832 763.667,-832 763.667,-832 842.333,-832 842.333,-832 846.167,-832 850,-835.833 850,-839.667 850,-839.667 850,-847.333 850,-847.333 850,-851.167 846.167,-855 842.333,-855"/>
<text text-anchor="middle" x="803" y="-839.8" font-family="Times New Roman,serif" font-size="14.00">Mike Wheeler</text>
</g>
<!-- Mike_epoch_2_1&#45;&gt;Mike_epoch_6_0 -->
<g id="edge41" class="edge"><title>Mike_epoch_2_1&#45;&gt;Mike_epoch_6_0</title>
<path fill="none" stroke="#a6761d" d="M803,-932.905C803,-913.851 803,-874.018 803,-855.019"/>
</g>
<!-- Mike_epoch_10_0 -->
<g id="node50" class="node"><title>Mike_epoch_10_0</title>
<path fill="none" stroke="#a6761d" d="M1067.33,-653C1067.33,-653 988.667,-653 988.667,-653 984.833,-653 981,-649.167 981,-645.333 981,-645.333 981,-637.667 981,-637.667 981,-633.833 984.833,-630 988.667,-630 988.667,-630 1067.33,-630 1067.33,-630 1071.17,-630 1075,-633.833 1075,-637.667 1075,-637.667 1075,-645.333 1075,-645.333 1075,-649.167 1071.17,-653 1067.33,-653"/>
<text text-anchor="middle" x="1028" y="-637.8" font-family="Times New Roman,serif" font-size="14.00">Mike Wheeler</text>
</g>
<!-- Mike_epoch_6_0&#45;&gt;Mike_epoch_10_0 -->
<g id="edge42" class="edge"><title>Mike_epoch_6_0&#45;&gt;Mike_epoch_10_0</title>
<path fill="none" stroke="#a6761d" d="M824.362,-831.911C834.732,-826.895 847.424,-820.935 859,-816 868.188,-812.083 871.761,-813.645 880,-808 945.821,-762.901 1001.96,-682.528 1021.04,-653.412"/>
</g>
<!-- Mike_epoch_15_0 -->
<g id="node51" class="node"><title>Mike_epoch_15_0</title>
<path fill="none" stroke="#a6761d" d="M1065.33,-451C1065.33,-451 986.667,-451 986.667,-451 982.833,-451 979,-447.167 979,-443.333 979,-443.333 979,-435.667 979,-435.667 979,-431.833 982.833,-428 986.667,-428 986.667,-428 1065.33,-428 1065.33,-428 1069.17,-428 1073,-431.833 1073,-435.667 1073,-435.667 1073,-443.333 1073,-443.333 1073,-447.167 1069.17,-451 1065.33,-451"/>
<text text-anchor="middle" x="1026" y="-435.8" font-family="Times New Roman,serif" font-size="14.00">Mike Wheeler</text>
</g>
<!-- Mike_epoch_10_0&#45;&gt;Mike_epoch_15_0 -->
<g id="edge43" class="edge"><title>Mike_epoch_10_0&#45;&gt;Mike_epoch_15_0</title>
<path fill="none" stroke="#a6761d" d="M1006.57,-629.916C995.978,-624.844 982.935,-618.836 971,-614 960.969,-609.936 954.271,-614.821 948,-606 924.05,-572.312 923.271,-546.119 948,-513 955.488,-502.971 964.634,-512.014 975,-505 995.808,-490.919 1012.11,-465.713 1020.27,-451.335"/>
</g>
<!-- Mike_epoch_17_0 -->
<g id="node52" class="node"><title>Mike_epoch_17_0</title>
<path fill="none" stroke="#a6761d" d="M1065.33,-350C1065.33,-350 986.667,-350 986.667,-350 982.833,-350 979,-346.167 979,-342.333 979,-342.333 979,-334.667 979,-334.667 979,-330.833 982.833,-327 986.667,-327 986.667,-327 1065.33,-327 1065.33,-327 1069.17,-327 1073,-330.833 1073,-334.667 1073,-334.667 1073,-342.333 1073,-342.333 1073,-346.167 1069.17,-350 1065.33,-350"/>
<text text-anchor="middle" x="1026" y="-334.8" font-family="Times New Roman,serif" font-size="14.00">Mike Wheeler</text>
</g>
<!-- Mike_epoch_15_0&#45;&gt;Mike_epoch_17_0 -->
<g id="edge44" class="edge"><title>Mike_epoch_15_0&#45;&gt;Mike_epoch_17_0</title>
<path fill="none" stroke="#a6761d" d="M1026,-427.905C1026,-408.851 1026,-369.018 1026,-350.019"/>
</g>
<!-- Mike_epoch_19_0 -->
<g id="node53" class="node"><title>Mike_epoch_19_0</title>
<path fill="none" stroke="#a6761d" d="M1065.33,-249C1065.33,-249 986.667,-249 986.667,-249 982.833,-249 979,-245.167 979,-241.333 979,-241.333 979,-233.667 979,-233.667 979,-229.833 982.833,-226 986.667,-226 986.667,-226 1065.33,-226 1065.33,-226 1069.17,-226 1073,-229.833 1073,-233.667 1073,-233.667 1073,-241.333 1073,-241.333 1073,-245.167 1069.17,-249 1065.33,-249"/>
<text text-anchor="middle" x="1026" y="-233.8" font-family="Times New Roman,serif" font-size="14.00">Mike Wheeler</text>
</g>
<!-- Mike_epoch_17_0&#45;&gt;Mike_epoch_19_0 -->
<g id="edge45" class="edge"><title>Mike_epoch_17_0&#45;&gt;Mike_epoch_19_0</title>
<path fill="none" stroke="#a6761d" d="M1026,-326.905C1026,-307.851 1026,-268.018 1026,-249.019"/>
</g>
<!-- Officer_Callahan_epoch_4_0 -->
<g id="node54" class="node"><title>Officer_Callahan_epoch_4_0</title>
<path fill="none" stroke="#666666" d="M239.833,-754C239.833,-754 148.167,-754 148.167,-754 144.333,-754 140.5,-750.167 140.5,-746.333 140.5,-746.333 140.5,-738.667 140.5,-738.667 140.5,-734.833 144.333,-731 148.167,-731 148.167,-731 239.833,-731 239.833,-731 243.667,-731 247.5,-734.833 247.5,-738.667 247.5,-738.667 247.5,-746.333 247.5,-746.333 247.5,-750.167 243.667,-754 239.833,-754"/>
<text text-anchor="middle" x="194" y="-738.8" font-family="Times New Roman,serif" font-size="14.00">Officer Callahan</text>
</g>
<!-- Officer_Callahan_epoch_12_0 -->
<g id="node55" class="node"><title>Officer_Callahan_epoch_12_0</title>
<path fill="none" stroke="#666666" d="M239.833,-653C239.833,-653 148.167,-653 148.167,-653 144.333,-653 140.5,-649.167 140.5,-645.333 140.5,-645.333 140.5,-637.667 140.5,-637.667 140.5,-633.833 144.333,-630 148.167,-630 148.167,-630 239.833,-630 239.833,-630 243.667,-630 247.5,-633.833 247.5,-637.667 247.5,-637.667 247.5,-645.333 247.5,-645.333 247.5,-649.167 243.667,-653 239.833,-653"/>
<text text-anchor="middle" x="194" y="-637.8" font-family="Times New Roman,serif" font-size="14.00">Officer Callahan</text>
</g>
<!-- Officer_Callahan_epoch_4_0&#45;&gt;Officer_Callahan_epoch_12_0 -->
<g id="edge46" class="edge"><title>Officer_Callahan_epoch_4_0&#45;&gt;Officer_Callahan_epoch_12_0</title>
<path fill="none" stroke="#666666" d="M194,-730.905C194,-711.851 194,-672.018 194,-653.019"/>
</g>
<!-- Officer_Callahan_epoch_13_0 -->
<g id="node56" class="node"><title>Officer_Callahan_epoch_13_0</title>
<path fill="none" stroke="#666666" d="M239.833,-552C239.833,-552 148.167,-552 148.167,-552 144.333,-552 140.5,-548.167 140.5,-544.333 140.5,-544.333 140.5,-536.667 140.5,-536.667 140.5,-532.833 144.333,-529 148.167,-529 148.167,-529 239.833,-529 239.833,-529 243.667,-529 247.5,-532.833 247.5,-536.667 247.5,-536.667 247.5,-544.333 247.5,-544.333 247.5,-548.167 243.667,-552 239.833,-552"/>
<text text-anchor="middle" x="194" y="-536.8" font-family="Times New Roman,serif" font-size="14.00">Officer Callahan</text>
</g>
<!-- Officer_Callahan_epoch_12_0&#45;&gt;Officer_Callahan_epoch_13_0 -->
<g id="edge47" class="edge"><title>Officer_Callahan_epoch_12_0&#45;&gt;Officer_Callahan_epoch_13_0</title>
<path fill="none" stroke="#666666" d="M194,-629.905C194,-610.851 194,-571.018 194,-552.019"/>
</g>
<!-- Officer_Callahan_epoch_16_0 -->
<g id="node57" class="node"><title>Officer_Callahan_epoch_16_0</title>
<path fill="none" stroke="#666666" d="M394.833,-451C394.833,-451 303.167,-451 303.167,-451 299.333,-451 295.5,-447.167 295.5,-443.333 295.5,-443.333 295.5,-435.667 295.5,-435.667 295.5,-431.833 299.333,-428 303.167,-428 303.167,-428 394.833,-428 394.833,-428 398.667,-428 402.5,-431.833 402.5,-435.667 402.5,-435.667 402.5,-443.333 402.5,-443.333 402.5,-447.167 398.667,-451 394.833,-451"/>
<text text-anchor="middle" x="349" y="-435.8" font-family="Times New Roman,serif" font-size="14.00">Officer Callahan</text>
</g>
<!-- Officer_Callahan_epoch_13_0&#45;&gt;Officer_Callahan_epoch_16_0 -->
<g id="edge48" class="edge"><title>Officer_Callahan_epoch_13_0&#45;&gt;Officer_Callahan_epoch_16_0</title>
<path fill="none" stroke="#666666" d="M210.588,-528.905C240.421,-509.851 302.785,-470.018 332.532,-451.019"/>
</g>
<!-- Officer_Callahan_epoch_18_0 -->
<g id="node58" class="node"><title>Officer_Callahan_epoch_18_0</title>
<path fill="none" stroke="#666666" d="M411.833,-350C411.833,-350 320.167,-350 320.167,-350 316.333,-350 312.5,-346.167 312.5,-342.333 312.5,-342.333 312.5,-334.667 312.5,-334.667 312.5,-330.833 316.333,-327 320.167,-327 320.167,-327 411.833,-327 411.833,-327 415.667,-327 419.5,-330.833 419.5,-334.667 419.5,-334.667 419.5,-342.333 419.5,-342.333 419.5,-346.167 415.667,-350 411.833,-350"/>
<text text-anchor="middle" x="366" y="-334.8" font-family="Times New Roman,serif" font-size="14.00">Officer Callahan</text>
</g>
<!-- Officer_Callahan_epoch_16_0&#45;&gt;Officer_Callahan_epoch_18_0 -->
<g id="edge49" class="edge"><title>Officer_Callahan_epoch_16_0&#45;&gt;Officer_Callahan_epoch_18_0</title>
<path fill="none" stroke="#666666" d="M350.819,-427.905C354.091,-408.851 360.931,-369.018 364.194,-350.019"/>
</g>
<!-- Carol_epoch_5_0 -->
<g id="node59" class="node"><title>Carol_epoch_5_0</title>
<path fill="none" stroke="#1b9e77" d="M1776.83,-855C1776.83,-855 1745.17,-855 1745.17,-855 1741.33,-855 1737.5,-851.167 1737.5,-847.333 1737.5,-847.333 1737.5,-839.667 1737.5,-839.667 1737.5,-835.833 1741.33,-832 1745.17,-832 1745.17,-832 1776.83,-832 1776.83,-832 1780.67,-832 1784.5,-835.833 1784.5,-839.667 1784.5,-839.667 1784.5,-847.333 1784.5,-847.333 1784.5,-851.167 1780.67,-855 1776.83,-855"/>
<text text-anchor="middle" x="1761" y="-839.8" font-family="Times New Roman,serif" font-size="14.00">Carol</text>
</g>
<!-- Carol_epoch_20_0 -->
<g id="node60" class="node"><title>Carol_epoch_20_0</title>
<path fill="none" stroke="#1b9e77" d="M1776.83,-148C1776.83,-148 1745.17,-148 1745.17,-148 1741.33,-148 1737.5,-144.167 1737.5,-140.333 1737.5,-140.333 1737.5,-132.667 1737.5,-132.667 1737.5,-128.833 1741.33,-125 1745.17,-125 1745.17,-125 1776.83,-125 1776.83,-125 1780.67,-125 1784.5,-128.833 1784.5,-132.667 1784.5,-132.667 1784.5,-140.333 1784.5,-140.333 1784.5,-144.167 1780.67,-148 1776.83,-148"/>
<text text-anchor="middle" x="1761" y="-132.8" font-family="Times New Roman,serif" font-size="14.00">Carol</text>
</g>
<!-- Carol_epoch_5_0&#45;&gt;Carol_epoch_20_0 -->
<g id="edge50" class="edge"><title>Carol_epoch_5_0&#45;&gt;Carol_epoch_20_0</title>
<path fill="none" stroke="#1b9e77" d="M1761,-831.66C1761,-801.615 1761,-714.722 1761,-642.5 1761,-642.5 1761,-642.5 1761,-337.5 1761,-265.278 1761,-178.385 1761,-148.34"/>
</g>
<!-- Dustin_epoch_1_0 -->
<g id="node61" class="node"><title>Dustin_epoch_1_0</title>
<path fill="none" stroke="#d95f02" d="M1048.83,-1042C1048.83,-1042 947.167,-1042 947.167,-1042 943.333,-1042 939.5,-1038.17 939.5,-1034.33 939.5,-1034.33 939.5,-1026.67 939.5,-1026.67 939.5,-1022.83 943.333,-1019 947.167,-1019 947.167,-1019 1048.83,-1019 1048.83,-1019 1052.67,-1019 1056.5,-1022.83 1056.5,-1026.67 1056.5,-1026.67 1056.5,-1034.33 1056.5,-1034.33 1056.5,-1038.17 1052.67,-1042 1048.83,-1042"/>
<text text-anchor="middle" x="998" y="-1026.8" font-family="Times New Roman,serif" font-size="14.00">Dustin Henderson</text>
</g>
<!-- Dustin_epoch_5_1 -->
<g id="node62" class="node"><title>Dustin_epoch_5_1</title>
<path fill="none" stroke="#d95f02" d="M2142.83,-855C2142.83,-855 2041.17,-855 2041.17,-855 2037.33,-855 2033.5,-851.167 2033.5,-847.333 2033.5,-847.333 2033.5,-839.667 2033.5,-839.667 2033.5,-835.833 2037.33,-832 2041.17,-832 2041.17,-832 2142.83,-832 2142.83,-832 2146.67,-832 2150.5,-835.833 2150.5,-839.667 2150.5,-839.667 2150.5,-847.333 2150.5,-847.333 2150.5,-851.167 2146.67,-855 2142.83,-855"/>
<text text-anchor="middle" x="2092" y="-839.8" font-family="Times New Roman,serif" font-size="14.00">Dustin Henderson</text>
</g>
<!-- Dustin_epoch_1_0&#45;&gt;Dustin_epoch_5_1 -->
<g id="edge51" class="edge"><title>Dustin_epoch_1_0&#45;&gt;Dustin_epoch_5_1</title>
<path fill="none" stroke="#d95f02" d="M1019.13,-1018.88C1032.03,-1012.97 1049.05,-1006.19 1065,-1003 1112.4,-993.514 1451.86,-999.393 1500,-995 1733.72,-973.675 1809.73,-1011.19 2021,-909 2047.69,-896.092 2071.59,-869.951 2083.67,-855.22"/>
</g>
<!-- Dustin_epoch_15_0 -->
<g id="node63" class="node"><title>Dustin_epoch_15_0</title>
<path fill="none" stroke="#d95f02" d="M1200.83,-451C1200.83,-451 1099.17,-451 1099.17,-451 1095.33,-451 1091.5,-447.167 1091.5,-443.333 1091.5,-443.333 1091.5,-435.667 1091.5,-435.667 1091.5,-431.833 1095.33,-428 1099.17,-428 1099.17,-428 1200.83,-428 1200.83,-428 1204.67,-428 1208.5,-431.833 1208.5,-435.667 1208.5,-435.667 1208.5,-443.333 1208.5,-443.333 1208.5,-447.167 1204.67,-451 1200.83,-451"/>
<text text-anchor="middle" x="1150" y="-435.8" font-family="Times New Roman,serif" font-size="14.00">Dustin Henderson</text>
</g>
<!-- Dustin_epoch_5_1&#45;&gt;Dustin_epoch_15_0 -->
<g id="edge52" class="edge"><title>Dustin_epoch_5_1&#45;&gt;Dustin_epoch_15_0</title>
<path fill="none" stroke="#d95f02" d="M2069.18,-831.99C2055.51,-826.203 2037.61,-819.501 2021,-816 1991.16,-809.709 1912.29,-819.378 1884,-808 1824.92,-784.241 1824.23,-755.398 1775,-715 1662.96,-623.059 1655.28,-562.324 1519,-513 1487.44,-501.576 1247.96,-517.961 1217,-505 1190.19,-493.778 1167.96,-466.449 1157.12,-451.212"/>
</g>
<!-- Dustin_epoch_17_0 -->
<g id="node64" class="node"><title>Dustin_epoch_17_0</title>
<path fill="none" stroke="#d95f02" d="M1200.83,-350C1200.83,-350 1099.17,-350 1099.17,-350 1095.33,-350 1091.5,-346.167 1091.5,-342.333 1091.5,-342.333 1091.5,-334.667 1091.5,-334.667 1091.5,-330.833 1095.33,-327 1099.17,-327 1099.17,-327 1200.83,-327 1200.83,-327 1204.67,-327 1208.5,-330.833 1208.5,-334.667 1208.5,-334.667 1208.5,-342.333 1208.5,-342.333 1208.5,-346.167 1204.67,-350 1200.83,-350"/>
<text text-anchor="middle" x="1150" y="-334.8" font-family="Times New Roman,serif" font-size="14.00">Dustin Henderson</text>
</g>
<!-- Dustin_epoch_15_0&#45;&gt;Dustin_epoch_17_0 -->
<g id="edge53" class="edge"><title>Dustin_epoch_15_0&#45;&gt;Dustin_epoch_17_0</title>
<path fill="none" stroke="#d95f02" d="M1150,-427.905C1150,-408.851 1150,-369.018 1150,-350.019"/>
</g>
<!-- Dustin_epoch_19_0 -->
<g id="node65" class="node"><title>Dustin_epoch_19_0</title>
<path fill="none" stroke="#d95f02" d="M1200.83,-249C1200.83,-249 1099.17,-249 1099.17,-249 1095.33,-249 1091.5,-245.167 1091.5,-241.333 1091.5,-241.333 1091.5,-233.667 1091.5,-233.667 1091.5,-229.833 1095.33,-226 1099.17,-226 1099.17,-226 1200.83,-226 1200.83,-226 1204.67,-226 1208.5,-229.833 1208.5,-233.667 1208.5,-233.667 1208.5,-241.333 1208.5,-241.333 1208.5,-245.167 1204.67,-249 1200.83,-249"/>
<text text-anchor="middle" x="1150" y="-233.8" font-family="Times New Roman,serif" font-size="14.00">Dustin Henderson</text>
</g>
<!-- Dustin_epoch_17_0&#45;&gt;Dustin_epoch_19_0 -->
<g id="edge54" class="edge"><title>Dustin_epoch_17_0&#45;&gt;Dustin_epoch_19_0</title>
<path fill="none" stroke="#d95f02" d="M1150,-326.905C1150,-307.851 1150,-268.018 1150,-249.019"/>
</g>
<!-- Lucas_epoch_1_0 -->
<g id="node66" class="node"><title>Lucas_epoch_1_0</title>
<path fill="none" stroke="#7570b3" d="M1161.83,-1042C1161.83,-1042 1082.17,-1042 1082.17,-1042 1078.33,-1042 1074.5,-1038.17 1074.5,-1034.33 1074.5,-1034.33 1074.5,-1026.67 1074.5,-1026.67 1074.5,-1022.83 1078.33,-1019 1082.17,-1019 1082.17,-1019 1161.83,-1019 1161.83,-1019 1165.67,-1019 1169.5,-1022.83 1169.5,-1026.67 1169.5,-1026.67 1169.5,-1034.33 1169.5,-1034.33 1169.5,-1038.17 1165.67,-1042 1161.83,-1042"/>
<text text-anchor="middle" x="1122" y="-1026.8" font-family="Times New Roman,serif" font-size="14.00">Lucas Sinclair</text>
</g>
<!-- Lucas_epoch_5_1 -->
<g id="node67" class="node"><title>Lucas_epoch_5_1</title>
<path fill="none" stroke="#7570b3" d="M2255.83,-855C2255.83,-855 2176.17,-855 2176.17,-855 2172.33,-855 2168.5,-851.167 2168.5,-847.333 2168.5,-847.333 2168.5,-839.667 2168.5,-839.667 2168.5,-835.833 2172.33,-832 2176.17,-832 2176.17,-832 2255.83,-832 2255.83,-832 2259.67,-832 2263.5,-835.833 2263.5,-839.667 2263.5,-839.667 2263.5,-847.333 2263.5,-847.333 2263.5,-851.167 2259.67,-855 2255.83,-855"/>
<text text-anchor="middle" x="2216" y="-839.8" font-family="Times New Roman,serif" font-size="14.00">Lucas Sinclair</text>
</g>
<!-- Lucas_epoch_1_0&#45;&gt;Lucas_epoch_5_1 -->
<g id="edge55" class="edge"><title>Lucas_epoch_1_0&#45;&gt;Lucas_epoch_5_1</title>
<path fill="none" stroke="#7570b3" d="M1169.69,-1029.53C1276.46,-1029.04 1542.65,-1024.66 1763,-995 1941.49,-970.972 2003.65,-1000.12 2159,-909 2181.94,-895.542 2200.54,-869.616 2209.74,-855.067"/>
</g>
<!-- Lucas_epoch_15_0 -->
<g id="node68" class="node"><title>Lucas_epoch_15_0</title>
<path fill="none" stroke="#7570b3" d="M1313.83,-451C1313.83,-451 1234.17,-451 1234.17,-451 1230.33,-451 1226.5,-447.167 1226.5,-443.333 1226.5,-443.333 1226.5,-435.667 1226.5,-435.667 1226.5,-431.833 1230.33,-428 1234.17,-428 1234.17,-428 1313.83,-428 1313.83,-428 1317.67,-428 1321.5,-431.833 1321.5,-435.667 1321.5,-435.667 1321.5,-443.333 1321.5,-443.333 1321.5,-447.167 1317.67,-451 1313.83,-451"/>
<text text-anchor="middle" x="1274" y="-435.8" font-family="Times New Roman,serif" font-size="14.00">Lucas Sinclair</text>
</g>
<!-- Lucas_epoch_5_1&#45;&gt;Lucas_epoch_15_0 -->
<g id="edge56" class="edge"><title>Lucas_epoch_5_1&#45;&gt;Lucas_epoch_15_0</title>
<path fill="none" stroke="#7570b3" d="M2202.39,-831.942C2139.2,-783.636 1866.34,-583.035 1605,-513 1575.47,-505.087 1357.62,-518.088 1330,-505 1305.88,-493.571 1287.99,-466.326 1279.5,-451.157"/>
</g>
<!-- Lucas_epoch_17_0 -->
<g id="node69" class="node"><title>Lucas_epoch_17_0</title>
<path fill="none" stroke="#7570b3" d="M1313.83,-350C1313.83,-350 1234.17,-350 1234.17,-350 1230.33,-350 1226.5,-346.167 1226.5,-342.333 1226.5,-342.333 1226.5,-334.667 1226.5,-334.667 1226.5,-330.833 1230.33,-327 1234.17,-327 1234.17,-327 1313.83,-327 1313.83,-327 1317.67,-327 1321.5,-330.833 1321.5,-334.667 1321.5,-334.667 1321.5,-342.333 1321.5,-342.333 1321.5,-346.167 1317.67,-350 1313.83,-350"/>
<text text-anchor="middle" x="1274" y="-334.8" font-family="Times New Roman,serif" font-size="14.00">Lucas Sinclair</text>
</g>
<!-- Lucas_epoch_15_0&#45;&gt;Lucas_epoch_17_0 -->
<g id="edge57" class="edge"><title>Lucas_epoch_15_0&#45;&gt;Lucas_epoch_17_0</title>
<path fill="none" stroke="#7570b3" d="M1274,-427.905C1274,-408.851 1274,-369.018 1274,-350.019"/>
</g>
<!-- Lucas_epoch_19_0 -->
<g id="node70" class="node"><title>Lucas_epoch_19_0</title>
<path fill="none" stroke="#7570b3" d="M1313.83,-249C1313.83,-249 1234.17,-249 1234.17,-249 1230.33,-249 1226.5,-245.167 1226.5,-241.333 1226.5,-241.333 1226.5,-233.667 1226.5,-233.667 1226.5,-229.833 1230.33,-226 1234.17,-226 1234.17,-226 1313.83,-226 1313.83,-226 1317.67,-226 1321.5,-229.833 1321.5,-233.667 1321.5,-233.667 1321.5,-241.333 1321.5,-241.333 1321.5,-245.167 1317.67,-249 1313.83,-249"/>
<text text-anchor="middle" x="1274" y="-233.8" font-family="Times New Roman,serif" font-size="14.00">Lucas Sinclair</text>
</g>
<!-- Lucas_epoch_17_0&#45;&gt;Lucas_epoch_19_0 -->
<g id="edge58" class="edge"><title>Lucas_epoch_17_0&#45;&gt;Lucas_epoch_19_0</title>
<path fill="none" stroke="#7570b3" d="M1274,-326.905C1274,-307.851 1274,-268.018 1274,-249.019"/>
</g>
<!-- Tommy_epoch_5_0 -->
<g id="node71" class="node"><title>Tommy_epoch_5_0</title>
<path fill="none" stroke="#e7298a" d="M1873.33,-855C1873.33,-855 1810.67,-855 1810.67,-855 1806.83,-855 1803,-851.167 1803,-847.333 1803,-847.333 1803,-839.667 1803,-839.667 1803,-835.833 1806.83,-832 1810.67,-832 1810.67,-832 1873.33,-832 1873.33,-832 1877.17,-832 1881,-835.833 1881,-839.667 1881,-839.667 1881,-847.333 1881,-847.333 1881,-851.167 1877.17,-855 1873.33,-855"/>
<text text-anchor="middle" x="1842" y="-839.8" font-family="Times New Roman,serif" font-size="14.00">Tommy H.</text>
</g>
<!-- Tommy_epoch_20_0 -->
<g id="node72" class="node"><title>Tommy_epoch_20_0</title>
<path fill="none" stroke="#e7298a" d="M1873.33,-148C1873.33,-148 1810.67,-148 1810.67,-148 1806.83,-148 1803,-144.167 1803,-140.333 1803,-140.333 1803,-132.667 1803,-132.667 1803,-128.833 1806.83,-125 1810.67,-125 1810.67,-125 1873.33,-125 1873.33,-125 1877.17,-125 1881,-128.833 1881,-132.667 1881,-132.667 1881,-140.333 1881,-140.333 1881,-144.167 1877.17,-148 1873.33,-148"/>
<text text-anchor="middle" x="1842" y="-132.8" font-family="Times New Roman,serif" font-size="14.00">Tommy H.</text>
</g>
<!-- Tommy_epoch_5_0&#45;&gt;Tommy_epoch_20_0 -->
<g id="edge59" class="edge"><title>Tommy_epoch_5_0&#45;&gt;Tommy_epoch_20_0</title>
<path fill="none" stroke="#e7298a" d="M1842,-831.66C1842,-801.615 1842,-714.722 1842,-642.5 1842,-642.5 1842,-642.5 1842,-337.5 1842,-265.278 1842,-178.385 1842,-148.34"/>
</g>
<!-- Will_epoch_7_1 -->
<g id="node73" class="node"><title>Will_epoch_7_1</title>
<path fill="none" stroke="#66a61e" d="M1373.83,-653C1373.83,-653 1314.17,-653 1314.17,-653 1310.33,-653 1306.5,-649.167 1306.5,-645.333 1306.5,-645.333 1306.5,-637.667 1306.5,-637.667 1306.5,-633.833 1310.33,-630 1314.17,-630 1314.17,-630 1373.83,-630 1373.83,-630 1377.67,-630 1381.5,-633.833 1381.5,-637.667 1381.5,-637.667 1381.5,-645.333 1381.5,-645.333 1381.5,-649.167 1377.67,-653 1373.83,-653"/>
<text text-anchor="middle" x="1344" y="-637.8" font-family="Times New Roman,serif" font-size="14.00">Will Byers</text>
</g>
<!-- Mr_Clarke_epoch_18_0 -->
<g id="node74" class="node"><title>Mr_Clarke_epoch_18_0</title>
<path fill="none" stroke="#e6ab02" d="M286.833,-350C286.833,-350 225.167,-350 225.167,-350 221.333,-350 217.5,-346.167 217.5,-342.333 217.5,-342.333 217.5,-334.667 217.5,-334.667 217.5,-330.833 221.333,-327 225.167,-327 225.167,-327 286.833,-327 286.833,-327 290.667,-327 294.5,-330.833 294.5,-334.667 294.5,-334.667 294.5,-342.333 294.5,-342.333 294.5,-346.167 290.667,-350 286.833,-350"/>
<text text-anchor="middle" x="256" y="-334.8" font-family="Times New Roman,serif" font-size="14.00">Mr. Clarke</text>
</g>
<!-- Nancy_epoch_2_1 -->
<g id="node75" class="node"><title>Nancy_epoch_2_1</title>
<path fill="none" stroke="#a6761d" d="M1151.33,-956C1151.33,-956 1064.67,-956 1064.67,-956 1060.83,-956 1057,-952.167 1057,-948.333 1057,-948.333 1057,-940.667 1057,-940.667 1057,-936.833 1060.83,-933 1064.67,-933 1064.67,-933 1151.33,-933 1151.33,-933 1155.17,-933 1159,-936.833 1159,-940.667 1159,-940.667 1159,-948.333 1159,-948.333 1159,-952.167 1155.17,-956 1151.33,-956"/>
<text text-anchor="middle" x="1108" y="-940.8" font-family="Times New Roman,serif" font-size="14.00">Nancy Wheeler</text>
</g>
<!-- Nancy_epoch_5_0 -->
<g id="node76" class="node"><title>Nancy_epoch_5_0</title>
<path fill="none" stroke="#a6761d" d="M1586.33,-855C1586.33,-855 1499.67,-855 1499.67,-855 1495.83,-855 1492,-851.167 1492,-847.333 1492,-847.333 1492,-839.667 1492,-839.667 1492,-835.833 1495.83,-832 1499.67,-832 1499.67,-832 1586.33,-832 1586.33,-832 1590.17,-832 1594,-835.833 1594,-839.667 1594,-839.667 1594,-847.333 1594,-847.333 1594,-851.167 1590.17,-855 1586.33,-855"/>
<text text-anchor="middle" x="1543" y="-839.8" font-family="Times New Roman,serif" font-size="14.00">Nancy Wheeler</text>
</g>
<!-- Nancy_epoch_2_1&#45;&gt;Nancy_epoch_5_0 -->
<g id="edge60" class="edge"><title>Nancy_epoch_2_1&#45;&gt;Nancy_epoch_5_0</title>
<path fill="none" stroke="#a6761d" d="M1127.8,-932.919C1139.91,-927.028 1155.92,-920.245 1171,-917 1204.79,-909.729 1450.43,-923.079 1482,-909 1507.34,-897.7 1527.2,-870.403 1536.76,-855.191"/>
</g>
<!-- Nancy_epoch_17_0 -->
<g id="node77" class="node"><title>Nancy_epoch_17_0</title>
<path fill="none" stroke="#a6761d" d="M1434.33,-350C1434.33,-350 1347.67,-350 1347.67,-350 1343.83,-350 1340,-346.167 1340,-342.333 1340,-342.333 1340,-334.667 1340,-334.667 1340,-330.833 1343.83,-327 1347.67,-327 1347.67,-327 1434.33,-327 1434.33,-327 1438.17,-327 1442,-330.833 1442,-334.667 1442,-334.667 1442,-342.333 1442,-342.333 1442,-346.167 1438.17,-350 1434.33,-350"/>
<text text-anchor="middle" x="1391" y="-334.8" font-family="Times New Roman,serif" font-size="14.00">Nancy Wheeler</text>
</g>
<!-- Nancy_epoch_5_0&#45;&gt;Nancy_epoch_17_0 -->
<g id="edge61" class="edge"><title>Nancy_epoch_5_0&#45;&gt;Nancy_epoch_17_0</title>
<path fill="none" stroke="#a6761d" d="M1551.15,-831.907C1572.42,-803.161 1628,-720.597 1628,-642.5 1628,-642.5 1628,-642.5 1628,-539.5 1628,-434.111 1489.43,-372.955 1424.2,-350.007"/>
</g>
<!-- Nancy_epoch_19_1 -->
<g id="node78" class="node"><title>Nancy_epoch_19_1</title>
<path fill="none" stroke="#a6761d" d="M1511.33,-249C1511.33,-249 1424.67,-249 1424.67,-249 1420.83,-249 1417,-245.167 1417,-241.333 1417,-241.333 1417,-233.667 1417,-233.667 1417,-229.833 1420.83,-226 1424.67,-226 1424.67,-226 1511.33,-226 1511.33,-226 1515.17,-226 1519,-229.833 1519,-233.667 1519,-233.667 1519,-241.333 1519,-241.333 1519,-245.167 1515.17,-249 1511.33,-249"/>
<text text-anchor="middle" x="1468" y="-233.8" font-family="Times New Roman,serif" font-size="14.00">Nancy Wheeler</text>
</g>
<!-- Nancy_epoch_17_0&#45;&gt;Nancy_epoch_19_1 -->
<g id="edge62" class="edge"><title>Nancy_epoch_17_0&#45;&gt;Nancy_epoch_19_1</title>
<path fill="none" stroke="#a6761d" d="M1399.24,-326.905C1414.06,-307.851 1445.04,-268.018 1459.82,-249.019"/>
</g>
<!-- Nancy_epoch_20_0 -->
<g id="node79" class="node"><title>Nancy_epoch_20_0</title>
<path fill="none" stroke="#a6761d" d="M1467.33,-148C1467.33,-148 1380.67,-148 1380.67,-148 1376.83,-148 1373,-144.167 1373,-140.333 1373,-140.333 1373,-132.667 1373,-132.667 1373,-128.833 1376.83,-125 1380.67,-125 1380.67,-125 1467.33,-125 1467.33,-125 1471.17,-125 1475,-128.833 1475,-132.667 1475,-132.667 1475,-140.333 1475,-140.333 1475,-144.167 1471.17,-148 1467.33,-148"/>
<text text-anchor="middle" x="1424" y="-132.8" font-family="Times New Roman,serif" font-size="14.00">Nancy Wheeler</text>
</g>
<!-- Nancy_epoch_19_1&#45;&gt;Nancy_epoch_20_0 -->
<g id="edge63" class="edge"><title>Nancy_epoch_19_1&#45;&gt;Nancy_epoch_20_0</title>
<path fill="none" stroke="#a6761d" d="M1463.29,-225.905C1454.82,-206.851 1437.12,-167.018 1428.67,-148.019"/>
</g>
<!-- Brenner_epoch_3_0 -->
<g id="node80" class="node"><title>Brenner_epoch_3_0</title>
<path fill="none" stroke="#666666" d="M365.333,-855C365.333,-855 258.667,-855 258.667,-855 254.833,-855 251,-851.167 251,-847.333 251,-847.333 251,-839.667 251,-839.667 251,-835.833 254.833,-832 258.667,-832 258.667,-832 365.333,-832 365.333,-832 369.167,-832 373,-835.833 373,-839.667 373,-839.667 373,-847.333 373,-847.333 373,-851.167 369.167,-855 365.333,-855"/>
<text text-anchor="middle" x="312" y="-839.8" font-family="Times New Roman,serif" font-size="14.00">Dr. Martin Brenner</text>
</g>
<!-- Cynthia_epoch_14_0 -->
<g id="node81" class="node"><title>Cynthia_epoch_14_0</title>
<path fill="none" stroke="#1b9e77" d="M1270.83,-552C1270.83,-552 1227.17,-552 1227.17,-552 1223.33,-552 1219.5,-548.167 1219.5,-544.333 1219.5,-544.333 1219.5,-536.667 1219.5,-536.667 1219.5,-532.833 1223.33,-529 1227.17,-529 1227.17,-529 1270.83,-529 1270.83,-529 1274.67,-529 1278.5,-532.833 1278.5,-536.667 1278.5,-536.667 1278.5,-544.333 1278.5,-544.333 1278.5,-548.167 1274.67,-552 1270.83,-552"/>
<text text-anchor="middle" x="1249" y="-536.8" font-family="Times New Roman,serif" font-size="14.00">Cynthia</text>
</g>
<!-- Ted_epoch_2_1 -->
<g id="node82" class="node"><title>Ted_epoch_2_1</title>
<path fill="none" stroke="#d95f02" d="M729.833,-956C729.833,-956 656.167,-956 656.167,-956 652.333,-956 648.5,-952.167 648.5,-948.333 648.5,-948.333 648.5,-940.667 648.5,-940.667 648.5,-936.833 652.333,-933 656.167,-933 656.167,-933 729.833,-933 729.833,-933 733.667,-933 737.5,-936.833 737.5,-940.667 737.5,-940.667 737.5,-948.333 737.5,-948.333 737.5,-952.167 733.667,-956 729.833,-956"/>
<text text-anchor="middle" x="693" y="-940.8" font-family="Times New Roman,serif" font-size="14.00">Ted Wheeler</text>
</g>
<!-- Ted_epoch_17_0 -->
<g id="node83" class="node"><title>Ted_epoch_17_0</title>
<path fill="none" stroke="#d95f02" d="M720.833,-350C720.833,-350 647.167,-350 647.167,-350 643.333,-350 639.5,-346.167 639.5,-342.333 639.5,-342.333 639.5,-334.667 639.5,-334.667 639.5,-330.833 643.333,-327 647.167,-327 647.167,-327 720.833,-327 720.833,-327 724.667,-327 728.5,-330.833 728.5,-334.667 728.5,-334.667 728.5,-342.333 728.5,-342.333 728.5,-346.167 724.667,-350 720.833,-350"/>
<text text-anchor="middle" x="684" y="-334.8" font-family="Times New Roman,serif" font-size="14.00">Ted Wheeler</text>
</g>
<!-- Ted_epoch_2_1&#45;&gt;Ted_epoch_17_0 -->
<g id="edge64" class="edge"><title>Ted_epoch_2_1&#45;&gt;Ted_epoch_17_0</title>
<path fill="none" stroke="#d95f02" d="M680.647,-932.813C646.143,-902.034 549.05,-808.863 515,-707 501.896,-667.799 486.584,-644.016 515,-614 526.169,-602.202 649.333,-617.307 661,-606 734.033,-535.222 698.943,-390.509 687.274,-350.156"/>
</g>
<!-- Steve_epoch_5_0 -->
<g id="node84" class="node"><title>Steve_epoch_5_0</title>
<path fill="none" stroke="#7570b3" d="M2001.33,-855C2001.33,-855 1906.67,-855 1906.67,-855 1902.83,-855 1899,-851.167 1899,-847.333 1899,-847.333 1899,-839.667 1899,-839.667 1899,-835.833 1902.83,-832 1906.67,-832 1906.67,-832 2001.33,-832 2001.33,-832 2005.17,-832 2009,-835.833 2009,-839.667 2009,-839.667 2009,-847.333 2009,-847.333 2009,-851.167 2005.17,-855 2001.33,-855"/>
<text text-anchor="middle" x="1954" y="-839.8" font-family="Times New Roman,serif" font-size="14.00">Steve Harrington</text>
</g>
<!-- Steve_epoch_20_0 -->
<g id="node85" class="node"><title>Steve_epoch_20_0</title>
<path fill="none" stroke="#7570b3" d="M2001.33,-148C2001.33,-148 1906.67,-148 1906.67,-148 1902.83,-148 1899,-144.167 1899,-140.333 1899,-140.333 1899,-132.667 1899,-132.667 1899,-128.833 1902.83,-125 1906.67,-125 1906.67,-125 2001.33,-125 2001.33,-125 2005.17,-125 2009,-128.833 2009,-132.667 2009,-132.667 2009,-140.333 2009,-140.333 2009,-144.167 2005.17,-148 2001.33,-148"/>
<text text-anchor="middle" x="1954" y="-132.8" font-family="Times New Roman,serif" font-size="14.00">Steve Harrington</text>
</g>
<!-- Steve_epoch_5_0&#45;&gt;Steve_epoch_20_0 -->
<g id="edge65" class="edge"><title>Steve_epoch_5_0&#45;&gt;Steve_epoch_20_0</title>
<path fill="none" stroke="#7570b3" d="M1954,-831.66C1954,-801.615 1954,-714.722 1954,-642.5 1954,-642.5 1954,-642.5 1954,-337.5 1954,-265.278 1954,-178.385 1954,-148.34"/>
</g>
<!-- Karen_epoch_2_1 -->
<g id="node86" class="node"><title>Karen_epoch_2_1</title>
<path fill="none" stroke="#e7298a" d="M1030.83,-956C1030.83,-956 947.167,-956 947.167,-956 943.333,-956 939.5,-952.167 939.5,-948.333 939.5,-948.333 939.5,-940.667 939.5,-940.667 939.5,-936.833 943.333,-933 947.167,-933 947.167,-933 1030.83,-933 1030.83,-933 1034.67,-933 1038.5,-936.833 1038.5,-940.667 1038.5,-940.667 1038.5,-948.333 1038.5,-948.333 1038.5,-952.167 1034.67,-956 1030.83,-956"/>
<text text-anchor="middle" x="989" y="-940.8" font-family="Times New Roman,serif" font-size="14.00">Karen Wheeler</text>
</g>
<!-- Karen_epoch_10_0 -->
<g id="node87" class="node"><title>Karen_epoch_10_0</title>
<path fill="none" stroke="#e7298a" d="M954.833,-653C954.833,-653 871.167,-653 871.167,-653 867.333,-653 863.5,-649.167 863.5,-645.333 863.5,-645.333 863.5,-637.667 863.5,-637.667 863.5,-633.833 867.333,-630 871.167,-630 871.167,-630 954.833,-630 954.833,-630 958.667,-630 962.5,-633.833 962.5,-637.667 962.5,-637.667 962.5,-645.333 962.5,-645.333 962.5,-649.167 958.667,-653 954.833,-653"/>
<text text-anchor="middle" x="913" y="-637.8" font-family="Times New Roman,serif" font-size="14.00">Karen Wheeler</text>
</g>
<!-- Karen_epoch_2_1&#45;&gt;Karen_epoch_10_0 -->
<g id="edge66" class="edge"><title>Karen_epoch_2_1&#45;&gt;Karen_epoch_10_0</title>
<path fill="none" stroke="#e7298a" d="M988.539,-932.785C987.413,-910.687 983.857,-858.558 974,-816 959.303,-752.545 929.294,-680.047 917.709,-653.213"/>
</g>
<!-- Karen_epoch_17_0 -->
<g id="node88" class="node"><title>Karen_epoch_17_0</title>
<path fill="none" stroke="#e7298a" d="M952.833,-350C952.833,-350 869.167,-350 869.167,-350 865.333,-350 861.5,-346.167 861.5,-342.333 861.5,-342.333 861.5,-334.667 861.5,-334.667 861.5,-330.833 865.333,-327 869.167,-327 869.167,-327 952.833,-327 952.833,-327 956.667,-327 960.5,-330.833 960.5,-334.667 960.5,-334.667 960.5,-342.333 960.5,-342.333 960.5,-346.167 956.667,-350 952.833,-350"/>
<text text-anchor="middle" x="911" y="-334.8" font-family="Times New Roman,serif" font-size="14.00">Karen Wheeler</text>
</g>
<!-- Karen_epoch_10_0&#45;&gt;Karen_epoch_17_0 -->
<g id="edge67" class="edge"><title>Karen_epoch_10_0&#45;&gt;Karen_epoch_17_0</title>
<path fill="none" stroke="#e7298a" d="M912.929,-629.787C912.618,-582.975 911.38,-396.641 911.07,-350.084"/>
</g>
<!-- Barb_epoch_5_0 -->
<g id="node89" class="node"><title>Barb_epoch_5_0</title>
<path fill="none" stroke="#66a61e" d="M1711.83,-855C1711.83,-855 1620.17,-855 1620.17,-855 1616.33,-855 1612.5,-851.167 1612.5,-847.333 1612.5,-847.333 1612.5,-839.667 1612.5,-839.667 1612.5,-835.833 1616.33,-832 1620.17,-832 1620.17,-832 1711.83,-832 1711.83,-832 1715.67,-832 1719.5,-835.833 1719.5,-839.667 1719.5,-839.667 1719.5,-847.333 1719.5,-847.333 1719.5,-851.167 1715.67,-855 1711.83,-855"/>
<text text-anchor="middle" x="1666" y="-839.8" font-family="Times New Roman,serif" font-size="14.00">Barbara Holland</text>
</g>
<!-- Barb_epoch_19_1 -->
<g id="node90" class="node"><title>Barb_epoch_19_1</title>
<path fill="none" stroke="#66a61e" d="M1638.83,-249C1638.83,-249 1547.17,-249 1547.17,-249 1543.33,-249 1539.5,-245.167 1539.5,-241.333 1539.5,-241.333 1539.5,-233.667 1539.5,-233.667 1539.5,-229.833 1543.33,-226 1547.17,-226 1547.17,-226 1638.83,-226 1638.83,-226 1642.67,-226 1646.5,-229.833 1646.5,-233.667 1646.5,-233.667 1646.5,-241.333 1646.5,-241.333 1646.5,-245.167 1642.67,-249 1638.83,-249"/>
<text text-anchor="middle" x="1593" y="-233.8" font-family="Times New Roman,serif" font-size="14.00">Barbara Holland</text>
</g>
<!-- Barb_epoch_5_0&#45;&gt;Barb_epoch_19_1 -->
<g id="edge68" class="edge"><title>Barb_epoch_5_0&#45;&gt;Barb_epoch_19_1</title>
<path fill="none" stroke="#66a61e" d="M1666,-831.66C1666,-801.615 1666,-714.722 1666,-642.5 1666,-642.5 1666,-642.5 1666,-438.5 1666,-361.987 1618.27,-278.445 1600,-249.267"/>
</g>
<!-- Barb_epoch_20_0 -->
<g id="node91" class="node"><title>Barb_epoch_20_0</title>
<path fill="none" stroke="#66a61e" d="M1592.83,-148C1592.83,-148 1501.17,-148 1501.17,-148 1497.33,-148 1493.5,-144.167 1493.5,-140.333 1493.5,-140.333 1493.5,-132.667 1493.5,-132.667 1493.5,-128.833 1497.33,-125 1501.17,-125 1501.17,-125 1592.83,-125 1592.83,-125 1596.67,-125 1600.5,-128.833 1600.5,-132.667 1600.5,-132.667 1600.5,-140.333 1600.5,-140.333 1600.5,-144.167 1596.67,-148 1592.83,-148"/>
<text text-anchor="middle" x="1547" y="-132.8" font-family="Times New Roman,serif" font-size="14.00">Barbara Holland</text>
</g>
<!-- Barb_epoch_19_1&#45;&gt;Barb_epoch_20_0 -->
<g id="edge69" class="edge"><title>Barb_epoch_19_1&#45;&gt;Barb_epoch_20_0</title>
<path fill="none" stroke="#66a61e" d="M1588.08,-225.905C1579.22,-206.851 1560.72,-167.018 1551.89,-148.019"/>
</g>
<!-- The_Monster_epoch_21_0 -->
<g id="node92" class="node"><title>The_Monster_epoch_21_0</title>
<path fill="none" stroke="#e6ab02" d="M1009.83,-47C1009.83,-47 936.167,-47 936.167,-47 932.333,-47 928.5,-43.1667 928.5,-39.3333 928.5,-39.3333 928.5,-31.6667 928.5,-31.6667 928.5,-27.8333 932.333,-24 936.167,-24 936.167,-24 1009.83,-24 1009.83,-24 1013.67,-24 1017.5,-27.8333 1017.5,-31.6667 1017.5,-31.6667 1017.5,-39.3333 1017.5,-39.3333 1017.5,-43.1667 1013.67,-47 1009.83,-47"/>
<text text-anchor="middle" x="973" y="-31.8" font-family="Times New Roman,serif" font-size="14.00">The Monster</text>
</g>
<!-- Joyce_epoch_2_0 -->
<g id="node93" class="node"><title>Joyce_epoch_2_0</title>
<path fill="none" stroke="#a6761d" d="M1360.83,-956C1360.83,-956 1291.17,-956 1291.17,-956 1287.33,-956 1283.5,-952.167 1283.5,-948.333 1283.5,-948.333 1283.5,-940.667 1283.5,-940.667 1283.5,-936.833 1287.33,-933 1291.17,-933 1291.17,-933 1360.83,-933 1360.83,-933 1364.67,-933 1368.5,-936.833 1368.5,-940.667 1368.5,-940.667 1368.5,-948.333 1368.5,-948.333 1368.5,-952.167 1364.67,-956 1360.83,-956"/>
<text text-anchor="middle" x="1326" y="-940.8" font-family="Times New Roman,serif" font-size="14.00">Joyce Byers</text>
</g>
<!-- Joyce_epoch_7_1 -->
<g id="node94" class="node"><title>Joyce_epoch_7_1</title>
<path fill="none" stroke="#a6761d" d="M1476.83,-653C1476.83,-653 1407.17,-653 1407.17,-653 1403.33,-653 1399.5,-649.167 1399.5,-645.333 1399.5,-645.333 1399.5,-637.667 1399.5,-637.667 1399.5,-633.833 1403.33,-630 1407.17,-630 1407.17,-630 1476.83,-630 1476.83,-630 1480.67,-630 1484.5,-633.833 1484.5,-637.667 1484.5,-637.667 1484.5,-645.333 1484.5,-645.333 1484.5,-649.167 1480.67,-653 1476.83,-653"/>
<text text-anchor="middle" x="1442" y="-637.8" font-family="Times New Roman,serif" font-size="14.00">Joyce Byers</text>
</g>
<!-- Joyce_epoch_2_0&#45;&gt;Joyce_epoch_7_1 -->
<g id="edge70" class="edge"><title>Joyce_epoch_2_0&#45;&gt;Joyce_epoch_7_1</title>
<path fill="none" stroke="#a6761d" d="M1321.12,-932.92C1310.77,-908.707 1289.9,-848.831 1320,-816 1333.87,-800.874 1396.83,-821.824 1412,-808 1457.11,-766.889 1448.56,-682.595 1443.9,-653.03"/>
</g>
<!-- Joyce_epoch_8_0 -->
<g id="node95" class="node"><title>Joyce_epoch_8_0</title>
<path fill="none" stroke="#a6761d" d="M656.833,-653C656.833,-653 587.167,-653 587.167,-653 583.333,-653 579.5,-649.167 579.5,-645.333 579.5,-645.333 579.5,-637.667 579.5,-637.667 579.5,-633.833 583.333,-630 587.167,-630 587.167,-630 656.833,-630 656.833,-630 660.667,-630 664.5,-633.833 664.5,-637.667 664.5,-637.667 664.5,-645.333 664.5,-645.333 664.5,-649.167 660.667,-653 656.833,-653"/>
<text text-anchor="middle" x="622" y="-637.8" font-family="Times New Roman,serif" font-size="14.00">Joyce Byers</text>
</g>
<!-- Joyce_epoch_7_1&#45;&gt;Joyce_epoch_8_0 -->
<g id="edge71" class="edge"><title>Joyce_epoch_7_1&#45;&gt;Joyce_epoch_8_0</title>
<path fill="none" stroke="#a6761d" d="M1437.23,-653.15C1428.97,-671.285 1410.05,-704.834 1381,-711 1362.66,-714.892 724.342,-714.892 706,-711 671.932,-703.77 643.442,-671.029 630.111,-653.185"/>
</g>
<!-- Joyce_epoch_11_0 -->
<g id="node96" class="node"><title>Joyce_epoch_11_0</title>
<path fill="none" stroke="#a6761d" d="M622.833,-552C622.833,-552 553.167,-552 553.167,-552 549.333,-552 545.5,-548.167 545.5,-544.333 545.5,-544.333 545.5,-536.667 545.5,-536.667 545.5,-532.833 549.333,-529 553.167,-529 553.167,-529 622.833,-529 622.833,-529 626.667,-529 630.5,-532.833 630.5,-536.667 630.5,-536.667 630.5,-544.333 630.5,-544.333 630.5,-548.167 626.667,-552 622.833,-552"/>
<text text-anchor="middle" x="588" y="-536.8" font-family="Times New Roman,serif" font-size="14.00">Joyce Byers</text>
</g>
<!-- Joyce_epoch_8_0&#45;&gt;Joyce_epoch_11_0 -->
<g id="edge72" class="edge"><title>Joyce_epoch_8_0&#45;&gt;Joyce_epoch_11_0</title>
<path fill="none" stroke="#a6761d" d="M618.361,-629.905C611.817,-610.851 598.137,-571.018 591.612,-552.019"/>
</g>
<!-- Joyce_epoch_21_0 -->
<g id="node97" class="node"><title>Joyce_epoch_21_0</title>
<path fill="none" stroke="#a6761d" d="M890.833,-47C890.833,-47 821.167,-47 821.167,-47 817.333,-47 813.5,-43.1667 813.5,-39.3333 813.5,-39.3333 813.5,-31.6667 813.5,-31.6667 813.5,-27.8333 817.333,-24 821.167,-24 821.167,-24 890.833,-24 890.833,-24 894.667,-24 898.5,-27.8333 898.5,-31.6667 898.5,-31.6667 898.5,-39.3333 898.5,-39.3333 898.5,-43.1667 894.667,-47 890.833,-47"/>
<text text-anchor="middle" x="856" y="-31.8" font-family="Times New Roman,serif" font-size="14.00">Joyce Byers</text>
</g>
<!-- Joyce_epoch_11_0&#45;&gt;Joyce_epoch_21_0 -->
<g id="edge73" class="edge"><title>Joyce_epoch_11_0&#45;&gt;Joyce_epoch_21_0</title>
<path fill="none" stroke="#a6761d" d="M586.431,-528.688C582.223,-498.712 571,-411.983 571,-339.5 571,-339.5 571,-339.5 571,-236.5 571,-119.535 733.827,-65.1237 813.333,-45.5271"/>
</g>
<!-- Officer_Powell_epoch_4_0 -->
<g id="node98" class="node"><title>Officer_Powell_epoch_4_0</title>
<path fill="none" stroke="#666666" d="M114.333,-754C114.333,-754 31.6667,-754 31.6667,-754 27.8333,-754 24,-750.167 24,-746.333 24,-746.333 24,-738.667 24,-738.667 24,-734.833 27.8333,-731 31.6667,-731 31.6667,-731 114.333,-731 114.333,-731 118.167,-731 122,-734.833 122,-738.667 122,-738.667 122,-746.333 122,-746.333 122,-750.167 118.167,-754 114.333,-754"/>
<text text-anchor="middle" x="73" y="-738.8" font-family="Times New Roman,serif" font-size="14.00">Officer Powell</text>
</g>
<!-- Officer_Powell_epoch_12_0 -->
<g id="node99" class="node"><title>Officer_Powell_epoch_12_0</title>
<path fill="none" stroke="#666666" d="M114.333,-653C114.333,-653 31.6667,-653 31.6667,-653 27.8333,-653 24,-649.167 24,-645.333 24,-645.333 24,-637.667 24,-637.667 24,-633.833 27.8333,-630 31.6667,-630 31.6667,-630 114.333,-630 114.333,-630 118.167,-630 122,-633.833 122,-637.667 122,-637.667 122,-645.333 122,-645.333 122,-649.167 118.167,-653 114.333,-653"/>
<text text-anchor="middle" x="73" y="-637.8" font-family="Times New Roman,serif" font-size="14.00">Officer Powell</text>
</g>
<!-- Officer_Powell_epoch_4_0&#45;&gt;Officer_Powell_epoch_12_0 -->
<g id="edge74" class="edge"><title>Officer_Powell_epoch_4_0&#45;&gt;Officer_Powell_epoch_12_0</title>
<path fill="none" stroke="#666666" d="M73,-730.905C73,-711.851 73,-672.018 73,-653.019"/>
</g>
<!-- Officer_Powell_epoch_13_0 -->
<g id="node100" class="node"><title>Officer_Powell_epoch_13_0</title>
<path fill="none" stroke="#666666" d="M114.333,-552C114.333,-552 31.6667,-552 31.6667,-552 27.8333,-552 24,-548.167 24,-544.333 24,-544.333 24,-536.667 24,-536.667 24,-532.833 27.8333,-529 31.6667,-529 31.6667,-529 114.333,-529 114.333,-529 118.167,-529 122,-532.833 122,-536.667 122,-536.667 122,-544.333 122,-544.333 122,-548.167 118.167,-552 114.333,-552"/>
<text text-anchor="middle" x="73" y="-536.8" font-family="Times New Roman,serif" font-size="14.00">Officer Powell</text>
</g>
<!-- Officer_Powell_epoch_12_0&#45;&gt;Officer_Powell_epoch_13_0 -->
<g id="edge75" class="edge"><title>Officer_Powell_epoch_12_0&#45;&gt;Officer_Powell_epoch_13_0</title>
<path fill="none" stroke="#666666" d="M73,-629.905C73,-610.851 73,-571.018 73,-552.019"/>
</g>
<!-- Officer_Powell_epoch_18_0 -->
<g id="node101" class="node"><title>Officer_Powell_epoch_18_0</title>
<path fill="none" stroke="#666666" d="M191.333,-350C191.333,-350 108.667,-350 108.667,-350 104.833,-350 101,-346.167 101,-342.333 101,-342.333 101,-334.667 101,-334.667 101,-330.833 104.833,-327 108.667,-327 108.667,-327 191.333,-327 191.333,-327 195.167,-327 199,-330.833 199,-334.667 199,-334.667 199,-342.333 199,-342.333 199,-346.167 195.167,-350 191.333,-350"/>
<text text-anchor="middle" x="150" y="-334.8" font-family="Times New Roman,serif" font-size="14.00">Officer Powell</text>
</g>
<!-- Officer_Powell_epoch_13_0&#45;&gt;Officer_Powell_epoch_18_0 -->
<g id="edge76" class="edge"><title>Officer_Powell_epoch_13_0&#45;&gt;Officer_Powell_epoch_18_0</title>
<path fill="none" stroke="#666666" d="M77.1399,-528.747C90.5096,-494.021 132.441,-385.108 145.84,-350.306"/>
</g>
</g>
</svg>
