<?xml version="1.0" encoding="UTF-8" standalone="no"?>
<!DOCTYPE svg PUBLIC "-//W3C//DTD SVG 1.1//EN"
 "http://www.w3.org/Graphics/SVG/1.1/DTD/svg11.dtd">
<!-- Generated by graphviz version 2.36.0 (20140111.2315)
 -->
<!-- Title: G Pages: 1 -->
<svg width="819pt" height="501pt"
 viewBox="0.00 0.00 819.00 501.00" xmlns="http://www.w3.org/2000/svg" xmlns:xlink="http://www.w3.org/1999/xlink">
<g id="graph0" class="graph" transform="scale(1 1) rotate(0) translate(4 497)">
<title>G</title>
<polygon fill="white" stroke="none" points="-4,4 -4,-497 815,-497 815,4 -4,4"/>
<g id="clust14" class="cluster"><title>cluster_g_epoch_1</title>
<polygon fill="none" stroke="black" points="260,-396 260,-485 712,-485 712,-396 260,-396"/>
</g>
<g id="clust15" class="cluster"><title>cluster_1</title>
<polygon fill="none" stroke="black" points="366,-404 366,-477 704,-477 704,-404 366,-404"/>
<text text-anchor="middle" x="535" y="-461.8" font-family="Times,serif" font-size="14.00">Wheeler Basement: D&amp;D</text>
</g>
<g id="clust16" class="cluster"><title>cluster_g_epoch_2</title>
<polygon fill="none" stroke="black" points="8,-299 8,-388 712,-388 712,-299 8,-299"/>
</g>
<g id="clust17" class="cluster"><title>cluster_2</title>
<polygon fill="none" stroke="black" points="114,-307 114,-380 704,-380 704,-307 114,-307"/>
<text text-anchor="middle" x="409" y="-364.8" font-family="Times,serif" font-size="14.00">Wheeler Res.: Players Disperse</text>
</g>
<g id="clust18" class="cluster"><title>cluster_g_epoch_3</title>
<polygon fill="none" stroke="black" points="260,-202 260,-291 628,-291 628,-202 260,-202"/>
</g>
<g id="clust19" class="cluster"><title>cluster_3</title>
<polygon fill="none" stroke="black" points="366,-210 366,-283 620,-283 620,-210 366,-210"/>
<text text-anchor="middle" x="493" y="-267.8" font-family="Times,serif" font-size="14.00">Hawkins Streets: Biking Home</text>
</g>
<g id="clust20" class="cluster"><title>cluster_g_epoch_4</title>
<polygon fill="none" stroke="black" points="111,-105 111,-194 470,-194 470,-105 111,-105"/>
</g>
<g id="clust21" class="cluster"><title>cluster_4</title>
<polygon fill="none" stroke="black" points="215,-113 215,-186 462,-186 462,-113 215,-113"/>
<text text-anchor="middle" x="338.5" y="-170.8" font-family="Times,serif" font-size="14.00">Byers Residence: Will Meets the Monster</text>
</g>
<g id="clust22" class="cluster"><title>cluster_g_epoch_5</title>
<polygon fill="none" stroke="black" points="337,-8 337,-97 712,-97 712,-8 337,-8"/>
</g>
<g id="clust23" class="cluster"><title>cluster_5</title>
<polygon fill="none" stroke="black" points="442,-16 442,-89 704,-89 704,-16 442,-16"/>
<text text-anchor="middle" x="573" y="-73.8" font-family="Times,serif" font-size="14.00">Hawkins Middle School: Two Bullies</text>
</g>
<!-- epoch_1 -->
<!-- epoch_2 -->
<!-- epoch_1&#45;&gt;epoch_2 -->
<!-- epoch_3 -->
<!-- epoch_2&#45;&gt;epoch_3 -->
<!-- epoch_4 -->
<!-- epoch_3&#45;&gt;epoch_4 -->
<!-- epoch_5 -->
<!-- epoch_4&#45;&gt;epoch_5 -->
<!-- Mike_1 -->
<g id="node6" class="node"><title>Mike_1</title>
<ellipse fill="none" stroke="#1b9e77" cx="663" cy="-429" rx="32.2902" ry="16.0303"/>
<text text-anchor="middle" x="663" y="-425.3" font-family="Times,serif" font-size="14.00">Mike</text>
</g>
<!-- Mike_2 -->
<g id="node7" class="node"><title>Mike_2</title>
<ellipse fill="none" stroke="#1b9e77" cx="663" cy="-332" rx="32.2902" ry="16.0303"/>
<text text-anchor="middle" x="663" y="-328.3" font-family="Times,serif" font-size="14.00">Mike</text>
</g>
<!-- Mike_1&#45;&gt;Mike_2 -->
<g id="edge5" class="edge"><title>Mike_1&#45;&gt;Mike_2</title>
<path fill="none" stroke="black" d="M663,-412.313C663,-394.605 663,-365.982 663,-348.395"/>
</g>
<!-- Mike_5 -->
<g id="node8" class="node"><title>Mike_5</title>
<ellipse fill="none" stroke="#1b9e77" cx="663" cy="-41" rx="32.2902" ry="16.0303"/>
<text text-anchor="middle" x="663" y="-37.3" font-family="Times,serif" font-size="14.00">Mike</text>
</g>
<!-- Mike_2&#45;&gt;Mike_5 -->
<g id="edge13" class="edge"><title>Mike_2&#45;&gt;Mike_5</title>
<path fill="none" stroke="black" d="M663,-315.462C663,-265.165 663,-107.168 663,-57.264"/>
</g>
<!-- Dustin_1 -->
<g id="node9" class="node"><title>Dustin_1</title>
<ellipse fill="none" stroke="#d95f02" cx="575" cy="-429" rx="37.2152" ry="16.0303"/>
<text text-anchor="middle" x="575" y="-425.3" font-family="Times,serif" font-size="14.00">Dustin</text>
</g>
<!-- Dustin_2 -->
<g id="node10" class="node"><title>Dustin_2</title>
<ellipse fill="none" stroke="#d95f02" cx="575" cy="-332" rx="37.2152" ry="16.0303"/>
<text text-anchor="middle" x="575" y="-328.3" font-family="Times,serif" font-size="14.00">Dustin</text>
</g>
<!-- Dustin_1&#45;&gt;Dustin_2 -->
<g id="edge6" class="edge"><title>Dustin_1&#45;&gt;Dustin_2</title>
<path fill="none" stroke="black" d="M575,-412.313C575,-394.605 575,-365.982 575,-348.395"/>
</g>
<!-- Dustin_3 -->
<g id="node11" class="node"><title>Dustin_3</title>
<ellipse fill="none" stroke="#d95f02" cx="575" cy="-235" rx="37.2152" ry="16.0303"/>
<text text-anchor="middle" x="575" y="-231.3" font-family="Times,serif" font-size="14.00">Dustin</text>
</g>
<!-- Dustin_2&#45;&gt;Dustin_3 -->
<g id="edge10" class="edge"><title>Dustin_2&#45;&gt;Dustin_3</title>
<path fill="none" stroke="black" d="M575,-315.313C575,-297.605 575,-268.982 575,-251.395"/>
</g>
<!-- Dustin_5 -->
<g id="node12" class="node"><title>Dustin_5</title>
<ellipse fill="none" stroke="#d95f02" cx="575" cy="-41" rx="37.2152" ry="16.0303"/>
<text text-anchor="middle" x="575" y="-37.3" font-family="Times,serif" font-size="14.00">Dustin</text>
</g>
<!-- Dustin_3&#45;&gt;Dustin_5 -->
<g id="edge15" class="edge"><title>Dustin_3&#45;&gt;Dustin_5</title>
<path fill="none" stroke="black" d="M575,-218.612C575,-182.662 575,-93.4835 575,-57.4609"/>
</g>
<!-- Luke_1 -->
<g id="node13" class="node"><title>Luke_1</title>
<ellipse fill="none" stroke="#7570b3" cx="485" cy="-429" rx="34.4716" ry="16.0303"/>
<text text-anchor="middle" x="485" y="-425.3" font-family="Times,serif" font-size="14.00">Lucas</text>
</g>
<!-- Luke_2 -->
<g id="node14" class="node"><title>Luke_2</title>
<ellipse fill="none" stroke="#7570b3" cx="485" cy="-332" rx="34.4716" ry="16.0303"/>
<text text-anchor="middle" x="485" y="-328.3" font-family="Times,serif" font-size="14.00">Lucas</text>
</g>
<!-- Luke_1&#45;&gt;Luke_2 -->
<g id="edge7" class="edge"><title>Luke_1&#45;&gt;Luke_2</title>
<path fill="none" stroke="black" d="M485,-412.313C485,-394.605 485,-365.982 485,-348.395"/>
</g>
<!-- Luke_3 -->
<g id="node15" class="node"><title>Luke_3</title>
<ellipse fill="none" stroke="#7570b3" cx="485" cy="-235" rx="34.4716" ry="16.0303"/>
<text text-anchor="middle" x="485" y="-231.3" font-family="Times,serif" font-size="14.00">Lucas</text>
</g>
<!-- Luke_2&#45;&gt;Luke_3 -->
<g id="edge9" class="edge"><title>Luke_2&#45;&gt;Luke_3</title>
<path fill="none" stroke="black" d="M485,-315.313C485,-297.605 485,-268.982 485,-251.395"/>
</g>
<!-- Luke_5 -->
<g id="node16" class="node"><title>Luke_5</title>
<ellipse fill="none" stroke="#7570b3" cx="485" cy="-41" rx="34.4716" ry="16.0303"/>
<text text-anchor="middle" x="485" y="-37.3" font-family="Times,serif" font-size="14.00">Lucas</text>
</g>
<!-- Luke_3&#45;&gt;Luke_5 -->
<g id="edge14" class="edge"><title>Luke_3&#45;&gt;Luke_5</title>
<path fill="none" stroke="black" d="M485,-218.612C485,-182.662 485,-93.4835 485,-57.4609"/>
</g>
<!-- Will_1 -->
<g id="node17" class="node"><title>Will_1</title>
<ellipse fill="none" stroke="#e7298a" cx="403" cy="-429" rx="28.4872" ry="16.0303"/>
<text text-anchor="middle" x="403" y="-425.3" font-family="Times,serif" font-size="14.00">Will</text>
</g>
<!-- Will_2 -->
<g id="node18" class="node"><title>Will_2</title>
<ellipse fill="none" stroke="#e7298a" cx="403" cy="-332" rx="28.4872" ry="16.0303"/>
<text text-anchor="middle" x="403" y="-328.3" font-family="Times,serif" font-size="14.00">Will</text>
</g>
<!-- Will_1&#45;&gt;Will_2 -->
<g id="edge8" class="edge"><title>Will_1&#45;&gt;Will_2</title>
<path fill="none" stroke="black" d="M403,-412.313C403,-394.605 403,-365.982 403,-348.395"/>
</g>
<!-- Will_3 -->
<g id="node19" class="node"><title>Will_3</title>
<ellipse fill="none" stroke="#e7298a" cx="403" cy="-235" rx="28.4872" ry="16.0303"/>
<text text-anchor="middle" x="403" y="-231.3" font-family="Times,serif" font-size="14.00">Will</text>
</g>
<!-- Will_2&#45;&gt;Will_3 -->
<g id="edge11" class="edge"><title>Will_2&#45;&gt;Will_3</title>
<path fill="none" stroke="black" d="M403,-315.313C403,-297.605 403,-268.982 403,-251.395"/>
</g>
<!-- Will_4 -->
<g id="node20" class="node"><title>Will_4</title>
<ellipse fill="none" stroke="#e7298a" cx="403" cy="-138" rx="28.4872" ry="16.0303"/>
<text text-anchor="middle" x="403" y="-134.3" font-family="Times,serif" font-size="14.00">Will</text>
</g>
<!-- Will_3&#45;&gt;Will_4 -->
<g id="edge12" class="edge"><title>Will_3&#45;&gt;Will_4</title>
<path fill="none" stroke="black" d="M403,-218.313C403,-200.605 403,-171.982 403,-154.395"/>
</g>
<!-- Nancy_2 -->
<g id="node21" class="node"><title>Nancy_2</title>
<ellipse fill="none" stroke="#66a61e" cx="319" cy="-332" rx="36.1582" ry="16.0303"/>
<text text-anchor="middle" x="319" y="-328.3" font-family="Times,serif" font-size="14.00">Nancy</text>
</g>
<!-- Jonathan_1 -->
<g id="node22" class="node"><title>Jonathan_1</title>
<ellipse fill="none" stroke="#e6ab02" cx="766" cy="-429" rx="45.4433" ry="16.0303"/>
<text text-anchor="middle" x="766" y="-425.3" font-family="Times,serif" font-size="14.00">Jonathan</text>
</g>
<!-- Karen_2 -->
<g id="node23" class="node"><title>Karen_2</title>
<ellipse fill="none" stroke="#7fc97f" cx="229" cy="-332" rx="35.0343" ry="16.0303"/>
<text text-anchor="middle" x="229" y="-328.3" font-family="Times,serif" font-size="14.00">Karen</text>
</g>
<!-- Ted_2 -->
<g id="node24" class="node"><title>Ted_2</title>
<ellipse fill="none" stroke="#beaed4" cx="149" cy="-332" rx="26.3078" ry="16.0303"/>
<text text-anchor="middle" x="149" y="-328.3" font-family="Times,serif" font-size="14.00">Ted</text>
</g>
<!-- Monster_4 -->
<g id="node25" class="node"><title>Monster_4</title>
<ellipse fill="none" stroke="#b3e2cd" cx="291" cy="-138" rx="61.2774" ry="16.0303"/>
<text text-anchor="middle" x="291" y="-134.3" font-family="Times,serif" font-size="14.00">The Monster</text>
</g>
</g>
</svg>
