<?xml version="1.0" encoding="UTF-8" standalone="no"?>
<!DOCTYPE svg PUBLIC "-//W3C//DTD SVG 1.1//EN"
 "http://www.w3.org/Graphics/SVG/1.1/DTD/svg11.dtd">
<!-- Generated by graphviz version 2.38.0 (20140413.2041)
 -->
<!-- Title: %3 Pages: 1 -->
<svg width="2378pt" height="1760pt"
 viewBox="0.00 0.00 2378.22 1760.00" xmlns="http://www.w3.org/2000/svg" xmlns:xlink="http://www.w3.org/1999/xlink">
<g id="graph0" class="graph" transform="scale(1 1) rotate(0) translate(4 1756)">
<title>%3</title>
<polygon fill="white" stroke="none" points="-4,4 -4,-1756 2374.22,-1756 2374.22,4 -4,4"/>
<g id="clust30" class="cluster"><title>cluster_epoch_2</title>
<polygon fill="none" stroke="black" stroke-dasharray="1,5" points="1909.22,-1472 1909.22,-1643 2291.22,-1643 2291.22,-1472 1909.22,-1472"/>
</g>
<g id="clust31" class="cluster"><title>cluster_epoch_2_0</title>
<polygon fill="none" stroke="black" points="1949.22,-1573 1949.22,-1635 2237.22,-1635 2237.22,-1573 1949.22,-1573"/>
<text text-anchor="middle" x="2093.22" y="-1619.8" font-family="Times New Roman,serif" font-size="14.00">On the Road: Tommy and Carol tease Steve</text>
</g>
<g id="clust32" class="cluster"><title>cluster_epoch_2_1</title>
<polygon fill="none" stroke="black" points="1917.22,-1480 1917.22,-1557 2283.22,-1557 2283.22,-1480 1917.22,-1480"/>
<text text-anchor="middle" x="2100.22" y="-1541.8" font-family="Times New Roman,serif" font-size="14.00">Wheeler Residence: Steve sees Nancy and</text>
<text text-anchor="middle" x="2100.22" y="-1526.8" font-family="Times New Roman,serif" font-size="14.00">Jonathan together</text>
</g>
<g id="clust28" class="cluster"><title>cluster_epoch_1</title>
<polygon fill="none" stroke="black" stroke-dasharray="1,5" points="2052.22,-1651 2052.22,-1744 2362.22,-1744 2362.22,-1651 2052.22,-1651"/>
</g>
<g id="clust29" class="cluster"><title>cluster_epoch_1_0</title>
<polygon fill="none" stroke="black" points="2090.22,-1659 2090.22,-1736 2354.22,-1736 2354.22,-1659 2090.22,-1659"/>
<text text-anchor="middle" x="2222.22" y="-1720.8" font-family="Times New Roman,serif" font-size="14.00">Hawkins Woods, The Upside&#45;Down: Nancy</text>
<text text-anchor="middle" x="2222.22" y="-1705.8" font-family="Times New Roman,serif" font-size="14.00">Escapes the Upside&#45;Down</text>
</g>
<g id="clust37" class="cluster"><title>cluster_epoch_5</title>
<polygon fill="none" stroke="black" stroke-dasharray="1,5" points="1237.22,-1285 1237.22,-1363 1494.22,-1363 1494.22,-1285 1237.22,-1285"/>
</g>
<g id="clust38" class="cluster"><title>cluster_epoch_5_0</title>
<polygon fill="none" stroke="black" points="1245.22,-1293 1245.22,-1355 1456.22,-1355 1456.22,-1293 1245.22,-1293"/>
<text text-anchor="middle" x="1350.72" y="-1339.8" font-family="Times New Roman,serif" font-size="14.00">Wheeler Basement: Missing Eleven</text>
</g>
<g id="clust33" class="cluster"><title>cluster_epoch_3</title>
<polygon fill="none" stroke="black" stroke-dasharray="1,5" points="1299.22,-1472 1299.22,-1565 1588.22,-1565 1588.22,-1472 1299.22,-1472"/>
</g>
<g id="clust34" class="cluster"><title>cluster_epoch_3_0</title>
<polygon fill="none" stroke="black" points="1307.22,-1480 1307.22,-1557 1550.22,-1557 1550.22,-1480 1307.22,-1480"/>
<text text-anchor="middle" x="1428.72" y="-1541.8" font-family="Times New Roman,serif" font-size="14.00">Byers Residence: Joyce and Hopper talk</text>
<text text-anchor="middle" x="1428.72" y="-1526.8" font-family="Times New Roman,serif" font-size="14.00">about the research facility</text>
</g>
<g id="clust35" class="cluster"><title>cluster_epoch_4</title>
<polygon fill="none" stroke="black" stroke-dasharray="1,5" points="1534.22,-1371 1534.22,-1464 1841.22,-1464 1841.22,-1371 1534.22,-1371"/>
</g>
<g id="clust36" class="cluster"><title>cluster_epoch_4_0</title>
<polygon fill="none" stroke="black" points="1572.22,-1379 1572.22,-1456 1833.22,-1456 1833.22,-1379 1572.22,-1379"/>
<text text-anchor="middle" x="1702.72" y="-1440.8" font-family="Times New Roman,serif" font-size="14.00">Wheeler Residence: Jonathan and Nancy go</text>
<text text-anchor="middle" x="1702.72" y="-1425.8" font-family="Times New Roman,serif" font-size="14.00">to sleep together</text>
</g>
<g id="clust45" class="cluster"><title>cluster_epoch_9</title>
<polygon fill="none" stroke="black" stroke-dasharray="1,5" points="665.218,-926 665.218,-1004 959.218,-1004 959.218,-926 665.218,-926"/>
</g>
<g id="clust46" class="cluster"><title>cluster_epoch_9_0</title>
<polygon fill="none" stroke="black" points="673.218,-934 673.218,-996 919.218,-996 919.218,-934 673.218,-934"/>
<text text-anchor="middle" x="796.218" y="-980.8" font-family="Times New Roman,serif" font-size="14.00">Wheeler Basement: The Rule of Law</text>
</g>
<g id="clust41" class="cluster"><title>cluster_epoch_7</title>
<polygon fill="none" stroke="black" stroke-dasharray="1,5" points="1532.22,-1098 1532.22,-1176 1834.22,-1176 1834.22,-1098 1532.22,-1098"/>
</g>
<g id="clust42" class="cluster"><title>cluster_epoch_7_0</title>
<polygon fill="none" stroke="black" points="1570.22,-1106 1570.22,-1168 1826.22,-1168 1826.22,-1106 1570.22,-1106"/>
<text text-anchor="middle" x="1698.22" y="-1152.8" font-family="Times New Roman,serif" font-size="14.00">Wheeler Residence: Analyzing the Monster</text>
</g>
<g id="clust39" class="cluster"><title>cluster_epoch_6</title>
<polygon fill="none" stroke="black" stroke-dasharray="1,5" points="1205.22,-1184 1205.22,-1277 1501.22,-1277 1501.22,-1184 1205.22,-1184"/>
</g>
<g id="clust40" class="cluster"><title>cluster_epoch_6_0</title>
<polygon fill="none" stroke="black" points="1213.22,-1192 1213.22,-1269 1463.22,-1269 1463.22,-1192 1213.22,-1192"/>
<text text-anchor="middle" x="1338.22" y="-1253.8" font-family="Times New Roman,serif" font-size="14.00">Indiana Road: Hopper and Joyce follow a</text>
<text text-anchor="middle" x="1338.22" y="-1238.8" font-family="Times New Roman,serif" font-size="14.00">lead</text>
</g>
<g id="clust43" class="cluster"><title>cluster_epoch_8</title>
<polygon fill="none" stroke="black" stroke-dasharray="1,5" points="999.218,-1012 999.218,-1090 1294.22,-1090 1294.22,-1012 999.218,-1012"/>
</g>
<g id="clust44" class="cluster"><title>cluster_epoch_8_0</title>
<polygon fill="none" stroke="black" points="1039.22,-1020 1039.22,-1082 1286.22,-1082 1286.22,-1020 1039.22,-1020"/>
<text text-anchor="middle" x="1162.72" y="-1066.8" font-family="Times New Roman,serif" font-size="14.00">Clarke Residence: AV Club Pitch</text>
</g>
<g id="clust47" class="cluster"><title>cluster_epoch_10</title>
<polygon fill="none" stroke="black" stroke-dasharray="1,5" points="561.218,-747 561.218,-918 852.218,-918 852.218,-747 561.218,-747"/>
</g>
<g id="clust48" class="cluster"><title>cluster_epoch_10_0</title>
<polygon fill="none" stroke="black" points="599.218,-848 599.218,-910 844.218,-910 844.218,-848 599.218,-848"/>
<text text-anchor="middle" x="721.718" y="-894.8" font-family="Times New Roman,serif" font-size="14.00">Hawkins Labs: Flashback: Make Contact</text>
</g>
<g id="clust49" class="cluster"><title>cluster_epoch_10_1</title>
<polygon fill="none" stroke="black" points="572.218,-755 572.218,-817 840.218,-817 840.218,-755 572.218,-755"/>
<text text-anchor="middle" x="706.218" y="-801.8" font-family="Times New Roman,serif" font-size="14.00">Hawkins Woods: Eleven wakes in the woods</text>
</g>
<g id="clust50" class="cluster"><title>cluster_epoch_11</title>
<polygon fill="none" stroke="black" stroke-dasharray="1,5" points="168.218,-747 168.218,-840 553.218,-840 553.218,-747 168.218,-747"/>
</g>
<g id="clust51" class="cluster"><title>cluster_epoch_11_0</title>
<polygon fill="none" stroke="black" points="208.218,-755 208.218,-832 545.218,-832 545.218,-755 208.218,-755"/>
<text text-anchor="middle" x="376.718" y="-816.8" font-family="Times New Roman,serif" font-size="14.00">Wheeler Residence: Karen finds Nancy&#39;s</text>
<text text-anchor="middle" x="376.718" y="-801.8" font-family="Times New Roman,serif" font-size="14.00">room empty</text>
</g>
<g id="clust52" class="cluster"><title>cluster_epoch_12</title>
<polygon fill="none" stroke="black" stroke-dasharray="1,5" points="194.218,-568 194.218,-739 476.218,-739 476.218,-568 194.218,-568"/>
</g>
<g id="clust54" class="cluster"><title>cluster_epoch_12_1</title>
<polygon fill="none" stroke="black" points="230.218,-576 230.218,-653 440.218,-653 440.218,-576 230.218,-576"/>
<text text-anchor="middle" x="335.218" y="-637.8" font-family="Times New Roman,serif" font-size="14.00">Hawkins Labs, The Upside&#45;Down:</text>
<text text-anchor="middle" x="335.218" y="-622.8" font-family="Times New Roman,serif" font-size="14.00">Flashback: It&#39;s Calling You</text>
</g>
<g id="clust53" class="cluster"><title>cluster_epoch_12_0</title>
<polygon fill="none" stroke="black" points="232.218,-669 232.218,-731 468.218,-731 468.218,-669 232.218,-669"/>
<text text-anchor="middle" x="350.218" y="-715.8" font-family="Times New Roman,serif" font-size="14.00">Bradley&#39;s Big Buy: Eleven Steals Eggos</text>
</g>
<g id="clust55" class="cluster"><title>cluster_epoch_13</title>
<polygon fill="none" stroke="black" stroke-dasharray="1,5" points="890.218,-568 890.218,-661 1330.22,-661 1330.22,-568 890.218,-568"/>
</g>
<g id="clust56" class="cluster"><title>cluster_epoch_13_0</title>
<polygon fill="none" stroke="black" points="930.218,-576 930.218,-653 1322.22,-653 1322.22,-576 930.218,-576"/>
<text text-anchor="middle" x="1126.22" y="-637.8" font-family="Times New Roman,serif" font-size="14.00">Ives Residence: Trying to Communicate</text>
<text text-anchor="middle" x="1126.22" y="-622.8" font-family="Times New Roman,serif" font-size="14.00">with Terry</text>
</g>
<g id="clust57" class="cluster"><title>cluster_epoch_14</title>
<polygon fill="none" stroke="black" stroke-dasharray="1,5" points="25.2184,-467 25.2184,-560 882.218,-560 882.218,-467 25.2184,-467"/>
</g>
<g id="clust58" class="cluster"><title>cluster_epoch_14_0</title>
<polygon fill="none" stroke="black" points="33.2184,-475 33.2184,-552 276.218,-552 276.218,-475 33.2184,-475"/>
<text text-anchor="middle" x="154.718" y="-536.8" font-family="Times New Roman,serif" font-size="14.00">Sinclair Residence: Lucas heads toward</text>
<text text-anchor="middle" x="154.718" y="-521.8" font-family="Times New Roman,serif" font-size="14.00">the gate</text>
</g>
<g id="clust59" class="cluster"><title>cluster_epoch_14_1</title>
<polygon fill="none" stroke="black" points="284.218,-475 284.218,-537 842.218,-537 842.218,-475 284.218,-475"/>
<text text-anchor="middle" x="563.218" y="-521.8" font-family="Times New Roman,serif" font-size="14.00">Bradley&#39;s Big Buy: Best Friends</text>
</g>
<g id="clust69" class="cluster"><title>cluster_epoch_19</title>
<polygon fill="none" stroke="black" stroke-dasharray="1,5" points="1420.22,-295 1420.22,-373 1789.22,-373 1789.22,-295 1420.22,-295"/>
</g>
<g id="clust70" class="cluster"><title>cluster_epoch_19_0</title>
<polygon fill="none" stroke="black" points="1460.22,-303 1460.22,-365 1781.22,-365 1781.22,-303 1460.22,-303"/>
<text text-anchor="middle" x="1620.72" y="-349.8" font-family="Times New Roman,serif" font-size="14.00">Hawkins Police Station: Crazy in Love</text>
</g>
<g id="clust71" class="cluster"><title>cluster_epoch_20</title>
<polygon fill="none" stroke="black" stroke-dasharray="1,5" points="172.218,-109 172.218,-287 918.218,-287 918.218,-109 172.218,-109"/>
</g>
<g id="clust72" class="cluster"><title>cluster_epoch_20_0</title>
<polygon fill="none" stroke="black" points="635.218,-202 635.218,-264 880.218,-264 880.218,-202 635.218,-202"/>
<text text-anchor="middle" x="757.718" y="-248.8" font-family="Times New Roman,serif" font-size="14.00">Hawkins Labs: Lucas Connects the Dots</text>
</g>
<g id="clust74" class="cluster"><title>cluster_epoch_20_2</title>
<polygon fill="none" stroke="black" points="180.218,-117 180.218,-194 390.218,-194 390.218,-117 180.218,-117"/>
<text text-anchor="middle" x="285.218" y="-178.8" font-family="Times New Roman,serif" font-size="14.00">The Upside&#45;Down, Hawkins Labs:</text>
<text text-anchor="middle" x="285.218" y="-163.8" font-family="Times New Roman,serif" font-size="14.00">Flashback: Opening the Rift</text>
</g>
<g id="clust73" class="cluster"><title>cluster_epoch_20_1</title>
<polygon fill="none" stroke="black" points="180.218,-202 180.218,-279 627.218,-279 627.218,-202 180.218,-202"/>
<text text-anchor="middle" x="403.718" y="-263.8" font-family="Times New Roman,serif" font-size="14.00">Hawkins Quarry: Eleven Comes to the</text>
<text text-anchor="middle" x="403.718" y="-248.8" font-family="Times New Roman,serif" font-size="14.00">Rescue</text>
</g>
<g id="clust60" class="cluster"><title>cluster_epoch_15</title>
<polygon fill="none" stroke="black" stroke-dasharray="1,5" points="890.218,-467 890.218,-560 1330.22,-560 1330.22,-467 890.218,-467"/>
</g>
<g id="clust61" class="cluster"><title>cluster_epoch_15_0</title>
<polygon fill="none" stroke="black" points="930.218,-475 930.218,-552 1322.22,-552 1322.22,-475 930.218,-475"/>
<text text-anchor="middle" x="1126.22" y="-536.8" font-family="Times New Roman,serif" font-size="14.00">Ives Residence: Mind Experiments and</text>
<text text-anchor="middle" x="1126.22" y="-521.8" font-family="Times New Roman,serif" font-size="14.00">Jane</text>
</g>
<g id="clust62" class="cluster"><title>cluster_epoch_16</title>
<polygon fill="none" stroke="black" stroke-dasharray="1,5" points="629.218,-381 629.218,-459 882.218,-459 882.218,-381 629.218,-381"/>
</g>
<g id="clust63" class="cluster"><title>cluster_epoch_16_0</title>
<polygon fill="none" stroke="black" points="637.218,-389 637.218,-451 844.218,-451 844.218,-389 637.218,-389"/>
<text text-anchor="middle" x="740.718" y="-435.8" font-family="Times New Roman,serif" font-size="14.00">Hawkins Woods: Perimeter Fence</text>
</g>
<g id="clust64" class="cluster"><title>cluster_epoch_17</title>
<polygon fill="none" stroke="black" stroke-dasharray="1,5" points="1338.22,-381 1338.22,-545 2123.22,-545 2123.22,-381 1338.22,-381"/>
</g>
<g id="clust66" class="cluster"><title>cluster_epoch_17_1</title>
<polygon fill="none" stroke="black" points="1346.22,-389 1346.22,-451 2115.22,-451 2115.22,-389 1346.22,-389"/>
<text text-anchor="middle" x="1730.72" y="-435.8" font-family="Times New Roman,serif" font-size="14.00">Movie Theater: Steve and Jonathan Fight</text>
</g>
<g id="clust65" class="cluster"><title>cluster_epoch_17_0</title>
<polygon fill="none" stroke="black" points="1588.22,-475 1588.22,-537 1826.22,-537 1826.22,-475 1588.22,-475"/>
<text text-anchor="middle" x="1707.22" y="-521.8" font-family="Times New Roman,serif" font-size="14.00">Outdoor Store: Stocking up on Traps</text>
</g>
<g id="clust67" class="cluster"><title>cluster_epoch_18</title>
<polygon fill="none" stroke="black" stroke-dasharray="1,5" points="890.218,-381 890.218,-459 1330.22,-459 1330.22,-381 890.218,-381"/>
</g>
<g id="clust68" class="cluster"><title>cluster_epoch_18_0</title>
<polygon fill="none" stroke="black" points="898.218,-389 898.218,-451 1290.22,-451 1290.22,-389 898.218,-389"/>
<text text-anchor="middle" x="1094.22" y="-435.8" font-family="Times New Roman,serif" font-size="14.00">Ives Residence: Hoping for a Chance</text>
</g>
<g id="clust75" class="cluster"><title>cluster_epoch_21</title>
<polygon fill="none" stroke="black" stroke-dasharray="1,5" points="38.2184,-8 38.2184,-101 789.218,-101 789.218,-8 38.2184,-8"/>
</g>
<g id="clust76" class="cluster"><title>cluster_epoch_21_0</title>
<polygon fill="none" stroke="black" points="46.2184,-16 46.2184,-93 749.218,-93 749.218,-16 46.2184,-16"/>
<text text-anchor="middle" x="397.718" y="-77.8" font-family="Times New Roman,serif" font-size="14.00">Wheeler Residence, Hawkins Labs: Heading</text>
<text text-anchor="middle" x="397.718" y="-62.8" font-family="Times New Roman,serif" font-size="14.00">Home</text>
</g>
<!-- epoch_1 -->
<!-- epoch_2 -->
<!-- epoch_1&#45;&gt;epoch_2 -->
<!-- epoch_3 -->
<!-- epoch_2&#45;&gt;epoch_3 -->
<!-- epoch_4 -->
<!-- epoch_3&#45;&gt;epoch_4 -->
<!-- epoch_5 -->
<!-- epoch_4&#45;&gt;epoch_5 -->
<!-- epoch_6 -->
<!-- epoch_5&#45;&gt;epoch_6 -->
<!-- epoch_7 -->
<!-- epoch_6&#45;&gt;epoch_7 -->
<!-- epoch_8 -->
<!-- epoch_7&#45;&gt;epoch_8 -->
<!-- epoch_9 -->
<!-- epoch_8&#45;&gt;epoch_9 -->
<!-- epoch_10 -->
<!-- epoch_9&#45;&gt;epoch_10 -->
<!-- epoch_11 -->
<!-- epoch_10&#45;&gt;epoch_11 -->
<!-- epoch_12 -->
<!-- epoch_11&#45;&gt;epoch_12 -->
<!-- epoch_13 -->
<!-- epoch_12&#45;&gt;epoch_13 -->
<!-- epoch_14 -->
<!-- epoch_13&#45;&gt;epoch_14 -->
<!-- epoch_15 -->
<!-- epoch_14&#45;&gt;epoch_15 -->
<!-- epoch_16 -->
<!-- epoch_15&#45;&gt;epoch_16 -->
<!-- epoch_17 -->
<!-- epoch_16&#45;&gt;epoch_17 -->
<!-- epoch_18 -->
<!-- epoch_17&#45;&gt;epoch_18 -->
<!-- epoch_19 -->
<!-- epoch_18&#45;&gt;epoch_19 -->
<!-- epoch_20 -->
<!-- epoch_19&#45;&gt;epoch_20 -->
<!-- epoch_21 -->
<!-- epoch_20&#45;&gt;epoch_21 -->
<!-- Flo_epoch_19_0 -->
<g id="node22" class="node"><title>Flo_epoch_19_0</title>
<path fill="none" stroke="#1b9e77" d="M1765.05,-334C1765.05,-334 1715.39,-334 1715.39,-334 1711.55,-334 1707.72,-330.167 1707.72,-326.333 1707.72,-326.333 1707.72,-318.667 1707.72,-318.667 1707.72,-314.833 1711.55,-311 1715.39,-311 1715.39,-311 1765.05,-311 1765.05,-311 1768.89,-311 1772.72,-314.833 1772.72,-318.667 1772.72,-318.667 1772.72,-326.333 1772.72,-326.333 1772.72,-330.167 1768.89,-334 1765.05,-334"/>
<text text-anchor="middle" x="1740.22" y="-318.8" font-family="Times New Roman,serif" font-size="14.00">Florence</text>
</g>
<!-- Hopper_epoch_3_0 -->
<g id="node23" class="node"><title>Hopper_epoch_3_0</title>
<path fill="none" stroke="#d95f02" d="M1532.55,-1511C1532.55,-1511 1465.89,-1511 1465.89,-1511 1462.05,-1511 1458.22,-1507.17 1458.22,-1503.33 1458.22,-1503.33 1458.22,-1495.67 1458.22,-1495.67 1458.22,-1491.83 1462.05,-1488 1465.89,-1488 1465.89,-1488 1532.55,-1488 1532.55,-1488 1536.39,-1488 1540.22,-1491.83 1540.22,-1495.67 1540.22,-1495.67 1540.22,-1503.33 1540.22,-1503.33 1540.22,-1507.17 1536.39,-1511 1532.55,-1511"/>
<text text-anchor="middle" x="1499.22" y="-1495.8" font-family="Times New Roman,serif" font-size="14.00">Jim Hopper</text>
</g>
<!-- Hopper_epoch_6_0 -->
<g id="node24" class="node"><title>Hopper_epoch_6_0</title>
<path fill="none" stroke="#d95f02" d="M1429.55,-1223C1429.55,-1223 1362.89,-1223 1362.89,-1223 1359.05,-1223 1355.22,-1219.17 1355.22,-1215.33 1355.22,-1215.33 1355.22,-1207.67 1355.22,-1207.67 1355.22,-1203.83 1359.05,-1200 1362.89,-1200 1362.89,-1200 1429.55,-1200 1429.55,-1200 1433.39,-1200 1437.22,-1203.83 1437.22,-1207.67 1437.22,-1207.67 1437.22,-1215.33 1437.22,-1215.33 1437.22,-1219.17 1433.39,-1223 1429.55,-1223"/>
<text text-anchor="middle" x="1396.22" y="-1207.8" font-family="Times New Roman,serif" font-size="14.00">Jim Hopper</text>
</g>
<!-- Hopper_epoch_3_0&#45;&gt;Hopper_epoch_6_0 -->
<g id="edge21" class="edge"><title>Hopper_epoch_3_0&#45;&gt;Hopper_epoch_6_0</title>
<path fill="none" stroke="#d95f02" d="M1503.36,-1487.97C1516.04,-1453.79 1550.4,-1344.74 1498.22,-1285 1481.39,-1265.73 1463.02,-1290.38 1441.22,-1277 1420.51,-1264.29 1406.84,-1238.07 1400.44,-1223.27"/>
</g>
<!-- Hopper_epoch_13_0 -->
<g id="node25" class="node"><title>Hopper_epoch_13_0</title>
<path fill="none" stroke="#d95f02" d="M1012.55,-607C1012.55,-607 945.885,-607 945.885,-607 942.052,-607 938.218,-603.167 938.218,-599.333 938.218,-599.333 938.218,-591.667 938.218,-591.667 938.218,-587.833 942.052,-584 945.885,-584 945.885,-584 1012.55,-584 1012.55,-584 1016.39,-584 1020.22,-587.833 1020.22,-591.667 1020.22,-591.667 1020.22,-599.333 1020.22,-599.333 1020.22,-603.167 1016.39,-607 1012.55,-607"/>
<text text-anchor="middle" x="979.218" y="-591.8" font-family="Times New Roman,serif" font-size="14.00">Jim Hopper</text>
</g>
<!-- Hopper_epoch_6_0&#45;&gt;Hopper_epoch_13_0 -->
<g id="edge22" class="edge"><title>Hopper_epoch_6_0&#45;&gt;Hopper_epoch_13_0</title>
<path fill="none" stroke="#d95f02" d="M1371.31,-1199.94C1358.79,-1194.82 1343.32,-1188.76 1329.22,-1184 1183.1,-1134.69 1095.39,-1207.25 995.218,-1090 955.829,-1043.89 979.218,-1015.14 979.218,-954.5 979.218,-954.5 979.218,-954.5 979.218,-773.5 979.218,-710.505 979.218,-634.899 979.218,-607.275"/>
</g>
<!-- Hopper_epoch_15_0 -->
<g id="node26" class="node"><title>Hopper_epoch_15_0</title>
<path fill="none" stroke="#d95f02" d="M1012.55,-506C1012.55,-506 945.885,-506 945.885,-506 942.052,-506 938.218,-502.167 938.218,-498.333 938.218,-498.333 938.218,-490.667 938.218,-490.667 938.218,-486.833 942.052,-483 945.885,-483 945.885,-483 1012.55,-483 1012.55,-483 1016.39,-483 1020.22,-486.833 1020.22,-490.667 1020.22,-490.667 1020.22,-498.333 1020.22,-498.333 1020.22,-502.167 1016.39,-506 1012.55,-506"/>
<text text-anchor="middle" x="979.218" y="-490.8" font-family="Times New Roman,serif" font-size="14.00">Jim Hopper</text>
</g>
<!-- Hopper_epoch_13_0&#45;&gt;Hopper_epoch_15_0 -->
<g id="edge23" class="edge"><title>Hopper_epoch_13_0&#45;&gt;Hopper_epoch_15_0</title>
<path fill="none" stroke="#d95f02" d="M979.218,-583.905C979.218,-564.851 979.218,-525.018 979.218,-506.019"/>
</g>
<!-- Hopper_epoch_18_0 -->
<g id="node27" class="node"><title>Hopper_epoch_18_0</title>
<path fill="none" stroke="#d95f02" d="M980.552,-420C980.552,-420 913.885,-420 913.885,-420 910.052,-420 906.218,-416.167 906.218,-412.333 906.218,-412.333 906.218,-404.667 906.218,-404.667 906.218,-400.833 910.052,-397 913.885,-397 913.885,-397 980.552,-397 980.552,-397 984.385,-397 988.218,-400.833 988.218,-404.667 988.218,-404.667 988.218,-412.333 988.218,-412.333 988.218,-416.167 984.385,-420 980.552,-420"/>
<text text-anchor="middle" x="947.218" y="-404.8" font-family="Times New Roman,serif" font-size="14.00">Jim Hopper</text>
</g>
<!-- Hopper_epoch_15_0&#45;&gt;Hopper_epoch_18_0 -->
<g id="edge24" class="edge"><title>Hopper_epoch_15_0&#45;&gt;Hopper_epoch_18_0</title>
<path fill="none" stroke="#d95f02" d="M975.166,-482.861C969.01,-466.704 957.374,-436.159 951.238,-420.052"/>
</g>
<!-- Eleven_epoch_10_0 -->
<g id="node28" class="node"><title>Eleven_epoch_10_0</title>
<path fill="none" stroke="#7570b3" d="M795.052,-879C795.052,-879 757.385,-879 757.385,-879 753.552,-879 749.718,-875.167 749.718,-871.333 749.718,-871.333 749.718,-863.667 749.718,-863.667 749.718,-859.833 753.552,-856 757.385,-856 757.385,-856 795.052,-856 795.052,-856 798.885,-856 802.718,-859.833 802.718,-863.667 802.718,-863.667 802.718,-871.333 802.718,-871.333 802.718,-875.167 798.885,-879 795.052,-879"/>
<text text-anchor="middle" x="776.218" y="-863.8" font-family="Times New Roman,serif" font-size="14.00">Eleven</text>
</g>
<!-- Eleven_epoch_10_1 -->
<g id="node29" class="node"><title>Eleven_epoch_10_1</title>
<path fill="none" stroke="#7570b3" d="M710.052,-786C710.052,-786 672.385,-786 672.385,-786 668.552,-786 664.718,-782.167 664.718,-778.333 664.718,-778.333 664.718,-770.667 664.718,-770.667 664.718,-766.833 668.552,-763 672.385,-763 672.385,-763 710.052,-763 710.052,-763 713.885,-763 717.718,-766.833 717.718,-770.667 717.718,-770.667 717.718,-778.333 717.718,-778.333 717.718,-782.167 713.885,-786 710.052,-786"/>
<text text-anchor="middle" x="691.218" y="-770.8" font-family="Times New Roman,serif" font-size="14.00">Eleven</text>
</g>
<!-- Eleven_epoch_10_0&#45;&gt;Eleven_epoch_10_1 -->
<g id="edge25" class="edge"><title>Eleven_epoch_10_0&#45;&gt;Eleven_epoch_10_1</title>
<path fill="none" stroke="#7570b3" d="M766.134,-855.704C749.687,-838.096 717.294,-803.416 701.027,-786.001"/>
</g>
<!-- Eleven_epoch_12_0 -->
<g id="node30" class="node"><title>Eleven_epoch_12_0</title>
<path fill="none" stroke="#7570b3" d="M438.052,-700C438.052,-700 400.385,-700 400.385,-700 396.552,-700 392.718,-696.167 392.718,-692.333 392.718,-692.333 392.718,-684.667 392.718,-684.667 392.718,-680.833 396.552,-677 400.385,-677 400.385,-677 438.052,-677 438.052,-677 441.885,-677 445.718,-680.833 445.718,-684.667 445.718,-684.667 445.718,-692.333 445.718,-692.333 445.718,-696.167 441.885,-700 438.052,-700"/>
<text text-anchor="middle" x="419.218" y="-684.8" font-family="Times New Roman,serif" font-size="14.00">Eleven</text>
</g>
<!-- Eleven_epoch_10_1&#45;&gt;Eleven_epoch_12_0 -->
<g id="edge26" class="edge"><title>Eleven_epoch_10_1&#45;&gt;Eleven_epoch_12_0</title>
<path fill="none" stroke="#7570b3" d="M664.643,-765.293C612.643,-749.234 497.989,-713.826 445.902,-697.741"/>
</g>
<!-- Eleven_epoch_12_1 -->
<g id="node31" class="node"><title>Eleven_epoch_12_1</title>
<path fill="none" stroke="#7570b3" d="M424.052,-607C424.052,-607 386.385,-607 386.385,-607 382.552,-607 378.718,-603.167 378.718,-599.333 378.718,-599.333 378.718,-591.667 378.718,-591.667 378.718,-587.833 382.552,-584 386.385,-584 386.385,-584 424.052,-584 424.052,-584 427.885,-584 431.718,-587.833 431.718,-591.667 431.718,-591.667 431.718,-599.333 431.718,-599.333 431.718,-603.167 427.885,-607 424.052,-607"/>
<text text-anchor="middle" x="405.218" y="-591.8" font-family="Times New Roman,serif" font-size="14.00">Eleven</text>
</g>
<!-- Eleven_epoch_12_0&#45;&gt;Eleven_epoch_12_1 -->
<g id="edge27" class="edge"><title>Eleven_epoch_12_0&#45;&gt;Eleven_epoch_12_1</title>
<path fill="none" stroke="#7570b3" d="M417.557,-676.704C414.849,-659.096 409.513,-624.416 406.834,-607.001"/>
</g>
<!-- Eleven_epoch_14_1 -->
<g id="node32" class="node"><title>Eleven_epoch_14_1</title>
<path fill="none" stroke="#7570b3" d="M450.052,-506C450.052,-506 412.385,-506 412.385,-506 408.552,-506 404.718,-502.167 404.718,-498.333 404.718,-498.333 404.718,-490.667 404.718,-490.667 404.718,-486.833 408.552,-483 412.385,-483 412.385,-483 450.052,-483 450.052,-483 453.885,-483 457.718,-486.833 457.718,-490.667 457.718,-490.667 457.718,-498.333 457.718,-498.333 457.718,-502.167 453.885,-506 450.052,-506"/>
<text text-anchor="middle" x="431.218" y="-490.8" font-family="Times New Roman,serif" font-size="14.00">Eleven</text>
</g>
<!-- Eleven_epoch_12_1&#45;&gt;Eleven_epoch_14_1 -->
<g id="edge28" class="edge"><title>Eleven_epoch_12_1&#45;&gt;Eleven_epoch_14_1</title>
<path fill="none" stroke="#7570b3" d="M408.001,-583.905C413.005,-564.851 423.466,-525.018 428.456,-506.019"/>
</g>
<!-- Eleven_epoch_20_1 -->
<g id="node33" class="node"><title>Eleven_epoch_20_1</title>
<path fill="none" stroke="#7570b3" d="M302.052,-233C302.052,-233 264.385,-233 264.385,-233 260.552,-233 256.718,-229.167 256.718,-225.333 256.718,-225.333 256.718,-217.667 256.718,-217.667 256.718,-213.833 260.552,-210 264.385,-210 264.385,-210 302.052,-210 302.052,-210 305.885,-210 309.718,-213.833 309.718,-217.667 309.718,-217.667 309.718,-225.333 309.718,-225.333 309.718,-229.167 305.885,-233 302.052,-233"/>
<text text-anchor="middle" x="283.218" y="-217.8" font-family="Times New Roman,serif" font-size="14.00">Eleven</text>
</g>
<!-- Eleven_epoch_14_1&#45;&gt;Eleven_epoch_20_1 -->
<g id="edge29" class="edge"><title>Eleven_epoch_14_1&#45;&gt;Eleven_epoch_20_1</title>
<path fill="none" stroke="#7570b3" d="M425.323,-482.759C408.542,-452.175 359.088,-362 318.218,-287 307.855,-267.982 295.821,-245.779 288.906,-233.008"/>
</g>
<!-- Eleven_epoch_20_2 -->
<g id="node34" class="node"><title>Eleven_epoch_20_2</title>
<path fill="none" stroke="#7570b3" d="M374.052,-148C374.052,-148 336.385,-148 336.385,-148 332.552,-148 328.718,-144.167 328.718,-140.333 328.718,-140.333 328.718,-132.667 328.718,-132.667 328.718,-128.833 332.552,-125 336.385,-125 336.385,-125 374.052,-125 374.052,-125 377.885,-125 381.718,-128.833 381.718,-132.667 381.718,-132.667 381.718,-140.333 381.718,-140.333 381.718,-144.167 377.885,-148 374.052,-148"/>
<text text-anchor="middle" x="355.218" y="-132.8" font-family="Times New Roman,serif" font-size="14.00">Eleven</text>
</g>
<!-- Eleven_epoch_20_1&#45;&gt;Eleven_epoch_20_2 -->
<g id="edge30" class="edge"><title>Eleven_epoch_20_1&#45;&gt;Eleven_epoch_20_2</title>
<path fill="none" stroke="#7570b3" d="M300.392,-209.803C306.731,-205.375 313.706,-199.896 319.218,-194 332.404,-179.896 343.627,-160.327 349.888,-148.31"/>
</g>
<!-- Eleven_epoch_21_0 -->
<g id="node35" class="node"><title>Eleven_epoch_21_0</title>
<path fill="none" stroke="#7570b3" d="M372.052,-47C372.052,-47 334.385,-47 334.385,-47 330.552,-47 326.718,-43.1667 326.718,-39.3333 326.718,-39.3333 326.718,-31.6667 326.718,-31.6667 326.718,-27.8333 330.552,-24 334.385,-24 334.385,-24 372.052,-24 372.052,-24 375.885,-24 379.718,-27.8333 379.718,-31.6667 379.718,-31.6667 379.718,-39.3333 379.718,-39.3333 379.718,-43.1667 375.885,-47 372.052,-47"/>
<text text-anchor="middle" x="353.218" y="-31.8" font-family="Times New Roman,serif" font-size="14.00">Eleven</text>
</g>
<!-- Eleven_epoch_20_2&#45;&gt;Eleven_epoch_21_0 -->
<g id="edge31" class="edge"><title>Eleven_epoch_20_2&#45;&gt;Eleven_epoch_21_0</title>
<path fill="none" stroke="#7570b3" d="M355.004,-124.905C354.619,-105.851 353.815,-66.0177 353.431,-47.0186"/>
</g>
<!-- Holly_epoch_11_0 -->
<g id="node36" class="node"><title>Holly_epoch_11_0</title>
<path fill="none" stroke="#e7298a" d="M529.552,-786C529.552,-786 448.885,-786 448.885,-786 445.052,-786 441.218,-782.167 441.218,-778.333 441.218,-778.333 441.218,-770.667 441.218,-770.667 441.218,-766.833 445.052,-763 448.885,-763 448.885,-763 529.552,-763 529.552,-763 533.385,-763 537.218,-766.833 537.218,-770.667 537.218,-770.667 537.218,-778.333 537.218,-778.333 537.218,-782.167 533.385,-786 529.552,-786"/>
<text text-anchor="middle" x="489.218" y="-770.8" font-family="Times New Roman,serif" font-size="14.00">Holly Wheeler</text>
</g>
<!-- Jonathan_epoch_1_0 -->
<g id="node37" class="node"><title>Jonathan_epoch_1_0</title>
<path fill="none" stroke="#66a61e" d="M2338.05,-1690C2338.05,-1690 2252.39,-1690 2252.39,-1690 2248.55,-1690 2244.72,-1686.17 2244.72,-1682.33 2244.72,-1682.33 2244.72,-1674.67 2244.72,-1674.67 2244.72,-1670.83 2248.55,-1667 2252.39,-1667 2252.39,-1667 2338.05,-1667 2338.05,-1667 2341.89,-1667 2345.72,-1670.83 2345.72,-1674.67 2345.72,-1674.67 2345.72,-1682.33 2345.72,-1682.33 2345.72,-1686.17 2341.89,-1690 2338.05,-1690"/>
<text text-anchor="middle" x="2295.22" y="-1674.8" font-family="Times New Roman,serif" font-size="14.00">Jonathan Byers</text>
</g>
<!-- Jonathan_epoch_2_1 -->
<g id="node38" class="node"><title>Jonathan_epoch_2_1</title>
<path fill="none" stroke="#66a61e" d="M2267.05,-1511C2267.05,-1511 2181.39,-1511 2181.39,-1511 2177.55,-1511 2173.72,-1507.17 2173.72,-1503.33 2173.72,-1503.33 2173.72,-1495.67 2173.72,-1495.67 2173.72,-1491.83 2177.55,-1488 2181.39,-1488 2181.39,-1488 2267.05,-1488 2267.05,-1488 2270.89,-1488 2274.72,-1491.83 2274.72,-1495.67 2274.72,-1495.67 2274.72,-1503.33 2274.72,-1503.33 2274.72,-1507.17 2270.89,-1511 2267.05,-1511"/>
<text text-anchor="middle" x="2224.22" y="-1495.8" font-family="Times New Roman,serif" font-size="14.00">Jonathan Byers</text>
</g>
<!-- Jonathan_epoch_1_0&#45;&gt;Jonathan_epoch_2_1 -->
<g id="edge32" class="edge"><title>Jonathan_epoch_1_0&#45;&gt;Jonathan_epoch_2_1</title>
<path fill="none" stroke="#66a61e" d="M2294,-1666.74C2291.55,-1647.36 2285.01,-1605.57 2271.22,-1573 2261.16,-1549.24 2243.4,-1524.68 2232.83,-1511.12"/>
</g>
<!-- Jonathan_epoch_4_0 -->
<g id="node39" class="node"><title>Jonathan_epoch_4_0</title>
<path fill="none" stroke="#66a61e" d="M1816.05,-1410C1816.05,-1410 1730.39,-1410 1730.39,-1410 1726.55,-1410 1722.72,-1406.17 1722.72,-1402.33 1722.72,-1402.33 1722.72,-1394.67 1722.72,-1394.67 1722.72,-1390.83 1726.55,-1387 1730.39,-1387 1730.39,-1387 1816.05,-1387 1816.05,-1387 1819.89,-1387 1823.72,-1390.83 1823.72,-1394.67 1823.72,-1394.67 1823.72,-1402.33 1823.72,-1402.33 1823.72,-1406.17 1819.89,-1410 1816.05,-1410"/>
<text text-anchor="middle" x="1773.22" y="-1394.8" font-family="Times New Roman,serif" font-size="14.00">Jonathan Byers</text>
</g>
<!-- Jonathan_epoch_2_1&#45;&gt;Jonathan_epoch_4_0 -->
<g id="edge33" class="edge"><title>Jonathan_epoch_2_1&#45;&gt;Jonathan_epoch_4_0</title>
<path fill="none" stroke="#66a61e" d="M2203.57,-1487.95C2192.21,-1482.52 2177.71,-1476.17 2164.22,-1472 2044.99,-1435.17 1899.21,-1414.2 1823.8,-1405.06"/>
</g>
<!-- Jonathan_epoch_7_0 -->
<g id="node40" class="node"><title>Jonathan_epoch_7_0</title>
<path fill="none" stroke="#66a61e" d="M1810.05,-1137C1810.05,-1137 1724.39,-1137 1724.39,-1137 1720.55,-1137 1716.72,-1133.17 1716.72,-1129.33 1716.72,-1129.33 1716.72,-1121.67 1716.72,-1121.67 1716.72,-1117.83 1720.55,-1114 1724.39,-1114 1724.39,-1114 1810.05,-1114 1810.05,-1114 1813.89,-1114 1817.72,-1117.83 1817.72,-1121.67 1817.72,-1121.67 1817.72,-1129.33 1817.72,-1129.33 1817.72,-1133.17 1813.89,-1137 1810.05,-1137"/>
<text text-anchor="middle" x="1767.22" y="-1121.8" font-family="Times New Roman,serif" font-size="14.00">Jonathan Byers</text>
</g>
<!-- Jonathan_epoch_4_0&#45;&gt;Jonathan_epoch_7_0 -->
<g id="edge34" class="edge"><title>Jonathan_epoch_4_0&#45;&gt;Jonathan_epoch_7_0</title>
<path fill="none" stroke="#66a61e" d="M1772.98,-1386.88C1772.02,-1343.52 1768.41,-1180.27 1767.45,-1137.05"/>
</g>
<!-- Jonathan_epoch_17_0 -->
<g id="node41" class="node"><title>Jonathan_epoch_17_0</title>
<path fill="none" stroke="#66a61e" d="M1810.05,-506C1810.05,-506 1724.39,-506 1724.39,-506 1720.55,-506 1716.72,-502.167 1716.72,-498.333 1716.72,-498.333 1716.72,-490.667 1716.72,-490.667 1716.72,-486.833 1720.55,-483 1724.39,-483 1724.39,-483 1810.05,-483 1810.05,-483 1813.89,-483 1817.72,-486.833 1817.72,-490.667 1817.72,-490.667 1817.72,-498.333 1817.72,-498.333 1817.72,-502.167 1813.89,-506 1810.05,-506"/>
<text text-anchor="middle" x="1767.22" y="-490.8" font-family="Times New Roman,serif" font-size="14.00">Jonathan Byers</text>
</g>
<!-- Jonathan_epoch_7_0&#45;&gt;Jonathan_epoch_17_0 -->
<g id="edge35" class="edge"><title>Jonathan_epoch_7_0&#45;&gt;Jonathan_epoch_17_0</title>
<path fill="none" stroke="#66a61e" d="M1767.22,-1113.76C1767.22,-1086.91 1767.22,-1014.71 1767.22,-954.5 1767.22,-954.5 1767.22,-954.5 1767.22,-687.5 1767.22,-618.5 1767.22,-535.552 1767.22,-506.326"/>
</g>
<!-- Jonathan_epoch_17_1 -->
<g id="node42" class="node"><title>Jonathan_epoch_17_1</title>
<path fill="none" stroke="#66a61e" d="M1810.05,-420C1810.05,-420 1724.39,-420 1724.39,-420 1720.55,-420 1716.72,-416.167 1716.72,-412.333 1716.72,-412.333 1716.72,-404.667 1716.72,-404.667 1716.72,-400.833 1720.55,-397 1724.39,-397 1724.39,-397 1810.05,-397 1810.05,-397 1813.89,-397 1817.72,-400.833 1817.72,-404.667 1817.72,-404.667 1817.72,-412.333 1817.72,-412.333 1817.72,-416.167 1813.89,-420 1810.05,-420"/>
<text text-anchor="middle" x="1767.22" y="-404.8" font-family="Times New Roman,serif" font-size="14.00">Jonathan Byers</text>
</g>
<!-- Jonathan_epoch_17_0&#45;&gt;Jonathan_epoch_17_1 -->
<g id="edge36" class="edge"><title>Jonathan_epoch_17_0&#45;&gt;Jonathan_epoch_17_1</title>
<path fill="none" stroke="#66a61e" d="M1767.22,-482.861C1767.22,-466.704 1767.22,-436.159 1767.22,-420.052"/>
</g>
<!-- Jonathan_epoch_19_0 -->
<g id="node43" class="node"><title>Jonathan_epoch_19_0</title>
<path fill="none" stroke="#66a61e" d="M1682.05,-334C1682.05,-334 1596.39,-334 1596.39,-334 1592.55,-334 1588.72,-330.167 1588.72,-326.333 1588.72,-326.333 1588.72,-318.667 1588.72,-318.667 1588.72,-314.833 1592.55,-311 1596.39,-311 1596.39,-311 1682.05,-311 1682.05,-311 1685.89,-311 1689.72,-314.833 1689.72,-318.667 1689.72,-318.667 1689.72,-326.333 1689.72,-326.333 1689.72,-330.167 1685.89,-334 1682.05,-334"/>
<text text-anchor="middle" x="1639.22" y="-318.8" font-family="Times New Roman,serif" font-size="14.00">Jonathan Byers</text>
</g>
<!-- Jonathan_epoch_17_1&#45;&gt;Jonathan_epoch_19_0 -->
<g id="edge37" class="edge"><title>Jonathan_epoch_17_1&#45;&gt;Jonathan_epoch_19_0</title>
<path fill="none" stroke="#66a61e" d="M1742.5,-396.86C1728.99,-390.627 1712.21,-382.187 1698.22,-373 1680.33,-361.261 1661.76,-344.86 1650.34,-334.21"/>
</g>
<!-- Troy_epoch_20_1 -->
<g id="node44" class="node"><title>Troy_epoch_20_1</title>
<path fill="none" stroke="#e6ab02" d="M499.552,-233C499.552,-233 470.885,-233 470.885,-233 467.052,-233 463.218,-229.167 463.218,-225.333 463.218,-225.333 463.218,-217.667 463.218,-217.667 463.218,-213.833 467.052,-210 470.885,-210 470.885,-210 499.552,-210 499.552,-210 503.385,-210 507.218,-213.833 507.218,-217.667 507.218,-217.667 507.218,-225.333 507.218,-225.333 507.218,-229.167 503.385,-233 499.552,-233"/>
<text text-anchor="middle" x="485.218" y="-217.8" font-family="Times New Roman,serif" font-size="14.00">Troy</text>
</g>
<!-- Agent_Repairman_epoch_14_0 -->
<g id="node45" class="node"><title>Agent_Repairman_epoch_14_0</title>
<path fill="none" stroke="#a6761d" d="M147.052,-506C147.052,-506 49.3851,-506 49.3851,-506 45.5518,-506 41.7184,-502.167 41.7184,-498.333 41.7184,-498.333 41.7184,-490.667 41.7184,-490.667 41.7184,-486.833 45.5518,-483 49.3851,-483 49.3851,-483 147.052,-483 147.052,-483 150.885,-483 154.718,-486.833 154.718,-490.667 154.718,-490.667 154.718,-498.333 154.718,-498.333 154.718,-502.167 150.885,-506 147.052,-506"/>
<text text-anchor="middle" x="98.2184" y="-490.8" font-family="Times New Roman,serif" font-size="14.00">Agent Repairman</text>
</g>
<!-- Agent_Repairman_epoch_21_0 -->
<g id="node46" class="node"><title>Agent_Repairman_epoch_21_0</title>
<path fill="none" stroke="#a6761d" d="M160.052,-47C160.052,-47 62.3851,-47 62.3851,-47 58.5518,-47 54.7184,-43.1667 54.7184,-39.3333 54.7184,-39.3333 54.7184,-31.6667 54.7184,-31.6667 54.7184,-27.8333 58.5518,-24 62.3851,-24 62.3851,-24 160.052,-24 160.052,-24 163.885,-24 167.718,-27.8333 167.718,-31.6667 167.718,-31.6667 167.718,-39.3333 167.718,-39.3333 167.718,-43.1667 163.885,-47 160.052,-47"/>
<text text-anchor="middle" x="111.218" y="-31.8" font-family="Times New Roman,serif" font-size="14.00">Agent Repairman</text>
</g>
<!-- Agent_Repairman_epoch_14_0&#45;&gt;Agent_Repairman_epoch_21_0 -->
<g id="edge38" class="edge"><title>Agent_Repairman_epoch_14_0&#45;&gt;Agent_Repairman_epoch_21_0</title>
<path fill="none" stroke="#a6761d" d="M98.9676,-482.766C100.773,-455.932 105.218,-383.759 105.218,-323.5 105.218,-323.5 105.218,-323.5 105.218,-220.5 105.218,-154.659 109.104,-75.637 110.621,-47.2805"/>
</g>
<!-- Mike_epoch_5_0 -->
<g id="node47" class="node"><title>Mike_epoch_5_0</title>
<path fill="none" stroke="#666666" d="M1339.55,-1324C1339.55,-1324 1260.89,-1324 1260.89,-1324 1257.05,-1324 1253.22,-1320.17 1253.22,-1316.33 1253.22,-1316.33 1253.22,-1308.67 1253.22,-1308.67 1253.22,-1304.83 1257.05,-1301 1260.89,-1301 1260.89,-1301 1339.55,-1301 1339.55,-1301 1343.39,-1301 1347.22,-1304.83 1347.22,-1308.67 1347.22,-1308.67 1347.22,-1316.33 1347.22,-1316.33 1347.22,-1320.17 1343.39,-1324 1339.55,-1324"/>
<text text-anchor="middle" x="1300.22" y="-1308.8" font-family="Times New Roman,serif" font-size="14.00">Mike Wheeler</text>
</g>
<!-- Mike_epoch_9_0 -->
<g id="node48" class="node"><title>Mike_epoch_9_0</title>
<path fill="none" stroke="#666666" d="M767.552,-965C767.552,-965 688.885,-965 688.885,-965 685.052,-965 681.218,-961.167 681.218,-957.333 681.218,-957.333 681.218,-949.667 681.218,-949.667 681.218,-945.833 685.052,-942 688.885,-942 688.885,-942 767.552,-942 767.552,-942 771.385,-942 775.218,-945.833 775.218,-949.667 775.218,-949.667 775.218,-957.333 775.218,-957.333 775.218,-961.167 771.385,-965 767.552,-965"/>
<text text-anchor="middle" x="728.218" y="-949.8" font-family="Times New Roman,serif" font-size="14.00">Mike Wheeler</text>
</g>
<!-- Mike_epoch_5_0&#45;&gt;Mike_epoch_9_0 -->
<g id="edge39" class="edge"><title>Mike_epoch_5_0&#45;&gt;Mike_epoch_9_0</title>
<path fill="none" stroke="#666666" d="M1267.51,-1300.96C1249.86,-1294.82 1227.93,-1286.43 1209.22,-1277 1008.72,-1175.99 963.29,-1139.4 784.218,-1004 767.865,-991.635 750.366,-975.677 739.365,-965.272"/>
</g>
<!-- Mike_epoch_14_1 -->
<g id="node49" class="node"><title>Mike_epoch_14_1</title>
<path fill="none" stroke="#666666" d="M378.552,-506C378.552,-506 299.885,-506 299.885,-506 296.052,-506 292.218,-502.167 292.218,-498.333 292.218,-498.333 292.218,-490.667 292.218,-490.667 292.218,-486.833 296.052,-483 299.885,-483 299.885,-483 378.552,-483 378.552,-483 382.385,-483 386.218,-486.833 386.218,-490.667 386.218,-490.667 386.218,-498.333 386.218,-498.333 386.218,-502.167 382.385,-506 378.552,-506"/>
<text text-anchor="middle" x="339.218" y="-490.8" font-family="Times New Roman,serif" font-size="14.00">Mike Wheeler</text>
</g>
<!-- Mike_epoch_9_0&#45;&gt;Mike_epoch_14_1 -->
<g id="edge40" class="edge"><title>Mike_epoch_9_0&#45;&gt;Mike_epoch_14_1</title>
<path fill="none" stroke="#666666" d="M681.167,-949.55C555.532,-940.773 216.107,-910.895 133.218,-840 110.09,-820.218 110.218,-805.935 110.218,-775.5 110.218,-775.5 110.218,-775.5 110.218,-687.5 110.218,-613.481 160.349,-601.764 226.218,-568 247.809,-556.933 258.794,-571.386 280.218,-560 304.072,-547.323 323.279,-521.092 332.768,-506.284"/>
</g>
<!-- Mike_epoch_20_1 -->
<g id="node50" class="node"><title>Mike_epoch_20_1</title>
<path fill="none" stroke="#666666" d="M611.552,-233C611.552,-233 532.885,-233 532.885,-233 529.052,-233 525.218,-229.167 525.218,-225.333 525.218,-225.333 525.218,-217.667 525.218,-217.667 525.218,-213.833 529.052,-210 532.885,-210 532.885,-210 611.552,-210 611.552,-210 615.385,-210 619.218,-213.833 619.218,-217.667 619.218,-217.667 619.218,-225.333 619.218,-225.333 619.218,-229.167 615.385,-233 611.552,-233"/>
<text text-anchor="middle" x="572.218" y="-217.8" font-family="Times New Roman,serif" font-size="14.00">Mike Wheeler</text>
</g>
<!-- Mike_epoch_14_1&#45;&gt;Mike_epoch_20_1 -->
<g id="edge41" class="edge"><title>Mike_epoch_14_1&#45;&gt;Mike_epoch_20_1</title>
<path fill="none" stroke="#666666" d="M348.352,-482.876C385.625,-439.525 525.992,-276.266 563.148,-233.05"/>
</g>
<!-- Mike_epoch_21_0 -->
<g id="node51" class="node"><title>Mike_epoch_21_0</title>
<path fill="none" stroke="#666666" d="M619.552,-47C619.552,-47 540.885,-47 540.885,-47 537.052,-47 533.218,-43.1667 533.218,-39.3333 533.218,-39.3333 533.218,-31.6667 533.218,-31.6667 533.218,-27.8333 537.052,-24 540.885,-24 540.885,-24 619.552,-24 619.552,-24 623.385,-24 627.218,-27.8333 627.218,-31.6667 627.218,-31.6667 627.218,-39.3333 627.218,-39.3333 627.218,-43.1667 623.385,-47 619.552,-47"/>
<text text-anchor="middle" x="580.218" y="-31.8" font-family="Times New Roman,serif" font-size="14.00">Mike Wheeler</text>
</g>
<!-- Mike_epoch_20_1&#45;&gt;Mike_epoch_21_0 -->
<g id="edge42" class="edge"><title>Mike_epoch_20_1&#45;&gt;Mike_epoch_21_0</title>
<path fill="none" stroke="#666666" d="M572.683,-209.812C574.097,-177.292 578.337,-79.7773 579.752,-47.2174"/>
</g>
<!-- Officer_Callahan_epoch_14_1 -->
<g id="node52" class="node"><title>Officer_Callahan_epoch_14_1</title>
<path fill="none" stroke="#1b9e77" d="M710.052,-506C710.052,-506 618.385,-506 618.385,-506 614.552,-506 610.718,-502.167 610.718,-498.333 610.718,-498.333 610.718,-490.667 610.718,-490.667 610.718,-486.833 614.552,-483 618.385,-483 618.385,-483 710.052,-483 710.052,-483 713.885,-483 717.718,-486.833 717.718,-490.667 717.718,-490.667 717.718,-498.333 717.718,-498.333 717.718,-502.167 713.885,-506 710.052,-506"/>
<text text-anchor="middle" x="664.218" y="-490.8" font-family="Times New Roman,serif" font-size="14.00">Officer Callahan</text>
</g>
<!-- Officer_Callahan_epoch_17_1 -->
<g id="node53" class="node"><title>Officer_Callahan_epoch_17_1</title>
<path fill="none" stroke="#1b9e77" d="M1454.05,-420C1454.05,-420 1362.39,-420 1362.39,-420 1358.55,-420 1354.72,-416.167 1354.72,-412.333 1354.72,-412.333 1354.72,-404.667 1354.72,-404.667 1354.72,-400.833 1358.55,-397 1362.39,-397 1362.39,-397 1454.05,-397 1454.05,-397 1457.89,-397 1461.72,-400.833 1461.72,-404.667 1461.72,-404.667 1461.72,-412.333 1461.72,-412.333 1461.72,-416.167 1457.89,-420 1454.05,-420"/>
<text text-anchor="middle" x="1408.22" y="-404.8" font-family="Times New Roman,serif" font-size="14.00">Officer Callahan</text>
</g>
<!-- Officer_Callahan_epoch_14_1&#45;&gt;Officer_Callahan_epoch_17_1 -->
<g id="edge43" class="edge"><title>Officer_Callahan_epoch_14_1&#45;&gt;Officer_Callahan_epoch_17_1</title>
<path fill="none" stroke="#1b9e77" d="M683.728,-482.986C695.862,-477.039 712.002,-470.175 727.218,-467 793.247,-453.225 1269.81,-479.021 1334.22,-459 1359.02,-451.292 1383.14,-432.383 1396.79,-420.294"/>
</g>
<!-- Agent_Frazier_epoch_8_0 -->
<g id="node54" class="node"><title>Agent_Frazier_epoch_8_0</title>
<path fill="none" stroke="#d95f02" d="M1270.05,-1051C1270.05,-1051 1150.39,-1051 1150.39,-1051 1146.55,-1051 1142.72,-1047.17 1142.72,-1043.33 1142.72,-1043.33 1142.72,-1035.67 1142.72,-1035.67 1142.72,-1031.83 1146.55,-1028 1150.39,-1028 1150.39,-1028 1270.05,-1028 1270.05,-1028 1273.89,-1028 1277.72,-1031.83 1277.72,-1035.67 1277.72,-1035.67 1277.72,-1043.33 1277.72,-1043.33 1277.72,-1047.17 1273.89,-1051 1270.05,-1051"/>
<text text-anchor="middle" x="1210.22" y="-1035.8" font-family="Times New Roman,serif" font-size="14.00">Agent Connie Frazier</text>
</g>
<!-- Terry_Ives_epoch_13_0 -->
<g id="node55" class="node"><title>Terry_Ives_epoch_13_0</title>
<path fill="none" stroke="#7570b3" d="M1202.55,-607C1202.55,-607 1143.89,-607 1143.89,-607 1140.05,-607 1136.22,-603.167 1136.22,-599.333 1136.22,-599.333 1136.22,-591.667 1136.22,-591.667 1136.22,-587.833 1140.05,-584 1143.89,-584 1143.89,-584 1202.55,-584 1202.55,-584 1206.39,-584 1210.22,-587.833 1210.22,-591.667 1210.22,-591.667 1210.22,-599.333 1210.22,-599.333 1210.22,-603.167 1206.39,-607 1202.55,-607"/>
<text text-anchor="middle" x="1173.22" y="-591.8" font-family="Times New Roman,serif" font-size="14.00">Terry Ives</text>
</g>
<!-- Terry_Ives_epoch_15_0 -->
<g id="node56" class="node"><title>Terry_Ives_epoch_15_0</title>
<path fill="none" stroke="#7570b3" d="M1202.55,-506C1202.55,-506 1143.89,-506 1143.89,-506 1140.05,-506 1136.22,-502.167 1136.22,-498.333 1136.22,-498.333 1136.22,-490.667 1136.22,-490.667 1136.22,-486.833 1140.05,-483 1143.89,-483 1143.89,-483 1202.55,-483 1202.55,-483 1206.39,-483 1210.22,-486.833 1210.22,-490.667 1210.22,-490.667 1210.22,-498.333 1210.22,-498.333 1210.22,-502.167 1206.39,-506 1202.55,-506"/>
<text text-anchor="middle" x="1173.22" y="-490.8" font-family="Times New Roman,serif" font-size="14.00">Terry Ives</text>
</g>
<!-- Terry_Ives_epoch_13_0&#45;&gt;Terry_Ives_epoch_15_0 -->
<g id="edge44" class="edge"><title>Terry_Ives_epoch_13_0&#45;&gt;Terry_Ives_epoch_15_0</title>
<path fill="none" stroke="#7570b3" d="M1173.22,-583.905C1173.22,-564.851 1173.22,-525.018 1173.22,-506.019"/>
</g>
<!-- Terry_Ives_epoch_18_0 -->
<g id="node57" class="node"><title>Terry_Ives_epoch_18_0</title>
<path fill="none" stroke="#7570b3" d="M1170.55,-420C1170.55,-420 1111.89,-420 1111.89,-420 1108.05,-420 1104.22,-416.167 1104.22,-412.333 1104.22,-412.333 1104.22,-404.667 1104.22,-404.667 1104.22,-400.833 1108.05,-397 1111.89,-397 1111.89,-397 1170.55,-397 1170.55,-397 1174.39,-397 1178.22,-400.833 1178.22,-404.667 1178.22,-404.667 1178.22,-412.333 1178.22,-412.333 1178.22,-416.167 1174.39,-420 1170.55,-420"/>
<text text-anchor="middle" x="1141.22" y="-404.8" font-family="Times New Roman,serif" font-size="14.00">Terry Ives</text>
</g>
<!-- Terry_Ives_epoch_15_0&#45;&gt;Terry_Ives_epoch_18_0 -->
<g id="edge45" class="edge"><title>Terry_Ives_epoch_15_0&#45;&gt;Terry_Ives_epoch_18_0</title>
<path fill="none" stroke="#7570b3" d="M1169.17,-482.861C1163.01,-466.704 1151.37,-436.159 1145.24,-420.052"/>
</g>
<!-- Carol_epoch_2_0 -->
<g id="node58" class="node"><title>Carol_epoch_2_0</title>
<path fill="none" stroke="#e7298a" d="M1997.05,-1604C1997.05,-1604 1965.39,-1604 1965.39,-1604 1961.55,-1604 1957.72,-1600.17 1957.72,-1596.33 1957.72,-1596.33 1957.72,-1588.67 1957.72,-1588.67 1957.72,-1584.83 1961.55,-1581 1965.39,-1581 1965.39,-1581 1997.05,-1581 1997.05,-1581 2000.89,-1581 2004.72,-1584.83 2004.72,-1588.67 2004.72,-1588.67 2004.72,-1596.33 2004.72,-1596.33 2004.72,-1600.17 2000.89,-1604 1997.05,-1604"/>
<text text-anchor="middle" x="1981.22" y="-1588.8" font-family="Times New Roman,serif" font-size="14.00">Carol</text>
</g>
<!-- Carol_epoch_17_1 -->
<g id="node59" class="node"><title>Carol_epoch_17_1</title>
<path fill="none" stroke="#e7298a" d="M1875.05,-420C1875.05,-420 1843.39,-420 1843.39,-420 1839.55,-420 1835.72,-416.167 1835.72,-412.333 1835.72,-412.333 1835.72,-404.667 1835.72,-404.667 1835.72,-400.833 1839.55,-397 1843.39,-397 1843.39,-397 1875.05,-397 1875.05,-397 1878.89,-397 1882.72,-400.833 1882.72,-404.667 1882.72,-404.667 1882.72,-412.333 1882.72,-412.333 1882.72,-416.167 1878.89,-420 1875.05,-420"/>
<text text-anchor="middle" x="1859.22" y="-404.8" font-family="Times New Roman,serif" font-size="14.00">Carol</text>
</g>
<!-- Carol_epoch_2_0&#45;&gt;Carol_epoch_17_1 -->
<g id="edge46" class="edge"><title>Carol_epoch_2_0&#45;&gt;Carol_epoch_17_1</title>
<path fill="none" stroke="#e7298a" d="M1968.48,-1580.89C1964.19,-1577.85 1959.22,-1574.86 1954.22,-1573 1939.34,-1567.46 1894.62,-1576.05 1883.22,-1565 1829.83,-1513.29 1859.22,-1473.82 1859.22,-1399.5 1859.22,-1399.5 1859.22,-1399.5 1859.22,-594.5 1859.22,-528.337 1859.22,-448.863 1859.22,-420.343"/>
</g>
<!-- Dustin_epoch_9_0 -->
<g id="node60" class="node"><title>Dustin_epoch_9_0</title>
<path fill="none" stroke="#66a61e" d="M903.052,-965C903.052,-965 801.385,-965 801.385,-965 797.552,-965 793.718,-961.167 793.718,-957.333 793.718,-957.333 793.718,-949.667 793.718,-949.667 793.718,-945.833 797.552,-942 801.385,-942 801.385,-942 903.052,-942 903.052,-942 906.885,-942 910.718,-945.833 910.718,-949.667 910.718,-949.667 910.718,-957.333 910.718,-957.333 910.718,-961.167 906.885,-965 903.052,-965"/>
<text text-anchor="middle" x="852.218" y="-949.8" font-family="Times New Roman,serif" font-size="14.00">Dustin Henderson</text>
</g>
<!-- Dustin_epoch_14_1 -->
<g id="node61" class="node"><title>Dustin_epoch_14_1</title>
<path fill="none" stroke="#66a61e" d="M585.052,-506C585.052,-506 483.385,-506 483.385,-506 479.552,-506 475.718,-502.167 475.718,-498.333 475.718,-498.333 475.718,-490.667 475.718,-490.667 475.718,-486.833 479.552,-483 483.385,-483 483.385,-483 585.052,-483 585.052,-483 588.885,-483 592.718,-486.833 592.718,-490.667 592.718,-490.667 592.718,-498.333 592.718,-498.333 592.718,-502.167 588.885,-506 585.052,-506"/>
<text text-anchor="middle" x="534.218" y="-490.8" font-family="Times New Roman,serif" font-size="14.00">Dustin Henderson</text>
</g>
<!-- Dustin_epoch_9_0&#45;&gt;Dustin_epoch_14_1 -->
<g id="edge47" class="edge"><title>Dustin_epoch_9_0&#45;&gt;Dustin_epoch_14_1</title>
<path fill="none" stroke="#66a61e" d="M854.077,-941.764C858.676,-914.23 870.218,-838.82 870.218,-775.5 870.218,-775.5 870.218,-775.5 870.218,-687.5 870.218,-555.195 710.077,-635.196 601.218,-560 578.103,-544.033 555.458,-519.974 543.322,-506.199"/>
</g>
<!-- Dustin_epoch_20_1 -->
<g id="node62" class="node"><title>Dustin_epoch_20_1</title>
<path fill="none" stroke="#66a61e" d="M437.052,-233C437.052,-233 335.385,-233 335.385,-233 331.552,-233 327.718,-229.167 327.718,-225.333 327.718,-225.333 327.718,-217.667 327.718,-217.667 327.718,-213.833 331.552,-210 335.385,-210 335.385,-210 437.052,-210 437.052,-210 440.885,-210 444.718,-213.833 444.718,-217.667 444.718,-217.667 444.718,-225.333 444.718,-225.333 444.718,-229.167 440.885,-233 437.052,-233"/>
<text text-anchor="middle" x="386.218" y="-217.8" font-family="Times New Roman,serif" font-size="14.00">Dustin Henderson</text>
</g>
<!-- Dustin_epoch_14_1&#45;&gt;Dustin_epoch_20_1 -->
<g id="edge48" class="edge"><title>Dustin_epoch_14_1&#45;&gt;Dustin_epoch_20_1</title>
<path fill="none" stroke="#66a61e" d="M528.417,-482.876C504.741,-439.525 415.581,-276.266 391.98,-233.05"/>
</g>
<!-- Dustin_epoch_21_0 -->
<g id="node63" class="node"><title>Dustin_epoch_21_0</title>
<path fill="none" stroke="#66a61e" d="M507.052,-47C507.052,-47 405.385,-47 405.385,-47 401.552,-47 397.718,-43.1667 397.718,-39.3333 397.718,-39.3333 397.718,-31.6667 397.718,-31.6667 397.718,-27.8333 401.552,-24 405.385,-24 405.385,-24 507.052,-24 507.052,-24 510.885,-24 514.718,-27.8333 514.718,-31.6667 514.718,-31.6667 514.718,-39.3333 514.718,-39.3333 514.718,-43.1667 510.885,-47 507.052,-47"/>
<text text-anchor="middle" x="456.218" y="-31.8" font-family="Times New Roman,serif" font-size="14.00">Dustin Henderson</text>
</g>
<!-- Dustin_epoch_20_1&#45;&gt;Dustin_epoch_21_0 -->
<g id="edge49" class="edge"><title>Dustin_epoch_20_1&#45;&gt;Dustin_epoch_21_0</title>
<path fill="none" stroke="#66a61e" d="M390.284,-209.812C402.656,-177.292 439.754,-79.7773 452.141,-47.2174"/>
</g>
<!-- Lucas_epoch_14_0 -->
<g id="node64" class="node"><title>Lucas_epoch_14_0</title>
<path fill="none" stroke="#e6ab02" d="M260.052,-506C260.052,-506 180.385,-506 180.385,-506 176.552,-506 172.718,-502.167 172.718,-498.333 172.718,-498.333 172.718,-490.667 172.718,-490.667 172.718,-486.833 176.552,-483 180.385,-483 180.385,-483 260.052,-483 260.052,-483 263.885,-483 267.718,-486.833 267.718,-490.667 267.718,-490.667 267.718,-498.333 267.718,-498.333 267.718,-502.167 263.885,-506 260.052,-506"/>
<text text-anchor="middle" x="220.218" y="-490.8" font-family="Times New Roman,serif" font-size="14.00">Lucas Sinclair</text>
</g>
<!-- Lucas_epoch_16_0 -->
<g id="node65" class="node"><title>Lucas_epoch_16_0</title>
<path fill="none" stroke="#e6ab02" d="M733.052,-420C733.052,-420 653.385,-420 653.385,-420 649.552,-420 645.718,-416.167 645.718,-412.333 645.718,-412.333 645.718,-404.667 645.718,-404.667 645.718,-400.833 649.552,-397 653.385,-397 653.385,-397 733.052,-397 733.052,-397 736.885,-397 740.718,-400.833 740.718,-404.667 740.718,-404.667 740.718,-412.333 740.718,-412.333 740.718,-416.167 736.885,-420 733.052,-420"/>
<text text-anchor="middle" x="693.218" y="-404.8" font-family="Times New Roman,serif" font-size="14.00">Lucas Sinclair</text>
</g>
<!-- Lucas_epoch_14_0&#45;&gt;Lucas_epoch_16_0 -->
<g id="edge50" class="edge"><title>Lucas_epoch_14_0&#45;&gt;Lucas_epoch_16_0</title>
<path fill="none" stroke="#e6ab02" d="M240.245,-482.976C251.667,-477.406 266.418,-470.925 280.218,-467 409.21,-430.31 567.782,-416.611 645.577,-411.841"/>
</g>
<!-- Lucas_epoch_20_0 -->
<g id="node66" class="node"><title>Lucas_epoch_20_0</title>
<path fill="none" stroke="#e6ab02" d="M733.052,-233C733.052,-233 653.385,-233 653.385,-233 649.552,-233 645.718,-229.167 645.718,-225.333 645.718,-225.333 645.718,-217.667 645.718,-217.667 645.718,-213.833 649.552,-210 653.385,-210 653.385,-210 733.052,-210 733.052,-210 736.885,-210 740.718,-213.833 740.718,-217.667 740.718,-217.667 740.718,-225.333 740.718,-225.333 740.718,-229.167 736.885,-233 733.052,-233"/>
<text text-anchor="middle" x="693.218" y="-217.8" font-family="Times New Roman,serif" font-size="14.00">Lucas Sinclair</text>
</g>
<!-- Lucas_epoch_16_0&#45;&gt;Lucas_epoch_20_0 -->
<g id="edge51" class="edge"><title>Lucas_epoch_16_0&#45;&gt;Lucas_epoch_20_0</title>
<path fill="none" stroke="#e6ab02" d="M693.218,-396.754C693.218,-364.057 693.218,-266.012 693.218,-233.276"/>
</g>
<!-- Lucas_epoch_21_0 -->
<g id="node67" class="node"><title>Lucas_epoch_21_0</title>
<path fill="none" stroke="#e6ab02" d="M733.052,-47C733.052,-47 653.385,-47 653.385,-47 649.552,-47 645.718,-43.1667 645.718,-39.3333 645.718,-39.3333 645.718,-31.6667 645.718,-31.6667 645.718,-27.8333 649.552,-24 653.385,-24 653.385,-24 733.052,-24 733.052,-24 736.885,-24 740.718,-27.8333 740.718,-31.6667 740.718,-31.6667 740.718,-39.3333 740.718,-39.3333 740.718,-43.1667 736.885,-47 733.052,-47"/>
<text text-anchor="middle" x="693.218" y="-31.8" font-family="Times New Roman,serif" font-size="14.00">Lucas Sinclair</text>
</g>
<!-- Lucas_epoch_20_0&#45;&gt;Lucas_epoch_21_0 -->
<g id="edge52" class="edge"><title>Lucas_epoch_20_0&#45;&gt;Lucas_epoch_21_0</title>
<path fill="none" stroke="#e6ab02" d="M693.218,-209.812C693.218,-177.292 693.218,-79.7773 693.218,-47.2174"/>
</g>
<!-- James_epoch_20_1 -->
<g id="node68" class="node"><title>James_epoch_20_1</title>
<path fill="none" stroke="#a6761d" d="M230.552,-233C230.552,-233 195.885,-233 195.885,-233 192.052,-233 188.218,-229.167 188.218,-225.333 188.218,-225.333 188.218,-217.667 188.218,-217.667 188.218,-213.833 192.052,-210 195.885,-210 195.885,-210 230.552,-210 230.552,-210 234.385,-210 238.218,-213.833 238.218,-217.667 238.218,-217.667 238.218,-225.333 238.218,-225.333 238.218,-229.167 234.385,-233 230.552,-233"/>
<text text-anchor="middle" x="213.218" y="-217.8" font-family="Times New Roman,serif" font-size="14.00">James</text>
</g>
<!-- Tommy_epoch_2_0 -->
<g id="node69" class="node"><title>Tommy_epoch_2_0</title>
<path fill="none" stroke="#666666" d="M2093.55,-1604C2093.55,-1604 2030.89,-1604 2030.89,-1604 2027.05,-1604 2023.22,-1600.17 2023.22,-1596.33 2023.22,-1596.33 2023.22,-1588.67 2023.22,-1588.67 2023.22,-1584.83 2027.05,-1581 2030.89,-1581 2030.89,-1581 2093.55,-1581 2093.55,-1581 2097.39,-1581 2101.22,-1584.83 2101.22,-1588.67 2101.22,-1588.67 2101.22,-1596.33 2101.22,-1596.33 2101.22,-1600.17 2097.39,-1604 2093.55,-1604"/>
<text text-anchor="middle" x="2062.22" y="-1588.8" font-family="Times New Roman,serif" font-size="14.00">Tommy H.</text>
</g>
<!-- Tommy_epoch_17_1 -->
<g id="node70" class="node"><title>Tommy_epoch_17_1</title>
<path fill="none" stroke="#666666" d="M1971.55,-420C1971.55,-420 1908.89,-420 1908.89,-420 1905.05,-420 1901.22,-416.167 1901.22,-412.333 1901.22,-412.333 1901.22,-404.667 1901.22,-404.667 1901.22,-400.833 1905.05,-397 1908.89,-397 1908.89,-397 1971.55,-397 1971.55,-397 1975.39,-397 1979.22,-400.833 1979.22,-404.667 1979.22,-404.667 1979.22,-412.333 1979.22,-412.333 1979.22,-416.167 1975.39,-420 1971.55,-420"/>
<text text-anchor="middle" x="1940.22" y="-404.8" font-family="Times New Roman,serif" font-size="14.00">Tommy H.</text>
</g>
<!-- Tommy_epoch_2_0&#45;&gt;Tommy_epoch_17_1 -->
<g id="edge53" class="edge"><title>Tommy_epoch_2_0&#45;&gt;Tommy_epoch_17_1</title>
<path fill="none" stroke="#666666" d="M2038.72,-1580.89C2031.05,-1577.85 2022.4,-1574.86 2014.22,-1573 2003.24,-1570.51 1921.25,-1572.89 1913.22,-1565 1860.51,-1513.2 1897.22,-1473.4 1897.22,-1399.5 1897.22,-1399.5 1897.22,-1399.5 1897.22,-594.5 1897.22,-526.573 1925.06,-448.174 1935.94,-420.141"/>
</g>
<!-- Mr_Clarke_epoch_8_0 -->
<g id="node71" class="node"><title>Mr_Clarke_epoch_8_0</title>
<path fill="none" stroke="#1b9e77" d="M1117.05,-1051C1117.05,-1051 1055.39,-1051 1055.39,-1051 1051.55,-1051 1047.72,-1047.17 1047.72,-1043.33 1047.72,-1043.33 1047.72,-1035.67 1047.72,-1035.67 1047.72,-1031.83 1051.55,-1028 1055.39,-1028 1055.39,-1028 1117.05,-1028 1117.05,-1028 1120.89,-1028 1124.72,-1031.83 1124.72,-1035.67 1124.72,-1035.67 1124.72,-1043.33 1124.72,-1043.33 1124.72,-1047.17 1120.89,-1051 1117.05,-1051"/>
<text text-anchor="middle" x="1086.22" y="-1035.8" font-family="Times New Roman,serif" font-size="14.00">Mr. Clarke</text>
</g>
<!-- Nancy_epoch_1_0 -->
<g id="node72" class="node"><title>Nancy_epoch_1_0</title>
<path fill="none" stroke="#d95f02" d="M2218.55,-1690C2218.55,-1690 2131.89,-1690 2131.89,-1690 2128.05,-1690 2124.22,-1686.17 2124.22,-1682.33 2124.22,-1682.33 2124.22,-1674.67 2124.22,-1674.67 2124.22,-1670.83 2128.05,-1667 2131.89,-1667 2131.89,-1667 2218.55,-1667 2218.55,-1667 2222.39,-1667 2226.22,-1670.83 2226.22,-1674.67 2226.22,-1674.67 2226.22,-1682.33 2226.22,-1682.33 2226.22,-1686.17 2222.39,-1690 2218.55,-1690"/>
<text text-anchor="middle" x="2175.22" y="-1674.8" font-family="Times New Roman,serif" font-size="14.00">Nancy Wheeler</text>
</g>
<!-- Nancy_epoch_2_1 -->
<g id="node73" class="node"><title>Nancy_epoch_2_1</title>
<path fill="none" stroke="#d95f02" d="M2147.55,-1511C2147.55,-1511 2060.89,-1511 2060.89,-1511 2057.05,-1511 2053.22,-1507.17 2053.22,-1503.33 2053.22,-1503.33 2053.22,-1495.67 2053.22,-1495.67 2053.22,-1491.83 2057.05,-1488 2060.89,-1488 2060.89,-1488 2147.55,-1488 2147.55,-1488 2151.39,-1488 2155.22,-1491.83 2155.22,-1495.67 2155.22,-1495.67 2155.22,-1503.33 2155.22,-1503.33 2155.22,-1507.17 2151.39,-1511 2147.55,-1511"/>
<text text-anchor="middle" x="2104.22" y="-1495.8" font-family="Times New Roman,serif" font-size="14.00">Nancy Wheeler</text>
</g>
<!-- Nancy_epoch_1_0&#45;&gt;Nancy_epoch_2_1 -->
<g id="edge54" class="edge"><title>Nancy_epoch_1_0&#45;&gt;Nancy_epoch_2_1</title>
<path fill="none" stroke="#d95f02" d="M2211.76,-1666.84C2223.21,-1661.59 2234.59,-1653.95 2241.22,-1643 2257.34,-1616.39 2262.03,-1596.12 2241.22,-1573 2229.86,-1560.38 2180.44,-1572.53 2165.22,-1565 2140.49,-1552.77 2120.52,-1526.11 2110.74,-1511.18"/>
</g>
<!-- Nancy_epoch_4_0 -->
<g id="node74" class="node"><title>Nancy_epoch_4_0</title>
<path fill="none" stroke="#d95f02" d="M1693.55,-1410C1693.55,-1410 1606.89,-1410 1606.89,-1410 1603.05,-1410 1599.22,-1406.17 1599.22,-1402.33 1599.22,-1402.33 1599.22,-1394.67 1599.22,-1394.67 1599.22,-1390.83 1603.05,-1387 1606.89,-1387 1606.89,-1387 1693.55,-1387 1693.55,-1387 1697.39,-1387 1701.22,-1390.83 1701.22,-1394.67 1701.22,-1394.67 1701.22,-1402.33 1701.22,-1402.33 1701.22,-1406.17 1697.39,-1410 1693.55,-1410"/>
<text text-anchor="middle" x="1650.22" y="-1394.8" font-family="Times New Roman,serif" font-size="14.00">Nancy Wheeler</text>
</g>
<!-- Nancy_epoch_2_1&#45;&gt;Nancy_epoch_4_0 -->
<g id="edge55" class="edge"><title>Nancy_epoch_2_1&#45;&gt;Nancy_epoch_4_0</title>
<path fill="none" stroke="#d95f02" d="M2085.42,-1487.91C2073.91,-1482.01 2058.67,-1475.23 2044.22,-1472 2008.32,-1463.97 1746.95,-1478.69 1713.22,-1464 1687.39,-1452.75 1666.73,-1425.43 1656.75,-1410.2"/>
</g>
<!-- Nancy_epoch_7_0 -->
<g id="node75" class="node"><title>Nancy_epoch_7_0</title>
<path fill="none" stroke="#d95f02" d="M1690.55,-1137C1690.55,-1137 1603.89,-1137 1603.89,-1137 1600.05,-1137 1596.22,-1133.17 1596.22,-1129.33 1596.22,-1129.33 1596.22,-1121.67 1596.22,-1121.67 1596.22,-1117.83 1600.05,-1114 1603.89,-1114 1603.89,-1114 1690.55,-1114 1690.55,-1114 1694.39,-1114 1698.22,-1117.83 1698.22,-1121.67 1698.22,-1121.67 1698.22,-1129.33 1698.22,-1129.33 1698.22,-1133.17 1694.39,-1137 1690.55,-1137"/>
<text text-anchor="middle" x="1647.22" y="-1121.8" font-family="Times New Roman,serif" font-size="14.00">Nancy Wheeler</text>
</g>
<!-- Nancy_epoch_4_0&#45;&gt;Nancy_epoch_7_0 -->
<g id="edge56" class="edge"><title>Nancy_epoch_4_0&#45;&gt;Nancy_epoch_7_0</title>
<path fill="none" stroke="#d95f02" d="M1650.1,-1386.88C1649.62,-1343.52 1647.81,-1180.27 1647.34,-1137.05"/>
</g>
<!-- Nancy_epoch_17_0 -->
<g id="node76" class="node"><title>Nancy_epoch_17_0</title>
<path fill="none" stroke="#d95f02" d="M1690.55,-506C1690.55,-506 1603.89,-506 1603.89,-506 1600.05,-506 1596.22,-502.167 1596.22,-498.333 1596.22,-498.333 1596.22,-490.667 1596.22,-490.667 1596.22,-486.833 1600.05,-483 1603.89,-483 1603.89,-483 1690.55,-483 1690.55,-483 1694.39,-483 1698.22,-486.833 1698.22,-490.667 1698.22,-490.667 1698.22,-498.333 1698.22,-498.333 1698.22,-502.167 1694.39,-506 1690.55,-506"/>
<text text-anchor="middle" x="1647.22" y="-490.8" font-family="Times New Roman,serif" font-size="14.00">Nancy Wheeler</text>
</g>
<!-- Nancy_epoch_7_0&#45;&gt;Nancy_epoch_17_0 -->
<g id="edge57" class="edge"><title>Nancy_epoch_7_0&#45;&gt;Nancy_epoch_17_0</title>
<path fill="none" stroke="#d95f02" d="M1647.22,-1113.76C1647.22,-1086.91 1647.22,-1014.71 1647.22,-954.5 1647.22,-954.5 1647.22,-954.5 1647.22,-687.5 1647.22,-618.5 1647.22,-535.552 1647.22,-506.326"/>
</g>
<!-- Nancy_epoch_17_1 -->
<g id="node77" class="node"><title>Nancy_epoch_17_1</title>
<path fill="none" stroke="#d95f02" d="M1690.55,-420C1690.55,-420 1603.89,-420 1603.89,-420 1600.05,-420 1596.22,-416.167 1596.22,-412.333 1596.22,-412.333 1596.22,-404.667 1596.22,-404.667 1596.22,-400.833 1600.05,-397 1603.89,-397 1603.89,-397 1690.55,-397 1690.55,-397 1694.39,-397 1698.22,-400.833 1698.22,-404.667 1698.22,-404.667 1698.22,-412.333 1698.22,-412.333 1698.22,-416.167 1694.39,-420 1690.55,-420"/>
<text text-anchor="middle" x="1647.22" y="-404.8" font-family="Times New Roman,serif" font-size="14.00">Nancy Wheeler</text>
</g>
<!-- Nancy_epoch_17_0&#45;&gt;Nancy_epoch_17_1 -->
<g id="edge58" class="edge"><title>Nancy_epoch_17_0&#45;&gt;Nancy_epoch_17_1</title>
<path fill="none" stroke="#d95f02" d="M1647.22,-482.861C1647.22,-466.704 1647.22,-436.159 1647.22,-420.052"/>
</g>
<!-- Nancy_epoch_19_0 -->
<g id="node78" class="node"><title>Nancy_epoch_19_0</title>
<path fill="none" stroke="#d95f02" d="M1562.55,-334C1562.55,-334 1475.89,-334 1475.89,-334 1472.05,-334 1468.22,-330.167 1468.22,-326.333 1468.22,-326.333 1468.22,-318.667 1468.22,-318.667 1468.22,-314.833 1472.05,-311 1475.89,-311 1475.89,-311 1562.55,-311 1562.55,-311 1566.39,-311 1570.22,-314.833 1570.22,-318.667 1570.22,-318.667 1570.22,-326.333 1570.22,-326.333 1570.22,-330.167 1566.39,-334 1562.55,-334"/>
<text text-anchor="middle" x="1519.22" y="-318.8" font-family="Times New Roman,serif" font-size="14.00">Nancy Wheeler</text>
</g>
<!-- Nancy_epoch_17_1&#45;&gt;Nancy_epoch_19_0 -->
<g id="edge59" class="edge"><title>Nancy_epoch_17_1&#45;&gt;Nancy_epoch_19_0</title>
<path fill="none" stroke="#d95f02" d="M1623.22,-396.914C1609.86,-390.637 1593.17,-382.136 1579.22,-373 1561.14,-361.165 1542.22,-344.788 1530.58,-334.169"/>
</g>
<!-- Brenner_epoch_10_0 -->
<g id="node79" class="node"><title>Brenner_epoch_10_0</title>
<path fill="none" stroke="#7570b3" d="M723.552,-879C723.552,-879 616.885,-879 616.885,-879 613.052,-879 609.218,-875.167 609.218,-871.333 609.218,-871.333 609.218,-863.667 609.218,-863.667 609.218,-859.833 613.052,-856 616.885,-856 616.885,-856 723.552,-856 723.552,-856 727.385,-856 731.218,-859.833 731.218,-863.667 731.218,-863.667 731.218,-871.333 731.218,-871.333 731.218,-875.167 727.385,-879 723.552,-879"/>
<text text-anchor="middle" x="670.218" y="-863.8" font-family="Times New Roman,serif" font-size="14.00">Dr. Martin Brenner</text>
</g>
<!-- Brenner_epoch_12_1 -->
<g id="node80" class="node"><title>Brenner_epoch_12_1</title>
<path fill="none" stroke="#7570b3" d="M352.552,-607C352.552,-607 245.885,-607 245.885,-607 242.052,-607 238.218,-603.167 238.218,-599.333 238.218,-599.333 238.218,-591.667 238.218,-591.667 238.218,-587.833 242.052,-584 245.885,-584 245.885,-584 352.552,-584 352.552,-584 356.385,-584 360.218,-587.833 360.218,-591.667 360.218,-591.667 360.218,-599.333 360.218,-599.333 360.218,-603.167 356.385,-607 352.552,-607"/>
<text text-anchor="middle" x="299.218" y="-591.8" font-family="Times New Roman,serif" font-size="14.00">Dr. Martin Brenner</text>
</g>
<!-- Brenner_epoch_10_0&#45;&gt;Brenner_epoch_12_1 -->
<g id="edge60" class="edge"><title>Brenner_epoch_10_0&#45;&gt;Brenner_epoch_12_1</title>
<path fill="none" stroke="#7570b3" d="M639.499,-855.991C628.782,-852.8 616.591,-849.692 605.218,-848 593.1,-846.197 172.803,-848.742 164.218,-840 110.356,-785.152 143.524,-730.067 190.218,-669 212.444,-639.933 249.826,-618.751 274.51,-607.033"/>
</g>
<!-- Brenner_epoch_20_2 -->
<g id="node81" class="node"><title>Brenner_epoch_20_2</title>
<path fill="none" stroke="#7570b3" d="M302.552,-148C302.552,-148 195.885,-148 195.885,-148 192.052,-148 188.218,-144.167 188.218,-140.333 188.218,-140.333 188.218,-132.667 188.218,-132.667 188.218,-128.833 192.052,-125 195.885,-125 195.885,-125 302.552,-125 302.552,-125 306.385,-125 310.218,-128.833 310.218,-132.667 310.218,-132.667 310.218,-140.333 310.218,-140.333 310.218,-144.167 306.385,-148 302.552,-148"/>
<text text-anchor="middle" x="249.218" y="-132.8" font-family="Times New Roman,serif" font-size="14.00">Dr. Martin Brenner</text>
</g>
<!-- Brenner_epoch_12_1&#45;&gt;Brenner_epoch_20_2 -->
<g id="edge61" class="edge"><title>Brenner_epoch_12_1&#45;&gt;Brenner_epoch_20_2</title>
<path fill="none" stroke="#7570b3" d="M237.982,-594.964C167.537,-594.124 57.8766,-588.145 29.2184,-560 -19.0116,-512.633 7.21843,-477.1 7.21843,-409.5 7.21843,-409.5 7.21843,-409.5 7.21843,-321.5 7.21843,-221.484 139.822,-168.716 208.713,-148.051"/>
</g>
<!-- Brenner_epoch_21_0 -->
<g id="node82" class="node"><title>Brenner_epoch_21_0</title>
<path fill="none" stroke="#7570b3" d="M300.552,-47C300.552,-47 193.885,-47 193.885,-47 190.052,-47 186.218,-43.1667 186.218,-39.3333 186.218,-39.3333 186.218,-31.6667 186.218,-31.6667 186.218,-27.8333 190.052,-24 193.885,-24 193.885,-24 300.552,-24 300.552,-24 304.385,-24 308.218,-27.8333 308.218,-31.6667 308.218,-31.6667 308.218,-39.3333 308.218,-39.3333 308.218,-43.1667 304.385,-47 300.552,-47"/>
<text text-anchor="middle" x="247.218" y="-31.8" font-family="Times New Roman,serif" font-size="14.00">Dr. Martin Brenner</text>
</g>
<!-- Brenner_epoch_20_2&#45;&gt;Brenner_epoch_21_0 -->
<g id="edge62" class="edge"><title>Brenner_epoch_20_2&#45;&gt;Brenner_epoch_21_0</title>
<path fill="none" stroke="#7570b3" d="M249.004,-124.905C248.619,-105.851 247.815,-66.0177 247.431,-47.0186"/>
</g>
<!-- Ted_epoch_11_0 -->
<g id="node83" class="node"><title>Ted_epoch_11_0</title>
<path fill="none" stroke="#e7298a" d="M415.052,-786C415.052,-786 341.385,-786 341.385,-786 337.552,-786 333.718,-782.167 333.718,-778.333 333.718,-778.333 333.718,-770.667 333.718,-770.667 333.718,-766.833 337.552,-763 341.385,-763 341.385,-763 415.052,-763 415.052,-763 418.885,-763 422.718,-766.833 422.718,-770.667 422.718,-770.667 422.718,-778.333 422.718,-778.333 422.718,-782.167 418.885,-786 415.052,-786"/>
<text text-anchor="middle" x="378.218" y="-770.8" font-family="Times New Roman,serif" font-size="14.00">Ted Wheeler</text>
</g>
<!-- Steve_epoch_2_0 -->
<g id="node84" class="node"><title>Steve_epoch_2_0</title>
<path fill="none" stroke="#66a61e" d="M2221.55,-1604C2221.55,-1604 2126.89,-1604 2126.89,-1604 2123.05,-1604 2119.22,-1600.17 2119.22,-1596.33 2119.22,-1596.33 2119.22,-1588.67 2119.22,-1588.67 2119.22,-1584.83 2123.05,-1581 2126.89,-1581 2126.89,-1581 2221.55,-1581 2221.55,-1581 2225.39,-1581 2229.22,-1584.83 2229.22,-1588.67 2229.22,-1588.67 2229.22,-1596.33 2229.22,-1596.33 2229.22,-1600.17 2225.39,-1604 2221.55,-1604"/>
<text text-anchor="middle" x="2174.22" y="-1588.8" font-family="Times New Roman,serif" font-size="14.00">Steve Harrington</text>
</g>
<!-- Steve_epoch_2_1 -->
<g id="node85" class="node"><title>Steve_epoch_2_1</title>
<path fill="none" stroke="#66a61e" d="M2027.55,-1511C2027.55,-1511 1932.89,-1511 1932.89,-1511 1929.05,-1511 1925.22,-1507.17 1925.22,-1503.33 1925.22,-1503.33 1925.22,-1495.67 1925.22,-1495.67 1925.22,-1491.83 1929.05,-1488 1932.89,-1488 1932.89,-1488 2027.55,-1488 2027.55,-1488 2031.39,-1488 2035.22,-1491.83 2035.22,-1495.67 2035.22,-1495.67 2035.22,-1503.33 2035.22,-1503.33 2035.22,-1507.17 2031.39,-1511 2027.55,-1511"/>
<text text-anchor="middle" x="1980.22" y="-1495.8" font-family="Times New Roman,serif" font-size="14.00">Steve Harrington</text>
</g>
<!-- Steve_epoch_2_0&#45;&gt;Steve_epoch_2_1 -->
<g id="edge63" class="edge"><title>Steve_epoch_2_0&#45;&gt;Steve_epoch_2_1</title>
<path fill="none" stroke="#66a61e" d="M2141.58,-1580.97C2131.6,-1578.05 2120.53,-1575.1 2110.22,-1573 2081.27,-1567.1 2070.76,-1577.98 2044.22,-1565 2019,-1552.66 1997.91,-1526.3 1987.4,-1511.38"/>
</g>
<!-- Steve_epoch_17_1 -->
<g id="node86" class="node"><title>Steve_epoch_17_1</title>
<path fill="none" stroke="#66a61e" d="M2099.55,-420C2099.55,-420 2004.89,-420 2004.89,-420 2001.05,-420 1997.22,-416.167 1997.22,-412.333 1997.22,-412.333 1997.22,-404.667 1997.22,-404.667 1997.22,-400.833 2001.05,-397 2004.89,-397 2004.89,-397 2099.55,-397 2099.55,-397 2103.39,-397 2107.22,-400.833 2107.22,-404.667 2107.22,-404.667 2107.22,-412.333 2107.22,-412.333 2107.22,-416.167 2103.39,-420 2099.55,-420"/>
<text text-anchor="middle" x="2052.22" y="-404.8" font-family="Times New Roman,serif" font-size="14.00">Steve Harrington</text>
</g>
<!-- Steve_epoch_2_1&#45;&gt;Steve_epoch_17_1 -->
<g id="edge64" class="edge"><title>Steve_epoch_2_1&#45;&gt;Steve_epoch_17_1</title>
<path fill="none" stroke="#66a61e" d="M1983.8,-1487.8C1992.91,-1459.62 2016.22,-1380.9 2016.22,-1313.5 2016.22,-1313.5 2016.22,-1313.5 2016.22,-594.5 2016.22,-527.096 2039.53,-448.379 2048.64,-420.201"/>
</g>
<!-- Karen_epoch_11_0 -->
<g id="node87" class="node"><title>Karen_epoch_11_0</title>
<path fill="none" stroke="#e6ab02" d="M308.052,-786C308.052,-786 224.385,-786 224.385,-786 220.552,-786 216.718,-782.167 216.718,-778.333 216.718,-778.333 216.718,-770.667 216.718,-770.667 216.718,-766.833 220.552,-763 224.385,-763 224.385,-763 308.052,-763 308.052,-763 311.885,-763 315.718,-766.833 315.718,-770.667 315.718,-770.667 315.718,-778.333 315.718,-778.333 315.718,-782.167 311.885,-786 308.052,-786"/>
<text text-anchor="middle" x="266.218" y="-770.8" font-family="Times New Roman,serif" font-size="14.00">Karen Wheeler</text>
</g>
<!-- Becky_Ives_epoch_13_0 -->
<g id="node88" class="node"><title>Becky_Ives_epoch_13_0</title>
<path fill="none" stroke="#a6761d" d="M1110.05,-607C1110.05,-607 1046.39,-607 1046.39,-607 1042.55,-607 1038.72,-603.167 1038.72,-599.333 1038.72,-599.333 1038.72,-591.667 1038.72,-591.667 1038.72,-587.833 1042.55,-584 1046.39,-584 1046.39,-584 1110.05,-584 1110.05,-584 1113.89,-584 1117.72,-587.833 1117.72,-591.667 1117.72,-591.667 1117.72,-599.333 1117.72,-599.333 1117.72,-603.167 1113.89,-607 1110.05,-607"/>
<text text-anchor="middle" x="1078.22" y="-591.8" font-family="Times New Roman,serif" font-size="14.00">Becky Ives</text>
</g>
<!-- Becky_Ives_epoch_15_0 -->
<g id="node89" class="node"><title>Becky_Ives_epoch_15_0</title>
<path fill="none" stroke="#a6761d" d="M1110.05,-506C1110.05,-506 1046.39,-506 1046.39,-506 1042.55,-506 1038.72,-502.167 1038.72,-498.333 1038.72,-498.333 1038.72,-490.667 1038.72,-490.667 1038.72,-486.833 1042.55,-483 1046.39,-483 1046.39,-483 1110.05,-483 1110.05,-483 1113.89,-483 1117.72,-486.833 1117.72,-490.667 1117.72,-490.667 1117.72,-498.333 1117.72,-498.333 1117.72,-502.167 1113.89,-506 1110.05,-506"/>
<text text-anchor="middle" x="1078.22" y="-490.8" font-family="Times New Roman,serif" font-size="14.00">Becky Ives</text>
</g>
<!-- Becky_Ives_epoch_13_0&#45;&gt;Becky_Ives_epoch_15_0 -->
<g id="edge65" class="edge"><title>Becky_Ives_epoch_13_0&#45;&gt;Becky_Ives_epoch_15_0</title>
<path fill="none" stroke="#a6761d" d="M1078.22,-583.905C1078.22,-564.851 1078.22,-525.018 1078.22,-506.019"/>
</g>
<!-- Becky_Ives_epoch_18_0 -->
<g id="node90" class="node"><title>Becky_Ives_epoch_18_0</title>
<path fill="none" stroke="#a6761d" d="M1078.05,-420C1078.05,-420 1014.39,-420 1014.39,-420 1010.55,-420 1006.72,-416.167 1006.72,-412.333 1006.72,-412.333 1006.72,-404.667 1006.72,-404.667 1006.72,-400.833 1010.55,-397 1014.39,-397 1014.39,-397 1078.05,-397 1078.05,-397 1081.89,-397 1085.72,-400.833 1085.72,-404.667 1085.72,-404.667 1085.72,-412.333 1085.72,-412.333 1085.72,-416.167 1081.89,-420 1078.05,-420"/>
<text text-anchor="middle" x="1046.22" y="-404.8" font-family="Times New Roman,serif" font-size="14.00">Becky Ives</text>
</g>
<!-- Becky_Ives_epoch_15_0&#45;&gt;Becky_Ives_epoch_18_0 -->
<g id="edge66" class="edge"><title>Becky_Ives_epoch_15_0&#45;&gt;Becky_Ives_epoch_18_0</title>
<path fill="none" stroke="#a6761d" d="M1074.17,-482.861C1068.01,-466.704 1056.37,-436.159 1050.24,-420.052"/>
</g>
<!-- Joyce_epoch_3_0 -->
<g id="node91" class="node"><title>Joyce_epoch_3_0</title>
<path fill="none" stroke="#666666" d="M1393.05,-1511C1393.05,-1511 1323.39,-1511 1323.39,-1511 1319.55,-1511 1315.72,-1507.17 1315.72,-1503.33 1315.72,-1503.33 1315.72,-1495.67 1315.72,-1495.67 1315.72,-1491.83 1319.55,-1488 1323.39,-1488 1323.39,-1488 1393.05,-1488 1393.05,-1488 1396.89,-1488 1400.72,-1491.83 1400.72,-1495.67 1400.72,-1495.67 1400.72,-1503.33 1400.72,-1503.33 1400.72,-1507.17 1396.89,-1511 1393.05,-1511"/>
<text text-anchor="middle" x="1358.22" y="-1495.8" font-family="Times New Roman,serif" font-size="14.00">Joyce Byers</text>
</g>
<!-- Joyce_epoch_6_0 -->
<g id="node92" class="node"><title>Joyce_epoch_6_0</title>
<path fill="none" stroke="#666666" d="M1313.05,-1223C1313.05,-1223 1243.39,-1223 1243.39,-1223 1239.55,-1223 1235.72,-1219.17 1235.72,-1215.33 1235.72,-1215.33 1235.72,-1207.67 1235.72,-1207.67 1235.72,-1203.83 1239.55,-1200 1243.39,-1200 1243.39,-1200 1313.05,-1200 1313.05,-1200 1316.89,-1200 1320.72,-1203.83 1320.72,-1207.67 1320.72,-1207.67 1320.72,-1215.33 1320.72,-1215.33 1320.72,-1219.17 1316.89,-1223 1313.05,-1223"/>
<text text-anchor="middle" x="1278.22" y="-1207.8" font-family="Times New Roman,serif" font-size="14.00">Joyce Byers</text>
</g>
<!-- Joyce_epoch_3_0&#45;&gt;Joyce_epoch_6_0 -->
<g id="edge67" class="edge"><title>Joyce_epoch_3_0&#45;&gt;Joyce_epoch_6_0</title>
<path fill="none" stroke="#666666" d="M1343.84,-1487.81C1317.43,-1467.18 1262.02,-1418.93 1241.22,-1363 1229.13,-1330.51 1233.11,-1318.71 1241.22,-1285 1246.9,-1261.37 1261.65,-1236.76 1270.72,-1223.16"/>
</g>
<!-- Joyce_epoch_13_0 -->
<g id="node93" class="node"><title>Joyce_epoch_13_0</title>
<path fill="none" stroke="#666666" d="M1306.05,-607C1306.05,-607 1236.39,-607 1236.39,-607 1232.55,-607 1228.72,-603.167 1228.72,-599.333 1228.72,-599.333 1228.72,-591.667 1228.72,-591.667 1228.72,-587.833 1232.55,-584 1236.39,-584 1236.39,-584 1306.05,-584 1306.05,-584 1309.89,-584 1313.72,-587.833 1313.72,-591.667 1313.72,-591.667 1313.72,-599.333 1313.72,-599.333 1313.72,-603.167 1309.89,-607 1306.05,-607"/>
<text text-anchor="middle" x="1271.22" y="-591.8" font-family="Times New Roman,serif" font-size="14.00">Joyce Byers</text>
</g>
<!-- Joyce_epoch_6_0&#45;&gt;Joyce_epoch_13_0 -->
<g id="edge68" class="edge"><title>Joyce_epoch_6_0&#45;&gt;Joyce_epoch_13_0</title>
<path fill="none" stroke="#666666" d="M1280.66,-1199.84C1288.46,-1164.87 1312.22,-1050.45 1312.22,-954.5 1312.22,-954.5 1312.22,-954.5 1312.22,-773.5 1312.22,-708.837 1285.93,-634.235 1275.45,-607.076"/>
</g>
<!-- Joyce_epoch_15_0 -->
<g id="node94" class="node"><title>Joyce_epoch_15_0</title>
<path fill="none" stroke="#666666" d="M1306.05,-506C1306.05,-506 1236.39,-506 1236.39,-506 1232.55,-506 1228.72,-502.167 1228.72,-498.333 1228.72,-498.333 1228.72,-490.667 1228.72,-490.667 1228.72,-486.833 1232.55,-483 1236.39,-483 1236.39,-483 1306.05,-483 1306.05,-483 1309.89,-483 1313.72,-486.833 1313.72,-490.667 1313.72,-490.667 1313.72,-498.333 1313.72,-498.333 1313.72,-502.167 1309.89,-506 1306.05,-506"/>
<text text-anchor="middle" x="1271.22" y="-490.8" font-family="Times New Roman,serif" font-size="14.00">Joyce Byers</text>
</g>
<!-- Joyce_epoch_13_0&#45;&gt;Joyce_epoch_15_0 -->
<g id="edge69" class="edge"><title>Joyce_epoch_13_0&#45;&gt;Joyce_epoch_15_0</title>
<path fill="none" stroke="#666666" d="M1271.22,-583.905C1271.22,-564.851 1271.22,-525.018 1271.22,-506.019"/>
</g>
<!-- Joyce_epoch_18_0 -->
<g id="node95" class="node"><title>Joyce_epoch_18_0</title>
<path fill="none" stroke="#666666" d="M1274.05,-420C1274.05,-420 1204.39,-420 1204.39,-420 1200.55,-420 1196.72,-416.167 1196.72,-412.333 1196.72,-412.333 1196.72,-404.667 1196.72,-404.667 1196.72,-400.833 1200.55,-397 1204.39,-397 1204.39,-397 1274.05,-397 1274.05,-397 1277.89,-397 1281.72,-400.833 1281.72,-404.667 1281.72,-404.667 1281.72,-412.333 1281.72,-412.333 1281.72,-416.167 1277.89,-420 1274.05,-420"/>
<text text-anchor="middle" x="1239.22" y="-404.8" font-family="Times New Roman,serif" font-size="14.00">Joyce Byers</text>
</g>
<!-- Joyce_epoch_15_0&#45;&gt;Joyce_epoch_18_0 -->
<g id="edge70" class="edge"><title>Joyce_epoch_15_0&#45;&gt;Joyce_epoch_18_0</title>
<path fill="none" stroke="#666666" d="M1267.17,-482.861C1261.01,-466.704 1249.37,-436.159 1243.24,-420.052"/>
</g>
<!-- Officer_Powell_epoch_14_1 -->
<g id="node96" class="node"><title>Officer_Powell_epoch_14_1</title>
<path fill="none" stroke="#1b9e77" d="M826.552,-506C826.552,-506 743.885,-506 743.885,-506 740.052,-506 736.218,-502.167 736.218,-498.333 736.218,-498.333 736.218,-490.667 736.218,-490.667 736.218,-486.833 740.052,-483 743.885,-483 743.885,-483 826.552,-483 826.552,-483 830.385,-483 834.218,-486.833 834.218,-490.667 834.218,-490.667 834.218,-498.333 834.218,-498.333 834.218,-502.167 830.385,-506 826.552,-506"/>
<text text-anchor="middle" x="785.218" y="-490.8" font-family="Times New Roman,serif" font-size="14.00">Officer Powell</text>
</g>
<!-- Officer_Powell_epoch_17_1 -->
<g id="node97" class="node"><title>Officer_Powell_epoch_17_1</title>
<path fill="none" stroke="#1b9e77" d="M1570.55,-420C1570.55,-420 1487.89,-420 1487.89,-420 1484.05,-420 1480.22,-416.167 1480.22,-412.333 1480.22,-412.333 1480.22,-404.667 1480.22,-404.667 1480.22,-400.833 1484.05,-397 1487.89,-397 1487.89,-397 1570.55,-397 1570.55,-397 1574.39,-397 1578.22,-400.833 1578.22,-404.667 1578.22,-404.667 1578.22,-412.333 1578.22,-412.333 1578.22,-416.167 1574.39,-420 1570.55,-420"/>
<text text-anchor="middle" x="1529.22" y="-404.8" font-family="Times New Roman,serif" font-size="14.00">Officer Powell</text>
</g>
<!-- Officer_Powell_epoch_14_1&#45;&gt;Officer_Powell_epoch_17_1 -->
<g id="edge71" class="edge"><title>Officer_Powell_epoch_14_1&#45;&gt;Officer_Powell_epoch_17_1</title>
<path fill="none" stroke="#1b9e77" d="M801.652,-482.853C811.758,-476.939 825.222,-470.155 838.218,-467 872.341,-458.716 1437.3,-471.217 1470.22,-459 1491.28,-451.185 1510.11,-432.309 1520.56,-420.256"/>
</g>
</g>
</svg>
