<?xml version="1.0" encoding="UTF-8" standalone="no"?>
<!DOCTYPE svg PUBLIC "-//W3C//DTD SVG 1.1//EN"
 "http://www.w3.org/Graphics/SVG/1.1/DTD/svg11.dtd">
<!-- Generated by graphviz version 2.38.0 (20140413.2041)
 -->
<!-- Title: G Pages: 1 -->
<svg width="754pt" height="494pt"
 viewBox="0.00 0.00 753.96 493.63" xmlns="http://www.w3.org/2000/svg" xmlns:xlink="http://www.w3.org/1999/xlink">
<g id="graph0" class="graph" transform="scale(1 1) rotate(0) translate(4 489.635)">
<title>G</title>
<polygon fill="white" stroke="none" points="-4,4 -4,-489.635 749.962,-489.635 749.962,4 -4,4"/>
<g id="clust14" class="cluster"><title>cluster_g_epoch_1</title>
<polygon fill="none" stroke="black" points="260,-390.108 260,-477.635 646,-477.635 646,-390.108 260,-390.108"/>
</g>
<g id="clust15" class="cluster"><title>cluster_1</title>
<polygon fill="none" stroke="black" points="300,-398.108 300,-469.635 638,-469.635 638,-398.108 300,-398.108"/>
<text text-anchor="middle" x="469" y="-454.435" font-family="Times,serif" font-size="14.00">Wheeler Basement: D&amp;D</text>
</g>
<g id="clust16" class="cluster"><title>cluster_g_epoch_2</title>
<polygon fill="none" stroke="black" points="8,-294.581 8,-382.108 646,-382.108 646,-294.581 8,-294.581"/>
</g>
<g id="clust17" class="cluster"><title>cluster_2</title>
<polygon fill="none" stroke="black" points="48,-302.581 48,-374.108 638,-374.108 638,-302.581 48,-302.581"/>
<text text-anchor="middle" x="343" y="-358.908" font-family="Times,serif" font-size="14.00">Wheeler Res.: Players Disperse</text>
</g>
<g id="clust18" class="cluster"><title>cluster_g_epoch_3</title>
<polygon fill="none" stroke="black" points="260,-199.054 260,-286.581 562,-286.581 562,-199.054 260,-199.054"/>
</g>
<g id="clust19" class="cluster"><title>cluster_3</title>
<polygon fill="none" stroke="black" points="300,-207.054 300,-278.581 554,-278.581 554,-207.054 300,-207.054"/>
<text text-anchor="middle" x="427" y="-263.381" font-family="Times,serif" font-size="14.00">Hawkins Streets: Biking Home</text>
</g>
<g id="clust20" class="cluster"><title>cluster_g_epoch_4</title>
<polygon fill="none" stroke="black" points="111,-103.527 111,-191.054 404,-191.054 404,-103.527 111,-103.527"/>
</g>
<g id="clust21" class="cluster"><title>cluster_4</title>
<polygon fill="none" stroke="black" points="149,-111.527 149,-183.054 396,-183.054 396,-111.527 149,-111.527"/>
<text text-anchor="middle" x="272.5" y="-167.854" font-family="Times,serif" font-size="14.00">Byers Residence: Will Meets the Monster</text>
</g>
<g id="clust22" class="cluster"><title>cluster_g_epoch_5</title>
<polygon fill="none" stroke="black" points="336,-8 336,-95.5269 646,-95.5269 646,-8 336,-8"/>
</g>
<g id="clust23" class="cluster"><title>cluster_5</title>
<polygon fill="none" stroke="black" points="376,-16 376,-87.5269 638,-87.5269 638,-16 376,-16"/>
<text text-anchor="middle" x="507" y="-72.3269" font-family="Times,serif" font-size="14.00">Hawkins Middle School: Two Bullies</text>
</g>
<!-- epoch_1 -->
<!-- epoch_2 -->
<!-- epoch_1&#45;&gt;epoch_2 -->
<!-- epoch_3 -->
<!-- epoch_2&#45;&gt;epoch_3 -->
<!-- epoch_4 -->
<!-- epoch_3&#45;&gt;epoch_4 -->
<!-- epoch_5 -->
<!-- epoch_4&#45;&gt;epoch_5 -->
<!-- Mike_1 -->
<g id="node6" class="node"><title>Mike_1</title>
<ellipse fill="none" stroke="#1b9e77" cx="597" cy="-422.371" rx="32.5538" ry="16.0303"/>
<text text-anchor="middle" x="597" y="-418.671" font-family="Times,serif" font-size="14.00">Mike</text>
</g>
<!-- Mike_2 -->
<g id="node7" class="node"><title>Mike_2</title>
<ellipse fill="none" stroke="#1b9e77" cx="597" cy="-326.844" rx="32.5538" ry="16.0303"/>
<text text-anchor="middle" x="597" y="-323.144" font-family="Times,serif" font-size="14.00">Mike</text>
</g>
<!-- Mike_1&#45;&gt;Mike_2 -->
<g id="edge5" class="edge"><title>Mike_1&#45;&gt;Mike_2</title>
<path fill="none" stroke="black" d="M597,-405.927C597,-388.598 597,-360.65 597,-343.311"/>
</g>
<!-- Mike_5 -->
<g id="node8" class="node"><title>Mike_5</title>
<ellipse fill="none" stroke="#1b9e77" cx="597" cy="-40.2635" rx="32.5538" ry="16.0303"/>
<text text-anchor="middle" x="597" y="-36.5635" font-family="Times,serif" font-size="14.00">Mike</text>
</g>
<!-- Mike_2&#45;&gt;Mike_5 -->
<g id="edge13" class="edge"><title>Mike_2&#45;&gt;Mike_5</title>
<path fill="none" stroke="black" d="M597,-310.544C597,-261.131 597,-106.16 597,-56.6394"/>
</g>
<!-- Dustin_1 -->
<g id="node9" class="node"><title>Dustin_1</title>
<ellipse fill="none" stroke="#d95f02" cx="509" cy="-422.371" rx="37.4533" ry="16.0303"/>
<text text-anchor="middle" x="509" y="-418.671" font-family="Times,serif" font-size="14.00">Dustin</text>
</g>
<!-- Dustin_2 -->
<g id="node10" class="node"><title>Dustin_2</title>
<ellipse fill="none" stroke="#d95f02" cx="509" cy="-326.844" rx="37.4533" ry="16.0303"/>
<text text-anchor="middle" x="509" y="-323.144" font-family="Times,serif" font-size="14.00">Dustin</text>
</g>
<!-- Dustin_1&#45;&gt;Dustin_2 -->
<g id="edge6" class="edge"><title>Dustin_1&#45;&gt;Dustin_2</title>
<path fill="none" stroke="black" d="M509,-405.927C509,-388.598 509,-360.65 509,-343.311"/>
</g>
<!-- Dustin_3 -->
<g id="node11" class="node"><title>Dustin_3</title>
<ellipse fill="none" stroke="#d95f02" cx="509" cy="-231.317" rx="37.4533" ry="16.0303"/>
<text text-anchor="middle" x="509" y="-227.617" font-family="Times,serif" font-size="14.00">Dustin</text>
</g>
<!-- Dustin_2&#45;&gt;Dustin_3 -->
<g id="edge10" class="edge"><title>Dustin_2&#45;&gt;Dustin_3</title>
<path fill="none" stroke="black" d="M509,-310.4C509,-293.071 509,-265.123 509,-247.784"/>
</g>
<!-- Dustin_5 -->
<g id="node12" class="node"><title>Dustin_5</title>
<ellipse fill="none" stroke="#d95f02" cx="509" cy="-40.2635" rx="37.4533" ry="16.0303"/>
<text text-anchor="middle" x="509" y="-36.5635" font-family="Times,serif" font-size="14.00">Dustin</text>
</g>
<!-- Dustin_3&#45;&gt;Dustin_5 -->
<g id="edge15" class="edge"><title>Dustin_3&#45;&gt;Dustin_5</title>
<path fill="none" stroke="black" d="M509,-214.846C509,-179.307 509,-92.1726 509,-56.6832"/>
</g>
<!-- Luke_1 -->
<g id="node13" class="node"><title>Luke_1</title>
<ellipse fill="none" stroke="#7570b3" cx="419" cy="-422.371" rx="34.7971" ry="16.0303"/>
<text text-anchor="middle" x="419" y="-418.671" font-family="Times,serif" font-size="14.00">Lucas</text>
</g>
<!-- Luke_2 -->
<g id="node14" class="node"><title>Luke_2</title>
<ellipse fill="none" stroke="#7570b3" cx="419" cy="-326.844" rx="34.7971" ry="16.0303"/>
<text text-anchor="middle" x="419" y="-323.144" font-family="Times,serif" font-size="14.00">Lucas</text>
</g>
<!-- Luke_1&#45;&gt;Luke_2 -->
<g id="edge7" class="edge"><title>Luke_1&#45;&gt;Luke_2</title>
<path fill="none" stroke="black" d="M419,-405.927C419,-388.598 419,-360.65 419,-343.311"/>
</g>
<!-- Luke_3 -->
<g id="node15" class="node"><title>Luke_3</title>
<ellipse fill="none" stroke="#7570b3" cx="419" cy="-231.317" rx="34.7971" ry="16.0303"/>
<text text-anchor="middle" x="419" y="-227.617" font-family="Times,serif" font-size="14.00">Lucas</text>
</g>
<!-- Luke_2&#45;&gt;Luke_3 -->
<g id="edge9" class="edge"><title>Luke_2&#45;&gt;Luke_3</title>
<path fill="none" stroke="black" d="M419,-310.4C419,-293.071 419,-265.123 419,-247.784"/>
</g>
<!-- Luke_5 -->
<g id="node16" class="node"><title>Luke_5</title>
<ellipse fill="none" stroke="#7570b3" cx="419" cy="-40.2635" rx="34.7971" ry="16.0303"/>
<text text-anchor="middle" x="419" y="-36.5635" font-family="Times,serif" font-size="14.00">Lucas</text>
</g>
<!-- Luke_3&#45;&gt;Luke_5 -->
<g id="edge14" class="edge"><title>Luke_3&#45;&gt;Luke_5</title>
<path fill="none" stroke="black" d="M419,-214.846C419,-179.307 419,-92.1726 419,-56.6832"/>
</g>
<!-- Will_1 -->
<g id="node17" class="node"><title>Will_1</title>
<ellipse fill="none" stroke="#e7298a" cx="337" cy="-422.371" rx="28.9828" ry="16.0303"/>
<text text-anchor="middle" x="337" y="-418.671" font-family="Times,serif" font-size="14.00">Will</text>
</g>
<!-- Will_2 -->
<g id="node18" class="node"><title>Will_2</title>
<ellipse fill="none" stroke="#e7298a" cx="337" cy="-326.844" rx="28.9828" ry="16.0303"/>
<text text-anchor="middle" x="337" y="-323.144" font-family="Times,serif" font-size="14.00">Will</text>
</g>
<!-- Will_1&#45;&gt;Will_2 -->
<g id="edge8" class="edge"><title>Will_1&#45;&gt;Will_2</title>
<path fill="none" stroke="black" d="M337,-405.927C337,-388.598 337,-360.65 337,-343.311"/>
</g>
<!-- Will_3 -->
<g id="node19" class="node"><title>Will_3</title>
<ellipse fill="none" stroke="#e7298a" cx="337" cy="-231.317" rx="28.9828" ry="16.0303"/>
<text text-anchor="middle" x="337" y="-227.617" font-family="Times,serif" font-size="14.00">Will</text>
</g>
<!-- Will_2&#45;&gt;Will_3 -->
<g id="edge11" class="edge"><title>Will_2&#45;&gt;Will_3</title>
<path fill="none" stroke="black" d="M337,-310.4C337,-293.071 337,-265.123 337,-247.784"/>
</g>
<!-- Will_4 -->
<g id="node20" class="node"><title>Will_4</title>
<ellipse fill="none" stroke="#e7298a" cx="337" cy="-135.79" rx="28.9828" ry="16.0303"/>
<text text-anchor="middle" x="337" y="-132.09" font-family="Times,serif" font-size="14.00">Will</text>
</g>
<!-- Will_3&#45;&gt;Will_4 -->
<g id="edge12" class="edge"><title>Will_3&#45;&gt;Will_4</title>
<path fill="none" stroke="black" d="M337,-214.873C337,-197.544 337,-169.596 337,-152.257"/>
</g>
<!-- Nancy_2 -->
<g id="node21" class="node"><title>Nancy_2</title>
<ellipse fill="none" stroke="#66a61e" cx="253" cy="-326.844" rx="36.5405" ry="16.0303"/>
<text text-anchor="middle" x="253" y="-323.144" font-family="Times,serif" font-size="14.00">Nancy</text>
</g>
<!-- Jonathan_1 -->
<g id="node22" class="node"><title>Jonathan_1</title>
<ellipse fill="none" stroke="#e6ab02" cx="700" cy="-422.371" rx="45.9239" ry="16.0303"/>
<text text-anchor="middle" x="700" y="-418.671" font-family="Times,serif" font-size="14.00">Jonathan</text>
</g>
<!-- Karen_2 -->
<g id="node23" class="node"><title>Karen_2</title>
<ellipse fill="none" stroke="#7fc97f" cx="163" cy="-326.844" rx="35.2113" ry="16.0303"/>
<text text-anchor="middle" x="163" y="-323.144" font-family="Times,serif" font-size="14.00">Karen</text>
</g>
<!-- Ted_2 -->
<g id="node24" class="node"><title>Ted_2</title>
<ellipse fill="none" stroke="#beaed4" cx="83" cy="-326.844" rx="26.7407" ry="16.0303"/>
<text text-anchor="middle" x="83" y="-323.144" font-family="Times,serif" font-size="14.00">Ted</text>
</g>
<!-- Monster_4 -->
<g id="node25" class="node"><title>Monster_4</title>
<ellipse fill="none" stroke="#b3e2cd" cx="226" cy="-135.79" rx="61.5366" ry="16.0303"/>
<text text-anchor="middle" x="226" y="-132.09" font-family="Times,serif" font-size="14.00">The Monster</text>
</g>
</g>
</svg>
