<?xml version="1.0" encoding="UTF-8" standalone="no"?>
<!DOCTYPE svg PUBLIC "-//W3C//DTD SVG 1.1//EN"
 "http://www.w3.org/Graphics/SVG/1.1/DTD/svg11.dtd">
<!-- Generated by graphviz version 2.38.0 (20140413.2041)
 -->
<!-- Title: %3 Pages: 1 -->
<svg width="1797pt" height="1369pt"
 viewBox="0.00 0.00 1797.39 1369.00" xmlns="http://www.w3.org/2000/svg" xmlns:xlink="http://www.w3.org/1999/xlink">
<g id="graph0" class="graph" transform="scale(1 1) rotate(0) translate(4 1365)">
<title>%3</title>
<polygon fill="white" stroke="none" points="-4,4 -4,-1365 1793.39,-1365 1793.39,4 -4,4"/>
<g id="clust26" class="cluster"><title>cluster_epoch_1</title>
<polygon fill="none" stroke="black" points="1088.39,-1275 1088.39,-1353 1396.39,-1353 1396.39,-1275 1088.39,-1275"/>
</g>
<g id="clust27" class="cluster"><title>cluster_epoch_1_0</title>
<polygon fill="none" stroke="black" points="1128.39,-1283 1128.39,-1345 1388.39,-1345 1388.39,-1283 1128.39,-1283"/>
<text text-anchor="middle" x="1258.39" y="-1329.8" font-family="Times,serif" font-size="14.00">Wheeler Basement: Dungeons and Dragons</text>
</g>
<g id="clust28" class="cluster"><title>cluster_epoch_2</title>
<polygon fill="none" stroke="black" points="1088.39,-1189 1088.39,-1267 1590.39,-1267 1590.39,-1189 1088.39,-1189"/>
</g>
<g id="clust29" class="cluster"><title>cluster_epoch_2_0</title>
<polygon fill="none" stroke="black" points="1128.39,-1197 1128.39,-1259 1582.39,-1259 1582.39,-1197 1128.39,-1197"/>
<text text-anchor="middle" x="1355.39" y="-1243.8" font-family="Times,serif" font-size="14.00">Wheeler Residence: Players Disperse</text>
</g>
<g id="clust30" class="cluster"><title>cluster_epoch_3</title>
<polygon fill="none" stroke="black" points="1088.39,-1103 1088.39,-1181 1332.39,-1181 1332.39,-1103 1088.39,-1103"/>
</g>
<g id="clust31" class="cluster"><title>cluster_epoch_3_0</title>
<polygon fill="none" stroke="black" points="1128.39,-1111 1128.39,-1173 1324.39,-1173 1324.39,-1111 1128.39,-1111"/>
<text text-anchor="middle" x="1226.39" y="-1157.8" font-family="Times,serif" font-size="14.00">Rural Hawkins: Biking Home</text>
</g>
<g id="clust32" class="cluster"><title>cluster_epoch_4</title>
<polygon fill="none" stroke="black" points="919.393,-1017 919.393,-1095 1212.39,-1095 1212.39,-1017 919.393,-1017"/>
</g>
<g id="clust33" class="cluster"><title>cluster_epoch_4_0</title>
<polygon fill="none" stroke="black" points="957.393,-1025 957.393,-1087 1204.39,-1087 1204.39,-1025 957.393,-1025"/>
<text text-anchor="middle" x="1080.89" y="-1071.8" font-family="Times,serif" font-size="14.00">Byers Residence: Will Meets the Monster</text>
</g>
<g id="clust34" class="cluster"><title>cluster_epoch_5</title>
<polygon fill="none" stroke="black" points="1071.39,-931 1071.39,-1009 1629.39,-1009 1629.39,-931 1071.39,-931"/>
</g>
<g id="clust35" class="cluster"><title>cluster_epoch_5_0</title>
<polygon fill="none" stroke="black" points="1109.39,-939 1109.39,-1001 1333.39,-1001 1333.39,-939 1109.39,-939"/>
<text text-anchor="middle" x="1221.39" y="-985.8" font-family="Times,serif" font-size="14.00">Hawkins Middle School: Two Bullies</text>
</g>
<g id="clust36" class="cluster"><title>cluster_epoch_5_1</title>
<polygon fill="none" stroke="black" points="1341.39,-939 1341.39,-1001 1621.39,-1001 1621.39,-939 1341.39,-939"/>
<text text-anchor="middle" x="1481.39" y="-985.8" font-family="Times,serif" font-size="14.00">Byers Residence: Will is Missing</text>
</g>
<g id="clust37" class="cluster"><title>cluster_epoch_6</title>
<polygon fill="none" stroke="black" points="1513.39,-830 1513.39,-908 1771.39,-908 1771.39,-830 1513.39,-830"/>
</g>
<g id="clust38" class="cluster"><title>cluster_epoch_6_0</title>
<polygon fill="none" stroke="black" points="1551.39,-838 1551.39,-900 1763.39,-900 1763.39,-838 1551.39,-838"/>
<text text-anchor="middle" x="1657.39" y="-884.8" font-family="Times,serif" font-size="14.00">Hawkins High School: The Lockers</text>
</g>
<g id="clust39" class="cluster"><title>cluster_epoch_7</title>
<polygon fill="none" stroke="black" points="1513.39,-729 1513.39,-807 1743.39,-807 1743.39,-729 1513.39,-729"/>
</g>
<g id="clust40" class="cluster"><title>cluster_epoch_7_0</title>
<polygon fill="none" stroke="black" points="1551.39,-737 1551.39,-799 1735.39,-799 1735.39,-737 1551.39,-737"/>
<text text-anchor="middle" x="1643.39" y="-783.8" font-family="Times,serif" font-size="14.00">Bathroom: Romantic Planning</text>
</g>
<g id="clust41" class="cluster"><title>cluster_epoch_8</title>
<polygon fill="none" stroke="black" points="575.393,-830 575.393,-923 1085.39,-923 1085.39,-830 575.393,-830"/>
</g>
<g id="clust42" class="cluster"><title>cluster_epoch_8_0</title>
<polygon fill="none" stroke="black" points="583.393,-838 583.393,-915 1044.39,-915 1044.39,-838 583.393,-838"/>
<text text-anchor="middle" x="813.893" y="-899.8" font-family="Times,serif" font-size="14.00">Hawkins Police Department: Chief Arrives</text>
<text text-anchor="middle" x="813.893" y="-884.8" font-family="Times,serif" font-size="14.00">Late, Joyce Byers&#39; Son is Missing</text>
</g>
<g id="clust43" class="cluster"><title>cluster_epoch_9</title>
<polygon fill="none" stroke="black" points="17.3931,-830 17.3931,-923 539.393,-923 539.393,-830 17.3931,-830"/>
</g>
<g id="clust44" class="cluster"><title>cluster_epoch_9_0</title>
<polygon fill="none" stroke="black" points="296.393,-838 296.393,-915 531.393,-915 531.393,-838 296.393,-838"/>
<text text-anchor="middle" x="413.893" y="-899.8" font-family="Times,serif" font-size="14.00">Hawkins Lab: Gowning Up, Quarantine</text>
<text text-anchor="middle" x="413.893" y="-884.8" font-family="Times,serif" font-size="14.00">Protocol, Investigating Slime</text>
</g>
<g id="clust45" class="cluster"><title>cluster_epoch_9_1</title>
<polygon fill="none" stroke="black" points="25.3931,-838 25.3931,-900 258.393,-900 258.393,-838 25.3931,-838"/>
<text text-anchor="middle" x="141.893" y="-884.8" font-family="Times,serif" font-size="14.00">Benny&#39;s Restaurant: Eleven Steals Food</text>
</g>
<g id="clust46" class="cluster"><title>cluster_epoch_10</title>
<polygon fill="none" stroke="black" points="1093.39,-830 1093.39,-923 1437.39,-923 1437.39,-830 1093.39,-830"/>
</g>
<g id="clust47" class="cluster"><title>cluster_epoch_10_0</title>
<polygon fill="none" stroke="black" points="1132.39,-838 1132.39,-915 1429.39,-915 1429.39,-838 1132.39,-838"/>
<text text-anchor="middle" x="1280.89" y="-899.8" font-family="Times,serif" font-size="14.00">Hawkins Middle School: Class Lets Out,</text>
<text text-anchor="middle" x="1280.89" y="-884.8" font-family="Times,serif" font-size="14.00">New HAM Equipment Arrived</text>
</g>
<g id="clust48" class="cluster"><title>cluster_epoch_11</title>
<polygon fill="none" stroke="black" points="903.393,-729 903.393,-807 1341.39,-807 1341.39,-729 903.393,-729"/>
</g>
<g id="clust49" class="cluster"><title>cluster_epoch_11_0</title>
<polygon fill="none" stroke="black" points="942.393,-737 942.393,-799 1333.39,-799 1333.39,-737 942.393,-737"/>
<text text-anchor="middle" x="1137.89" y="-783.8" font-family="Times,serif" font-size="14.00">Hawkins Middle School: Interrogation</text>
</g>
<g id="clust50" class="cluster"><title>cluster_epoch_12</title>
<polygon fill="none" stroke="black" points="199.393,-729 199.393,-822 710.393,-822 710.393,-729 199.393,-729"/>
</g>
<g id="clust51" class="cluster"><title>cluster_epoch_12_0</title>
<polygon fill="none" stroke="black" points="448.393,-737 448.393,-799 672.393,-799 672.393,-737 448.393,-737"/>
<text text-anchor="middle" x="560.393" y="-783.8" font-family="Times,serif" font-size="14.00">Castle Byers: Castle Byers, Flashback</text>
</g>
<g id="clust52" class="cluster"><title>cluster_epoch_12_1</title>
<polygon fill="none" stroke="black" points="207.393,-737 207.393,-814 440.393,-814 440.393,-737 207.393,-737"/>
<text text-anchor="middle" x="323.893" y="-798.8" font-family="Times,serif" font-size="14.00">Benny&#39;s Restaurant: Benny Tries to Get</text>
<text text-anchor="middle" x="323.893" y="-783.8" font-family="Times,serif" font-size="14.00">Answers</text>
</g>
<g id="clust53" class="cluster"><title>cluster_epoch_13</title>
<polygon fill="none" stroke="black" points="858.393,-628 858.393,-721 1218.39,-721 1218.39,-628 858.393,-628"/>
</g>
<g id="clust54" class="cluster"><title>cluster_epoch_13_0</title>
<polygon fill="none" stroke="black" points="898.393,-636 898.393,-713 1210.39,-713 1210.39,-636 898.393,-636"/>
<text text-anchor="middle" x="1054.39" y="-697.8" font-family="Times,serif" font-size="14.00">Hawkins Woods: Hopper Finds Will&#39;s</text>
<text text-anchor="middle" x="1054.39" y="-682.8" font-family="Times,serif" font-size="14.00">Bicycle</text>
</g>
<g id="clust55" class="cluster"><title>cluster_epoch_14</title>
<polygon fill="none" stroke="black" points="575.393,-628 575.393,-721 850.393,-721 850.393,-628 575.393,-628"/>
</g>
<g id="clust57" class="cluster"><title>cluster_epoch_14_1</title>
<polygon fill="none" stroke="black" points="613.393,-636 613.393,-713 842.393,-713 842.393,-636 613.393,-636"/>
<text text-anchor="middle" x="727.893" y="-697.8" font-family="Times,serif" font-size="14.00">Byers Residence: Joyce Tries to Reach</text>
<text text-anchor="middle" x="727.893" y="-682.8" font-family="Times,serif" font-size="14.00">Lonnie</text>
</g>
<g id="clust58" class="cluster"><title>cluster_epoch_15</title>
<polygon fill="none" stroke="black" points="709.393,-527 709.393,-620 1218.39,-620 1218.39,-527 709.393,-527"/>
</g>
<g id="clust59" class="cluster"><title>cluster_epoch_15_0</title>
<polygon fill="none" stroke="black" points="749.393,-535 749.393,-612 1210.39,-612 1210.39,-535 749.393,-535"/>
<text text-anchor="middle" x="979.893" y="-596.8" font-family="Times,serif" font-size="14.00">Byers Residence: Police Arrive with</text>
<text text-anchor="middle" x="979.893" y="-581.8" font-family="Times,serif" font-size="14.00">Bike, Hopper Searches Byers Residence</text>
</g>
<g id="clust60" class="cluster"><title>cluster_epoch_16</title>
<polygon fill="none" stroke="black" points="874.393,-426 874.393,-519 1234.39,-519 1234.39,-426 874.393,-426"/>
</g>
<g id="clust61" class="cluster"><title>cluster_epoch_16_0</title>
<polygon fill="none" stroke="black" points="914.393,-434 914.393,-511 1226.39,-511 1226.39,-434 914.393,-434"/>
<text text-anchor="middle" x="1070.39" y="-495.8" font-family="Times,serif" font-size="14.00">Byers Residence: Hopper Experiences</text>
<text text-anchor="middle" x="1070.39" y="-480.8" font-family="Times,serif" font-size="14.00">Something in Shed, Calls for a Search</text>
</g>
<g id="clust62" class="cluster"><title>cluster_epoch_17</title>
<polygon fill="none" stroke="black" points="874.393,-325 874.393,-418 1660.39,-418 1660.39,-325 874.393,-325"/>
</g>
<g id="clust63" class="cluster"><title>cluster_epoch_17_0</title>
<polygon fill="none" stroke="black" points="1330.39,-333 1330.39,-410 1652.39,-410 1652.39,-333 1330.39,-333"/>
<text text-anchor="middle" x="1491.39" y="-394.8" font-family="Times,serif" font-size="14.00">Wheeler Residence: Nancy and Mike Argue,</text>
<text text-anchor="middle" x="1491.39" y="-379.8" font-family="Times,serif" font-size="14.00">Disrupt Dinner</text>
</g>
<g id="clust64" class="cluster"><title>cluster_epoch_17_1</title>
<polygon fill="none" stroke="black" points="914.393,-333 914.393,-395 1322.39,-395 1322.39,-333 914.393,-333"/>
<text text-anchor="middle" x="1118.39" y="-379.8" font-family="Times,serif" font-size="14.00">Hawkins Woods: Search Party</text>
</g>
<g id="clust65" class="cluster"><title>cluster_epoch_18</title>
<polygon fill="none" stroke="black" points="459.393,-209 459.393,-317 1275.39,-317 1275.39,-209 459.393,-209"/>
</g>
<g id="clust66" class="cluster"><title>cluster_epoch_18_0</title>
<polygon fill="none" stroke="black" points="799.393,-217 799.393,-294 1043.39,-294 1043.39,-217 799.393,-217"/>
<text text-anchor="middle" x="921.393" y="-278.8" font-family="Times,serif" font-size="14.00">Wheeler Residence: Mike Theorizes with</text>
<text text-anchor="middle" x="921.393" y="-263.8" font-family="Times,serif" font-size="14.00">Lucas about Will</text>
</g>
<g id="clust67" class="cluster"><title>cluster_epoch_18_1</title>
<polygon fill="none" stroke="black" points="1051.39,-217 1051.39,-294 1267.39,-294 1267.39,-217 1051.39,-217"/>
<text text-anchor="middle" x="1159.39" y="-278.8" font-family="Times,serif" font-size="14.00">Wheeler Residence: Steve Crawls in</text>
<text text-anchor="middle" x="1159.39" y="-263.8" font-family="Times,serif" font-size="14.00">Through Nancy&#39;s Window</text>
</g>
<g id="clust68" class="cluster"><title>cluster_epoch_18_2</title>
<polygon fill="none" stroke="black" points="467.393,-217 467.393,-309 759.393,-309 759.393,-217 467.393,-217"/>
<text text-anchor="middle" x="613.393" y="-293.8" font-family="Times,serif" font-size="14.00">Benny&#39;s Restaurant: Social Services</text>
<text text-anchor="middle" x="613.393" y="-278.8" font-family="Times,serif" font-size="14.00">Arrives Early, Benny is Shot, Eleven</text>
<text text-anchor="middle" x="613.393" y="-263.8" font-family="Times,serif" font-size="14.00">Escapes from Bad Men</text>
</g>
<g id="clust69" class="cluster"><title>cluster_epoch_19</title>
<polygon fill="none" stroke="black" points="674.393,-8 674.393,-201 1201.39,-201 1201.39,-8 674.393,-8"/>
</g>
<g id="clust70" class="cluster"><title>cluster_epoch_19_0</title>
<polygon fill="none" stroke="black" points="712.393,-116 712.393,-193 951.393,-193 951.393,-116 712.393,-116"/>
<text text-anchor="middle" x="831.893" y="-177.8" font-family="Times,serif" font-size="14.00">Hawkins Woods: The Party Searches for</text>
<text text-anchor="middle" x="831.893" y="-162.8" font-family="Times,serif" font-size="14.00">Will</text>
</g>
<g id="clust71" class="cluster"><title>cluster_epoch_19_1</title>
<polygon fill="none" stroke="black" points="959.393,-116 959.393,-193 1193.39,-193 1193.39,-116 959.393,-116"/>
<text text-anchor="middle" x="1076.39" y="-177.8" font-family="Times,serif" font-size="14.00">Wheeler Residence: Steve Helps Nancy</text>
<text text-anchor="middle" x="1076.39" y="-162.8" font-family="Times,serif" font-size="14.00">Study</text>
</g>
<g id="clust72" class="cluster"><title>cluster_epoch_19_2</title>
<polygon fill="none" stroke="black" points="682.393,-16 682.393,-108 918.393,-108 918.393,-16 682.393,-16"/>
<text text-anchor="middle" x="800.393" y="-92.8" font-family="Times,serif" font-size="14.00">Byers Residence: Joyce, Jonathan look</text>
<text text-anchor="middle" x="800.393" y="-77.8" font-family="Times,serif" font-size="14.00">for Photos of Will, Get a Strange Phone</text>
<text text-anchor="middle" x="800.393" y="-62.8" font-family="Times,serif" font-size="14.00">Call</text>
</g>
<g id="clust73" class="cluster"><title>cluster_epoch_20</title>
<polygon fill="none" stroke="black" points="1209.39,-8 1209.39,-101 1529.39,-101 1529.39,-8 1209.39,-8"/>
</g>
<g id="clust74" class="cluster"><title>cluster_epoch_20_0</title>
<polygon fill="none" stroke="black" points="1248.39,-16 1248.39,-93 1521.39,-93 1521.39,-16 1248.39,-16"/>
<text text-anchor="middle" x="1384.89" y="-77.8" font-family="Times,serif" font-size="14.00">Hawkins Woods: The Party Discoveres</text>
<text text-anchor="middle" x="1384.89" y="-62.8" font-family="Times,serif" font-size="14.00">Eleven in the Rain</text>
</g>
<!-- epoch_1 -->
<!-- epoch_2 -->
<!-- epoch_1&#45;&gt;epoch_2 -->
<!-- epoch_3 -->
<!-- epoch_2&#45;&gt;epoch_3 -->
<!-- epoch_4 -->
<!-- epoch_3&#45;&gt;epoch_4 -->
<!-- epoch_5 -->
<!-- epoch_4&#45;&gt;epoch_5 -->
<!-- epoch_6 -->
<!-- epoch_5&#45;&gt;epoch_6 -->
<!-- epoch_7 -->
<!-- epoch_6&#45;&gt;epoch_7 -->
<!-- epoch_8 -->
<!-- epoch_7&#45;&gt;epoch_8 -->
<!-- epoch_9 -->
<!-- epoch_8&#45;&gt;epoch_9 -->
<!-- epoch_10 -->
<!-- epoch_9&#45;&gt;epoch_10 -->
<!-- epoch_11 -->
<!-- epoch_10&#45;&gt;epoch_11 -->
<!-- epoch_12 -->
<!-- epoch_11&#45;&gt;epoch_12 -->
<!-- epoch_13 -->
<!-- epoch_12&#45;&gt;epoch_13 -->
<!-- epoch_14 -->
<!-- epoch_13&#45;&gt;epoch_14 -->
<!-- epoch_15 -->
<!-- epoch_14&#45;&gt;epoch_15 -->
<!-- epoch_16 -->
<!-- epoch_15&#45;&gt;epoch_16 -->
<!-- epoch_17 -->
<!-- epoch_16&#45;&gt;epoch_17 -->
<!-- epoch_18 -->
<!-- epoch_17&#45;&gt;epoch_18 -->
<!-- epoch_19 -->
<!-- epoch_18&#45;&gt;epoch_19 -->
<!-- epoch_20 -->
<!-- epoch_19&#45;&gt;epoch_20 -->
<!-- Ted_epoch_2_0 -->
<g id="node21" class="node"><title>Ted_epoch_2_0</title>
<path fill="none" stroke="#1b9e77" d="M1566.73,-1228C1566.73,-1228 1544.06,-1228 1544.06,-1228 1540.23,-1228 1536.39,-1224.17 1536.39,-1220.33 1536.39,-1220.33 1536.39,-1212.67 1536.39,-1212.67 1536.39,-1208.83 1540.23,-1205 1544.06,-1205 1544.06,-1205 1566.73,-1205 1566.73,-1205 1570.56,-1205 1574.39,-1208.83 1574.39,-1212.67 1574.39,-1212.67 1574.39,-1220.33 1574.39,-1220.33 1574.39,-1224.17 1570.56,-1228 1566.73,-1228"/>
<text text-anchor="middle" x="1555.39" y="-1212.8" font-family="Times,serif" font-size="14.00">Ted</text>
</g>
<!-- Ted_epoch_17_0 -->
<g id="node22" class="node"><title>Ted_epoch_17_0</title>
<path fill="none" stroke="#1b9e77" d="M1636.73,-364C1636.73,-364 1614.06,-364 1614.06,-364 1610.23,-364 1606.39,-360.167 1606.39,-356.333 1606.39,-356.333 1606.39,-348.667 1606.39,-348.667 1606.39,-344.833 1610.23,-341 1614.06,-341 1614.06,-341 1636.73,-341 1636.73,-341 1640.56,-341 1644.39,-344.833 1644.39,-348.667 1644.39,-348.667 1644.39,-356.333 1644.39,-356.333 1644.39,-360.167 1640.56,-364 1636.73,-364"/>
<text text-anchor="middle" x="1625.39" y="-348.8" font-family="Times,serif" font-size="14.00">Ted</text>
</g>
<!-- Ted_epoch_2_0&#45;&gt;Ted_epoch_17_0 -->
<g id="edge20" class="edge"><title>Ted_epoch_2_0&#45;&gt;Ted_epoch_17_0</title>
<path fill="none" stroke="#1b9e77" d="M1574.54,-1211.41C1630.43,-1198.24 1789.39,-1151.45 1789.39,-1045.5 1789.39,-1045.5 1789.39,-1045.5 1789.39,-654.5 1789.39,-526.256 1673.18,-400.627 1636.41,-364.088"/>
</g>
<!-- Eleven_epoch_9_1 -->
<g id="node23" class="node"><title>Eleven_epoch_9_1</title>
<path fill="none" stroke="#d95f02" d="M170.726,-869C170.726,-869 132.06,-869 132.06,-869 128.226,-869 124.393,-865.167 124.393,-861.333 124.393,-861.333 124.393,-853.667 124.393,-853.667 124.393,-849.833 128.226,-846 132.06,-846 132.06,-846 170.726,-846 170.726,-846 174.56,-846 178.393,-849.833 178.393,-853.667 178.393,-853.667 178.393,-861.333 178.393,-861.333 178.393,-865.167 174.56,-869 170.726,-869"/>
<text text-anchor="middle" x="151.393" y="-853.8" font-family="Times,serif" font-size="14.00">Eleven</text>
</g>
<!-- Eleven_epoch_12_1 -->
<g id="node24" class="node"><title>Eleven_epoch_12_1</title>
<path fill="none" stroke="#d95f02" d="M284.726,-768C284.726,-768 246.06,-768 246.06,-768 242.226,-768 238.393,-764.167 238.393,-760.333 238.393,-760.333 238.393,-752.667 238.393,-752.667 238.393,-748.833 242.226,-745 246.06,-745 246.06,-745 284.726,-745 284.726,-745 288.56,-745 292.393,-748.833 292.393,-752.667 292.393,-752.667 292.393,-760.333 292.393,-760.333 292.393,-764.167 288.56,-768 284.726,-768"/>
<text text-anchor="middle" x="265.393" y="-752.8" font-family="Times,serif" font-size="14.00">Eleven</text>
</g>
<!-- Eleven_epoch_9_1&#45;&gt;Eleven_epoch_12_1 -->
<g id="edge21" class="edge"><title>Eleven_epoch_9_1&#45;&gt;Eleven_epoch_12_1</title>
<path fill="none" stroke="#d95f02" d="M163.593,-845.905C185.535,-826.851 231.403,-787.018 253.281,-768.019"/>
</g>
<!-- Eleven_epoch_18_2 -->
<g id="node25" class="node"><title>Eleven_epoch_18_2</title>
<path fill="none" stroke="#d95f02" d="M521.726,-248C521.726,-248 483.06,-248 483.06,-248 479.226,-248 475.393,-244.167 475.393,-240.333 475.393,-240.333 475.393,-232.667 475.393,-232.667 475.393,-228.833 479.226,-225 483.06,-225 483.06,-225 521.726,-225 521.726,-225 525.56,-225 529.393,-228.833 529.393,-232.667 529.393,-232.667 529.393,-240.333 529.393,-240.333 529.393,-244.167 525.56,-248 521.726,-248"/>
<text text-anchor="middle" x="502.393" y="-232.8" font-family="Times,serif" font-size="14.00">Eleven</text>
</g>
<!-- Eleven_epoch_12_1&#45;&gt;Eleven_epoch_18_2 -->
<g id="edge22" class="edge"><title>Eleven_epoch_12_1&#45;&gt;Eleven_epoch_18_2</title>
<path fill="none" stroke="#d95f02" d="M292.496,-745.221C350.081,-721.417 479.393,-656.696 479.393,-555.5 479.393,-555.5 479.393,-555.5 479.393,-452.5 479.393,-373.667 494.87,-279.493 500.432,-248.195"/>
</g>
<!-- Eleven_epoch_20_0 -->
<g id="node26" class="node"><title>Eleven_epoch_20_0</title>
<path fill="none" stroke="#d95f02" d="M1505.73,-47C1505.73,-47 1467.06,-47 1467.06,-47 1463.23,-47 1459.39,-43.1667 1459.39,-39.3333 1459.39,-39.3333 1459.39,-31.6667 1459.39,-31.6667 1459.39,-27.8333 1463.23,-24 1467.06,-24 1467.06,-24 1505.73,-24 1505.73,-24 1509.56,-24 1513.39,-27.8333 1513.39,-31.6667 1513.39,-31.6667 1513.39,-39.3333 1513.39,-39.3333 1513.39,-43.1667 1509.56,-47 1505.73,-47"/>
<text text-anchor="middle" x="1486.39" y="-31.8" font-family="Times,serif" font-size="14.00">Eleven</text>
</g>
<!-- Eleven_epoch_18_2&#45;&gt;Eleven_epoch_20_0 -->
<g id="edge23" class="edge"><title>Eleven_epoch_18_2&#45;&gt;Eleven_epoch_20_0</title>
<path fill="none" stroke="#d95f02" d="M513.019,-224.89C519.693,-218.989 528.827,-212.206 538.393,-209 573.11,-197.366 1161.39,-207.634 1197.39,-201 1315.21,-179.293 1360.99,-187.74 1450.39,-108 1469.17,-91.2566 1479.39,-62.4471 1483.77,-47.0036"/>
</g>
<!-- Holly_epoch_5_1 -->
<g id="node27" class="node"><title>Holly_epoch_5_1</title>
<path fill="none" stroke="#7570b3" d="M1537.23,-970C1537.23,-970 1505.56,-970 1505.56,-970 1501.73,-970 1497.89,-966.167 1497.89,-962.333 1497.89,-962.333 1497.89,-954.667 1497.89,-954.667 1497.89,-950.833 1501.73,-947 1505.56,-947 1505.56,-947 1537.23,-947 1537.23,-947 1541.06,-947 1544.89,-950.833 1544.89,-954.667 1544.89,-954.667 1544.89,-962.333 1544.89,-962.333 1544.89,-966.167 1541.06,-970 1537.23,-970"/>
<text text-anchor="middle" x="1521.39" y="-954.8" font-family="Times,serif" font-size="14.00">Holly</text>
</g>
<!-- Holly_epoch_17_0 -->
<g id="node28" class="node"><title>Holly_epoch_17_0</title>
<path fill="none" stroke="#7570b3" d="M1442.23,-364C1442.23,-364 1410.56,-364 1410.56,-364 1406.73,-364 1402.89,-360.167 1402.89,-356.333 1402.89,-356.333 1402.89,-348.667 1402.89,-348.667 1402.89,-344.833 1406.73,-341 1410.56,-341 1410.56,-341 1442.23,-341 1442.23,-341 1446.06,-341 1449.89,-344.833 1449.89,-348.667 1449.89,-348.667 1449.89,-356.333 1449.89,-356.333 1449.89,-360.167 1446.06,-364 1442.23,-364"/>
<text text-anchor="middle" x="1426.39" y="-348.8" font-family="Times,serif" font-size="14.00">Holly</text>
</g>
<!-- Holly_epoch_5_1&#45;&gt;Holly_epoch_17_0 -->
<g id="edge24" class="edge"><title>Holly_epoch_5_1&#45;&gt;Holly_epoch_17_0</title>
<path fill="none" stroke="#7570b3" d="M1508.67,-946.876C1502.81,-942.014 1495.77,-936.191 1489.39,-931 1484.98,-927.407 1482.22,-927.939 1479.39,-923 1442.46,-858.501 1455.39,-831.825 1455.39,-757.5 1455.39,-757.5 1455.39,-757.5 1455.39,-553.5 1455.39,-480.522 1436.25,-394.102 1429.07,-364.26"/>
</g>
<!-- Jonathan_epoch_5_1 -->
<g id="node29" class="node"><title>Jonathan_epoch_5_1</title>
<path fill="none" stroke="#e7298a" d="M1407.23,-970C1407.23,-970 1357.56,-970 1357.56,-970 1353.73,-970 1349.89,-966.167 1349.89,-962.333 1349.89,-962.333 1349.89,-954.667 1349.89,-954.667 1349.89,-950.833 1353.73,-947 1357.56,-947 1357.56,-947 1407.23,-947 1407.23,-947 1411.06,-947 1414.89,-950.833 1414.89,-954.667 1414.89,-954.667 1414.89,-962.333 1414.89,-962.333 1414.89,-966.167 1411.06,-970 1407.23,-970"/>
<text text-anchor="middle" x="1382.39" y="-954.8" font-family="Times,serif" font-size="14.00">Jonathan</text>
</g>
<!-- Jonathan_epoch_12_0 -->
<g id="node30" class="node"><title>Jonathan_epoch_12_0</title>
<path fill="none" stroke="#e7298a" d="M581.226,-768C581.226,-768 531.56,-768 531.56,-768 527.726,-768 523.893,-764.167 523.893,-760.333 523.893,-760.333 523.893,-752.667 523.893,-752.667 523.893,-748.833 527.726,-745 531.56,-745 531.56,-745 581.226,-745 581.226,-745 585.06,-745 588.893,-748.833 588.893,-752.667 588.893,-752.667 588.893,-760.333 588.893,-760.333 588.893,-764.167 585.06,-768 581.226,-768"/>
<text text-anchor="middle" x="556.393" y="-752.8" font-family="Times,serif" font-size="14.00">Jonathan</text>
</g>
<!-- Jonathan_epoch_5_1&#45;&gt;Jonathan_epoch_12_0 -->
<g id="edge25" class="edge"><title>Jonathan_epoch_5_1&#45;&gt;Jonathan_epoch_12_0</title>
<path fill="none" stroke="#e7298a" d="M1368.67,-946.857C1360.18,-940.944 1348.75,-934.16 1337.39,-931 1317.11,-925.355 595.201,-936.91 579.393,-923 533.878,-882.948 547.35,-797.985 553.832,-768.137"/>
</g>
<!-- Jonathan_epoch_15_0 -->
<g id="node31" class="node"><title>Jonathan_epoch_15_0</title>
<path fill="none" stroke="#e7298a" d="M815.226,-566C815.226,-566 765.56,-566 765.56,-566 761.726,-566 757.893,-562.167 757.893,-558.333 757.893,-558.333 757.893,-550.667 757.893,-550.667 757.893,-546.833 761.726,-543 765.56,-543 765.56,-543 815.226,-543 815.226,-543 819.06,-543 822.893,-546.833 822.893,-550.667 822.893,-550.667 822.893,-558.333 822.893,-558.333 822.893,-562.167 819.06,-566 815.226,-566"/>
<text text-anchor="middle" x="790.393" y="-550.8" font-family="Times,serif" font-size="14.00">Jonathan</text>
</g>
<!-- Jonathan_epoch_12_0&#45;&gt;Jonathan_epoch_15_0 -->
<g id="edge26" class="edge"><title>Jonathan_epoch_12_0&#45;&gt;Jonathan_epoch_15_0</title>
<path fill="none" stroke="#e7298a" d="M553.712,-744.965C548.141,-720.314 538.415,-658.649 571.393,-628 586.22,-614.22 736.104,-630.528 753.393,-620 773.13,-607.982 783.356,-581.236 787.721,-566.234"/>
</g>
<!-- Jonathan_epoch_19_2 -->
<g id="node32" class="node"><title>Jonathan_epoch_19_2</title>
<path fill="none" stroke="#e7298a" d="M807.226,-47C807.226,-47 757.56,-47 757.56,-47 753.726,-47 749.893,-43.1667 749.893,-39.3333 749.893,-39.3333 749.893,-31.6667 749.893,-31.6667 749.893,-27.8333 753.726,-24 757.56,-24 757.56,-24 807.226,-24 807.226,-24 811.06,-24 814.893,-27.8333 814.893,-31.6667 814.893,-31.6667 814.893,-39.3333 814.893,-39.3333 814.893,-43.1667 811.06,-47 807.226,-47"/>
<text text-anchor="middle" x="782.393" y="-31.8" font-family="Times,serif" font-size="14.00">Jonathan</text>
</g>
<!-- Jonathan_epoch_15_0&#45;&gt;Jonathan_epoch_19_2 -->
<g id="edge27" class="edge"><title>Jonathan_epoch_15_0&#45;&gt;Jonathan_epoch_19_2</title>
<path fill="none" stroke="#e7298a" d="M776.697,-542.885C769.871,-537.806 761.386,-531.8 753.393,-527 604.556,-437.607 403.393,-527.119 403.393,-353.5 403.393,-353.5 403.393,-353.5 403.393,-235.5 403.393,-191.592 440.913,-172.074 670.393,-116 685.602,-112.284 727.269,-116.538 740.393,-108 762.477,-93.6341 774.45,-63.2703 779.482,-47.1216"/>
</g>
<!-- Mike_epoch_1_0 -->
<g id="node33" class="node"><title>Mike_epoch_1_0</title>
<path fill="none" stroke="#66a61e" d="M1372.73,-1314C1372.73,-1314 1342.06,-1314 1342.06,-1314 1338.23,-1314 1334.39,-1310.17 1334.39,-1306.33 1334.39,-1306.33 1334.39,-1298.67 1334.39,-1298.67 1334.39,-1294.83 1338.23,-1291 1342.06,-1291 1342.06,-1291 1372.73,-1291 1372.73,-1291 1376.56,-1291 1380.39,-1294.83 1380.39,-1298.67 1380.39,-1298.67 1380.39,-1306.33 1380.39,-1306.33 1380.39,-1310.17 1376.56,-1314 1372.73,-1314"/>
<text text-anchor="middle" x="1357.39" y="-1298.8" font-family="Times,serif" font-size="14.00">Mike</text>
</g>
<!-- Mike_epoch_2_0 -->
<g id="node34" class="node"><title>Mike_epoch_2_0</title>
<path fill="none" stroke="#66a61e" d="M1372.73,-1228C1372.73,-1228 1342.06,-1228 1342.06,-1228 1338.23,-1228 1334.39,-1224.17 1334.39,-1220.33 1334.39,-1220.33 1334.39,-1212.67 1334.39,-1212.67 1334.39,-1208.83 1338.23,-1205 1342.06,-1205 1342.06,-1205 1372.73,-1205 1372.73,-1205 1376.56,-1205 1380.39,-1208.83 1380.39,-1212.67 1380.39,-1212.67 1380.39,-1220.33 1380.39,-1220.33 1380.39,-1224.17 1376.56,-1228 1372.73,-1228"/>
<text text-anchor="middle" x="1357.39" y="-1212.8" font-family="Times,serif" font-size="14.00">Mike</text>
</g>
<!-- Mike_epoch_1_0&#45;&gt;Mike_epoch_2_0 -->
<g id="edge28" class="edge"><title>Mike_epoch_1_0&#45;&gt;Mike_epoch_2_0</title>
<path fill="none" stroke="#66a61e" d="M1357.39,-1290.86C1357.39,-1274.7 1357.39,-1244.16 1357.39,-1228.05"/>
</g>
<!-- Mike_epoch_5_0 -->
<g id="node35" class="node"><title>Mike_epoch_5_0</title>
<path fill="none" stroke="#66a61e" d="M1317.73,-970C1317.73,-970 1287.06,-970 1287.06,-970 1283.23,-970 1279.39,-966.167 1279.39,-962.333 1279.39,-962.333 1279.39,-954.667 1279.39,-954.667 1279.39,-950.833 1283.23,-947 1287.06,-947 1287.06,-947 1317.73,-947 1317.73,-947 1321.56,-947 1325.39,-950.833 1325.39,-954.667 1325.39,-954.667 1325.39,-962.333 1325.39,-962.333 1325.39,-966.167 1321.56,-970 1317.73,-970"/>
<text text-anchor="middle" x="1302.39" y="-954.8" font-family="Times,serif" font-size="14.00">Mike</text>
</g>
<!-- Mike_epoch_2_0&#45;&gt;Mike_epoch_5_0 -->
<g id="edge29" class="edge"><title>Mike_epoch_2_0&#45;&gt;Mike_epoch_5_0</title>
<path fill="none" stroke="#66a61e" d="M1355.1,-1204.83C1346.15,-1163.19 1313.66,-1011.94 1304.7,-970.22"/>
</g>
<!-- Mike_epoch_10_0 -->
<g id="node36" class="node"><title>Mike_epoch_10_0</title>
<path fill="none" stroke="#66a61e" d="M1317.73,-869C1317.73,-869 1287.06,-869 1287.06,-869 1283.23,-869 1279.39,-865.167 1279.39,-861.333 1279.39,-861.333 1279.39,-853.667 1279.39,-853.667 1279.39,-849.833 1283.23,-846 1287.06,-846 1287.06,-846 1317.73,-846 1317.73,-846 1321.56,-846 1325.39,-849.833 1325.39,-853.667 1325.39,-853.667 1325.39,-861.333 1325.39,-861.333 1325.39,-865.167 1321.56,-869 1317.73,-869"/>
<text text-anchor="middle" x="1302.39" y="-853.8" font-family="Times,serif" font-size="14.00">Mike</text>
</g>
<!-- Mike_epoch_5_0&#45;&gt;Mike_epoch_10_0 -->
<g id="edge30" class="edge"><title>Mike_epoch_5_0&#45;&gt;Mike_epoch_10_0</title>
<path fill="none" stroke="#66a61e" d="M1302.39,-946.905C1302.39,-927.851 1302.39,-888.018 1302.39,-869.019"/>
</g>
<!-- Mike_epoch_11_0 -->
<g id="node37" class="node"><title>Mike_epoch_11_0</title>
<path fill="none" stroke="#66a61e" d="M1317.73,-768C1317.73,-768 1287.06,-768 1287.06,-768 1283.23,-768 1279.39,-764.167 1279.39,-760.333 1279.39,-760.333 1279.39,-752.667 1279.39,-752.667 1279.39,-748.833 1283.23,-745 1287.06,-745 1287.06,-745 1317.73,-745 1317.73,-745 1321.56,-745 1325.39,-748.833 1325.39,-752.667 1325.39,-752.667 1325.39,-760.333 1325.39,-760.333 1325.39,-764.167 1321.56,-768 1317.73,-768"/>
<text text-anchor="middle" x="1302.39" y="-752.8" font-family="Times,serif" font-size="14.00">Mike</text>
</g>
<!-- Mike_epoch_10_0&#45;&gt;Mike_epoch_11_0 -->
<g id="edge31" class="edge"><title>Mike_epoch_10_0&#45;&gt;Mike_epoch_11_0</title>
<path fill="none" stroke="#66a61e" d="M1302.39,-845.905C1302.39,-826.851 1302.39,-787.018 1302.39,-768.019"/>
</g>
<!-- Mike_epoch_17_0 -->
<g id="node38" class="node"><title>Mike_epoch_17_0</title>
<path fill="none" stroke="#66a61e" d="M1376.73,-364C1376.73,-364 1346.06,-364 1346.06,-364 1342.23,-364 1338.39,-360.167 1338.39,-356.333 1338.39,-356.333 1338.39,-348.667 1338.39,-348.667 1338.39,-344.833 1342.23,-341 1346.06,-341 1346.06,-341 1376.73,-341 1376.73,-341 1380.56,-341 1384.39,-344.833 1384.39,-348.667 1384.39,-348.667 1384.39,-356.333 1384.39,-356.333 1384.39,-360.167 1380.56,-364 1376.73,-364"/>
<text text-anchor="middle" x="1361.39" y="-348.8" font-family="Times,serif" font-size="14.00">Mike</text>
</g>
<!-- Mike_epoch_11_0&#45;&gt;Mike_epoch_17_0 -->
<g id="edge32" class="edge"><title>Mike_epoch_11_0&#45;&gt;Mike_epoch_17_0</title>
<path fill="none" stroke="#66a61e" d="M1303.97,-744.747C1312.35,-687.686 1351.52,-420.783 1359.84,-364.099"/>
</g>
<!-- Mike_epoch_18_0 -->
<g id="node39" class="node"><title>Mike_epoch_18_0</title>
<path fill="none" stroke="#66a61e" d="M981.726,-248C981.726,-248 951.06,-248 951.06,-248 947.226,-248 943.393,-244.167 943.393,-240.333 943.393,-240.333 943.393,-232.667 943.393,-232.667 943.393,-228.833 947.226,-225 951.06,-225 951.06,-225 981.726,-225 981.726,-225 985.56,-225 989.393,-228.833 989.393,-232.667 989.393,-232.667 989.393,-240.333 989.393,-240.333 989.393,-244.167 985.56,-248 981.726,-248"/>
<text text-anchor="middle" x="966.393" y="-232.8" font-family="Times,serif" font-size="14.00">Mike</text>
</g>
<!-- Mike_epoch_17_0&#45;&gt;Mike_epoch_18_0 -->
<g id="edge33" class="edge"><title>Mike_epoch_17_0&#45;&gt;Mike_epoch_18_0</title>
<path fill="none" stroke="#66a61e" d="M1351.1,-340.951C1344.62,-335.071 1335.74,-328.289 1326.39,-325 1297.14,-314.706 1075.93,-329.144 1047.39,-317 1013.31,-302.494 985.601,-266.419 973.287,-248.277"/>
</g>
<!-- Mike_epoch_19_0 -->
<g id="node40" class="node"><title>Mike_epoch_19_0</title>
<path fill="none" stroke="#66a61e" d="M935.726,-147C935.726,-147 905.06,-147 905.06,-147 901.226,-147 897.393,-143.167 897.393,-139.333 897.393,-139.333 897.393,-131.667 897.393,-131.667 897.393,-127.833 901.226,-124 905.06,-124 905.06,-124 935.726,-124 935.726,-124 939.56,-124 943.393,-127.833 943.393,-131.667 943.393,-131.667 943.393,-139.333 943.393,-139.333 943.393,-143.167 939.56,-147 935.726,-147"/>
<text text-anchor="middle" x="920.393" y="-131.8" font-family="Times,serif" font-size="14.00">Mike</text>
</g>
<!-- Mike_epoch_18_0&#45;&gt;Mike_epoch_19_0 -->
<g id="edge34" class="edge"><title>Mike_epoch_18_0&#45;&gt;Mike_epoch_19_0</title>
<path fill="none" stroke="#66a61e" d="M961.47,-224.905C952.617,-205.851 934.108,-166.018 925.281,-147.019"/>
</g>
<!-- Mike_epoch_20_0 -->
<g id="node41" class="node"><title>Mike_epoch_20_0</title>
<path fill="none" stroke="#66a61e" d="M1433.73,-47C1433.73,-47 1403.06,-47 1403.06,-47 1399.23,-47 1395.39,-43.1667 1395.39,-39.3333 1395.39,-39.3333 1395.39,-31.6667 1395.39,-31.6667 1395.39,-27.8333 1399.23,-24 1403.06,-24 1403.06,-24 1433.73,-24 1433.73,-24 1437.56,-24 1441.39,-27.8333 1441.39,-31.6667 1441.39,-31.6667 1441.39,-39.3333 1441.39,-39.3333 1441.39,-43.1667 1437.56,-47 1433.73,-47"/>
<text text-anchor="middle" x="1418.39" y="-31.8" font-family="Times,serif" font-size="14.00">Mike</text>
</g>
<!-- Mike_epoch_19_0&#45;&gt;Mike_epoch_20_0 -->
<g id="edge35" class="edge"><title>Mike_epoch_19_0&#45;&gt;Mike_epoch_20_0</title>
<path fill="none" stroke="#66a61e" d="M936.48,-123.98C942.213,-120.788 948.871,-117.682 955.393,-116 978.529,-110.033 1365.39,-121.064 1385.39,-108 1406.46,-94.2458 1414.29,-63.3262 1417.03,-47.022"/>
</g>
<!-- Officer_Callahan_epoch_8_0 -->
<g id="node42" class="node"><title>Officer_Callahan_epoch_8_0</title>
<path fill="none" stroke="#e6ab02" d="M839.226,-869C839.226,-869 747.56,-869 747.56,-869 743.726,-869 739.893,-865.167 739.893,-861.333 739.893,-861.333 739.893,-853.667 739.893,-853.667 739.893,-849.833 743.726,-846 747.56,-846 747.56,-846 839.226,-846 839.226,-846 843.06,-846 846.893,-849.833 846.893,-853.667 846.893,-853.667 846.893,-861.333 846.893,-861.333 846.893,-865.167 843.06,-869 839.226,-869"/>
<text text-anchor="middle" x="793.393" y="-853.8" font-family="Times,serif" font-size="14.00">Officer Callahan</text>
</g>
<!-- Officer_Callahan_epoch_13_0 -->
<g id="node43" class="node"><title>Officer_Callahan_epoch_13_0</title>
<path fill="none" stroke="#e6ab02" d="M1005.23,-667C1005.23,-667 913.56,-667 913.56,-667 909.726,-667 905.893,-663.167 905.893,-659.333 905.893,-659.333 905.893,-651.667 905.893,-651.667 905.893,-647.833 909.726,-644 913.56,-644 913.56,-644 1005.23,-644 1005.23,-644 1009.06,-644 1012.89,-647.833 1012.89,-651.667 1012.89,-651.667 1012.89,-659.333 1012.89,-659.333 1012.89,-663.167 1009.06,-667 1005.23,-667"/>
<text text-anchor="middle" x="959.393" y="-651.8" font-family="Times,serif" font-size="14.00">Officer Callahan</text>
</g>
<!-- Officer_Callahan_epoch_8_0&#45;&gt;Officer_Callahan_epoch_13_0 -->
<g id="edge36" class="edge"><title>Officer_Callahan_epoch_8_0&#45;&gt;Officer_Callahan_epoch_13_0</title>
<path fill="none" stroke="#e6ab02" d="M802.318,-845.747C831.141,-811.021 921.538,-702.108 950.424,-667.306"/>
</g>
<!-- Officer_Callahan_epoch_15_0 -->
<g id="node44" class="node"><title>Officer_Callahan_epoch_15_0</title>
<path fill="none" stroke="#e6ab02" d="M1005.23,-566C1005.23,-566 913.56,-566 913.56,-566 909.726,-566 905.893,-562.167 905.893,-558.333 905.893,-558.333 905.893,-550.667 905.893,-550.667 905.893,-546.833 909.726,-543 913.56,-543 913.56,-543 1005.23,-543 1005.23,-543 1009.06,-543 1012.89,-546.833 1012.89,-550.667 1012.89,-550.667 1012.89,-558.333 1012.89,-558.333 1012.89,-562.167 1009.06,-566 1005.23,-566"/>
<text text-anchor="middle" x="959.393" y="-550.8" font-family="Times,serif" font-size="14.00">Officer Callahan</text>
</g>
<!-- Officer_Callahan_epoch_13_0&#45;&gt;Officer_Callahan_epoch_15_0 -->
<g id="edge37" class="edge"><title>Officer_Callahan_epoch_13_0&#45;&gt;Officer_Callahan_epoch_15_0</title>
<path fill="none" stroke="#e6ab02" d="M959.393,-643.905C959.393,-624.851 959.393,-585.018 959.393,-566.019"/>
</g>
<!-- Officer_Callahan_epoch_16_0 -->
<g id="node45" class="node"><title>Officer_Callahan_epoch_16_0</title>
<path fill="none" stroke="#e6ab02" d="M1021.23,-465C1021.23,-465 929.56,-465 929.56,-465 925.726,-465 921.893,-461.167 921.893,-457.333 921.893,-457.333 921.893,-449.667 921.893,-449.667 921.893,-445.833 925.726,-442 929.56,-442 929.56,-442 1021.23,-442 1021.23,-442 1025.06,-442 1028.89,-445.833 1028.89,-449.667 1028.89,-449.667 1028.89,-457.333 1028.89,-457.333 1028.89,-461.167 1025.06,-465 1021.23,-465"/>
<text text-anchor="middle" x="975.393" y="-449.8" font-family="Times,serif" font-size="14.00">Officer Callahan</text>
</g>
<!-- Officer_Callahan_epoch_15_0&#45;&gt;Officer_Callahan_epoch_16_0 -->
<g id="edge38" class="edge"><title>Officer_Callahan_epoch_15_0&#45;&gt;Officer_Callahan_epoch_16_0</title>
<path fill="none" stroke="#e6ab02" d="M961.105,-542.905C964.185,-523.851 970.623,-484.018 973.693,-465.019"/>
</g>
<!-- Officer_Callahan_epoch_17_1 -->
<g id="node46" class="node"><title>Officer_Callahan_epoch_17_1</title>
<path fill="none" stroke="#e6ab02" d="M1021.23,-364C1021.23,-364 929.56,-364 929.56,-364 925.726,-364 921.893,-360.167 921.893,-356.333 921.893,-356.333 921.893,-348.667 921.893,-348.667 921.893,-344.833 925.726,-341 929.56,-341 929.56,-341 1021.23,-341 1021.23,-341 1025.06,-341 1028.89,-344.833 1028.89,-348.667 1028.89,-348.667 1028.89,-356.333 1028.89,-356.333 1028.89,-360.167 1025.06,-364 1021.23,-364"/>
<text text-anchor="middle" x="975.393" y="-348.8" font-family="Times,serif" font-size="14.00">Officer Callahan</text>
</g>
<!-- Officer_Callahan_epoch_16_0&#45;&gt;Officer_Callahan_epoch_17_1 -->
<g id="edge39" class="edge"><title>Officer_Callahan_epoch_16_0&#45;&gt;Officer_Callahan_epoch_17_1</title>
<path fill="none" stroke="#e6ab02" d="M975.393,-441.905C975.393,-422.851 975.393,-383.018 975.393,-364.019"/>
</g>
<!-- Agent_Connie_Frazier_epoch_18_2 -->
<g id="node47" class="node"><title>Agent_Connie_Frazier_epoch_18_2</title>
<path fill="none" stroke="#a6761d" d="M673.726,-248C673.726,-248 555.06,-248 555.06,-248 551.226,-248 547.393,-244.167 547.393,-240.333 547.393,-240.333 547.393,-232.667 547.393,-232.667 547.393,-228.833 551.226,-225 555.06,-225 555.06,-225 673.726,-225 673.726,-225 677.56,-225 681.393,-228.833 681.393,-232.667 681.393,-232.667 681.393,-240.333 681.393,-240.333 681.393,-244.167 677.56,-248 673.726,-248"/>
<text text-anchor="middle" x="614.393" y="-232.8" font-family="Times,serif" font-size="14.00">Agent Connie Frazier</text>
</g>
<!-- Dustin_epoch_1_0 -->
<g id="node48" class="node"><title>Dustin_epoch_1_0</title>
<path fill="none" stroke="#666666" d="M1241.23,-1314C1241.23,-1314 1203.56,-1314 1203.56,-1314 1199.73,-1314 1195.89,-1310.17 1195.89,-1306.33 1195.89,-1306.33 1195.89,-1298.67 1195.89,-1298.67 1195.89,-1294.83 1199.73,-1291 1203.56,-1291 1203.56,-1291 1241.23,-1291 1241.23,-1291 1245.06,-1291 1248.89,-1294.83 1248.89,-1298.67 1248.89,-1298.67 1248.89,-1306.33 1248.89,-1306.33 1248.89,-1310.17 1245.06,-1314 1241.23,-1314"/>
<text text-anchor="middle" x="1222.39" y="-1298.8" font-family="Times,serif" font-size="14.00">Dustin</text>
</g>
<!-- Dustin_epoch_2_0 -->
<g id="node49" class="node"><title>Dustin_epoch_2_0</title>
<path fill="none" stroke="#666666" d="M1241.23,-1228C1241.23,-1228 1203.56,-1228 1203.56,-1228 1199.73,-1228 1195.89,-1224.17 1195.89,-1220.33 1195.89,-1220.33 1195.89,-1212.67 1195.89,-1212.67 1195.89,-1208.83 1199.73,-1205 1203.56,-1205 1203.56,-1205 1241.23,-1205 1241.23,-1205 1245.06,-1205 1248.89,-1208.83 1248.89,-1212.67 1248.89,-1212.67 1248.89,-1220.33 1248.89,-1220.33 1248.89,-1224.17 1245.06,-1228 1241.23,-1228"/>
<text text-anchor="middle" x="1222.39" y="-1212.8" font-family="Times,serif" font-size="14.00">Dustin</text>
</g>
<!-- Dustin_epoch_1_0&#45;&gt;Dustin_epoch_2_0 -->
<g id="edge40" class="edge"><title>Dustin_epoch_1_0&#45;&gt;Dustin_epoch_2_0</title>
<path fill="none" stroke="#666666" d="M1222.39,-1290.86C1222.39,-1274.7 1222.39,-1244.16 1222.39,-1228.05"/>
</g>
<!-- Dustin_epoch_3_0 -->
<g id="node50" class="node"><title>Dustin_epoch_3_0</title>
<path fill="none" stroke="#666666" d="M1241.23,-1142C1241.23,-1142 1203.56,-1142 1203.56,-1142 1199.73,-1142 1195.89,-1138.17 1195.89,-1134.33 1195.89,-1134.33 1195.89,-1126.67 1195.89,-1126.67 1195.89,-1122.83 1199.73,-1119 1203.56,-1119 1203.56,-1119 1241.23,-1119 1241.23,-1119 1245.06,-1119 1248.89,-1122.83 1248.89,-1126.67 1248.89,-1126.67 1248.89,-1134.33 1248.89,-1134.33 1248.89,-1138.17 1245.06,-1142 1241.23,-1142"/>
<text text-anchor="middle" x="1222.39" y="-1126.8" font-family="Times,serif" font-size="14.00">Dustin</text>
</g>
<!-- Dustin_epoch_2_0&#45;&gt;Dustin_epoch_3_0 -->
<g id="edge41" class="edge"><title>Dustin_epoch_2_0&#45;&gt;Dustin_epoch_3_0</title>
<path fill="none" stroke="#666666" d="M1222.39,-1204.86C1222.39,-1188.7 1222.39,-1158.16 1222.39,-1142.05"/>
</g>
<!-- Dustin_epoch_5_0 -->
<g id="node51" class="node"><title>Dustin_epoch_5_0</title>
<path fill="none" stroke="#666666" d="M1186.23,-970C1186.23,-970 1148.56,-970 1148.56,-970 1144.73,-970 1140.89,-966.167 1140.89,-962.333 1140.89,-962.333 1140.89,-954.667 1140.89,-954.667 1140.89,-950.833 1144.73,-947 1148.56,-947 1148.56,-947 1186.23,-947 1186.23,-947 1190.06,-947 1193.89,-950.833 1193.89,-954.667 1193.89,-954.667 1193.89,-962.333 1193.89,-962.333 1193.89,-966.167 1190.06,-970 1186.23,-970"/>
<text text-anchor="middle" x="1167.39" y="-954.8" font-family="Times,serif" font-size="14.00">Dustin</text>
</g>
<!-- Dustin_epoch_3_0&#45;&gt;Dustin_epoch_5_0 -->
<g id="edge42" class="edge"><title>Dustin_epoch_3_0&#45;&gt;Dustin_epoch_5_0</title>
<path fill="none" stroke="#666666" d="M1222.85,-1118.81C1223.35,-1098.28 1222.61,-1052.22 1208.39,-1017 1206.73,-1012.88 1205.01,-1012.59 1202.39,-1009 1192.73,-995.728 1181.84,-980.25 1174.82,-970.183"/>
</g>
<!-- Dustin_epoch_10_0 -->
<g id="node52" class="node"><title>Dustin_epoch_10_0</title>
<path fill="none" stroke="#666666" d="M1186.23,-869C1186.23,-869 1148.56,-869 1148.56,-869 1144.73,-869 1140.89,-865.167 1140.89,-861.333 1140.89,-861.333 1140.89,-853.667 1140.89,-853.667 1140.89,-849.833 1144.73,-846 1148.56,-846 1148.56,-846 1186.23,-846 1186.23,-846 1190.06,-846 1193.89,-849.833 1193.89,-853.667 1193.89,-853.667 1193.89,-861.333 1193.89,-861.333 1193.89,-865.167 1190.06,-869 1186.23,-869"/>
<text text-anchor="middle" x="1167.39" y="-853.8" font-family="Times,serif" font-size="14.00">Dustin</text>
</g>
<!-- Dustin_epoch_5_0&#45;&gt;Dustin_epoch_10_0 -->
<g id="edge43" class="edge"><title>Dustin_epoch_5_0&#45;&gt;Dustin_epoch_10_0</title>
<path fill="none" stroke="#666666" d="M1167.39,-946.905C1167.39,-927.851 1167.39,-888.018 1167.39,-869.019"/>
</g>
<!-- Dustin_epoch_11_0 -->
<g id="node53" class="node"><title>Dustin_epoch_11_0</title>
<path fill="none" stroke="#666666" d="M996.226,-768C996.226,-768 958.56,-768 958.56,-768 954.726,-768 950.893,-764.167 950.893,-760.333 950.893,-760.333 950.893,-752.667 950.893,-752.667 950.893,-748.833 954.726,-745 958.56,-745 958.56,-745 996.226,-745 996.226,-745 1000.06,-745 1003.89,-748.833 1003.89,-752.667 1003.89,-752.667 1003.89,-760.333 1003.89,-760.333 1003.89,-764.167 1000.06,-768 996.226,-768"/>
<text text-anchor="middle" x="977.393" y="-752.8" font-family="Times,serif" font-size="14.00">Dustin</text>
</g>
<!-- Dustin_epoch_10_0&#45;&gt;Dustin_epoch_11_0 -->
<g id="edge44" class="edge"><title>Dustin_epoch_10_0&#45;&gt;Dustin_epoch_11_0</title>
<path fill="none" stroke="#666666" d="M1158.19,-845.808C1152.54,-840.036 1144.79,-833.411 1136.39,-830 1110.81,-819.608 1035.65,-836.878 1012.39,-822 993.289,-809.781 983.83,-783.371 979.84,-768.412"/>
</g>
<!-- Dustin_epoch_19_0 -->
<g id="node54" class="node"><title>Dustin_epoch_19_0</title>
<path fill="none" stroke="#666666" d="M786.226,-147C786.226,-147 748.56,-147 748.56,-147 744.726,-147 740.893,-143.167 740.893,-139.333 740.893,-139.333 740.893,-131.667 740.893,-131.667 740.893,-127.833 744.726,-124 748.56,-124 748.56,-124 786.226,-124 786.226,-124 790.06,-124 793.893,-127.833 793.893,-131.667 793.893,-131.667 793.893,-139.333 793.893,-139.333 793.893,-143.167 790.06,-147 786.226,-147"/>
<text text-anchor="middle" x="767.393" y="-131.8" font-family="Times,serif" font-size="14.00">Dustin</text>
</g>
<!-- Dustin_epoch_11_0&#45;&gt;Dustin_epoch_19_0 -->
<g id="edge45" class="edge"><title>Dustin_epoch_11_0&#45;&gt;Dustin_epoch_19_0</title>
<path fill="none" stroke="#666666" d="M968.507,-744.944C962.853,-739.062 954.994,-732.28 946.393,-729 907.452,-714.15 608.679,-739.619 571.393,-721 487.712,-679.212 441.393,-649.034 441.393,-555.5 441.393,-555.5 441.393,-555.5 441.393,-351.5 441.393,-287.416 415.361,-251.422 463.393,-209 486.138,-188.911 710.944,-217.53 736.393,-201 755.044,-188.886 762.769,-162.178 765.728,-147.208"/>
</g>
<!-- Dustin_epoch_20_0 -->
<g id="node55" class="node"><title>Dustin_epoch_20_0</title>
<path fill="none" stroke="#666666" d="M1302.23,-47C1302.23,-47 1264.56,-47 1264.56,-47 1260.73,-47 1256.89,-43.1667 1256.89,-39.3333 1256.89,-39.3333 1256.89,-31.6667 1256.89,-31.6667 1256.89,-27.8333 1260.73,-24 1264.56,-24 1264.56,-24 1302.23,-24 1302.23,-24 1306.06,-24 1309.89,-27.8333 1309.89,-31.6667 1309.89,-31.6667 1309.89,-39.3333 1309.89,-39.3333 1309.89,-43.1667 1306.06,-47 1302.23,-47"/>
<text text-anchor="middle" x="1283.39" y="-31.8" font-family="Times,serif" font-size="14.00">Dustin</text>
</g>
<!-- Dustin_epoch_19_0&#45;&gt;Dustin_epoch_20_0 -->
<g id="edge46" class="edge"><title>Dustin_epoch_19_0&#45;&gt;Dustin_epoch_20_0</title>
<path fill="none" stroke="#666666" d="M792.295,-123.981C801.021,-120.789 810.992,-117.683 820.393,-116 844.021,-111.769 1232.45,-121.357 1252.39,-108 1272.97,-94.2227 1279.97,-63.606 1282.29,-47.2652"/>
</g>
<!-- Lucas_epoch_1_0 -->
<g id="node56" class="node"><title>Lucas_epoch_1_0</title>
<path fill="none" stroke="#1b9e77" d="M1308.23,-1314C1308.23,-1314 1274.56,-1314 1274.56,-1314 1270.73,-1314 1266.89,-1310.17 1266.89,-1306.33 1266.89,-1306.33 1266.89,-1298.67 1266.89,-1298.67 1266.89,-1294.83 1270.73,-1291 1274.56,-1291 1274.56,-1291 1308.23,-1291 1308.23,-1291 1312.06,-1291 1315.89,-1294.83 1315.89,-1298.67 1315.89,-1298.67 1315.89,-1306.33 1315.89,-1306.33 1315.89,-1310.17 1312.06,-1314 1308.23,-1314"/>
<text text-anchor="middle" x="1291.39" y="-1298.8" font-family="Times,serif" font-size="14.00">Lucas</text>
</g>
<!-- Lucas_epoch_2_0 -->
<g id="node57" class="node"><title>Lucas_epoch_2_0</title>
<path fill="none" stroke="#1b9e77" d="M1308.23,-1228C1308.23,-1228 1274.56,-1228 1274.56,-1228 1270.73,-1228 1266.89,-1224.17 1266.89,-1220.33 1266.89,-1220.33 1266.89,-1212.67 1266.89,-1212.67 1266.89,-1208.83 1270.73,-1205 1274.56,-1205 1274.56,-1205 1308.23,-1205 1308.23,-1205 1312.06,-1205 1315.89,-1208.83 1315.89,-1212.67 1315.89,-1212.67 1315.89,-1220.33 1315.89,-1220.33 1315.89,-1224.17 1312.06,-1228 1308.23,-1228"/>
<text text-anchor="middle" x="1291.39" y="-1212.8" font-family="Times,serif" font-size="14.00">Lucas</text>
</g>
<!-- Lucas_epoch_1_0&#45;&gt;Lucas_epoch_2_0 -->
<g id="edge47" class="edge"><title>Lucas_epoch_1_0&#45;&gt;Lucas_epoch_2_0</title>
<path fill="none" stroke="#1b9e77" d="M1291.39,-1290.86C1291.39,-1274.7 1291.39,-1244.16 1291.39,-1228.05"/>
</g>
<!-- Lucas_epoch_3_0 -->
<g id="node58" class="node"><title>Lucas_epoch_3_0</title>
<path fill="none" stroke="#1b9e77" d="M1308.23,-1142C1308.23,-1142 1274.56,-1142 1274.56,-1142 1270.73,-1142 1266.89,-1138.17 1266.89,-1134.33 1266.89,-1134.33 1266.89,-1126.67 1266.89,-1126.67 1266.89,-1122.83 1270.73,-1119 1274.56,-1119 1274.56,-1119 1308.23,-1119 1308.23,-1119 1312.06,-1119 1315.89,-1122.83 1315.89,-1126.67 1315.89,-1126.67 1315.89,-1134.33 1315.89,-1134.33 1315.89,-1138.17 1312.06,-1142 1308.23,-1142"/>
<text text-anchor="middle" x="1291.39" y="-1126.8" font-family="Times,serif" font-size="14.00">Lucas</text>
</g>
<!-- Lucas_epoch_2_0&#45;&gt;Lucas_epoch_3_0 -->
<g id="edge48" class="edge"><title>Lucas_epoch_2_0&#45;&gt;Lucas_epoch_3_0</title>
<path fill="none" stroke="#1b9e77" d="M1291.39,-1204.86C1291.39,-1188.7 1291.39,-1158.16 1291.39,-1142.05"/>
</g>
<!-- Lucas_epoch_5_0 -->
<g id="node59" class="node"><title>Lucas_epoch_5_0</title>
<path fill="none" stroke="#1b9e77" d="M1253.23,-970C1253.23,-970 1219.56,-970 1219.56,-970 1215.73,-970 1211.89,-966.167 1211.89,-962.333 1211.89,-962.333 1211.89,-954.667 1211.89,-954.667 1211.89,-950.833 1215.73,-947 1219.56,-947 1219.56,-947 1253.23,-947 1253.23,-947 1257.06,-947 1260.89,-950.833 1260.89,-954.667 1260.89,-954.667 1260.89,-962.333 1260.89,-962.333 1260.89,-966.167 1257.06,-970 1253.23,-970"/>
<text text-anchor="middle" x="1236.39" y="-954.8" font-family="Times,serif" font-size="14.00">Lucas</text>
</g>
<!-- Lucas_epoch_3_0&#45;&gt;Lucas_epoch_5_0 -->
<g id="edge49" class="edge"><title>Lucas_epoch_3_0&#45;&gt;Lucas_epoch_5_0</title>
<path fill="none" stroke="#1b9e77" d="M1287.95,-1118.87C1278.08,-1088.34 1249.71,-1000.65 1239.83,-970.13"/>
</g>
<!-- Lucas_epoch_10_0 -->
<g id="node60" class="node"><title>Lucas_epoch_10_0</title>
<path fill="none" stroke="#1b9e77" d="M1253.23,-869C1253.23,-869 1219.56,-869 1219.56,-869 1215.73,-869 1211.89,-865.167 1211.89,-861.333 1211.89,-861.333 1211.89,-853.667 1211.89,-853.667 1211.89,-849.833 1215.73,-846 1219.56,-846 1219.56,-846 1253.23,-846 1253.23,-846 1257.06,-846 1260.89,-849.833 1260.89,-853.667 1260.89,-853.667 1260.89,-861.333 1260.89,-861.333 1260.89,-865.167 1257.06,-869 1253.23,-869"/>
<text text-anchor="middle" x="1236.39" y="-853.8" font-family="Times,serif" font-size="14.00">Lucas</text>
</g>
<!-- Lucas_epoch_5_0&#45;&gt;Lucas_epoch_10_0 -->
<g id="edge50" class="edge"><title>Lucas_epoch_5_0&#45;&gt;Lucas_epoch_10_0</title>
<path fill="none" stroke="#1b9e77" d="M1236.39,-946.905C1236.39,-927.851 1236.39,-888.018 1236.39,-869.019"/>
</g>
<!-- Lucas_epoch_11_0 -->
<g id="node61" class="node"><title>Lucas_epoch_11_0</title>
<path fill="none" stroke="#1b9e77" d="M1253.23,-768C1253.23,-768 1219.56,-768 1219.56,-768 1215.73,-768 1211.89,-764.167 1211.89,-760.333 1211.89,-760.333 1211.89,-752.667 1211.89,-752.667 1211.89,-748.833 1215.73,-745 1219.56,-745 1219.56,-745 1253.23,-745 1253.23,-745 1257.06,-745 1260.89,-748.833 1260.89,-752.667 1260.89,-752.667 1260.89,-760.333 1260.89,-760.333 1260.89,-764.167 1257.06,-768 1253.23,-768"/>
<text text-anchor="middle" x="1236.39" y="-752.8" font-family="Times,serif" font-size="14.00">Lucas</text>
</g>
<!-- Lucas_epoch_10_0&#45;&gt;Lucas_epoch_11_0 -->
<g id="edge51" class="edge"><title>Lucas_epoch_10_0&#45;&gt;Lucas_epoch_11_0</title>
<path fill="none" stroke="#1b9e77" d="M1236.39,-845.905C1236.39,-826.851 1236.39,-787.018 1236.39,-768.019"/>
</g>
<!-- Lucas_epoch_18_0 -->
<g id="node62" class="node"><title>Lucas_epoch_18_0</title>
<path fill="none" stroke="#1b9e77" d="M871.226,-248C871.226,-248 837.56,-248 837.56,-248 833.726,-248 829.893,-244.167 829.893,-240.333 829.893,-240.333 829.893,-232.667 829.893,-232.667 829.893,-228.833 833.726,-225 837.56,-225 837.56,-225 871.226,-225 871.226,-225 875.06,-225 878.893,-228.833 878.893,-232.667 878.893,-232.667 878.893,-240.333 878.893,-240.333 878.893,-244.167 875.06,-248 871.226,-248"/>
<text text-anchor="middle" x="854.393" y="-232.8" font-family="Times,serif" font-size="14.00">Lucas</text>
</g>
<!-- Lucas_epoch_11_0&#45;&gt;Lucas_epoch_18_0 -->
<g id="edge52" class="edge"><title>Lucas_epoch_11_0&#45;&gt;Lucas_epoch_18_0</title>
<path fill="none" stroke="#1b9e77" d="M1239.57,-744.801C1249.76,-707.99 1277.44,-585.617 1214.39,-527 1200.39,-513.983 884.135,-532.289 870.393,-519 792.978,-444.138 836.804,-290.05 850.661,-248.193"/>
</g>
<!-- Lucas_epoch_19_0 -->
<g id="node63" class="node"><title>Lucas_epoch_19_0</title>
<path fill="none" stroke="#1b9e77" d="M871.226,-147C871.226,-147 837.56,-147 837.56,-147 833.726,-147 829.893,-143.167 829.893,-139.333 829.893,-139.333 829.893,-131.667 829.893,-131.667 829.893,-127.833 833.726,-124 837.56,-124 837.56,-124 871.226,-124 871.226,-124 875.06,-124 878.893,-127.833 878.893,-131.667 878.893,-131.667 878.893,-139.333 878.893,-139.333 878.893,-143.167 875.06,-147 871.226,-147"/>
<text text-anchor="middle" x="854.393" y="-131.8" font-family="Times,serif" font-size="14.00">Lucas</text>
</g>
<!-- Lucas_epoch_18_0&#45;&gt;Lucas_epoch_19_0 -->
<g id="edge53" class="edge"><title>Lucas_epoch_18_0&#45;&gt;Lucas_epoch_19_0</title>
<path fill="none" stroke="#1b9e77" d="M854.393,-224.905C854.393,-205.851 854.393,-166.018 854.393,-147.019"/>
</g>
<!-- Lucas_epoch_20_0 -->
<g id="node64" class="node"><title>Lucas_epoch_20_0</title>
<path fill="none" stroke="#1b9e77" d="M1369.23,-47C1369.23,-47 1335.56,-47 1335.56,-47 1331.73,-47 1327.89,-43.1667 1327.89,-39.3333 1327.89,-39.3333 1327.89,-31.6667 1327.89,-31.6667 1327.89,-27.8333 1331.73,-24 1335.56,-24 1335.56,-24 1369.23,-24 1369.23,-24 1373.06,-24 1376.89,-27.8333 1376.89,-31.6667 1376.89,-31.6667 1376.89,-39.3333 1376.89,-39.3333 1376.89,-43.1667 1373.06,-47 1369.23,-47"/>
<text text-anchor="middle" x="1352.39" y="-31.8" font-family="Times,serif" font-size="14.00">Lucas</text>
</g>
<!-- Lucas_epoch_19_0&#45;&gt;Lucas_epoch_20_0 -->
<g id="edge54" class="edge"><title>Lucas_epoch_19_0&#45;&gt;Lucas_epoch_20_0</title>
<path fill="none" stroke="#1b9e77" d="M869.984,-123.981C875.551,-120.789 882.026,-117.683 888.393,-116 911.493,-109.893 1298.31,-120.949 1318.39,-108 1339.65,-94.2933 1347.91,-63.353 1350.88,-47.0333"/>
</g>
<!-- Benny_epoch_9_1 -->
<g id="node65" class="node"><title>Benny_epoch_9_1</title>
<path fill="none" stroke="#d95f02" d="M240.726,-869C240.726,-869 204.06,-869 204.06,-869 200.226,-869 196.393,-865.167 196.393,-861.333 196.393,-861.333 196.393,-853.667 196.393,-853.667 196.393,-849.833 200.226,-846 204.06,-846 204.06,-846 240.726,-846 240.726,-846 244.56,-846 248.393,-849.833 248.393,-853.667 248.393,-853.667 248.393,-861.333 248.393,-861.333 248.393,-865.167 244.56,-869 240.726,-869"/>
<text text-anchor="middle" x="222.393" y="-853.8" font-family="Times,serif" font-size="14.00">Benny</text>
</g>
<!-- Benny_epoch_12_1 -->
<g id="node66" class="node"><title>Benny_epoch_12_1</title>
<path fill="none" stroke="#d95f02" d="M400.726,-768C400.726,-768 364.06,-768 364.06,-768 360.226,-768 356.393,-764.167 356.393,-760.333 356.393,-760.333 356.393,-752.667 356.393,-752.667 356.393,-748.833 360.226,-745 364.06,-745 364.06,-745 400.726,-745 400.726,-745 404.56,-745 408.393,-748.833 408.393,-752.667 408.393,-752.667 408.393,-760.333 408.393,-760.333 408.393,-764.167 404.56,-768 400.726,-768"/>
<text text-anchor="middle" x="382.393" y="-752.8" font-family="Times,serif" font-size="14.00">Benny</text>
</g>
<!-- Benny_epoch_9_1&#45;&gt;Benny_epoch_12_1 -->
<g id="edge55" class="edge"><title>Benny_epoch_9_1&#45;&gt;Benny_epoch_12_1</title>
<path fill="none" stroke="#d95f02" d="M231.624,-845.841C237.09,-840.229 244.481,-833.751 252.393,-830 272.332,-820.548 281.219,-830.94 301.393,-822 330.647,-809.036 358.38,-782.917 372.564,-768.204"/>
</g>
<!-- Benny_epoch_18_2 -->
<g id="node67" class="node"><title>Benny_epoch_18_2</title>
<path fill="none" stroke="#d95f02" d="M743.726,-248C743.726,-248 707.06,-248 707.06,-248 703.226,-248 699.393,-244.167 699.393,-240.333 699.393,-240.333 699.393,-232.667 699.393,-232.667 699.393,-228.833 703.226,-225 707.06,-225 707.06,-225 743.726,-225 743.726,-225 747.56,-225 751.393,-228.833 751.393,-232.667 751.393,-232.667 751.393,-240.333 751.393,-240.333 751.393,-244.167 747.56,-248 743.726,-248"/>
<text text-anchor="middle" x="725.393" y="-232.8" font-family="Times,serif" font-size="14.00">Benny</text>
</g>
<!-- Benny_epoch_12_1&#45;&gt;Benny_epoch_18_2 -->
<g id="edge56" class="edge"><title>Benny_epoch_12_1&#45;&gt;Benny_epoch_18_2</title>
<path fill="none" stroke="#d95f02" d="M396.585,-744.876C431.246,-717.594 517.393,-641.169 517.393,-555.5 517.393,-555.5 517.393,-555.5 517.393,-452.5 517.393,-354.834 630.471,-394.123 690.393,-317 707.233,-295.327 717.819,-264.288 722.532,-248.155"/>
</g>
<!-- Will_epoch_1_0 -->
<g id="node68" class="node"><title>Will_epoch_1_0</title>
<path fill="none" stroke="#7570b3" d="M1170.23,-1314C1170.23,-1314 1144.56,-1314 1144.56,-1314 1140.73,-1314 1136.89,-1310.17 1136.89,-1306.33 1136.89,-1306.33 1136.89,-1298.67 1136.89,-1298.67 1136.89,-1294.83 1140.73,-1291 1144.56,-1291 1144.56,-1291 1170.23,-1291 1170.23,-1291 1174.06,-1291 1177.89,-1294.83 1177.89,-1298.67 1177.89,-1298.67 1177.89,-1306.33 1177.89,-1306.33 1177.89,-1310.17 1174.06,-1314 1170.23,-1314"/>
<text text-anchor="middle" x="1157.39" y="-1298.8" font-family="Times,serif" font-size="14.00">Will</text>
</g>
<!-- Will_epoch_2_0 -->
<g id="node69" class="node"><title>Will_epoch_2_0</title>
<path fill="none" stroke="#7570b3" d="M1170.23,-1228C1170.23,-1228 1144.56,-1228 1144.56,-1228 1140.73,-1228 1136.89,-1224.17 1136.89,-1220.33 1136.89,-1220.33 1136.89,-1212.67 1136.89,-1212.67 1136.89,-1208.83 1140.73,-1205 1144.56,-1205 1144.56,-1205 1170.23,-1205 1170.23,-1205 1174.06,-1205 1177.89,-1208.83 1177.89,-1212.67 1177.89,-1212.67 1177.89,-1220.33 1177.89,-1220.33 1177.89,-1224.17 1174.06,-1228 1170.23,-1228"/>
<text text-anchor="middle" x="1157.39" y="-1212.8" font-family="Times,serif" font-size="14.00">Will</text>
</g>
<!-- Will_epoch_1_0&#45;&gt;Will_epoch_2_0 -->
<g id="edge57" class="edge"><title>Will_epoch_1_0&#45;&gt;Will_epoch_2_0</title>
<path fill="none" stroke="#7570b3" d="M1157.39,-1290.86C1157.39,-1274.7 1157.39,-1244.16 1157.39,-1228.05"/>
</g>
<!-- Will_epoch_3_0 -->
<g id="node70" class="node"><title>Will_epoch_3_0</title>
<path fill="none" stroke="#7570b3" d="M1170.23,-1142C1170.23,-1142 1144.56,-1142 1144.56,-1142 1140.73,-1142 1136.89,-1138.17 1136.89,-1134.33 1136.89,-1134.33 1136.89,-1126.67 1136.89,-1126.67 1136.89,-1122.83 1140.73,-1119 1144.56,-1119 1144.56,-1119 1170.23,-1119 1170.23,-1119 1174.06,-1119 1177.89,-1122.83 1177.89,-1126.67 1177.89,-1126.67 1177.89,-1134.33 1177.89,-1134.33 1177.89,-1138.17 1174.06,-1142 1170.23,-1142"/>
<text text-anchor="middle" x="1157.39" y="-1126.8" font-family="Times,serif" font-size="14.00">Will</text>
</g>
<!-- Will_epoch_2_0&#45;&gt;Will_epoch_3_0 -->
<g id="edge58" class="edge"><title>Will_epoch_2_0&#45;&gt;Will_epoch_3_0</title>
<path fill="none" stroke="#7570b3" d="M1157.39,-1204.86C1157.39,-1188.7 1157.39,-1158.16 1157.39,-1142.05"/>
</g>
<!-- Will_epoch_4_0 -->
<g id="node71" class="node"><title>Will_epoch_4_0</title>
<path fill="none" stroke="#7570b3" d="M1160.23,-1056C1160.23,-1056 1134.56,-1056 1134.56,-1056 1130.73,-1056 1126.89,-1052.17 1126.89,-1048.33 1126.89,-1048.33 1126.89,-1040.67 1126.89,-1040.67 1126.89,-1036.83 1130.73,-1033 1134.56,-1033 1134.56,-1033 1160.23,-1033 1160.23,-1033 1164.06,-1033 1167.89,-1036.83 1167.89,-1040.67 1167.89,-1040.67 1167.89,-1048.33 1167.89,-1048.33 1167.89,-1052.17 1164.06,-1056 1160.23,-1056"/>
<text text-anchor="middle" x="1147.39" y="-1040.8" font-family="Times,serif" font-size="14.00">Will</text>
</g>
<!-- Will_epoch_3_0&#45;&gt;Will_epoch_4_0 -->
<g id="edge59" class="edge"><title>Will_epoch_3_0&#45;&gt;Will_epoch_4_0</title>
<path fill="none" stroke="#7570b3" d="M1156.13,-1118.86C1154.2,-1102.7 1150.57,-1072.16 1148.65,-1056.05"/>
</g>
<!-- Will_epoch_12_0 -->
<g id="node72" class="node"><title>Will_epoch_12_0</title>
<path fill="none" stroke="#7570b3" d="M490.226,-768C490.226,-768 464.56,-768 464.56,-768 460.726,-768 456.893,-764.167 456.893,-760.333 456.893,-760.333 456.893,-752.667 456.893,-752.667 456.893,-748.833 460.726,-745 464.56,-745 464.56,-745 490.226,-745 490.226,-745 494.06,-745 497.893,-748.833 497.893,-752.667 497.893,-752.667 497.893,-760.333 497.893,-760.333 497.893,-764.167 494.06,-768 490.226,-768"/>
<text text-anchor="middle" x="477.393" y="-752.8" font-family="Times,serif" font-size="14.00">Will</text>
</g>
<!-- Will_epoch_4_0&#45;&gt;Will_epoch_12_0 -->
<g id="edge60" class="edge"><title>Will_epoch_4_0&#45;&gt;Will_epoch_12_0</title>
<path fill="none" stroke="#7570b3" d="M1132.13,-1032.91C1123.05,-1027.18 1111.05,-1020.55 1099.39,-1017 869.366,-946.924 183.874,-1100.27 21.3931,-923 -6.53566,-892.53 -7.55631,-859.502 21.3931,-830 37.8552,-813.224 424.459,-834.453 444.393,-822 463.595,-810.004 472.109,-782.99 475.472,-768.007"/>
</g>
<!-- Will_epoch_19_2 -->
<g id="node73" class="node"><title>Will_epoch_19_2</title>
<path fill="none" stroke="#7570b3" d="M724.226,-47C724.226,-47 698.56,-47 698.56,-47 694.726,-47 690.893,-43.1667 690.893,-39.3333 690.893,-39.3333 690.893,-31.6667 690.893,-31.6667 690.893,-27.8333 694.726,-24 698.56,-24 698.56,-24 724.226,-24 724.226,-24 728.06,-24 731.893,-27.8333 731.893,-31.6667 731.893,-31.6667 731.893,-39.3333 731.893,-39.3333 731.893,-43.1667 728.06,-47 724.226,-47"/>
<text text-anchor="middle" x="711.393" y="-31.8" font-family="Times,serif" font-size="14.00">Will</text>
</g>
<!-- Will_epoch_12_0&#45;&gt;Will_epoch_19_2 -->
<g id="edge61" class="edge"><title>Will_epoch_12_0&#45;&gt;Will_epoch_19_2</title>
<path fill="none" stroke="#7570b3" d="M466.245,-744.974C437.916,-717.028 365.393,-637.48 365.393,-555.5 365.393,-555.5 365.393,-555.5 365.393,-235.5 365.393,-178.097 371.298,-153.92 414.393,-116 496.543,-43.7153 637.576,-36.2196 690.509,-36.1019"/>
</g>
<!-- Mr_Clarke_epoch_10_0 -->
<g id="node74" class="node"><title>Mr_Clarke_epoch_10_0</title>
<path fill="none" stroke="#e7298a" d="M1413.23,-869C1413.23,-869 1351.56,-869 1351.56,-869 1347.73,-869 1343.89,-865.167 1343.89,-861.333 1343.89,-861.333 1343.89,-853.667 1343.89,-853.667 1343.89,-849.833 1347.73,-846 1351.56,-846 1351.56,-846 1413.23,-846 1413.23,-846 1417.06,-846 1420.89,-849.833 1420.89,-853.667 1420.89,-853.667 1420.89,-861.333 1420.89,-861.333 1420.89,-865.167 1417.06,-869 1413.23,-869"/>
<text text-anchor="middle" x="1382.39" y="-853.8" font-family="Times,serif" font-size="14.00">Mr. Clarke</text>
</g>
<!-- Mr_Clarke_epoch_17_1 -->
<g id="node75" class="node"><title>Mr_Clarke_epoch_17_1</title>
<path fill="none" stroke="#e7298a" d="M1306.23,-364C1306.23,-364 1244.56,-364 1244.56,-364 1240.73,-364 1236.89,-360.167 1236.89,-356.333 1236.89,-356.333 1236.89,-348.667 1236.89,-348.667 1236.89,-344.833 1240.73,-341 1244.56,-341 1244.56,-341 1306.23,-341 1306.23,-341 1310.06,-341 1313.89,-344.833 1313.89,-348.667 1313.89,-348.667 1313.89,-356.333 1313.89,-356.333 1313.89,-360.167 1310.06,-364 1306.23,-364"/>
<text text-anchor="middle" x="1275.39" y="-348.8" font-family="Times,serif" font-size="14.00">Mr. Clarke</text>
</g>
<!-- Mr_Clarke_epoch_10_0&#45;&gt;Mr_Clarke_epoch_17_1 -->
<g id="edge62" class="edge"><title>Mr_Clarke_epoch_10_0&#45;&gt;Mr_Clarke_epoch_17_1</title>
<path fill="none" stroke="#e7298a" d="M1380.16,-845.994C1366.26,-780.675 1291.83,-430.753 1277.71,-364.374"/>
</g>
<!-- Nancy_epoch_2_0 -->
<g id="node76" class="node"><title>Nancy_epoch_2_0</title>
<path fill="none" stroke="#66a61e" d="M1510.73,-1228C1510.73,-1228 1474.06,-1228 1474.06,-1228 1470.23,-1228 1466.39,-1224.17 1466.39,-1220.33 1466.39,-1220.33 1466.39,-1212.67 1466.39,-1212.67 1466.39,-1208.83 1470.23,-1205 1474.06,-1205 1474.06,-1205 1510.73,-1205 1510.73,-1205 1514.56,-1205 1518.39,-1208.83 1518.39,-1212.67 1518.39,-1212.67 1518.39,-1220.33 1518.39,-1220.33 1518.39,-1224.17 1514.56,-1228 1510.73,-1228"/>
<text text-anchor="middle" x="1492.39" y="-1212.8" font-family="Times,serif" font-size="14.00">Nancy</text>
</g>
<!-- Nancy_epoch_6_0 -->
<g id="node77" class="node"><title>Nancy_epoch_6_0</title>
<path fill="none" stroke="#66a61e" d="M1683.73,-869C1683.73,-869 1647.06,-869 1647.06,-869 1643.23,-869 1639.39,-865.167 1639.39,-861.333 1639.39,-861.333 1639.39,-853.667 1639.39,-853.667 1639.39,-849.833 1643.23,-846 1647.06,-846 1647.06,-846 1683.73,-846 1683.73,-846 1687.56,-846 1691.39,-849.833 1691.39,-853.667 1691.39,-853.667 1691.39,-861.333 1691.39,-861.333 1691.39,-865.167 1687.56,-869 1683.73,-869"/>
<text text-anchor="middle" x="1665.39" y="-853.8" font-family="Times,serif" font-size="14.00">Nancy</text>
</g>
<!-- Nancy_epoch_2_0&#45;&gt;Nancy_epoch_6_0 -->
<g id="edge63" class="edge"><title>Nancy_epoch_2_0&#45;&gt;Nancy_epoch_6_0</title>
<path fill="none" stroke="#66a61e" d="M1501.23,-1204.57C1524.78,-1174.92 1589.72,-1089.74 1625.39,-1009 1647.46,-959.045 1659.61,-894.221 1663.75,-869.096"/>
</g>
<!-- Nancy_epoch_7_0 -->
<g id="node78" class="node"><title>Nancy_epoch_7_0</title>
<path fill="none" stroke="#66a61e" d="M1629.73,-768C1629.73,-768 1593.06,-768 1593.06,-768 1589.23,-768 1585.39,-764.167 1585.39,-760.333 1585.39,-760.333 1585.39,-752.667 1585.39,-752.667 1585.39,-748.833 1589.23,-745 1593.06,-745 1593.06,-745 1629.73,-745 1629.73,-745 1633.56,-745 1637.39,-748.833 1637.39,-752.667 1637.39,-752.667 1637.39,-760.333 1637.39,-760.333 1637.39,-764.167 1633.56,-768 1629.73,-768"/>
<text text-anchor="middle" x="1611.39" y="-752.8" font-family="Times,serif" font-size="14.00">Nancy</text>
</g>
<!-- Nancy_epoch_6_0&#45;&gt;Nancy_epoch_7_0 -->
<g id="edge64" class="edge"><title>Nancy_epoch_6_0&#45;&gt;Nancy_epoch_7_0</title>
<path fill="none" stroke="#66a61e" d="M1659.61,-845.905C1649.22,-826.851 1627.49,-787.018 1617.13,-768.019"/>
</g>
<!-- Nancy_epoch_17_0 -->
<g id="node79" class="node"><title>Nancy_epoch_17_0</title>
<path fill="none" stroke="#66a61e" d="M1580.73,-364C1580.73,-364 1544.06,-364 1544.06,-364 1540.23,-364 1536.39,-360.167 1536.39,-356.333 1536.39,-356.333 1536.39,-348.667 1536.39,-348.667 1536.39,-344.833 1540.23,-341 1544.06,-341 1544.06,-341 1580.73,-341 1580.73,-341 1584.56,-341 1588.39,-344.833 1588.39,-348.667 1588.39,-348.667 1588.39,-356.333 1588.39,-356.333 1588.39,-360.167 1584.56,-364 1580.73,-364"/>
<text text-anchor="middle" x="1562.39" y="-348.8" font-family="Times,serif" font-size="14.00">Nancy</text>
</g>
<!-- Nancy_epoch_7_0&#45;&gt;Nancy_epoch_17_0 -->
<g id="edge65" class="edge"><title>Nancy_epoch_7_0&#45;&gt;Nancy_epoch_17_0</title>
<path fill="none" stroke="#66a61e" d="M1610.08,-744.747C1603.13,-687.686 1570.59,-420.783 1563.69,-364.099"/>
</g>
<!-- Nancy_epoch_18_1 -->
<g id="node80" class="node"><title>Nancy_epoch_18_1</title>
<path fill="none" stroke="#66a61e" d="M1107.73,-248C1107.73,-248 1071.06,-248 1071.06,-248 1067.23,-248 1063.39,-244.167 1063.39,-240.333 1063.39,-240.333 1063.39,-232.667 1063.39,-232.667 1063.39,-228.833 1067.23,-225 1071.06,-225 1071.06,-225 1107.73,-225 1107.73,-225 1111.56,-225 1115.39,-228.833 1115.39,-232.667 1115.39,-232.667 1115.39,-240.333 1115.39,-240.333 1115.39,-244.167 1111.56,-248 1107.73,-248"/>
<text text-anchor="middle" x="1089.39" y="-232.8" font-family="Times,serif" font-size="14.00">Nancy</text>
</g>
<!-- Nancy_epoch_17_0&#45;&gt;Nancy_epoch_18_1 -->
<g id="edge66" class="edge"><title>Nancy_epoch_17_0&#45;&gt;Nancy_epoch_18_1</title>
<path fill="none" stroke="#66a61e" d="M1552.11,-340.921C1545.63,-335.031 1536.75,-328.249 1527.39,-325 1506.45,-317.731 1147.09,-328.915 1128.39,-317 1104.02,-301.467 1094.41,-265.873 1091.03,-248.06"/>
</g>
<!-- Nancy_epoch_19_1 -->
<g id="node81" class="node"><title>Nancy_epoch_19_1</title>
<path fill="none" stroke="#66a61e" d="M1059.73,-147C1059.73,-147 1023.06,-147 1023.06,-147 1019.23,-147 1015.39,-143.167 1015.39,-139.333 1015.39,-139.333 1015.39,-131.667 1015.39,-131.667 1015.39,-127.833 1019.23,-124 1023.06,-124 1023.06,-124 1059.73,-124 1059.73,-124 1063.56,-124 1067.39,-127.833 1067.39,-131.667 1067.39,-131.667 1067.39,-139.333 1067.39,-139.333 1067.39,-143.167 1063.56,-147 1059.73,-147"/>
<text text-anchor="middle" x="1041.39" y="-131.8" font-family="Times,serif" font-size="14.00">Nancy</text>
</g>
<!-- Nancy_epoch_18_1&#45;&gt;Nancy_epoch_19_1 -->
<g id="edge67" class="edge"><title>Nancy_epoch_18_1&#45;&gt;Nancy_epoch_19_1</title>
<path fill="none" stroke="#66a61e" d="M1084.26,-224.905C1075.02,-205.851 1055.7,-166.018 1046.49,-147.019"/>
</g>
<!-- Nancy_epoch_19_2 -->
<g id="node82" class="node"><title>Nancy_epoch_19_2</title>
<path fill="none" stroke="#66a61e" d="M902.726,-47C902.726,-47 866.06,-47 866.06,-47 862.226,-47 858.393,-43.1667 858.393,-39.3333 858.393,-39.3333 858.393,-31.6667 858.393,-31.6667 858.393,-27.8333 862.226,-24 866.06,-24 866.06,-24 902.726,-24 902.726,-24 906.56,-24 910.393,-27.8333 910.393,-31.6667 910.393,-31.6667 910.393,-39.3333 910.393,-39.3333 910.393,-43.1667 906.56,-47 902.726,-47"/>
<text text-anchor="middle" x="884.393" y="-31.8" font-family="Times,serif" font-size="14.00">Nancy</text>
</g>
<!-- Nancy_epoch_19_1&#45;&gt;Nancy_epoch_19_2 -->
<g id="edge68" class="edge"><title>Nancy_epoch_19_1&#45;&gt;Nancy_epoch_19_2</title>
<path fill="none" stroke="#66a61e" d="M1024.29,-123.826C994.092,-104.975 931.658,-66.0029 901.473,-47.1611"/>
</g>
<!-- Barbara_epoch_6_0 -->
<g id="node83" class="node"><title>Barbara_epoch_6_0</title>
<path fill="none" stroke="#e6ab02" d="M1613.23,-869C1613.23,-869 1569.56,-869 1569.56,-869 1565.73,-869 1561.89,-865.167 1561.89,-861.333 1561.89,-861.333 1561.89,-853.667 1561.89,-853.667 1561.89,-849.833 1565.73,-846 1569.56,-846 1569.56,-846 1613.23,-846 1613.23,-846 1617.06,-846 1620.89,-849.833 1620.89,-853.667 1620.89,-853.667 1620.89,-861.333 1620.89,-861.333 1620.89,-865.167 1617.06,-869 1613.23,-869"/>
<text text-anchor="middle" x="1591.39" y="-853.8" font-family="Times,serif" font-size="14.00">Barbara</text>
</g>
<!-- Brenner_epoch_9_0 -->
<g id="node84" class="node"><title>Brenner_epoch_9_0</title>
<path fill="none" stroke="#a6761d" d="M436.726,-869C436.726,-869 392.06,-869 392.06,-869 388.226,-869 384.393,-865.167 384.393,-861.333 384.393,-861.333 384.393,-853.667 384.393,-853.667 384.393,-849.833 388.226,-846 392.06,-846 392.06,-846 436.726,-846 436.726,-846 440.56,-846 444.393,-849.833 444.393,-853.667 444.393,-853.667 444.393,-861.333 444.393,-861.333 444.393,-865.167 440.56,-869 436.726,-869"/>
<text text-anchor="middle" x="414.393" y="-853.8" font-family="Times,serif" font-size="14.00">Brenner</text>
</g>
<!-- Cynthia_epoch_14_1 -->
<g id="node85" class="node"><title>Cynthia_epoch_14_1</title>
<path fill="none" stroke="#666666" d="M804.226,-667C804.226,-667 760.56,-667 760.56,-667 756.726,-667 752.893,-663.167 752.893,-659.333 752.893,-659.333 752.893,-651.667 752.893,-651.667 752.893,-647.833 756.726,-644 760.56,-644 760.56,-644 804.226,-644 804.226,-644 808.06,-644 811.893,-647.833 811.893,-651.667 811.893,-651.667 811.893,-659.333 811.893,-659.333 811.893,-663.167 808.06,-667 804.226,-667"/>
<text text-anchor="middle" x="782.393" y="-651.8" font-family="Times,serif" font-size="14.00">Cynthia</text>
</g>
<!-- Hopper_epoch_8_0 -->
<g id="node86" class="node"><title>Hopper_epoch_8_0</title>
<path fill="none" stroke="#1b9e77" d="M914.226,-869C914.226,-869 872.56,-869 872.56,-869 868.726,-869 864.893,-865.167 864.893,-861.333 864.893,-861.333 864.893,-853.667 864.893,-853.667 864.893,-849.833 868.726,-846 872.56,-846 872.56,-846 914.226,-846 914.226,-846 918.06,-846 921.893,-849.833 921.893,-853.667 921.893,-853.667 921.893,-861.333 921.893,-861.333 921.893,-865.167 918.06,-869 914.226,-869"/>
<text text-anchor="middle" x="893.393" y="-853.8" font-family="Times,serif" font-size="14.00">Hopper</text>
</g>
<!-- Hopper_epoch_11_0 -->
<g id="node87" class="node"><title>Hopper_epoch_11_0</title>
<path fill="none" stroke="#1b9e77" d="M1071.23,-768C1071.23,-768 1029.56,-768 1029.56,-768 1025.73,-768 1021.89,-764.167 1021.89,-760.333 1021.89,-760.333 1021.89,-752.667 1021.89,-752.667 1021.89,-748.833 1025.73,-745 1029.56,-745 1029.56,-745 1071.23,-745 1071.23,-745 1075.06,-745 1078.89,-748.833 1078.89,-752.667 1078.89,-752.667 1078.89,-760.333 1078.89,-760.333 1078.89,-764.167 1075.06,-768 1071.23,-768"/>
<text text-anchor="middle" x="1050.39" y="-752.8" font-family="Times,serif" font-size="14.00">Hopper</text>
</g>
<!-- Hopper_epoch_8_0&#45;&gt;Hopper_epoch_11_0 -->
<g id="edge69" class="edge"><title>Hopper_epoch_8_0&#45;&gt;Hopper_epoch_11_0</title>
<path fill="none" stroke="#1b9e77" d="M904.793,-845.918C911.676,-840.182 920.926,-833.557 930.393,-830 964.671,-817.122 981.522,-841.693 1012.39,-822 1031.9,-809.558 1042.65,-783.235 1047.39,-768.35"/>
</g>
<!-- Hopper_epoch_13_0 -->
<g id="node88" class="node"><title>Hopper_epoch_13_0</title>
<path fill="none" stroke="#1b9e77" d="M1080.23,-667C1080.23,-667 1038.56,-667 1038.56,-667 1034.73,-667 1030.89,-663.167 1030.89,-659.333 1030.89,-659.333 1030.89,-651.667 1030.89,-651.667 1030.89,-647.833 1034.73,-644 1038.56,-644 1038.56,-644 1080.23,-644 1080.23,-644 1084.06,-644 1087.89,-647.833 1087.89,-651.667 1087.89,-651.667 1087.89,-659.333 1087.89,-659.333 1087.89,-663.167 1084.06,-667 1080.23,-667"/>
<text text-anchor="middle" x="1059.39" y="-651.8" font-family="Times,serif" font-size="14.00">Hopper</text>
</g>
<!-- Hopper_epoch_11_0&#45;&gt;Hopper_epoch_13_0 -->
<g id="edge70" class="edge"><title>Hopper_epoch_11_0&#45;&gt;Hopper_epoch_13_0</title>
<path fill="none" stroke="#1b9e77" d="M1051.36,-744.905C1053.09,-725.851 1056.71,-686.018 1058.44,-667.019"/>
</g>
<!-- Hopper_epoch_15_0 -->
<g id="node89" class="node"><title>Hopper_epoch_15_0</title>
<path fill="none" stroke="#1b9e77" d="M1080.23,-566C1080.23,-566 1038.56,-566 1038.56,-566 1034.73,-566 1030.89,-562.167 1030.89,-558.333 1030.89,-558.333 1030.89,-550.667 1030.89,-550.667 1030.89,-546.833 1034.73,-543 1038.56,-543 1038.56,-543 1080.23,-543 1080.23,-543 1084.06,-543 1087.89,-546.833 1087.89,-550.667 1087.89,-550.667 1087.89,-558.333 1087.89,-558.333 1087.89,-562.167 1084.06,-566 1080.23,-566"/>
<text text-anchor="middle" x="1059.39" y="-550.8" font-family="Times,serif" font-size="14.00">Hopper</text>
</g>
<!-- Hopper_epoch_13_0&#45;&gt;Hopper_epoch_15_0 -->
<g id="edge71" class="edge"><title>Hopper_epoch_13_0&#45;&gt;Hopper_epoch_15_0</title>
<path fill="none" stroke="#1b9e77" d="M1059.39,-643.905C1059.39,-624.851 1059.39,-585.018 1059.39,-566.019"/>
</g>
<!-- Hopper_epoch_16_0 -->
<g id="node90" class="node"><title>Hopper_epoch_16_0</title>
<path fill="none" stroke="#1b9e77" d="M1096.23,-465C1096.23,-465 1054.56,-465 1054.56,-465 1050.73,-465 1046.89,-461.167 1046.89,-457.333 1046.89,-457.333 1046.89,-449.667 1046.89,-449.667 1046.89,-445.833 1050.73,-442 1054.56,-442 1054.56,-442 1096.23,-442 1096.23,-442 1100.06,-442 1103.89,-445.833 1103.89,-449.667 1103.89,-449.667 1103.89,-457.333 1103.89,-457.333 1103.89,-461.167 1100.06,-465 1096.23,-465"/>
<text text-anchor="middle" x="1075.39" y="-449.8" font-family="Times,serif" font-size="14.00">Hopper</text>
</g>
<!-- Hopper_epoch_15_0&#45;&gt;Hopper_epoch_16_0 -->
<g id="edge72" class="edge"><title>Hopper_epoch_15_0&#45;&gt;Hopper_epoch_16_0</title>
<path fill="none" stroke="#1b9e77" d="M1061.11,-542.905C1064.18,-523.851 1070.62,-484.018 1073.69,-465.019"/>
</g>
<!-- Hopper_epoch_17_1 -->
<g id="node91" class="node"><title>Hopper_epoch_17_1</title>
<path fill="none" stroke="#1b9e77" d="M1096.23,-364C1096.23,-364 1054.56,-364 1054.56,-364 1050.73,-364 1046.89,-360.167 1046.89,-356.333 1046.89,-356.333 1046.89,-348.667 1046.89,-348.667 1046.89,-344.833 1050.73,-341 1054.56,-341 1054.56,-341 1096.23,-341 1096.23,-341 1100.06,-341 1103.89,-344.833 1103.89,-348.667 1103.89,-348.667 1103.89,-356.333 1103.89,-356.333 1103.89,-360.167 1100.06,-364 1096.23,-364"/>
<text text-anchor="middle" x="1075.39" y="-348.8" font-family="Times,serif" font-size="14.00">Hopper</text>
</g>
<!-- Hopper_epoch_16_0&#45;&gt;Hopper_epoch_17_1 -->
<g id="edge73" class="edge"><title>Hopper_epoch_16_0&#45;&gt;Hopper_epoch_17_1</title>
<path fill="none" stroke="#1b9e77" d="M1075.39,-441.905C1075.39,-422.851 1075.39,-383.018 1075.39,-364.019"/>
</g>
<!-- Steve_epoch_7_0 -->
<g id="node92" class="node"><title>Steve_epoch_7_0</title>
<path fill="none" stroke="#d95f02" d="M1719.23,-768C1719.23,-768 1687.56,-768 1687.56,-768 1683.73,-768 1679.89,-764.167 1679.89,-760.333 1679.89,-760.333 1679.89,-752.667 1679.89,-752.667 1679.89,-748.833 1683.73,-745 1687.56,-745 1687.56,-745 1719.23,-745 1719.23,-745 1723.06,-745 1726.89,-748.833 1726.89,-752.667 1726.89,-752.667 1726.89,-760.333 1726.89,-760.333 1726.89,-764.167 1723.06,-768 1719.23,-768"/>
<text text-anchor="middle" x="1703.39" y="-752.8" font-family="Times,serif" font-size="14.00">Steve</text>
</g>
<!-- Steve_epoch_18_1 -->
<g id="node93" class="node"><title>Steve_epoch_18_1</title>
<path fill="none" stroke="#d95f02" d="M1177.23,-248C1177.23,-248 1145.56,-248 1145.56,-248 1141.73,-248 1137.89,-244.167 1137.89,-240.333 1137.89,-240.333 1137.89,-232.667 1137.89,-232.667 1137.89,-228.833 1141.73,-225 1145.56,-225 1145.56,-225 1177.23,-225 1177.23,-225 1181.06,-225 1184.89,-228.833 1184.89,-232.667 1184.89,-232.667 1184.89,-240.333 1184.89,-240.333 1184.89,-244.167 1181.06,-248 1177.23,-248"/>
<text text-anchor="middle" x="1161.39" y="-232.8" font-family="Times,serif" font-size="14.00">Steve</text>
</g>
<!-- Steve_epoch_7_0&#45;&gt;Steve_epoch_18_1 -->
<g id="edge74" class="edge"><title>Steve_epoch_7_0&#45;&gt;Steve_epoch_18_1</title>
<path fill="none" stroke="#d95f02" d="M1707.82,-744.876C1719.71,-715.384 1751.39,-629.773 1751.39,-555.5 1751.39,-555.5 1751.39,-555.5 1751.39,-452.5 1751.39,-381.833 1716.54,-362.099 1656.39,-325 1575.25,-274.947 1272.02,-246.593 1184.92,-239.36"/>
</g>
<!-- Steve_epoch_19_1 -->
<g id="node94" class="node"><title>Steve_epoch_19_1</title>
<path fill="none" stroke="#d95f02" d="M1177.23,-147C1177.23,-147 1145.56,-147 1145.56,-147 1141.73,-147 1137.89,-143.167 1137.89,-139.333 1137.89,-139.333 1137.89,-131.667 1137.89,-131.667 1137.89,-127.833 1141.73,-124 1145.56,-124 1145.56,-124 1177.23,-124 1177.23,-124 1181.06,-124 1184.89,-127.833 1184.89,-131.667 1184.89,-131.667 1184.89,-139.333 1184.89,-139.333 1184.89,-143.167 1181.06,-147 1177.23,-147"/>
<text text-anchor="middle" x="1161.39" y="-131.8" font-family="Times,serif" font-size="14.00">Steve</text>
</g>
<!-- Steve_epoch_18_1&#45;&gt;Steve_epoch_19_1 -->
<g id="edge75" class="edge"><title>Steve_epoch_18_1&#45;&gt;Steve_epoch_19_1</title>
<path fill="none" stroke="#d95f02" d="M1161.39,-224.905C1161.39,-205.851 1161.39,-166.018 1161.39,-147.019"/>
</g>
<!-- Karen_epoch_2_0 -->
<g id="node95" class="node"><title>Karen_epoch_2_0</title>
<path fill="none" stroke="#7570b3" d="M1440.73,-1228C1440.73,-1228 1406.06,-1228 1406.06,-1228 1402.23,-1228 1398.39,-1224.17 1398.39,-1220.33 1398.39,-1220.33 1398.39,-1212.67 1398.39,-1212.67 1398.39,-1208.83 1402.23,-1205 1406.06,-1205 1406.06,-1205 1440.73,-1205 1440.73,-1205 1444.56,-1205 1448.39,-1208.83 1448.39,-1212.67 1448.39,-1212.67 1448.39,-1220.33 1448.39,-1220.33 1448.39,-1224.17 1444.56,-1228 1440.73,-1228"/>
<text text-anchor="middle" x="1423.39" y="-1212.8" font-family="Times,serif" font-size="14.00">Karen</text>
</g>
<!-- Karen_epoch_5_1 -->
<g id="node96" class="node"><title>Karen_epoch_5_1</title>
<path fill="none" stroke="#7570b3" d="M1605.73,-970C1605.73,-970 1571.06,-970 1571.06,-970 1567.23,-970 1563.39,-966.167 1563.39,-962.333 1563.39,-962.333 1563.39,-954.667 1563.39,-954.667 1563.39,-950.833 1567.23,-947 1571.06,-947 1571.06,-947 1605.73,-947 1605.73,-947 1609.56,-947 1613.39,-950.833 1613.39,-954.667 1613.39,-954.667 1613.39,-962.333 1613.39,-962.333 1613.39,-966.167 1609.56,-970 1605.73,-970"/>
<text text-anchor="middle" x="1588.39" y="-954.8" font-family="Times,serif" font-size="14.00">Karen</text>
</g>
<!-- Karen_epoch_2_0&#45;&gt;Karen_epoch_5_1 -->
<g id="edge76" class="edge"><title>Karen_epoch_2_0&#45;&gt;Karen_epoch_5_1</title>
<path fill="none" stroke="#7570b3" d="M1430.27,-1204.83C1457.11,-1163.19 1554.6,-1011.94 1581.48,-970.22"/>
</g>
<!-- Karen_epoch_17_0 -->
<g id="node97" class="node"><title>Karen_epoch_17_0</title>
<path fill="none" stroke="#7570b3" d="M1510.73,-364C1510.73,-364 1476.06,-364 1476.06,-364 1472.23,-364 1468.39,-360.167 1468.39,-356.333 1468.39,-356.333 1468.39,-348.667 1468.39,-348.667 1468.39,-344.833 1472.23,-341 1476.06,-341 1476.06,-341 1510.73,-341 1510.73,-341 1514.56,-341 1518.39,-344.833 1518.39,-348.667 1518.39,-348.667 1518.39,-356.333 1518.39,-356.333 1518.39,-360.167 1514.56,-364 1510.73,-364"/>
<text text-anchor="middle" x="1493.39" y="-348.8" font-family="Times,serif" font-size="14.00">Karen</text>
</g>
<!-- Karen_epoch_5_1&#45;&gt;Karen_epoch_17_0 -->
<g id="edge77" class="edge"><title>Karen_epoch_5_1&#45;&gt;Karen_epoch_17_0</title>
<path fill="none" stroke="#7570b3" d="M1577.66,-946.907C1571.38,-941.316 1563.01,-934.836 1554.39,-931 1535.84,-922.735 1523.17,-937.924 1509.39,-923 1459.26,-868.709 1493.39,-831.398 1493.39,-757.5 1493.39,-757.5 1493.39,-757.5 1493.39,-553.5 1493.39,-481.278 1493.39,-394.385 1493.39,-364.34"/>
</g>
<!-- The_Monster_epoch_4_0 -->
<g id="node98" class="node"><title>The_Monster_epoch_4_0</title>
<path fill="none" stroke="#e7298a" d="M1083.23,-1056C1083.23,-1056 1011.56,-1056 1011.56,-1056 1007.73,-1056 1003.89,-1052.17 1003.89,-1048.33 1003.89,-1048.33 1003.89,-1040.67 1003.89,-1040.67 1003.89,-1036.83 1007.73,-1033 1011.56,-1033 1011.56,-1033 1083.23,-1033 1083.23,-1033 1087.06,-1033 1090.89,-1036.83 1090.89,-1040.67 1090.89,-1040.67 1090.89,-1048.33 1090.89,-1048.33 1090.89,-1052.17 1087.06,-1056 1083.23,-1056"/>
<text text-anchor="middle" x="1047.39" y="-1040.8" font-family="Times,serif" font-size="14.00">The Monster</text>
</g>
<!-- Joyce_epoch_5_1 -->
<g id="node99" class="node"><title>Joyce_epoch_5_1</title>
<path fill="none" stroke="#66a61e" d="M1472.23,-970C1472.23,-970 1440.56,-970 1440.56,-970 1436.73,-970 1432.89,-966.167 1432.89,-962.333 1432.89,-962.333 1432.89,-954.667 1432.89,-954.667 1432.89,-950.833 1436.73,-947 1440.56,-947 1440.56,-947 1472.23,-947 1472.23,-947 1476.06,-947 1479.89,-950.833 1479.89,-954.667 1479.89,-954.667 1479.89,-962.333 1479.89,-962.333 1479.89,-966.167 1476.06,-970 1472.23,-970"/>
<text text-anchor="middle" x="1456.39" y="-954.8" font-family="Times,serif" font-size="14.00">Joyce</text>
</g>
<!-- Joyce_epoch_8_0 -->
<g id="node100" class="node"><title>Joyce_epoch_8_0</title>
<path fill="none" stroke="#66a61e" d="M631.226,-869C631.226,-869 599.56,-869 599.56,-869 595.726,-869 591.893,-865.167 591.893,-861.333 591.893,-861.333 591.893,-853.667 591.893,-853.667 591.893,-849.833 595.726,-846 599.56,-846 599.56,-846 631.226,-846 631.226,-846 635.06,-846 638.893,-849.833 638.893,-853.667 638.893,-853.667 638.893,-861.333 638.893,-861.333 638.893,-865.167 635.06,-869 631.226,-869"/>
<text text-anchor="middle" x="615.393" y="-853.8" font-family="Times,serif" font-size="14.00">Joyce</text>
</g>
<!-- Joyce_epoch_5_1&#45;&gt;Joyce_epoch_8_0 -->
<g id="edge78" class="edge"><title>Joyce_epoch_5_1&#45;&gt;Joyce_epoch_8_0</title>
<path fill="none" stroke="#66a61e" d="M1447.17,-946.904C1441.31,-941.007 1433.2,-934.224 1424.39,-931 1404.15,-923.588 666.724,-934.343 648.393,-923 629.14,-911.087 620.647,-884.039 617.301,-869.029"/>
</g>
<!-- Joyce_epoch_12_0 -->
<g id="node101" class="node"><title>Joyce_epoch_12_0</title>
<path fill="none" stroke="#66a61e" d="M650.226,-768C650.226,-768 618.56,-768 618.56,-768 614.726,-768 610.893,-764.167 610.893,-760.333 610.893,-760.333 610.893,-752.667 610.893,-752.667 610.893,-748.833 614.726,-745 618.56,-745 618.56,-745 650.226,-745 650.226,-745 654.06,-745 657.893,-748.833 657.893,-752.667 657.893,-752.667 657.893,-760.333 657.893,-760.333 657.893,-764.167 654.06,-768 650.226,-768"/>
<text text-anchor="middle" x="634.393" y="-752.8" font-family="Times,serif" font-size="14.00">Joyce</text>
</g>
<!-- Joyce_epoch_8_0&#45;&gt;Joyce_epoch_12_0 -->
<g id="edge79" class="edge"><title>Joyce_epoch_8_0&#45;&gt;Joyce_epoch_12_0</title>
<path fill="none" stroke="#66a61e" d="M617.426,-845.905C621.083,-826.851 628.728,-787.018 632.374,-768.019"/>
</g>
<!-- Joyce_epoch_14_1 -->
<g id="node102" class="node"><title>Joyce_epoch_14_1</title>
<path fill="none" stroke="#66a61e" d="M706.226,-667C706.226,-667 674.56,-667 674.56,-667 670.726,-667 666.893,-663.167 666.893,-659.333 666.893,-659.333 666.893,-651.667 666.893,-651.667 666.893,-647.833 670.726,-644 674.56,-644 674.56,-644 706.226,-644 706.226,-644 710.06,-644 713.893,-647.833 713.893,-651.667 713.893,-651.667 713.893,-659.333 713.893,-659.333 713.893,-663.167 710.06,-667 706.226,-667"/>
<text text-anchor="middle" x="690.393" y="-651.8" font-family="Times,serif" font-size="14.00">Joyce</text>
</g>
<!-- Joyce_epoch_12_0&#45;&gt;Joyce_epoch_14_1 -->
<g id="edge80" class="edge"><title>Joyce_epoch_12_0&#45;&gt;Joyce_epoch_14_1</title>
<path fill="none" stroke="#66a61e" d="M644.283,-744.884C650.049,-738.335 657.189,-729.572 662.393,-721 673.164,-703.261 681.977,-680.638 686.683,-667.441"/>
</g>
<!-- Joyce_epoch_15_0 -->
<g id="node103" class="node"><title>Joyce_epoch_15_0</title>
<path fill="none" stroke="#66a61e" d="M880.226,-566C880.226,-566 848.56,-566 848.56,-566 844.726,-566 840.893,-562.167 840.893,-558.333 840.893,-558.333 840.893,-550.667 840.893,-550.667 840.893,-546.833 844.726,-543 848.56,-543 848.56,-543 880.226,-543 880.226,-543 884.06,-543 887.893,-546.833 887.893,-550.667 887.893,-550.667 887.893,-558.333 887.893,-558.333 887.893,-562.167 884.06,-566 880.226,-566"/>
<text text-anchor="middle" x="864.393" y="-550.8" font-family="Times,serif" font-size="14.00">Joyce</text>
</g>
<!-- Joyce_epoch_14_1&#45;&gt;Joyce_epoch_15_0 -->
<g id="edge81" class="edge"><title>Joyce_epoch_14_1&#45;&gt;Joyce_epoch_15_0</title>
<path fill="none" stroke="#66a61e" d="M707.394,-643.952C717.478,-638.228 730.728,-631.603 743.393,-628 762.28,-622.627 815.123,-630.994 831.393,-620 849.944,-607.464 858.652,-581.178 862.236,-566.323"/>
</g>
<!-- Florence_epoch_8_0 -->
<g id="node104" class="node"><title>Florence_epoch_8_0</title>
<path fill="none" stroke="#e6ab02" d="M713.726,-869C713.726,-869 665.06,-869 665.06,-869 661.226,-869 657.393,-865.167 657.393,-861.333 657.393,-861.333 657.393,-853.667 657.393,-853.667 657.393,-849.833 661.226,-846 665.06,-846 665.06,-846 713.726,-846 713.726,-846 717.56,-846 721.393,-849.833 721.393,-853.667 721.393,-853.667 721.393,-861.333 721.393,-861.333 721.393,-865.167 717.56,-869 713.726,-869"/>
<text text-anchor="middle" x="689.393" y="-853.8" font-family="Times,serif" font-size="14.00">Florence</text>
</g>
<!-- Officer_Powell_epoch_8_0 -->
<g id="node105" class="node"><title>Officer_Powell_epoch_8_0</title>
<path fill="none" stroke="#a6761d" d="M1029.23,-869C1029.23,-869 947.56,-869 947.56,-869 943.726,-869 939.893,-865.167 939.893,-861.333 939.893,-861.333 939.893,-853.667 939.893,-853.667 939.893,-849.833 943.726,-846 947.56,-846 947.56,-846 1029.23,-846 1029.23,-846 1033.06,-846 1036.89,-849.833 1036.89,-853.667 1036.89,-853.667 1036.89,-861.333 1036.89,-861.333 1036.89,-865.167 1033.06,-869 1029.23,-869"/>
<text text-anchor="middle" x="988.393" y="-853.8" font-family="Times,serif" font-size="14.00">Officer Powell</text>
</g>
<!-- Officer_Powell_epoch_11_0 -->
<g id="node106" class="node"><title>Officer_Powell_epoch_11_0</title>
<path fill="none" stroke="#a6761d" d="M1186.23,-768C1186.23,-768 1104.56,-768 1104.56,-768 1100.73,-768 1096.89,-764.167 1096.89,-760.333 1096.89,-760.333 1096.89,-752.667 1096.89,-752.667 1096.89,-748.833 1100.73,-745 1104.56,-745 1104.56,-745 1186.23,-745 1186.23,-745 1190.06,-745 1193.89,-748.833 1193.89,-752.667 1193.89,-752.667 1193.89,-760.333 1193.89,-760.333 1193.89,-764.167 1190.06,-768 1186.23,-768"/>
<text text-anchor="middle" x="1145.39" y="-752.8" font-family="Times,serif" font-size="14.00">Officer Powell</text>
</g>
<!-- Officer_Powell_epoch_8_0&#45;&gt;Officer_Powell_epoch_11_0 -->
<g id="edge82" class="edge"><title>Officer_Powell_epoch_8_0&#45;&gt;Officer_Powell_epoch_11_0</title>
<path fill="none" stroke="#a6761d" d="M1006.1,-845.781C1015.89,-840.293 1028.47,-833.952 1040.39,-830 1060.51,-823.335 1068.83,-832.224 1087.39,-822 1110.87,-809.066 1129.74,-782.935 1139.06,-768.213"/>
</g>
<!-- Officer_Powell_epoch_13_0 -->
<g id="node107" class="node"><title>Officer_Powell_epoch_13_0</title>
<path fill="none" stroke="#a6761d" d="M1195.23,-667C1195.23,-667 1113.56,-667 1113.56,-667 1109.73,-667 1105.89,-663.167 1105.89,-659.333 1105.89,-659.333 1105.89,-651.667 1105.89,-651.667 1105.89,-647.833 1109.73,-644 1113.56,-644 1113.56,-644 1195.23,-644 1195.23,-644 1199.06,-644 1202.89,-647.833 1202.89,-651.667 1202.89,-651.667 1202.89,-659.333 1202.89,-659.333 1202.89,-663.167 1199.06,-667 1195.23,-667"/>
<text text-anchor="middle" x="1154.39" y="-651.8" font-family="Times,serif" font-size="14.00">Officer Powell</text>
</g>
<!-- Officer_Powell_epoch_11_0&#45;&gt;Officer_Powell_epoch_13_0 -->
<g id="edge83" class="edge"><title>Officer_Powell_epoch_11_0&#45;&gt;Officer_Powell_epoch_13_0</title>
<path fill="none" stroke="#a6761d" d="M1146.36,-744.905C1148.09,-725.851 1151.71,-686.018 1153.44,-667.019"/>
</g>
<!-- Officer_Powell_epoch_15_0 -->
<g id="node108" class="node"><title>Officer_Powell_epoch_15_0</title>
<path fill="none" stroke="#a6761d" d="M1195.23,-566C1195.23,-566 1113.56,-566 1113.56,-566 1109.73,-566 1105.89,-562.167 1105.89,-558.333 1105.89,-558.333 1105.89,-550.667 1105.89,-550.667 1105.89,-546.833 1109.73,-543 1113.56,-543 1113.56,-543 1195.23,-543 1195.23,-543 1199.06,-543 1202.89,-546.833 1202.89,-550.667 1202.89,-550.667 1202.89,-558.333 1202.89,-558.333 1202.89,-562.167 1199.06,-566 1195.23,-566"/>
<text text-anchor="middle" x="1154.39" y="-550.8" font-family="Times,serif" font-size="14.00">Officer Powell</text>
</g>
<!-- Officer_Powell_epoch_13_0&#45;&gt;Officer_Powell_epoch_15_0 -->
<g id="edge84" class="edge"><title>Officer_Powell_epoch_13_0&#45;&gt;Officer_Powell_epoch_15_0</title>
<path fill="none" stroke="#a6761d" d="M1154.39,-643.905C1154.39,-624.851 1154.39,-585.018 1154.39,-566.019"/>
</g>
<!-- Officer_Powell_epoch_16_0 -->
<g id="node109" class="node"><title>Officer_Powell_epoch_16_0</title>
<path fill="none" stroke="#a6761d" d="M1211.23,-465C1211.23,-465 1129.56,-465 1129.56,-465 1125.73,-465 1121.89,-461.167 1121.89,-457.333 1121.89,-457.333 1121.89,-449.667 1121.89,-449.667 1121.89,-445.833 1125.73,-442 1129.56,-442 1129.56,-442 1211.23,-442 1211.23,-442 1215.06,-442 1218.89,-445.833 1218.89,-449.667 1218.89,-449.667 1218.89,-457.333 1218.89,-457.333 1218.89,-461.167 1215.06,-465 1211.23,-465"/>
<text text-anchor="middle" x="1170.39" y="-449.8" font-family="Times,serif" font-size="14.00">Officer Powell</text>
</g>
<!-- Officer_Powell_epoch_15_0&#45;&gt;Officer_Powell_epoch_16_0 -->
<g id="edge85" class="edge"><title>Officer_Powell_epoch_15_0&#45;&gt;Officer_Powell_epoch_16_0</title>
<path fill="none" stroke="#a6761d" d="M1156.11,-542.905C1159.18,-523.851 1165.62,-484.018 1168.69,-465.019"/>
</g>
<!-- Officer_Powell_epoch_17_1 -->
<g id="node110" class="node"><title>Officer_Powell_epoch_17_1</title>
<path fill="none" stroke="#a6761d" d="M1211.23,-364C1211.23,-364 1129.56,-364 1129.56,-364 1125.73,-364 1121.89,-360.167 1121.89,-356.333 1121.89,-356.333 1121.89,-348.667 1121.89,-348.667 1121.89,-344.833 1125.73,-341 1129.56,-341 1129.56,-341 1211.23,-341 1211.23,-341 1215.06,-341 1218.89,-344.833 1218.89,-348.667 1218.89,-348.667 1218.89,-356.333 1218.89,-356.333 1218.89,-360.167 1215.06,-364 1211.23,-364"/>
<text text-anchor="middle" x="1170.39" y="-348.8" font-family="Times,serif" font-size="14.00">Officer Powell</text>
</g>
<!-- Officer_Powell_epoch_16_0&#45;&gt;Officer_Powell_epoch_17_1 -->
<g id="edge86" class="edge"><title>Officer_Powell_epoch_16_0&#45;&gt;Officer_Powell_epoch_17_1</title>
<path fill="none" stroke="#a6761d" d="M1170.39,-441.905C1170.39,-422.851 1170.39,-383.018 1170.39,-364.019"/>
</g>
</g>
</svg>
